<?xml version="1.0" encoding="UTF-8" standalone="no"?>
<!DOCTYPE svg PUBLIC "-//W3C//DTD SVG 1.1//EN"
 "http://www.w3.org/Graphics/SVG/1.1/DTD/svg11.dtd">
<!-- Generated by graphviz version 12.2.1 (20241206.2353)
 -->
<!-- Title: pipeline Pages: 1 -->
<svg width="388pt" height="830pt"
 viewBox="0.00 0.00 388.23 830.00" xmlns="http://www.w3.org/2000/svg" xmlns:xlink="http://www.w3.org/1999/xlink">
<g id="graph0" class="graph" transform="scale(1 1) rotate(0) translate(4 826)">
<title>pipeline</title>
<polygon fill="white" stroke="none" points="-4,4 -4,-826 384.23,-826 384.23,4 -4,4"/>
<g id="declare&#45;step_2" class="cluster">
<title>cluster_d324e451</title>
<polygon fill="none" stroke="black" points="8,-64 8,-814 286,-814 286,-64 8,-64"/>
<text text-anchor="middle" x="147" y="-796.7" font-family="Times,serif" font-size="14.00">!declare&#45;step_2</text>
</g>
<!-- d324e454 -->
<g id="node1" class="node">
<title>d324e454</title>
<polygon fill="none" stroke="black" points="152.5,-649.5 152.5,-672 269.5,-672 269.5,-649.5 152.5,-649.5"/>
<text text-anchor="start" x="193.38" y="-655.7" font-family="Times,serif" font-size="14.00">source</text>
<polygon fill="none" stroke="black" points="152.5,-610.5 152.5,-649.5 269.5,-649.5 269.5,-610.5 152.5,-610.5"/>
<text text-anchor="start" x="190" y="-633.2" font-family="Times,serif" font-size="14.00">cx:head</text>
<text text-anchor="start" x="155.5" y="-616.7" font-family="Times,serif" font-size="14.00">declare&#45;step_2_head</text>
<polygon fill="none" stroke="black" points="152.5,-588 152.5,-610.5 269.5,-610.5 269.5,-588 152.5,-588"/>
<text text-anchor="start" x="193.38" y="-594.2" font-family="Times,serif" font-size="14.00">source</text>
</g>
<!-- d324e462 -->
<g id="node4" class="node">
<title>d324e462</title>
<polygon fill="none" stroke="black" points="103,-521.5 103,-544 139.75,-544 139.75,-521.5 103,-521.5"/>
<text text-anchor="start" x="106" y="-527.7" font-family="Times,serif" font-size="14.00">query</text>
<polygon fill="none" stroke="black" points="139.75,-521.5 139.75,-544 181,-544 181,-521.5 139.75,-521.5"/>
<text text-anchor="start" x="142.75" y="-527.7" font-family="Times,serif" font-size="14.00">source</text>
<polygon fill="none" stroke="black" points="103,-482.5 103,-521.5 181,-521.5 181,-482.5 103,-482.5"/>
<text text-anchor="start" x="118" y="-505.2" font-family="Times,serif" font-size="14.00">p:xquery</text>
<text text-anchor="start" x="123.25" y="-488.7" font-family="Times,serif" font-size="14.00">xquery</text>
<polygon fill="none" stroke="black" points="103,-460 103,-482.5 181,-482.5 181,-460 103,-460"/>
<text text-anchor="start" x="127" y="-466.2" font-family="Times,serif" font-size="14.00">result</text>
</g>
<!-- d324e454&#45;&gt;d324e462 -->
<g id="edge8" class="edge">
<title>d324e454:d324e455&#45;&gt;d324e462:d324e464</title>
<path fill="none" stroke="black" d="M151.5,-599.25C144.71,-599.25 151.6,-590.73 152.5,-584 154.23,-570.99 157.73,-565.55 159.42,-556.38"/>
<polygon fill="black" stroke="black" points="162.9,-556.77 160.25,-546.51 155.92,-556.18 162.9,-556.77"/>
</g>
<!-- d324e456 -->
<g id="node2" class="node">
<title>d324e456</title>
<polygon fill="none" stroke="black" points="23.88,-738.5 23.88,-777.5 128.12,-777.5 128.12,-738.5 23.88,-738.5"/>
<text text-anchor="start" x="60.62" y="-761.2" font-family="Times,serif" font-size="14.00">$expr</text>
<text text-anchor="start" x="26.88" y="-744.7" font-family="Times,serif" font-size="14.00">expression_IC632</text>
<polygon fill="none" stroke="black" points="23.88,-716 23.88,-738.5 128.12,-738.5 128.12,-716 23.88,-716"/>
<text text-anchor="start" x="61" y="-722.2" font-family="Times,serif" font-size="14.00">result</text>
</g>
<!-- d324e458 -->
<g id="node3" class="node">
<title>d324e458</title>
<polygon fill="none" stroke="black" points="23.75,-649.5 23.75,-672 77,-672 77,-649.5 23.75,-649.5"/>
<text text-anchor="start" x="26.75" y="-655.7" font-family="Times,serif" font-size="14.00">Q{}expr</text>
<polygon fill="none" stroke="black" points="77,-649.5 77,-672 118.25,-672 118.25,-649.5 77,-649.5"/>
<text text-anchor="start" x="80" y="-655.7" font-family="Times,serif" font-size="14.00">source</text>
<polygon fill="none" stroke="black" points="23.75,-610.5 23.75,-649.5 118.25,-649.5 118.25,-610.5 23.75,-610.5"/>
<text text-anchor="start" x="47.38" y="-633.2" font-family="Times,serif" font-size="14.00">cx:inline</text>
<text text-anchor="start" x="55.62" y="-616.7" font-family="Times,serif" font-size="14.00">inline</text>
<polygon fill="none" stroke="black" points="23.75,-588 23.75,-610.5 118.25,-610.5 118.25,-588 23.75,-588"/>
<text text-anchor="start" x="56" y="-594.2" font-family="Times,serif" font-size="14.00">result</text>
</g>
<!-- d324e456&#45;&gt;d324e458 -->
<g id="edge3" class="edge">
<title>d324e456:d324e457&#45;&gt;d324e458:d324e459</title>
<path fill="none" stroke="black" d="M76,-715C76,-697.75 60.05,-695.19 53.31,-684.13"/>
<polygon fill="black" stroke="black" points="56.7,-683.24 50.76,-674.46 49.93,-685.03 56.7,-683.24"/>
</g>
<!-- d324e458&#45;&gt;d324e462 -->
<g id="edge4" class="edge">
<title>d324e458:d324e461&#45;&gt;d324e462:d324e463</title>
<path fill="none" stroke="black" d="M119.25,-599.25C139.7,-599.25 127.01,-577.61 122.67,-556.32"/>
<polygon fill="black" stroke="black" points="126.16,-556.04 121.55,-546.5 119.2,-556.84 126.16,-556.04"/>
</g>
<!-- d324e466 -->
<g id="node5" class="node">
<title>d324e466</title>
<polygon fill="none" stroke="black" points="115.38,-393.5 115.38,-416 168.62,-416 168.62,-393.5 115.38,-393.5"/>
<text text-anchor="start" x="124.38" y="-399.7" font-family="Times,serif" font-size="14.00">source</text>
<polygon fill="none" stroke="black" points="115.38,-354.5 115.38,-393.5 168.62,-393.5 168.62,-354.5 115.38,-354.5"/>
<text text-anchor="start" x="118.38" y="-377.2" font-family="Times,serif" font-size="14.00">cx:inline</text>
<text text-anchor="start" x="119.88" y="-360.7" font-family="Times,serif" font-size="14.00">inline_2</text>
<polygon fill="none" stroke="black" points="115.38,-332 115.38,-354.5 168.62,-354.5 168.62,-332 115.38,-332"/>
<text text-anchor="start" x="127" y="-338.2" font-family="Times,serif" font-size="14.00">result</text>
</g>
<!-- d324e462&#45;&gt;d324e466 -->
<g id="edge5" class="edge">
<title>d324e462:d324e465&#45;&gt;d324e466:d324e467</title>
<path fill="none" stroke="black" d="M142,-459C142,-444.85 142,-438.75 142,-428.5"/>
<polygon fill="black" stroke="black" points="145.5,-428.51 142,-418.51 138.5,-428.51 145.5,-428.51"/>
</g>
<!-- d324e469 -->
<g id="node6" class="node">
<title>d324e469</title>
<polygon fill="none" stroke="black" points="113.12,-265.5 113.12,-288 170.88,-288 170.88,-265.5 113.12,-265.5"/>
<text text-anchor="start" x="124.38" y="-271.7" font-family="Times,serif" font-size="14.00">source</text>
<polygon fill="none" stroke="black" points="113.12,-226.5 113.12,-265.5 170.88,-265.5 170.88,-226.5 113.12,-226.5"/>
<text text-anchor="start" x="116.12" y="-249.2" font-family="Times,serif" font-size="14.00">p:identity</text>
<text text-anchor="start" x="121.38" y="-232.7" font-family="Times,serif" font-size="14.00">identity</text>
<polygon fill="none" stroke="black" points="113.12,-204 113.12,-226.5 170.88,-226.5 170.88,-204 113.12,-204"/>
<text text-anchor="start" x="127" y="-210.2" font-family="Times,serif" font-size="14.00">result</text>
</g>
<!-- d324e466&#45;&gt;d324e469 -->
<g id="edge6" class="edge">
<title>d324e466:d324e468&#45;&gt;d324e469:d324e470</title>
<path fill="none" stroke="black" d="M142,-331C142,-316.85 142,-310.75 142,-300.5"/>
<polygon fill="black" stroke="black" points="145.5,-300.51 142,-290.51 138.5,-300.51 145.5,-300.51"/>
</g>
<!-- d324e472 -->
<g id="node7" class="node">
<title>d324e472</title>
<polygon fill="none" stroke="black" points="85.38,-137.5 85.38,-160 198.62,-160 198.62,-137.5 85.38,-137.5"/>
<text text-anchor="start" x="127" y="-143.7" font-family="Times,serif" font-size="14.00">result</text>
<polygon fill="none" stroke="black" points="85.38,-98.5 85.38,-137.5 198.62,-137.5 198.62,-98.5 85.38,-98.5"/>
<text text-anchor="start" x="122.88" y="-121.2" font-family="Times,serif" font-size="14.00">cx:foot</text>
<text text-anchor="start" x="88.38" y="-104.7" font-family="Times,serif" font-size="14.00">declare&#45;step_2_foot</text>
<polygon fill="none" stroke="black" points="85.38,-76 85.38,-98.5 198.62,-98.5 198.62,-76 85.38,-76"/>
<text text-anchor="start" x="127" y="-82.2" font-family="Times,serif" font-size="14.00">result</text>
</g>
<!-- d324e469&#45;&gt;d324e472 -->
<g id="edge7" class="edge">
<title>d324e469:d324e471&#45;&gt;d324e472:d324e473</title>
<path fill="none" stroke="black" d="M142,-203C142,-188.85 142,-182.75 142,-172.5"/>
<polygon fill="black" stroke="black" points="145.5,-172.51 142,-162.51 138.5,-172.51 145.5,-172.51"/>
</g>
<!-- d324e474 -->
<g id="node9" class="node">
<title>d324e474</title>
<polygon fill="none" stroke="black" points="180.8,-23.56 142,-36 103.2,-23.56 103.23,-3.44 180.77,-3.44 180.8,-23.56"/>
<text text-anchor="middle" x="142" y="-12.95" font-family="Times,serif" font-size="14.00">result</text>
</g>
<!-- d324e472&#45;&gt;d324e474 -->
<g id="edge2" class="edge">
<title>d324e472:O_d324e473&#45;&gt;d324e474</title>
<path fill="none" stroke="black" d="M142,-75C142,-66.04 142,-56.28 142,-47.45"/>
<polygon fill="black" stroke="black" points="145.5,-47.67 142,-37.67 138.5,-47.67 145.5,-47.67"/>
</g>
<!-- d324e450 -->
<g id="node8" class="node">
<title>d324e450</title>
<polygon fill="none" stroke="black" points="293.77,-741.19 337,-728.75 380.23,-741.19 380.19,-761.31 293.81,-761.31 293.77,-741.19"/>
<text text-anchor="middle" x="337" y="-741.7" font-family="Times,serif" font-size="14.00">source</text>
</g>
<!-- d324e450&#45;&gt;d324e454 -->
<g id="edge1" class="edge">
<title>d324e450&#45;&gt;d324e454:I_d324e455</title>
<path fill="none" stroke="black" d="M332.49,-729.76C325.37,-707.93 309.39,-670.55 281.69,-662.37"/>
<polygon fill="black" stroke="black" points="282.4,-658.93 272,-660.97 281.4,-665.86 282.4,-658.93"/>
</g>
</g>
</svg>
