<?xml version="1.0" encoding="UTF-8" standalone="no"?>
<!DOCTYPE svg PUBLIC "-//W3C//DTD SVG 1.1//EN"
 "http://www.w3.org/Graphics/SVG/1.1/DTD/svg11.dtd">
<!-- Generated by graphviz version 12.2.1 (20241206.2353)
 -->
<!-- Title: SPPF Pages: 1 -->
<svg width="688pt" height="1849pt"
 viewBox="0.00 0.00 688.00 1849.44" xmlns="http://www.w3.org/2000/svg" xmlns:xlink="http://www.w3.org/1999/xlink">
<g id="graph0" class="graph" transform="scale(1 1) rotate(0) translate(4 1845.44)">
<title>SPPF</title>
<polygon fill="none" stroke="none" points="-4,4 -4,-1845.44 684,-1845.44 684,4 -4,4"/>
<g id="clust1" class="cluster">
<title>cluster_id0</title>
<polygon fill="none" stroke="none" points="63,-979.36 63,-1064.41 157,-1064.41 157,-979.36 63,-979.36"/>
</g>
<g id="clust2" class="cluster">
<title>cluster_id1</title>
<polygon fill="none" stroke="none" points="8,-1084.41 8,-1156.27 114,-1156.27 114,-1084.41 8,-1084.41"/>
</g>
<g id="clust3" class="cluster">
<title>cluster_id2</title>
<polygon fill="none" stroke="none" points="17,-1176.27 17,-1248.13 111,-1248.13 111,-1176.27 17,-1176.27"/>
</g>
<g id="clust4" class="cluster">
<title>cluster_id3</title>
<polygon fill="none" stroke="none" points="206,-1360 206,-1431.86 296,-1431.86 296,-1360 206,-1360"/>
</g>
<g id="clust5" class="cluster">
<title>cluster_id9</title>
<polygon fill="none" stroke="none" points="130,-782.45 130,-867.5 224,-867.5 224,-782.45 130,-782.45"/>
</g>
<g id="clust6" class="cluster">
<title>cluster_id10</title>
<polygon fill="none" stroke="none" points="124,-887.5 124,-959.36 230,-959.36 230,-887.5 124,-887.5"/>
</g>
<g id="clust7" class="cluster">
<title>cluster_id11</title>
<polygon fill="none" stroke="none" points="122,-1103.34 122,-1248.13 230,-1248.13 230,-1103.34 122,-1103.34"/>
</g>
<g id="clust9" class="cluster">
<title>cluster_id12</title>
<polygon fill="none" stroke="none" points="217,-985.96 217,-1057.82 311,-1057.82 311,-985.96 217,-985.96"/>
</g>
<g id="clust10" class="cluster">
<title>cluster_id13</title>
<polygon fill="none" stroke="none" points="122,-1268.13 122,-1340 230,-1340 230,-1268.13 122,-1268.13"/>
</g>
<g id="clust11" class="cluster">
<title>cluster_id14</title>
<polygon fill="none" stroke="none" points="274,-1084.41 274,-1156.27 364,-1156.27 364,-1084.41 274,-1084.41"/>
</g>
<g id="clust12" class="cluster">
<title>cluster_id15</title>
<polygon fill="none" stroke="none" points="336,-1360 336,-1431.86 444,-1431.86 444,-1360 336,-1360"/>
</g>
<g id="clust13" class="cluster">
<title>cluster_id22</title>
<polygon fill="none" stroke="none" points="135,-585.54 135,-670.59 229,-670.59 229,-585.54 135,-585.54"/>
</g>
<g id="clust14" class="cluster">
<title>cluster_id23</title>
<polygon fill="none" stroke="none" points="196,-690.59 196,-762.45 286,-762.45 286,-690.59 196,-690.59"/>
</g>
<g id="clust15" class="cluster">
<title>cluster_id24</title>
<polygon fill="none" stroke="none" points="325,-789.05 325,-860.91 415,-860.91 415,-789.05 325,-789.05"/>
</g>
<g id="clust16" class="cluster">
<title>cluster_id32</title>
<polygon fill="none" stroke="none" points="348,-204.91 348,-289.96 442,-289.96 442,-204.91 348,-204.91"/>
</g>
<g id="clust17" class="cluster">
<title>cluster_id33</title>
<polygon fill="none" stroke="none" points="345,-309.96 345,-381.82 451,-381.82 451,-309.96 345,-309.96"/>
</g>
<g id="clust18" class="cluster">
<title>cluster_id34</title>
<polygon fill="none" stroke="none" points="345,-401.82 345,-473.68 439,-473.68 439,-401.82 345,-401.82"/>
</g>
<g id="clust19" class="cluster">
<title>cluster_id35</title>
<polygon fill="none" stroke="none" points="392,-493.68 392,-565.54 482,-565.54 482,-493.68 392,-493.68"/>
</g>
<g id="clust20" class="cluster">
<title>cluster_id44</title>
<polygon fill="none" stroke="none" points="348,-8 348,-93.05 442,-93.05 442,-8 348,-8"/>
</g>
<g id="clust21" class="cluster">
<title>cluster_id45</title>
<polygon fill="none" stroke="none" points="342,-113.05 342,-184.91 448,-184.91 448,-113.05 342,-113.05"/>
</g>
<g id="clust22" class="cluster">
<title>cluster_id46</title>
<polygon fill="none" stroke="none" points="229,-328.89 229,-473.68 337,-473.68 337,-328.89 229,-328.89"/>
</g>
<g id="clust24" class="cluster">
<title>cluster_id47</title>
<polygon fill="none" stroke="none" points="463,-211.5 463,-283.36 557,-283.36 557,-211.5 463,-211.5"/>
</g>
<g id="clust25" class="cluster">
<title>cluster_id48</title>
<polygon fill="none" stroke="none" points="234,-493.68 234,-565.54 342,-565.54 342,-493.68 234,-493.68"/>
</g>
<g id="clust26" class="cluster">
<title>cluster_id49</title>
<polygon fill="none" stroke="none" points="471,-309.96 471,-381.82 561,-381.82 561,-309.96 471,-309.96"/>
</g>
<g id="clust27" class="cluster">
<title>cluster_id50</title>
<polygon fill="none" stroke="none" points="237,-592.14 237,-664 345,-664 345,-592.14 237,-592.14"/>
</g>
<g id="clust28" class="cluster">
<title>cluster_id51</title>
<polygon fill="none" stroke="none" points="447,-401.82 447,-473.68 611,-473.68 611,-401.82 447,-401.82"/>
</g>
<g id="clust29" class="cluster">
<title>cluster_id52</title>
<polygon fill="none" stroke="none" points="353,-611.07 353,-762.45 517,-762.45 517,-611.07 353,-611.07"/>
</g>
<g id="clust31" class="cluster">
<title>cluster_id53</title>
<polygon fill="none" stroke="none" points="321,-906.43 321,-1057.82 485,-1057.82 485,-906.43 321,-906.43"/>
</g>
<g id="clust33" class="cluster">
<title>cluster_id54</title>
<polygon fill="none" stroke="none" points="238,-1195.2 238,-1340 402,-1340 402,-1195.2 238,-1195.2"/>
</g>
<g id="clust35" class="cluster">
<title>cluster_id55</title>
<polygon fill="none" stroke="none" points="309,-1460.86 309,-1595.72 473,-1595.72 473,-1460.86 309,-1460.86"/>
</g>
<g id="clust38" class="cluster">
<title>cluster_id56</title>
<polygon fill="none" stroke="none" points="482,-1369.93 482,-1503.86 672,-1503.86 672,-1369.93 482,-1369.93"/>
</g>
<g id="clust39" class="cluster">
<title>cluster_id57</title>
<polygon fill="none" stroke="none" points="409,-1615.72 409,-1741.58 517,-1741.58 517,-1615.72 409,-1615.72"/>
</g>
<g id="clust41" class="cluster">
<title>cluster_id58</title>
<polygon fill="none" stroke="none" points="409,-1761.58 409,-1833.44 517,-1833.44 517,-1761.58 409,-1761.58"/>
</g>
<!-- nodeid0 -->
<g id="node1" class="node">
<title>nodeid0</title>
<polygon fill="white" stroke="#d55e00" stroke-width="3" points="148.89,-1032.56 110,-1056.41 71.11,-1032.56 71.14,-993.96 148.86,-993.96 148.89,-1032.56"/>
<text text-anchor="start" x="102.5" y="-1024.34" font-family="Arial" font-size="14.00">&#39;X&#39;</text>
<text text-anchor="start" x="95.75" y="-1008.59" font-family="Arial" font-size="14.00">« 1 »</text>
</g>
<!-- nodeid10 -->
<g id="node6" class="node">
<title>nodeid10</title>
<ellipse fill="white" stroke="#d55e00" stroke-width="3" cx="177" cy="-923.43" rx="44.72" ry="27.93"/>
<text text-anchor="start" x="153.38" y="-925.88" font-family="Arial" font-size="14.00">$3_plus</text>
<text text-anchor="start" x="162.75" y="-910.13" font-family="Arial" font-size="14.00">« 2 »</text>
</g>
<!-- nodeid0&#45;&gt;nodeid10 -->
<!-- nodeid1 -->
<g id="node2" class="node">
<title>nodeid1</title>
<ellipse fill="white" stroke="black" cx="61" cy="-1120.34" rx="44.72" ry="27.93"/>
<text text-anchor="start" x="37.38" y="-1122.79" font-family="Arial" font-size="14.00">$3_plus</text>
<text text-anchor="start" x="46.75" y="-1107.04" font-family="Arial" font-size="14.00">« 1 »</text>
</g>
<!-- nodeid1&#45;&gt;nodeid0 -->
<g id="edge1" class="edge">
<title>nodeid1&#45;&gt;nodeid0</title>
<path fill="none" stroke="black" d="M74.26,-1093.24C79.51,-1082.9 85.64,-1070.83 91.33,-1059.64"/>
<polygon fill="black" stroke="black" points="94.29,-1061.53 95.7,-1051.03 88.05,-1058.36 94.29,-1061.53"/>
</g>
<!-- nodeid2 -->
<g id="node3" class="node">
<title>nodeid2</title>
<ellipse fill="white" stroke="black" cx="64" cy="-1212.2" rx="38.89" ry="27.93"/>
<text text-anchor="start" x="44.5" y="-1214.65" font-family="Arial" font-size="14.00">roman</text>
<text text-anchor="start" x="49.75" y="-1198.9" font-family="Arial" font-size="14.00">« 1 »</text>
</g>
<!-- nodeid2&#45;&gt;nodeid1 -->
<g id="edge2" class="edge">
<title>nodeid2&#45;&gt;nodeid1</title>
<path fill="none" stroke="black" d="M63.1,-1184.24C62.84,-1176.58 62.56,-1168.09 62.29,-1159.88"/>
<polygon fill="black" stroke="black" points="65.79,-1159.99 61.96,-1150.11 58.8,-1160.22 65.79,-1159.99"/>
</g>
<!-- nodeid3 -->
<g id="node4" class="node">
<title>nodeid3</title>
<ellipse fill="white" stroke="black" cx="251" cy="-1395.93" rx="37.3" ry="27.93"/>
<text text-anchor="start" x="232.62" y="-1398.38" font-family="Arial" font-size="14.00">$1_alt</text>
<text text-anchor="start" x="236.75" y="-1382.63" font-family="Arial" font-size="14.00">« 1 »</text>
</g>
<!-- nodeid3&#45;&gt;nodeid2 -->
<g id="edge3" class="edge">
<title>nodeid3&#45;&gt;nodeid2</title>
<path fill="none" stroke="black" d="M214.88,-1387.95C185.45,-1380.58 144.55,-1366.26 118,-1340 93.56,-1315.82 79.54,-1278.83 71.95,-1251.04"/>
<polygon fill="black" stroke="black" points="75.4,-1250.42 69.54,-1241.59 68.62,-1252.15 75.4,-1250.42"/>
</g>
<!-- nodeid54 -->
<g id="node33" class="node">
<title>nodeid54</title>
<ellipse fill="white" stroke="black" cx="320" cy="-1304.06" rx="73.89" ry="27.93"/>
<text text-anchor="start" x="275.75" y="-1306.51" font-family="Arial" font-size="14.00">$2_$1_alt&#45;plus</text>
<text text-anchor="start" x="295.25" y="-1290.76" font-family="Arial" font-size="14.00">« 2 – 6 »</text>
</g>
<!-- nodeid3&#45;&gt;nodeid54 -->
<!-- nodeid9 -->
<g id="node5" class="node">
<title>nodeid9</title>
<polygon fill="white" stroke="#d55e00" stroke-width="3" points="215.89,-835.65 177,-859.5 138.11,-835.65 138.14,-797.05 215.86,-797.05 215.89,-835.65"/>
<text text-anchor="start" x="169.5" y="-827.43" font-family="Arial" font-size="14.00">&#39;V&#39;</text>
<text text-anchor="start" x="162.75" y="-811.68" font-family="Arial" font-size="14.00">« 2 »</text>
</g>
<!-- nodeid10&#45;&gt;nodeid9 -->
<g id="edge4" class="edge">
<title>nodeid10&#45;&gt;nodeid9</title>
<path fill="none" stroke="black" d="M177,-894.01C177,-887.23 177,-879.82 177,-872.45"/>
<polygon fill="black" stroke="black" points="180.5,-872.54 177,-862.54 173.5,-872.54 180.5,-872.54"/>
</g>
<!-- nodeid11 -->
<g id="node7" class="node">
<title>nodeid11</title>
<ellipse fill="white" stroke="#d55e00" stroke-width="3" cx="176" cy="-1212.2" rx="46.32" ry="27.93"/>
<text text-anchor="start" x="152.38" y="-1214.65" font-family="Arial" font-size="14.00">$3_plus</text>
<text text-anchor="start" x="151.25" y="-1198.9" font-family="Arial" font-size="14.00">« 1 – 3 »</text>
</g>
<!-- anond3e13 -->
<g id="node8" class="node">
<title>anond3e13</title>
<ellipse fill="none" stroke="black" cx="176" cy="-1120.34" rx="9" ry="9"/>
</g>
<!-- nodeid11&#45;&gt;anond3e13 -->
<g id="edge5" class="edge">
<title>nodeid11&#45;&gt;anond3e13</title>
<path fill="none" stroke="black" d="M176,-1183.26C176,-1169.5 176,-1153.24 176,-1140.83"/>
<polygon fill="black" stroke="black" points="179.5,-1141.08 176,-1131.08 172.5,-1141.08 179.5,-1141.08"/>
</g>
<!-- anond3e13&#45;&gt;nodeid0 -->
<g id="edge7" class="edge">
<title>anond3e13&#45;&gt;nodeid0</title>
<path fill="none" stroke="black" d="M171.25,-1112.41C163.34,-1100.85 146.97,-1076.91 133.14,-1056.7"/>
<polygon fill="black" stroke="black" points="136.19,-1054.97 127.66,-1048.69 130.41,-1058.92 136.19,-1054.97"/>
</g>
<!-- anond3e13&#45;&gt;nodeid10 -->
<g id="edge8" class="edge">
<title>anond3e13&#45;&gt;nodeid10</title>
<path fill="none" stroke="black" d="M176.04,-1110.97C176.17,-1085.98 176.56,-1010.78 176.8,-963.84"/>
<polygon fill="black" stroke="black" points="180.3,-964.1 176.85,-954.08 173.3,-964.06 180.3,-964.1"/>
</g>
<!-- nodeid12 -->
<g id="node9" class="node">
<title>nodeid12</title>
<ellipse fill="white" stroke="black" cx="264" cy="-1021.89" rx="38.89" ry="27.93"/>
<text text-anchor="start" x="244.5" y="-1024.34" font-family="Arial" font-size="14.00">roman</text>
<text text-anchor="start" x="249.75" y="-1008.59" font-family="Arial" font-size="14.00">« 2 »</text>
</g>
<!-- nodeid12&#45;&gt;nodeid10 -->
<g id="edge9" class="edge">
<title>nodeid12&#45;&gt;nodeid10</title>
<path fill="none" stroke="black" d="M243.38,-998.03C232.5,-985.96 218.95,-970.94 206.93,-957.62"/>
<polygon fill="black" stroke="black" points="209.61,-955.36 200.31,-950.28 204.41,-960.05 209.61,-955.36"/>
</g>
<!-- nodeid13 -->
<g id="node10" class="node">
<title>nodeid13</title>
<ellipse fill="white" stroke="#d55e00" stroke-width="3" cx="176" cy="-1304.06" rx="46.32" ry="27.93"/>
<text text-anchor="start" x="156.5" y="-1306.51" font-family="Arial" font-size="14.00">roman</text>
<text text-anchor="start" x="151.25" y="-1290.76" font-family="Arial" font-size="14.00">« 1 – 3 »</text>
</g>
<!-- nodeid13&#45;&gt;nodeid11 -->
<g id="edge10" class="edge">
<title>nodeid13&#45;&gt;nodeid11</title>
<path fill="none" stroke="black" d="M176,-1275.12C176,-1268.09 176,-1260.41 176,-1252.92"/>
<polygon fill="black" stroke="black" points="179.5,-1252.95 176,-1242.95 172.5,-1252.95 179.5,-1252.95"/>
</g>
<!-- nodeid14 -->
<g id="node11" class="node">
<title>nodeid14</title>
<ellipse fill="white" stroke="black" cx="319" cy="-1120.34" rx="37.3" ry="27.93"/>
<text text-anchor="start" x="300.62" y="-1122.79" font-family="Arial" font-size="14.00">$1_alt</text>
<text text-anchor="start" x="304.75" y="-1107.04" font-family="Arial" font-size="14.00">« 2 »</text>
</g>
<!-- nodeid14&#45;&gt;nodeid12 -->
<g id="edge11" class="edge">
<title>nodeid14&#45;&gt;nodeid12</title>
<path fill="none" stroke="black" d="M304.69,-1094.25C298.38,-1083.17 290.84,-1069.96 283.99,-1057.94"/>
<polygon fill="black" stroke="black" points="287.17,-1056.46 279.18,-1049.5 281.09,-1059.92 287.17,-1056.46"/>
</g>
<!-- nodeid53 -->
<g id="node31" class="node">
<title>nodeid53</title>
<ellipse fill="white" stroke="#d55e00" stroke-width="3" cx="403" cy="-1021.89" rx="73.89" ry="27.93"/>
<text text-anchor="start" x="358.75" y="-1024.34" font-family="Arial" font-size="14.00">$2_$1_alt&#45;plus</text>
<text text-anchor="start" x="378.25" y="-1008.59" font-family="Arial" font-size="14.00">« 3 – 6 »</text>
</g>
<!-- nodeid14&#45;&gt;nodeid53 -->
<!-- nodeid15 -->
<g id="node12" class="node">
<title>nodeid15</title>
<ellipse fill="white" stroke="#d55e00" stroke-width="3" cx="390" cy="-1395.93" rx="46.32" ry="27.93"/>
<text text-anchor="start" x="371.62" y="-1398.38" font-family="Arial" font-size="14.00">$1_alt</text>
<text text-anchor="start" x="365.25" y="-1382.63" font-family="Arial" font-size="14.00">« 1 – 3 »</text>
</g>
<!-- nodeid15&#45;&gt;nodeid13 -->
<g id="edge12" class="edge">
<title>nodeid15&#45;&gt;nodeid13</title>
<path fill="none" stroke="black" d="M351.25,-1379.15C335.46,-1372.91 316.95,-1365.84 300,-1360 271.03,-1350 262.01,-1352.44 234,-1340 228.43,-1337.52 222.73,-1334.61 217.19,-1331.55"/>
<polygon fill="black" stroke="black" points="219.17,-1328.65 208.76,-1326.69 215.67,-1334.72 219.17,-1328.65"/>
</g>
<!-- nodeid15&#45;&gt;nodeid53 -->
<!-- nodeid22 -->
<g id="node13" class="node">
<title>nodeid22</title>
<polygon fill="white" stroke="#d55e00" stroke-width="3" points="220.89,-638.74 182,-662.59 143.11,-638.74 143.14,-600.14 220.86,-600.14 220.89,-638.74"/>
<text text-anchor="start" x="177.12" y="-630.52" font-family="Arial" font-size="14.00">&#39; &#39;</text>
<text text-anchor="start" x="167.75" y="-614.77" font-family="Arial" font-size="14.00">« 3 »</text>
</g>
<!-- nodeid23 -->
<g id="node14" class="node">
<title>nodeid23</title>
<ellipse fill="white" stroke="#d55e00" stroke-width="3" cx="241" cy="-726.52" rx="36.77" ry="27.93"/>
<text text-anchor="start" x="223" y="-728.97" font-family="Arial" font-size="14.00">space</text>
<text text-anchor="start" x="226.75" y="-713.22" font-family="Arial" font-size="14.00">« 3 »</text>
</g>
<!-- nodeid23&#45;&gt;nodeid22 -->
<g id="edge13" class="edge">
<title>nodeid23&#45;&gt;nodeid22</title>
<path fill="none" stroke="black" d="M225.34,-699.93C218.62,-688.94 210.66,-675.92 203.41,-664.07"/>
<polygon fill="black" stroke="black" points="206.52,-662.44 198.31,-655.74 200.55,-666.1 206.52,-662.44"/>
</g>
<!-- nodeid24 -->
<g id="node15" class="node">
<title>nodeid24</title>
<ellipse fill="white" stroke="#d55e00" stroke-width="3" cx="370" cy="-824.98" rx="37.3" ry="27.93"/>
<text text-anchor="start" x="351.62" y="-827.43" font-family="Arial" font-size="14.00">$1_alt</text>
<text text-anchor="start" x="355.75" y="-811.68" font-family="Arial" font-size="14.00">« 3 »</text>
</g>
<!-- nodeid24&#45;&gt;nodeid23 -->
<g id="edge14" class="edge">
<title>nodeid24&#45;&gt;nodeid23</title>
<path fill="none" stroke="black" d="M343.27,-803.99C323.99,-789.57 297.74,-769.95 276.67,-754.19"/>
<polygon fill="black" stroke="black" points="279.01,-751.57 268.91,-748.39 274.82,-757.18 279.01,-751.57"/>
</g>
<!-- nodeid52 -->
<g id="node29" class="node">
<title>nodeid52</title>
<ellipse fill="white" stroke="#d55e00" stroke-width="3" cx="435" cy="-726.52" rx="73.89" ry="27.93"/>
<text text-anchor="start" x="390.75" y="-728.97" font-family="Arial" font-size="14.00" fill="#0072b2">$2_$1_alt&#45;plus</text>
<text text-anchor="start" x="401.62" y="-713.22" font-family="Arial" font-size="14.00" fill="#0072b2">« 4 – 6 » / 2</text>
</g>
<!-- nodeid24&#45;&gt;nodeid52 -->
<!-- nodeid32 -->
<g id="node16" class="node">
<title>nodeid32</title>
<polygon fill="white" stroke="#d55e00" stroke-width="3" points="433.89,-258.1 395,-281.96 356.11,-258.1 356.14,-219.5 433.86,-219.5 433.89,-258.1"/>
<text text-anchor="start" x="387.12" y="-249.88" font-family="Arial" font-size="14.00">&#39;C&#39;</text>
<text text-anchor="start" x="380.75" y="-234.13" font-family="Arial" font-size="14.00">« 4 »</text>
</g>
<!-- nodeid45 -->
<g id="node21" class="node">
<title>nodeid45</title>
<ellipse fill="white" stroke="#d55e00" stroke-width="3" cx="395" cy="-148.98" rx="44.72" ry="27.93"/>
<text text-anchor="start" x="371.38" y="-151.43" font-family="Arial" font-size="14.00">$3_plus</text>
<text text-anchor="start" x="380.75" y="-135.68" font-family="Arial" font-size="14.00">« 5 »</text>
</g>
<!-- nodeid32&#45;&gt;nodeid45 -->
<!-- nodeid33 -->
<g id="node17" class="node">
<title>nodeid33</title>
<ellipse fill="white" stroke="black" cx="398" cy="-345.89" rx="44.72" ry="27.93"/>
<text text-anchor="start" x="374.38" y="-348.34" font-family="Arial" font-size="14.00">$3_plus</text>
<text text-anchor="start" x="383.75" y="-332.59" font-family="Arial" font-size="14.00">« 4 »</text>
</g>
<!-- nodeid33&#45;&gt;nodeid32 -->
<g id="edge15" class="edge">
<title>nodeid33&#45;&gt;nodeid32</title>
<path fill="none" stroke="black" d="M397.15,-317.51C396.92,-310.25 396.67,-302.21 396.43,-294.26"/>
<polygon fill="black" stroke="black" points="399.92,-294.17 396.11,-284.28 392.93,-294.38 399.92,-294.17"/>
</g>
<!-- nodeid34 -->
<g id="node18" class="node">
<title>nodeid34</title>
<ellipse fill="white" stroke="black" cx="392" cy="-437.75" rx="38.89" ry="27.93"/>
<text text-anchor="start" x="372.5" y="-440.2" font-family="Arial" font-size="14.00">roman</text>
<text text-anchor="start" x="377.75" y="-424.45" font-family="Arial" font-size="14.00">« 4 »</text>
</g>
<!-- nodeid34&#45;&gt;nodeid33 -->
<g id="edge16" class="edge">
<title>nodeid34&#45;&gt;nodeid33</title>
<path fill="none" stroke="black" d="M393.8,-409.79C394.31,-402.13 394.88,-393.63 395.43,-385.43"/>
<polygon fill="black" stroke="black" points="398.91,-385.86 396.08,-375.65 391.92,-385.4 398.91,-385.86"/>
</g>
<!-- nodeid35 -->
<g id="node19" class="node">
<title>nodeid35</title>
<ellipse fill="white" stroke="black" cx="437" cy="-529.61" rx="37.3" ry="27.93"/>
<text text-anchor="start" x="418.62" y="-532.06" font-family="Arial" font-size="14.00">$1_alt</text>
<text text-anchor="start" x="422.75" y="-516.31" font-family="Arial" font-size="14.00">« 4 »</text>
</g>
<!-- nodeid35&#45;&gt;nodeid34 -->
<g id="edge17" class="edge">
<title>nodeid35&#45;&gt;nodeid34</title>
<path fill="none" stroke="black" d="M424.23,-503.1C419.76,-494.19 414.66,-484 409.86,-474.41"/>
<polygon fill="black" stroke="black" points="413.09,-473.05 405.48,-465.68 406.83,-476.19 413.09,-473.05"/>
</g>
<!-- nodeid51 -->
<g id="node28" class="node">
<title>nodeid51</title>
<ellipse fill="white" stroke="black" cx="529" cy="-437.75" rx="73.89" ry="27.93"/>
<text text-anchor="start" x="484.75" y="-440.2" font-family="Arial" font-size="14.00">$2_$1_alt&#45;plus</text>
<text text-anchor="start" x="514.75" y="-424.45" font-family="Arial" font-size="14.00">« 5 »</text>
</g>
<!-- nodeid35&#45;&gt;nodeid51 -->
<!-- nodeid44 -->
<g id="node20" class="node">
<title>nodeid44</title>
<polygon fill="white" stroke="#d55e00" stroke-width="3" points="433.89,-61.19 395,-85.05 356.11,-61.19 356.14,-22.59 433.86,-22.59 433.89,-61.19"/>
<text text-anchor="start" x="388.25" y="-52.97" font-family="Arial" font-size="14.00">&#39;L&#39;</text>
<text text-anchor="start" x="380.75" y="-37.22" font-family="Arial" font-size="14.00">« 5 »</text>
</g>
<!-- nodeid45&#45;&gt;nodeid44 -->
<g id="edge18" class="edge">
<title>nodeid45&#45;&gt;nodeid44</title>
<path fill="none" stroke="black" d="M395,-119.56C395,-112.78 395,-105.36 395,-98"/>
<polygon fill="black" stroke="black" points="398.5,-98.09 395,-88.09 391.5,-98.09 398.5,-98.09"/>
</g>
<!-- nodeid46 -->
<g id="node22" class="node">
<title>nodeid46</title>
<ellipse fill="white" stroke="#d55e00" stroke-width="3" cx="283" cy="-437.75" rx="46.32" ry="27.93"/>
<text text-anchor="start" x="259.38" y="-440.2" font-family="Arial" font-size="14.00">$3_plus</text>
<text text-anchor="start" x="258.25" y="-424.45" font-family="Arial" font-size="14.00">« 4 – 6 »</text>
</g>
<!-- anond3e41 -->
<g id="node23" class="node">
<title>anond3e41</title>
<ellipse fill="none" stroke="black" cx="320" cy="-345.89" rx="9" ry="9"/>
</g>
<!-- nodeid46&#45;&gt;anond3e41 -->
<g id="edge19" class="edge">
<title>nodeid46&#45;&gt;anond3e41</title>
<path fill="none" stroke="black" d="M294.3,-409.3C300.16,-395.06 307.17,-378.05 312.38,-365.39"/>
<polygon fill="black" stroke="black" points="315.59,-366.79 316.16,-356.21 309.12,-364.12 315.59,-366.79"/>
</g>
<!-- anond3e41&#45;&gt;nodeid32 -->
<g id="edge21" class="edge">
<title>anond3e41&#45;&gt;nodeid32</title>
<path fill="none" stroke="black" d="M323.98,-337.42C327.95,-330.18 334.41,-318.99 341,-309.96 348.7,-299.41 357.83,-288.51 366.37,-278.87"/>
<polygon fill="black" stroke="black" points="368.88,-281.31 372.98,-271.54 363.68,-276.63 368.88,-281.31"/>
</g>
<!-- anond3e41&#45;&gt;nodeid45 -->
<g id="edge22" class="edge">
<title>anond3e41&#45;&gt;nodeid45</title>
<path fill="none" stroke="black" d="M319.82,-336.5C319.65,-313.95 321.38,-250.67 344,-204.91 348.23,-196.36 354.22,-188.2 360.61,-180.91"/>
<polygon fill="black" stroke="black" points="362.91,-183.58 367.19,-173.88 357.8,-178.79 362.91,-183.58"/>
</g>
<!-- nodeid47 -->
<g id="node24" class="node">
<title>nodeid47</title>
<ellipse fill="white" stroke="black" cx="510" cy="-247.43" rx="38.89" ry="27.93"/>
<text text-anchor="start" x="490.5" y="-249.88" font-family="Arial" font-size="14.00">roman</text>
<text text-anchor="start" x="495.75" y="-234.13" font-family="Arial" font-size="14.00">« 5 »</text>
</g>
<!-- nodeid47&#45;&gt;nodeid45 -->
<g id="edge23" class="edge">
<title>nodeid47&#45;&gt;nodeid45</title>
<path fill="none" stroke="black" d="M485.05,-225.5C469.04,-212.08 448.01,-194.44 430.3,-179.59"/>
<polygon fill="black" stroke="black" points="432.98,-177.27 423.07,-173.52 428.48,-182.63 432.98,-177.27"/>
</g>
<!-- nodeid48 -->
<g id="node25" class="node">
<title>nodeid48</title>
<ellipse fill="white" stroke="#d55e00" stroke-width="3" cx="288" cy="-529.61" rx="46.32" ry="27.93"/>
<text text-anchor="start" x="268.5" y="-532.06" font-family="Arial" font-size="14.00">roman</text>
<text text-anchor="start" x="263.25" y="-516.31" font-family="Arial" font-size="14.00">« 4 – 6 »</text>
</g>
<!-- nodeid48&#45;&gt;nodeid46 -->
<g id="edge24" class="edge">
<title>nodeid48&#45;&gt;nodeid46</title>
<path fill="none" stroke="black" d="M286.45,-500.67C286.05,-493.64 285.63,-485.96 285.21,-478.47"/>
<polygon fill="black" stroke="black" points="288.71,-478.28 284.65,-468.49 281.72,-478.67 288.71,-478.28"/>
</g>
<!-- nodeid49 -->
<g id="node26" class="node">
<title>nodeid49</title>
<ellipse fill="white" stroke="black" cx="516" cy="-345.89" rx="37.3" ry="27.93"/>
<text text-anchor="start" x="497.62" y="-348.34" font-family="Arial" font-size="14.00">$1_alt</text>
<text text-anchor="start" x="501.75" y="-332.59" font-family="Arial" font-size="14.00">« 5 »</text>
</g>
<!-- nodeid49&#45;&gt;nodeid47 -->
<g id="edge25" class="edge">
<title>nodeid49&#45;&gt;nodeid47</title>
<path fill="none" stroke="black" d="M514.3,-317.51C513.7,-307.96 513.02,-297.06 512.39,-286.78"/>
<polygon fill="black" stroke="black" points="515.89,-286.82 511.78,-277.06 508.91,-287.26 515.89,-286.82"/>
</g>
<!-- nodeid50 -->
<g id="node27" class="node">
<title>nodeid50</title>
<ellipse fill="white" stroke="#d55e00" stroke-width="3" cx="291" cy="-628.07" rx="46.32" ry="27.93"/>
<text text-anchor="start" x="272.62" y="-630.52" font-family="Arial" font-size="14.00">$1_alt</text>
<text text-anchor="start" x="266.25" y="-614.77" font-family="Arial" font-size="14.00">« 4 – 6 »</text>
</g>
<!-- nodeid50&#45;&gt;nodeid48 -->
<g id="edge26" class="edge">
<title>nodeid50&#45;&gt;nodeid48</title>
<path fill="none" stroke="black" d="M290.12,-598.65C289.84,-589.72 289.53,-579.7 289.23,-570.14"/>
<polygon fill="black" stroke="black" points="292.73,-570.23 288.92,-560.34 285.74,-570.44 292.73,-570.23"/>
</g>
<!-- nodeid51&#45;&gt;nodeid49 -->
<g id="edge27" class="edge">
<title>nodeid51&#45;&gt;nodeid49</title>
<path fill="none" stroke="black" d="M525.1,-409.79C523.99,-402.13 522.76,-393.63 521.58,-385.43"/>
<polygon fill="black" stroke="black" points="525.06,-385.04 520.16,-375.64 518.13,-386.04 525.06,-385.04"/>
</g>
<!-- nodeid52&#45;&gt;nodeid50 -->
<g id="edge28" class="edge">
<title>nodeid52&#45;&gt;nodeid50</title>
<path fill="none" stroke="black" d="M396.19,-701.34C381.31,-691.92 364.26,-680.92 349,-670.59 342.8,-666.39 336.29,-661.86 329.97,-657.39"/>
<polygon fill="black" stroke="black" points="332.3,-654.76 322.12,-651.8 328.24,-660.46 332.3,-654.76"/>
</g>
<!-- anond3e57 -->
<g id="node30" class="node">
<title>anond3e57</title>
<ellipse fill="none" stroke="black" cx="437" cy="-628.07" rx="9" ry="9"/>
</g>
<!-- nodeid52&#45;&gt;anond3e57 -->
<g id="edge29" class="edge">
<title>nodeid52&#45;&gt;anond3e57</title>
<path fill="none" stroke="black" d="M435.59,-697.1C435.91,-681.45 436.31,-662.42 436.6,-648.47"/>
<polygon fill="black" stroke="black" points="440.09,-648.92 436.8,-638.85 433.09,-648.77 440.09,-648.92"/>
</g>
<!-- anond3e57&#45;&gt;nodeid35 -->
<g id="edge31" class="edge">
<title>anond3e57&#45;&gt;nodeid35</title>
<path fill="none" stroke="black" d="M437,-618.84C437,-607.8 437,-587.45 437,-569.07"/>
<polygon fill="black" stroke="black" points="440.5,-569.21 437,-559.21 433.5,-569.21 440.5,-569.21"/>
</g>
<!-- anond3e57&#45;&gt;nodeid51 -->
<g id="edge32" class="edge">
<title>anond3e57&#45;&gt;nodeid51</title>
<path fill="none" stroke="black" d="M442.93,-621.12C453.04,-610.69 473.7,-588.07 486,-565.54 501.38,-537.38 512.68,-502.71 519.82,-476.75"/>
<polygon fill="black" stroke="black" points="523.15,-477.87 522.33,-467.31 516.38,-476.07 523.15,-477.87"/>
</g>
<!-- anond3e61 -->
<g id="node32" class="node">
<title>anond3e61</title>
<ellipse fill="none" stroke="black" cx="403" cy="-923.43" rx="9" ry="9"/>
</g>
<!-- nodeid53&#45;&gt;anond3e61 -->
<g id="edge33" class="edge">
<title>nodeid53&#45;&gt;anond3e61</title>
<path fill="none" stroke="black" d="M403,-992.47C403,-976.81 403,-957.78 403,-943.84"/>
<polygon fill="black" stroke="black" points="406.5,-944.21 403,-934.21 399.5,-944.21 406.5,-944.21"/>
</g>
<!-- anond3e61&#45;&gt;nodeid24 -->
<g id="edge35" class="edge">
<title>anond3e61&#45;&gt;nodeid24</title>
<path fill="none" stroke="black" d="M400.3,-914.54C396.52,-903.48 389.38,-882.63 382.99,-863.94"/>
<polygon fill="black" stroke="black" points="386.38,-863.04 379.83,-854.71 379.76,-865.3 386.38,-863.04"/>
</g>
<!-- anond3e61&#45;&gt;nodeid52 -->
<g id="edge36" class="edge">
<title>anond3e61&#45;&gt;nodeid52</title>
<path fill="none" stroke="black" d="M405.7,-914.71C409.28,-904.18 415.55,-884.64 419,-867.5 425.74,-834.04 429.88,-795.46 432.26,-767.28"/>
<polygon fill="black" stroke="black" points="435.74,-767.65 433.05,-757.4 428.77,-767.09 435.74,-767.65"/>
</g>
<!-- anond3e65 -->
<g id="node34" class="node">
<title>anond3e65</title>
<ellipse fill="none" stroke="black" cx="320" cy="-1212.2" rx="9" ry="9"/>
</g>
<!-- nodeid54&#45;&gt;anond3e65 -->
<g id="edge37" class="edge">
<title>nodeid54&#45;&gt;anond3e65</title>
<path fill="none" stroke="black" d="M320,-1276.1C320,-1262.29 320,-1245.76 320,-1233.12"/>
<polygon fill="black" stroke="black" points="323.5,-1233.14 320,-1223.14 316.5,-1233.14 323.5,-1233.14"/>
</g>
<!-- anond3e65&#45;&gt;nodeid14 -->
<g id="edge39" class="edge">
<title>anond3e65&#45;&gt;nodeid14</title>
<path fill="none" stroke="black" d="M319.91,-1202.91C319.8,-1193.05 319.61,-1175.91 319.43,-1159.88"/>
<polygon fill="black" stroke="black" points="322.93,-1159.99 319.32,-1150.03 315.93,-1160.07 322.93,-1159.99"/>
</g>
<!-- anond3e65&#45;&gt;nodeid53 -->
<g id="edge40" class="edge">
<title>anond3e65&#45;&gt;nodeid53</title>
<path fill="none" stroke="black" d="M326.67,-1205.5C337.06,-1196.23 357.09,-1176.86 368,-1156.27 383.65,-1126.75 392.64,-1089.77 397.58,-1062.25"/>
<polygon fill="black" stroke="black" points="401,-1063.01 399.2,-1052.57 394.09,-1061.85 401,-1063.01"/>
</g>
<!-- nodeid55 -->
<g id="node35" class="node">
<title>nodeid55</title>
<ellipse fill="white" stroke="#d55e00" stroke-width="3" cx="391" cy="-1559.79" rx="73.89" ry="27.93"/>
<text text-anchor="start" x="346.75" y="-1562.24" font-family="Arial" font-size="14.00" fill="#0072b2">$2_$1_alt&#45;plus</text>
<text text-anchor="start" x="357.62" y="-1546.49" font-family="Arial" font-size="14.00" fill="#0072b2">« 1 – 6 » / 2</text>
</g>
<!-- anond3e69 -->
<g id="node36" class="node">
<title>anond3e69</title>
<ellipse fill="none" stroke="black" cx="391" cy="-1477.86" rx="9" ry="9"/>
</g>
<!-- nodeid55&#45;&gt;anond3e69 -->
<g id="edge41" class="edge">
<title>nodeid55&#45;&gt;anond3e69</title>
<path fill="none" stroke="black" d="M391,-1530.38C391,-1519.89 391,-1508.24 391,-1498.68"/>
<polygon fill="black" stroke="black" points="394.5,-1498.74 391,-1488.74 387.5,-1498.74 394.5,-1498.74"/>
</g>
<!-- anond3e72 -->
<g id="node37" class="node">
<title>anond3e72</title>
<ellipse fill="none" stroke="black" cx="326" cy="-1477.86" rx="9" ry="9"/>
</g>
<!-- nodeid55&#45;&gt;anond3e72 -->
<g id="edge45" class="edge">
<title>nodeid55&#45;&gt;anond3e72</title>
<path fill="none" stroke="black" d="M368.99,-1531.73C358.83,-1519.23 347.14,-1504.86 338.52,-1494.25"/>
<polygon fill="black" stroke="black" points="341.32,-1492.15 332.29,-1486.6 335.89,-1496.56 341.32,-1492.15"/>
</g>
<!-- nodeid56 -->
<g id="node38" class="node">
<title>nodeid56</title>
<ellipse fill="white" stroke="#d55e00" stroke-width="3" cx="577" cy="-1477.86" rx="86.99" ry="18"/>
<text text-anchor="start" x="519.62" y="-1472.43" font-family="Arial" font-size="14.00">$4_newline&#45;optionⁿ</text>
</g>
<!-- nodeid55&#45;&gt;nodeid56 -->
<!-- anond3e69&#45;&gt;nodeid15 -->
<g id="edge43" class="edge">
<title>anond3e69&#45;&gt;nodeid15</title>
<path fill="none" stroke="black" d="M390.9,-1468.6C390.8,-1460.87 390.65,-1448.7 390.5,-1436.58"/>
<polygon fill="black" stroke="black" points="394,-1436.58 390.37,-1426.62 387,-1436.66 394,-1436.58"/>
</g>
<!-- anond3e69&#45;&gt;nodeid53 -->
<g id="edge44" class="edge">
<title>anond3e69&#45;&gt;nodeid53</title>
<path fill="none" stroke="black" d="M398.87,-1473.18C411.6,-1466.78 436.47,-1452.28 448,-1431.86 475.93,-1382.4 464,-1361.86 464,-1305.06 464,-1305.06 464,-1305.06 464,-1211.2 464,-1156.86 440.72,-1097.8 422.93,-1060.58"/>
<polygon fill="black" stroke="black" points="426.29,-1059.49 418.74,-1052.05 420,-1062.57 426.29,-1059.49"/>
</g>
<!-- anond3e72&#45;&gt;nodeid3 -->
<g id="edge47" class="edge">
<title>anond3e72&#45;&gt;nodeid3</title>
<path fill="none" stroke="black" d="M320.11,-1470.58C311.41,-1461.31 294.53,-1443.31 279.62,-1427.43"/>
<polygon fill="black" stroke="black" points="282.5,-1425.38 273.1,-1420.48 277.39,-1430.17 282.5,-1425.38"/>
</g>
<!-- anond3e72&#45;&gt;nodeid54 -->
<g id="edge48" class="edge">
<title>anond3e72&#45;&gt;nodeid54</title>
<path fill="none" stroke="black" d="M325.71,-1468.57C324.94,-1446.43 322.78,-1384.78 321.35,-1343.83"/>
<polygon fill="black" stroke="black" points="324.85,-1343.75 321.01,-1333.88 317.86,-1343.99 324.85,-1343.75"/>
</g>
<!-- epsilond3e76 -->
<g id="node39" class="node">
<title>epsilond3e76</title>
<text text-anchor="middle" x="577" y="-1390.88" font-family="Times,serif" font-size="14.00">ε</text>
</g>
<!-- nodeid56&#45;&gt;epsilond3e76 -->
<g id="edge49" class="edge">
<title>nodeid56&#45;&gt;epsilond3e76</title>
<path fill="none" stroke="black" d="M577,-1458.72C577,-1448.84 577,-1436.4 577,-1425.27"/>
<polygon fill="black" stroke="black" points="580.5,-1425.41 577,-1415.41 573.5,-1425.41 580.5,-1425.41"/>
</g>
<!-- nodeid57 -->
<g id="node40" class="node">
<title>nodeid57</title>
<ellipse fill="white" stroke="#d55e00" stroke-width="3" cx="463" cy="-1705.65" rx="46.32" ry="27.93"/>
<text text-anchor="start" x="452.5" y="-1708.1" font-family="Arial" font-size="14.00">line</text>
<text text-anchor="start" x="438.25" y="-1692.35" font-family="Arial" font-size="14.00">« 1 – 6 »</text>
</g>
<!-- anond3e78 -->
<g id="node41" class="node">
<title>anond3e78</title>
<ellipse fill="none" stroke="black" cx="463" cy="-1632.72" rx="9" ry="9"/>
</g>
<!-- nodeid57&#45;&gt;anond3e78 -->
<g id="edge50" class="edge">
<title>nodeid57&#45;&gt;anond3e78</title>
<path fill="none" stroke="black" d="M463,-1676.62C463,-1668.87 463,-1660.63 463,-1653.46"/>
<polygon fill="black" stroke="black" points="466.5,-1653.58 463,-1643.58 459.5,-1653.58 466.5,-1653.58"/>
</g>
<!-- anond3e78&#45;&gt;nodeid55 -->
<g id="edge52" class="edge">
<title>anond3e78&#45;&gt;nodeid55</title>
<path fill="none" stroke="black" d="M456.86,-1625.67C449.84,-1618.76 437.78,-1606.88 425.88,-1595.15"/>
<polygon fill="black" stroke="black" points="428.39,-1592.71 418.81,-1588.19 423.48,-1597.7 428.39,-1592.71"/>
</g>
<!-- anond3e78&#45;&gt;nodeid56 -->
<g id="edge53" class="edge">
<title>anond3e78&#45;&gt;nodeid56</title>
<path fill="none" stroke="black" d="M467.9,-1625.15C483,-1604.9 529.45,-1542.61 556.63,-1506.17"/>
<polygon fill="black" stroke="black" points="559.34,-1508.39 562.51,-1498.28 553.73,-1504.21 559.34,-1508.39"/>
</g>
<!-- nodeid58 -->
<g id="node42" class="node">
<title>nodeid58</title>
<ellipse fill="white" stroke="#d55e00" stroke-width="3" cx="463" cy="-1797.51" rx="46.32" ry="27.93"/>
<text text-anchor="start" x="455.5" y="-1799.96" font-family="Arial" font-size="14.00">$$</text>
<text text-anchor="start" x="438.25" y="-1784.21" font-family="Arial" font-size="14.00">« 1 – 6 »</text>
</g>
<!-- nodeid58&#45;&gt;nodeid57 -->
<g id="edge54" class="edge">
<title>nodeid58&#45;&gt;nodeid57</title>
<path fill="none" stroke="black" d="M463,-1768.57C463,-1761.54 463,-1753.85 463,-1746.37"/>
<polygon fill="black" stroke="black" points="466.5,-1746.4 463,-1736.4 459.5,-1746.4 466.5,-1746.4"/>
</g>
</g>
</svg>
