<?xml version="1.0" encoding="UTF-8" standalone="no"?>
<!DOCTYPE svg PUBLIC "-//W3C//DTD SVG 1.1//EN"
 "http://www.w3.org/Graphics/SVG/1.1/DTD/svg11.dtd">
<!-- Generated by graphviz version 12.2.1 (20241206.2353)
 -->
<!-- Title: SPPF Pages: 1 -->
<svg width="686pt" height="1777pt"
 viewBox="0.00 0.00 686.00 1777.44" xmlns="http://www.w3.org/2000/svg" xmlns:xlink="http://www.w3.org/1999/xlink">
<g id="graph0" class="graph" transform="scale(1 1) rotate(0) translate(4 1773.44)">
<title>SPPF</title>
<polygon fill="none" stroke="none" points="-4,4 -4,-1773.44 682,-1773.44 682,4 -4,4"/>
<g id="clust1" class="cluster">
<title>cluster_id0</title>
<polygon fill="none" stroke="none" points="82,-979.36 82,-1064.41 176,-1064.41 176,-979.36 82,-979.36"/>
</g>
<g id="clust2" class="cluster">
<title>cluster_id1</title>
<polygon fill="none" stroke="none" points="8,-1084.41 8,-1156.27 114,-1156.27 114,-1084.41 8,-1084.41"/>
</g>
<g id="clust3" class="cluster">
<title>cluster_id2</title>
<polygon fill="none" stroke="none" points="17,-1176.27 17,-1248.13 111,-1248.13 111,-1176.27 17,-1176.27"/>
</g>
<g id="clust4" class="cluster">
<title>cluster_id3</title>
<polygon fill="none" stroke="none" points="145,-1360 145,-1431.86 235,-1431.86 235,-1360 145,-1360"/>
</g>
<g id="clust5" class="cluster">
<title>cluster_id7</title>
<polygon fill="none" stroke="none" points="149,-782.45 149,-867.5 243,-867.5 243,-782.45 149,-782.45"/>
</g>
<g id="clust6" class="cluster">
<title>cluster_id8</title>
<polygon fill="none" stroke="none" points="143,-887.5 143,-959.36 249,-959.36 249,-887.5 143,-887.5"/>
</g>
<g id="clust7" class="cluster">
<title>cluster_id9</title>
<polygon fill="none" stroke="none" points="122,-1103.34 122,-1248.13 230,-1248.13 230,-1103.34 122,-1103.34"/>
</g>
<g id="clust9" class="cluster">
<title>cluster_id10</title>
<polygon fill="none" stroke="none" points="217,-985.96 217,-1057.82 311,-1057.82 311,-985.96 217,-985.96"/>
</g>
<g id="clust10" class="cluster">
<title>cluster_id11</title>
<polygon fill="none" stroke="none" points="122,-1268.13 122,-1340 230,-1340 230,-1268.13 122,-1268.13"/>
</g>
<g id="clust11" class="cluster">
<title>cluster_id12</title>
<polygon fill="none" stroke="none" points="274,-1084.41 274,-1156.27 364,-1156.27 364,-1084.41 274,-1084.41"/>
</g>
<g id="clust12" class="cluster">
<title>cluster_id13</title>
<polygon fill="none" stroke="none" points="243,-1360 243,-1431.86 351,-1431.86 351,-1360 243,-1360"/>
</g>
<g id="clust13" class="cluster">
<title>cluster_id18</title>
<polygon fill="none" stroke="none" points="576,-585.54 576,-670.59 670,-670.59 670,-585.54 576,-585.54"/>
</g>
<g id="clust14" class="cluster">
<title>cluster_id19</title>
<polygon fill="none" stroke="none" points="519,-690.59 519,-762.45 609,-762.45 609,-690.59 519,-690.59"/>
</g>
<g id="clust15" class="cluster">
<title>cluster_id20</title>
<polygon fill="none" stroke="none" points="390,-789.05 390,-860.91 480,-860.91 480,-789.05 390,-789.05"/>
</g>
<g id="clust16" class="cluster">
<title>cluster_id26</title>
<polygon fill="none" stroke="none" points="362,-204.91 362,-289.96 456,-289.96 456,-204.91 362,-204.91"/>
</g>
<g id="clust17" class="cluster">
<title>cluster_id27</title>
<polygon fill="none" stroke="none" points="353,-309.96 353,-381.82 459,-381.82 459,-309.96 353,-309.96"/>
</g>
<g id="clust18" class="cluster">
<title>cluster_id28</title>
<polygon fill="none" stroke="none" points="365,-401.82 365,-473.68 459,-473.68 459,-401.82 365,-401.82"/>
</g>
<g id="clust19" class="cluster">
<title>cluster_id29</title>
<polygon fill="none" stroke="none" points="322,-493.68 322,-565.54 412,-565.54 412,-493.68 322,-493.68"/>
</g>
<g id="clust20" class="cluster">
<title>cluster_id36</title>
<polygon fill="none" stroke="none" points="362,-8 362,-93.05 456,-93.05 456,-8 362,-8"/>
</g>
<g id="clust21" class="cluster">
<title>cluster_id37</title>
<polygon fill="none" stroke="none" points="356,-113.05 356,-184.91 462,-184.91 462,-113.05 356,-113.05"/>
</g>
<g id="clust22" class="cluster">
<title>cluster_id38</title>
<polygon fill="none" stroke="none" points="467,-328.89 467,-473.68 575,-473.68 575,-328.89 467,-328.89"/>
</g>
<g id="clust24" class="cluster">
<title>cluster_id39</title>
<polygon fill="none" stroke="none" points="246,-211.5 246,-283.36 340,-283.36 340,-211.5 246,-211.5"/>
</g>
<g id="clust25" class="cluster">
<title>cluster_id40</title>
<polygon fill="none" stroke="none" points="465,-493.68 465,-565.54 573,-565.54 573,-493.68 465,-493.68"/>
</g>
<g id="clust26" class="cluster">
<title>cluster_id41</title>
<polygon fill="none" stroke="none" points="237,-309.96 237,-381.82 327,-381.82 327,-309.96 237,-309.96"/>
</g>
<g id="clust27" class="cluster">
<title>cluster_id42</title>
<polygon fill="none" stroke="none" points="460,-592.14 460,-664 568,-664 568,-592.14 460,-592.14"/>
</g>
<g id="clust28" class="cluster">
<title>cluster_id43</title>
<polygon fill="none" stroke="none" points="193,-401.82 193,-473.68 357,-473.68 357,-401.82 193,-401.82"/>
</g>
<g id="clust29" class="cluster">
<title>cluster_id44</title>
<polygon fill="none" stroke="none" points="288,-611.07 288,-762.45 452,-762.45 452,-611.07 288,-611.07"/>
</g>
<g id="clust31" class="cluster">
<title>cluster_id45</title>
<polygon fill="none" stroke="none" points="321,-906.43 321,-1057.82 485,-1057.82 485,-906.43 321,-906.43"/>
</g>
<g id="clust33" class="cluster">
<title>cluster_id46</title>
<polygon fill="none" stroke="none" points="238,-1195.2 238,-1340 402,-1340 402,-1195.2 238,-1195.2"/>
</g>
<g id="clust35" class="cluster">
<title>cluster_id47</title>
<polygon fill="none" stroke="none" points="252,-1451.86 252,-1577.72 416,-1577.72 416,-1451.86 252,-1451.86"/>
</g>
<g id="clust38" class="cluster">
<title>cluster_id48</title>
<polygon fill="none" stroke="none" points="280,-1597.72 280,-1669.58 388,-1669.58 388,-1597.72 280,-1597.72"/>
</g>
<g id="clust39" class="cluster">
<title>cluster_id49</title>
<polygon fill="none" stroke="none" points="280,-1689.58 280,-1761.44 388,-1761.44 388,-1689.58 280,-1689.58"/>
</g>
<!-- nodeid0 -->
<g id="node1" class="node">
<title>nodeid0</title>
<polygon fill="white" stroke="#d55e00" stroke-width="3" points="167.89,-1032.56 129,-1056.41 90.11,-1032.56 90.14,-993.96 167.86,-993.96 167.89,-1032.56"/>
<text text-anchor="start" x="121.5" y="-1024.34" font-family="Arial" font-size="14.00">&#39;X&#39;</text>
<text text-anchor="start" x="114.75" y="-1008.59" font-family="Arial" font-size="14.00">« 1 »</text>
</g>
<!-- nodeid8 -->
<g id="node6" class="node">
<title>nodeid8</title>
<ellipse fill="white" stroke="#d55e00" stroke-width="3" cx="196" cy="-923.43" rx="44.72" ry="27.93"/>
<text text-anchor="start" x="172.38" y="-925.88" font-family="Arial" font-size="14.00">$3_plus</text>
<text text-anchor="start" x="181.75" y="-910.13" font-family="Arial" font-size="14.00">« 2 »</text>
</g>
<!-- nodeid0&#45;&gt;nodeid8 -->
<!-- nodeid1 -->
<g id="node2" class="node">
<title>nodeid1</title>
<ellipse fill="white" stroke="black" cx="61" cy="-1120.34" rx="44.72" ry="27.93"/>
<text text-anchor="start" x="37.38" y="-1122.79" font-family="Arial" font-size="14.00">$3_plus</text>
<text text-anchor="start" x="46.75" y="-1107.04" font-family="Arial" font-size="14.00">« 1 »</text>
</g>
<!-- nodeid1&#45;&gt;nodeid0 -->
<g id="edge1" class="edge">
<title>nodeid1&#45;&gt;nodeid0</title>
<path fill="none" stroke="black" d="M78.69,-1094.25C86.78,-1082.78 96.48,-1069.01 105.2,-1056.64"/>
<polygon fill="black" stroke="black" points="107.86,-1058.95 110.76,-1048.76 102.14,-1054.91 107.86,-1058.95"/>
</g>
<!-- nodeid2 -->
<g id="node3" class="node">
<title>nodeid2</title>
<ellipse fill="white" stroke="black" cx="64" cy="-1212.2" rx="38.89" ry="27.93"/>
<text text-anchor="start" x="44.5" y="-1214.65" font-family="Arial" font-size="14.00">roman</text>
<text text-anchor="start" x="49.75" y="-1198.9" font-family="Arial" font-size="14.00">« 1 »</text>
</g>
<!-- nodeid2&#45;&gt;nodeid1 -->
<g id="edge2" class="edge">
<title>nodeid2&#45;&gt;nodeid1</title>
<path fill="none" stroke="black" d="M63.1,-1184.24C62.84,-1176.58 62.56,-1168.09 62.29,-1159.88"/>
<polygon fill="black" stroke="black" points="65.79,-1159.99 61.96,-1150.11 58.8,-1160.22 65.79,-1159.99"/>
</g>
<!-- nodeid3 -->
<g id="node4" class="node">
<title>nodeid3</title>
<ellipse fill="white" stroke="black" cx="190" cy="-1395.93" rx="37.3" ry="27.93"/>
<text text-anchor="start" x="171.62" y="-1398.38" font-family="Arial" font-size="14.00">$1_alt</text>
<text text-anchor="start" x="175.75" y="-1382.63" font-family="Arial" font-size="14.00">« 1 »</text>
</g>
<!-- nodeid3&#45;&gt;nodeid2 -->
<g id="edge3" class="edge">
<title>nodeid3&#45;&gt;nodeid2</title>
<path fill="none" stroke="black" d="M161.15,-1377.98C146.68,-1368.32 129.77,-1355.14 118,-1340 97.31,-1313.39 83.04,-1277.67 74.39,-1250.92"/>
<polygon fill="black" stroke="black" points="77.77,-1250.02 71.47,-1241.51 71.09,-1252.1 77.77,-1250.02"/>
</g>
<!-- nodeid46 -->
<g id="node33" class="node">
<title>nodeid46</title>
<ellipse fill="white" stroke="black" cx="320" cy="-1304.06" rx="73.89" ry="27.93"/>
<text text-anchor="start" x="275.75" y="-1306.51" font-family="Arial" font-size="14.00">$2_$1_alt&#45;plus</text>
<text text-anchor="start" x="295.25" y="-1290.76" font-family="Arial" font-size="14.00">« 2 – 6 »</text>
</g>
<!-- nodeid3&#45;&gt;nodeid46 -->
<!-- nodeid7 -->
<g id="node5" class="node">
<title>nodeid7</title>
<polygon fill="white" stroke="#d55e00" stroke-width="3" points="234.89,-835.65 196,-859.5 157.11,-835.65 157.14,-797.05 234.86,-797.05 234.89,-835.65"/>
<text text-anchor="start" x="188.5" y="-827.43" font-family="Arial" font-size="14.00">&#39;V&#39;</text>
<text text-anchor="start" x="181.75" y="-811.68" font-family="Arial" font-size="14.00">« 2 »</text>
</g>
<!-- nodeid8&#45;&gt;nodeid7 -->
<g id="edge4" class="edge">
<title>nodeid8&#45;&gt;nodeid7</title>
<path fill="none" stroke="black" d="M196,-894.01C196,-887.23 196,-879.82 196,-872.45"/>
<polygon fill="black" stroke="black" points="199.5,-872.54 196,-862.54 192.5,-872.54 199.5,-872.54"/>
</g>
<!-- nodeid9 -->
<g id="node7" class="node">
<title>nodeid9</title>
<ellipse fill="white" stroke="#d55e00" stroke-width="3" cx="176" cy="-1212.2" rx="46.32" ry="27.93"/>
<text text-anchor="start" x="152.38" y="-1214.65" font-family="Arial" font-size="14.00">$3_plus</text>
<text text-anchor="start" x="151.25" y="-1198.9" font-family="Arial" font-size="14.00">« 1 – 3 »</text>
</g>
<!-- anond3e13 -->
<g id="node8" class="node">
<title>anond3e13</title>
<ellipse fill="none" stroke="black" cx="176" cy="-1120.34" rx="9" ry="9"/>
</g>
<!-- nodeid9&#45;&gt;anond3e13 -->
<g id="edge5" class="edge">
<title>nodeid9&#45;&gt;anond3e13</title>
<path fill="none" stroke="black" d="M176,-1183.26C176,-1169.5 176,-1153.24 176,-1140.83"/>
<polygon fill="black" stroke="black" points="179.5,-1141.08 176,-1131.08 172.5,-1141.08 179.5,-1141.08"/>
</g>
<!-- anond3e13&#45;&gt;nodeid0 -->
<g id="edge7" class="edge">
<title>anond3e13&#45;&gt;nodeid0</title>
<path fill="none" stroke="black" d="M172.31,-1111.77C166.91,-1100.68 156.47,-1079.26 147.2,-1060.23"/>
<polygon fill="black" stroke="black" points="150.39,-1058.8 142.86,-1051.34 144.1,-1061.86 150.39,-1058.8"/>
</g>
<!-- anond3e13&#45;&gt;nodeid8 -->
<g id="edge8" class="edge">
<title>anond3e13&#45;&gt;nodeid8</title>
<path fill="none" stroke="black" d="M176.86,-1110.97C179.42,-1085.98 187.14,-1010.78 191.96,-963.84"/>
<polygon fill="black" stroke="black" points="195.42,-964.38 192.96,-954.07 188.46,-963.66 195.42,-964.38"/>
</g>
<!-- nodeid10 -->
<g id="node9" class="node">
<title>nodeid10</title>
<ellipse fill="white" stroke="black" cx="264" cy="-1021.89" rx="38.89" ry="27.93"/>
<text text-anchor="start" x="244.5" y="-1024.34" font-family="Arial" font-size="14.00">roman</text>
<text text-anchor="start" x="249.75" y="-1008.59" font-family="Arial" font-size="14.00">« 2 »</text>
</g>
<!-- nodeid10&#45;&gt;nodeid8 -->
<g id="edge9" class="edge">
<title>nodeid10&#45;&gt;nodeid8</title>
<path fill="none" stroke="black" d="M246.84,-996.55C238.88,-985.25 229.26,-971.62 220.55,-959.26"/>
<polygon fill="black" stroke="black" points="223.6,-957.51 214.98,-951.35 217.88,-961.54 223.6,-957.51"/>
</g>
<!-- nodeid11 -->
<g id="node10" class="node">
<title>nodeid11</title>
<ellipse fill="white" stroke="#d55e00" stroke-width="3" cx="176" cy="-1304.06" rx="46.32" ry="27.93"/>
<text text-anchor="start" x="156.5" y="-1306.51" font-family="Arial" font-size="14.00">roman</text>
<text text-anchor="start" x="151.25" y="-1290.76" font-family="Arial" font-size="14.00">« 1 – 3 »</text>
</g>
<!-- nodeid11&#45;&gt;nodeid9 -->
<g id="edge10" class="edge">
<title>nodeid11&#45;&gt;nodeid9</title>
<path fill="none" stroke="black" d="M176,-1275.12C176,-1268.09 176,-1260.41 176,-1252.92"/>
<polygon fill="black" stroke="black" points="179.5,-1252.95 176,-1242.95 172.5,-1252.95 179.5,-1252.95"/>
</g>
<!-- nodeid12 -->
<g id="node11" class="node">
<title>nodeid12</title>
<ellipse fill="white" stroke="black" cx="319" cy="-1120.34" rx="37.3" ry="27.93"/>
<text text-anchor="start" x="300.62" y="-1122.79" font-family="Arial" font-size="14.00">$1_alt</text>
<text text-anchor="start" x="304.75" y="-1107.04" font-family="Arial" font-size="14.00">« 2 »</text>
</g>
<!-- nodeid12&#45;&gt;nodeid10 -->
<g id="edge11" class="edge">
<title>nodeid12&#45;&gt;nodeid10</title>
<path fill="none" stroke="black" d="M304.69,-1094.25C298.38,-1083.17 290.84,-1069.96 283.99,-1057.94"/>
<polygon fill="black" stroke="black" points="287.17,-1056.46 279.18,-1049.5 281.09,-1059.92 287.17,-1056.46"/>
</g>
<!-- nodeid45 -->
<g id="node31" class="node">
<title>nodeid45</title>
<ellipse fill="white" stroke="#d55e00" stroke-width="3" cx="403" cy="-1021.89" rx="73.89" ry="27.93"/>
<text text-anchor="start" x="358.75" y="-1024.34" font-family="Arial" font-size="14.00">$2_$1_alt&#45;plus</text>
<text text-anchor="start" x="378.25" y="-1008.59" font-family="Arial" font-size="14.00">« 3 – 6 »</text>
</g>
<!-- nodeid12&#45;&gt;nodeid45 -->
<!-- nodeid13 -->
<g id="node12" class="node">
<title>nodeid13</title>
<ellipse fill="white" stroke="#d55e00" stroke-width="3" cx="297" cy="-1395.93" rx="46.32" ry="27.93"/>
<text text-anchor="start" x="278.62" y="-1398.38" font-family="Arial" font-size="14.00">$1_alt</text>
<text text-anchor="start" x="272.25" y="-1382.63" font-family="Arial" font-size="14.00">« 1 – 3 »</text>
</g>
<!-- nodeid13&#45;&gt;nodeid11 -->
<g id="edge12" class="edge">
<title>nodeid13&#45;&gt;nodeid11</title>
<path fill="none" stroke="black" d="M267.4,-1372.94C251.46,-1361.11 231.61,-1346.36 214.49,-1333.65"/>
<polygon fill="black" stroke="black" points="216.62,-1330.88 206.51,-1327.72 212.45,-1336.5 216.62,-1330.88"/>
</g>
<!-- nodeid13&#45;&gt;nodeid45 -->
<!-- nodeid18 -->
<g id="node13" class="node">
<title>nodeid18</title>
<polygon fill="white" stroke="#d55e00" stroke-width="3" points="661.89,-638.74 623,-662.59 584.11,-638.74 584.14,-600.14 661.86,-600.14 661.89,-638.74"/>
<text text-anchor="start" x="618.12" y="-630.52" font-family="Arial" font-size="14.00">&#39; &#39;</text>
<text text-anchor="start" x="608.75" y="-614.77" font-family="Arial" font-size="14.00">« 3 »</text>
</g>
<!-- nodeid19 -->
<g id="node14" class="node">
<title>nodeid19</title>
<ellipse fill="white" stroke="#d55e00" stroke-width="3" cx="564" cy="-726.52" rx="36.77" ry="27.93"/>
<text text-anchor="start" x="546" y="-728.97" font-family="Arial" font-size="14.00">space</text>
<text text-anchor="start" x="549.75" y="-713.22" font-family="Arial" font-size="14.00">« 3 »</text>
</g>
<!-- nodeid19&#45;&gt;nodeid18 -->
<g id="edge13" class="edge">
<title>nodeid19&#45;&gt;nodeid18</title>
<path fill="none" stroke="black" d="M579.66,-699.93C586.38,-688.94 594.34,-675.92 601.59,-664.07"/>
<polygon fill="black" stroke="black" points="604.45,-666.1 606.69,-655.74 598.48,-662.44 604.45,-666.1"/>
</g>
<!-- nodeid20 -->
<g id="node15" class="node">
<title>nodeid20</title>
<ellipse fill="white" stroke="#d55e00" stroke-width="3" cx="435" cy="-824.98" rx="37.3" ry="27.93"/>
<text text-anchor="start" x="416.62" y="-827.43" font-family="Arial" font-size="14.00">$1_alt</text>
<text text-anchor="start" x="420.75" y="-811.68" font-family="Arial" font-size="14.00">« 3 »</text>
</g>
<!-- nodeid20&#45;&gt;nodeid19 -->
<g id="edge14" class="edge">
<title>nodeid20&#45;&gt;nodeid19</title>
<path fill="none" stroke="black" d="M461.73,-803.99C481.01,-789.57 507.26,-769.95 528.33,-754.19"/>
<polygon fill="black" stroke="black" points="530.18,-757.18 536.09,-748.39 525.99,-751.57 530.18,-757.18"/>
</g>
<!-- nodeid44 -->
<g id="node29" class="node">
<title>nodeid44</title>
<ellipse fill="white" stroke="#d55e00" stroke-width="3" cx="370" cy="-726.52" rx="73.89" ry="27.93"/>
<text text-anchor="start" x="325.75" y="-728.97" font-family="Arial" font-size="14.00" fill="#0072b2">$2_$1_alt&#45;plus</text>
<text text-anchor="start" x="336.62" y="-713.22" font-family="Arial" font-size="14.00" fill="#0072b2">« 4 – 6 » / 2</text>
</g>
<!-- nodeid20&#45;&gt;nodeid44 -->
<!-- nodeid26 -->
<g id="node16" class="node">
<title>nodeid26</title>
<polygon fill="white" stroke="#d55e00" stroke-width="3" points="447.89,-258.1 409,-281.96 370.11,-258.1 370.14,-219.5 447.86,-219.5 447.89,-258.1"/>
<text text-anchor="start" x="401.12" y="-249.88" font-family="Arial" font-size="14.00">&#39;C&#39;</text>
<text text-anchor="start" x="394.75" y="-234.13" font-family="Arial" font-size="14.00">« 4 »</text>
</g>
<!-- nodeid37 -->
<g id="node21" class="node">
<title>nodeid37</title>
<ellipse fill="white" stroke="#d55e00" stroke-width="3" cx="409" cy="-148.98" rx="44.72" ry="27.93"/>
<text text-anchor="start" x="385.38" y="-151.43" font-family="Arial" font-size="14.00">$3_plus</text>
<text text-anchor="start" x="394.75" y="-135.68" font-family="Arial" font-size="14.00">« 5 »</text>
</g>
<!-- nodeid26&#45;&gt;nodeid37 -->
<!-- nodeid27 -->
<g id="node17" class="node">
<title>nodeid27</title>
<ellipse fill="white" stroke="black" cx="406" cy="-345.89" rx="44.72" ry="27.93"/>
<text text-anchor="start" x="382.38" y="-348.34" font-family="Arial" font-size="14.00">$3_plus</text>
<text text-anchor="start" x="391.75" y="-332.59" font-family="Arial" font-size="14.00">« 4 »</text>
</g>
<!-- nodeid27&#45;&gt;nodeid26 -->
<g id="edge15" class="edge">
<title>nodeid27&#45;&gt;nodeid26</title>
<path fill="none" stroke="black" d="M406.85,-317.51C407.08,-310.25 407.33,-302.21 407.57,-294.26"/>
<polygon fill="black" stroke="black" points="411.07,-294.38 407.89,-284.28 404.08,-294.17 411.07,-294.38"/>
</g>
<!-- nodeid28 -->
<g id="node18" class="node">
<title>nodeid28</title>
<ellipse fill="white" stroke="black" cx="412" cy="-437.75" rx="38.89" ry="27.93"/>
<text text-anchor="start" x="392.5" y="-440.2" font-family="Arial" font-size="14.00">roman</text>
<text text-anchor="start" x="397.75" y="-424.45" font-family="Arial" font-size="14.00">« 4 »</text>
</g>
<!-- nodeid28&#45;&gt;nodeid27 -->
<g id="edge16" class="edge">
<title>nodeid28&#45;&gt;nodeid27</title>
<path fill="none" stroke="black" d="M410.2,-409.79C409.69,-402.13 409.12,-393.63 408.57,-385.43"/>
<polygon fill="black" stroke="black" points="412.08,-385.4 407.92,-375.65 405.09,-385.86 412.08,-385.4"/>
</g>
<!-- nodeid29 -->
<g id="node19" class="node">
<title>nodeid29</title>
<ellipse fill="white" stroke="black" cx="367" cy="-529.61" rx="37.3" ry="27.93"/>
<text text-anchor="start" x="348.62" y="-532.06" font-family="Arial" font-size="14.00">$1_alt</text>
<text text-anchor="start" x="352.75" y="-516.31" font-family="Arial" font-size="14.00">« 4 »</text>
</g>
<!-- nodeid29&#45;&gt;nodeid28 -->
<g id="edge17" class="edge">
<title>nodeid29&#45;&gt;nodeid28</title>
<path fill="none" stroke="black" d="M379.77,-503.1C384.24,-494.19 389.34,-484 394.14,-474.41"/>
<polygon fill="black" stroke="black" points="397.17,-476.19 398.52,-465.68 390.91,-473.05 397.17,-476.19"/>
</g>
<!-- nodeid43 -->
<g id="node28" class="node">
<title>nodeid43</title>
<ellipse fill="white" stroke="black" cx="275" cy="-437.75" rx="73.89" ry="27.93"/>
<text text-anchor="start" x="230.75" y="-440.2" font-family="Arial" font-size="14.00">$2_$1_alt&#45;plus</text>
<text text-anchor="start" x="260.75" y="-424.45" font-family="Arial" font-size="14.00">« 5 »</text>
</g>
<!-- nodeid29&#45;&gt;nodeid43 -->
<!-- nodeid36 -->
<g id="node20" class="node">
<title>nodeid36</title>
<polygon fill="white" stroke="#d55e00" stroke-width="3" points="447.89,-61.19 409,-85.05 370.11,-61.19 370.14,-22.59 447.86,-22.59 447.89,-61.19"/>
<text text-anchor="start" x="402.25" y="-52.97" font-family="Arial" font-size="14.00">&#39;L&#39;</text>
<text text-anchor="start" x="394.75" y="-37.22" font-family="Arial" font-size="14.00">« 5 »</text>
</g>
<!-- nodeid37&#45;&gt;nodeid36 -->
<g id="edge18" class="edge">
<title>nodeid37&#45;&gt;nodeid36</title>
<path fill="none" stroke="black" d="M409,-119.56C409,-112.78 409,-105.36 409,-98"/>
<polygon fill="black" stroke="black" points="412.5,-98.09 409,-88.09 405.5,-98.09 412.5,-98.09"/>
</g>
<!-- nodeid38 -->
<g id="node22" class="node">
<title>nodeid38</title>
<ellipse fill="white" stroke="#d55e00" stroke-width="3" cx="521" cy="-437.75" rx="46.32" ry="27.93"/>
<text text-anchor="start" x="497.38" y="-440.2" font-family="Arial" font-size="14.00">$3_plus</text>
<text text-anchor="start" x="496.25" y="-424.45" font-family="Arial" font-size="14.00">« 4 – 6 »</text>
</g>
<!-- anond3e41 -->
<g id="node23" class="node">
<title>anond3e41</title>
<ellipse fill="none" stroke="black" cx="484" cy="-345.89" rx="9" ry="9"/>
</g>
<!-- nodeid38&#45;&gt;anond3e41 -->
<g id="edge19" class="edge">
<title>nodeid38&#45;&gt;anond3e41</title>
<path fill="none" stroke="black" d="M509.7,-409.3C503.84,-395.06 496.83,-378.05 491.62,-365.39"/>
<polygon fill="black" stroke="black" points="494.88,-364.12 487.84,-356.21 488.41,-366.79 494.88,-364.12"/>
</g>
<!-- anond3e41&#45;&gt;nodeid26 -->
<g id="edge21" class="edge">
<title>anond3e41&#45;&gt;nodeid26</title>
<path fill="none" stroke="black" d="M480.02,-337.42C476.05,-330.18 469.59,-318.99 463,-309.96 455.3,-299.41 446.17,-288.51 437.63,-278.87"/>
<polygon fill="black" stroke="black" points="440.32,-276.63 431.02,-271.54 435.12,-281.31 440.32,-276.63"/>
</g>
<!-- anond3e41&#45;&gt;nodeid37 -->
<g id="edge22" class="edge">
<title>anond3e41&#45;&gt;nodeid37</title>
<path fill="none" stroke="black" d="M484.18,-336.5C484.35,-313.95 482.62,-250.67 460,-204.91 455.77,-196.36 449.78,-188.2 443.39,-180.91"/>
<polygon fill="black" stroke="black" points="446.2,-178.79 436.81,-173.88 441.09,-183.58 446.2,-178.79"/>
</g>
<!-- nodeid39 -->
<g id="node24" class="node">
<title>nodeid39</title>
<ellipse fill="white" stroke="black" cx="293" cy="-247.43" rx="38.89" ry="27.93"/>
<text text-anchor="start" x="273.5" y="-249.88" font-family="Arial" font-size="14.00">roman</text>
<text text-anchor="start" x="278.75" y="-234.13" font-family="Arial" font-size="14.00">« 5 »</text>
</g>
<!-- nodeid39&#45;&gt;nodeid37 -->
<g id="edge23" class="edge">
<title>nodeid39&#45;&gt;nodeid37</title>
<path fill="none" stroke="black" d="M317.88,-225.74C334.02,-212.33 355.29,-194.64 373.23,-179.73"/>
<polygon fill="black" stroke="black" points="375.11,-182.71 380.56,-173.63 370.63,-177.33 375.11,-182.71"/>
</g>
<!-- nodeid40 -->
<g id="node25" class="node">
<title>nodeid40</title>
<ellipse fill="white" stroke="#d55e00" stroke-width="3" cx="519" cy="-529.61" rx="46.32" ry="27.93"/>
<text text-anchor="start" x="499.5" y="-532.06" font-family="Arial" font-size="14.00">roman</text>
<text text-anchor="start" x="494.25" y="-516.31" font-family="Arial" font-size="14.00">« 4 – 6 »</text>
</g>
<!-- nodeid40&#45;&gt;nodeid38 -->
<g id="edge24" class="edge">
<title>nodeid40&#45;&gt;nodeid38</title>
<path fill="none" stroke="black" d="M519.62,-500.67C519.78,-493.64 519.95,-485.96 520.12,-478.47"/>
<polygon fill="black" stroke="black" points="523.61,-478.57 520.34,-468.5 516.62,-478.42 523.61,-478.57"/>
</g>
<!-- nodeid41 -->
<g id="node26" class="node">
<title>nodeid41</title>
<ellipse fill="white" stroke="black" cx="282" cy="-345.89" rx="37.3" ry="27.93"/>
<text text-anchor="start" x="263.62" y="-348.34" font-family="Arial" font-size="14.00">$1_alt</text>
<text text-anchor="start" x="267.75" y="-332.59" font-family="Arial" font-size="14.00">« 5 »</text>
</g>
<!-- nodeid41&#45;&gt;nodeid39 -->
<g id="edge25" class="edge">
<title>nodeid41&#45;&gt;nodeid39</title>
<path fill="none" stroke="black" d="M285.09,-317.76C286.18,-308.21 287.43,-297.28 288.61,-286.97"/>
<polygon fill="black" stroke="black" points="292.06,-287.53 289.72,-277.19 285.11,-286.73 292.06,-287.53"/>
</g>
<!-- nodeid42 -->
<g id="node27" class="node">
<title>nodeid42</title>
<ellipse fill="white" stroke="#d55e00" stroke-width="3" cx="514" cy="-628.07" rx="46.32" ry="27.93"/>
<text text-anchor="start" x="495.62" y="-630.52" font-family="Arial" font-size="14.00">$1_alt</text>
<text text-anchor="start" x="489.25" y="-614.77" font-family="Arial" font-size="14.00">« 4 – 6 »</text>
</g>
<!-- nodeid42&#45;&gt;nodeid40 -->
<g id="edge26" class="edge">
<title>nodeid42&#45;&gt;nodeid40</title>
<path fill="none" stroke="black" d="M515.46,-598.91C515.92,-589.97 516.44,-579.92 516.94,-570.33"/>
<polygon fill="black" stroke="black" points="520.43,-570.65 517.45,-560.48 513.44,-570.29 520.43,-570.65"/>
</g>
<!-- nodeid43&#45;&gt;nodeid41 -->
<g id="edge27" class="edge">
<title>nodeid43&#45;&gt;nodeid41</title>
<path fill="none" stroke="black" d="M277.1,-409.79C277.7,-402.13 278.36,-393.63 279,-385.43"/>
<polygon fill="black" stroke="black" points="282.47,-385.89 279.76,-375.65 275.49,-385.35 282.47,-385.89"/>
</g>
<!-- nodeid44&#45;&gt;nodeid42 -->
<g id="edge28" class="edge">
<title>nodeid44&#45;&gt;nodeid42</title>
<path fill="none" stroke="black" d="M408.81,-701.34C423.69,-691.92 440.74,-680.92 456,-670.59 462.2,-666.39 468.71,-661.86 475.03,-657.39"/>
<polygon fill="black" stroke="black" points="476.76,-660.46 482.88,-651.8 472.7,-654.76 476.76,-660.46"/>
</g>
<!-- anond3e57 -->
<g id="node30" class="node">
<title>anond3e57</title>
<ellipse fill="none" stroke="black" cx="367" cy="-628.07" rx="9" ry="9"/>
</g>
<!-- nodeid44&#45;&gt;anond3e57 -->
<g id="edge29" class="edge">
<title>nodeid44&#45;&gt;anond3e57</title>
<path fill="none" stroke="black" d="M369.12,-697.1C368.63,-681.45 368.04,-662.42 367.6,-648.47"/>
<polygon fill="black" stroke="black" points="371.11,-648.73 367.3,-638.85 364.12,-648.95 371.11,-648.73"/>
</g>
<!-- anond3e57&#45;&gt;nodeid29 -->
<g id="edge31" class="edge">
<title>anond3e57&#45;&gt;nodeid29</title>
<path fill="none" stroke="black" d="M367,-618.84C367,-607.8 367,-587.45 367,-569.07"/>
<polygon fill="black" stroke="black" points="370.5,-569.21 367,-559.21 363.5,-569.21 370.5,-569.21"/>
</g>
<!-- anond3e57&#45;&gt;nodeid43 -->
<g id="edge32" class="edge">
<title>anond3e57&#45;&gt;nodeid43</title>
<path fill="none" stroke="black" d="M361.07,-621.12C350.96,-610.69 330.3,-588.07 318,-565.54 302.62,-537.38 291.32,-502.71 284.18,-476.75"/>
<polygon fill="black" stroke="black" points="287.62,-476.07 281.67,-467.31 280.85,-477.87 287.62,-476.07"/>
</g>
<!-- anond3e61 -->
<g id="node32" class="node">
<title>anond3e61</title>
<ellipse fill="none" stroke="black" cx="403" cy="-923.43" rx="9" ry="9"/>
</g>
<!-- nodeid45&#45;&gt;anond3e61 -->
<g id="edge33" class="edge">
<title>nodeid45&#45;&gt;anond3e61</title>
<path fill="none" stroke="black" d="M403,-992.47C403,-976.81 403,-957.78 403,-943.84"/>
<polygon fill="black" stroke="black" points="406.5,-944.21 403,-934.21 399.5,-944.21 406.5,-944.21"/>
</g>
<!-- anond3e61&#45;&gt;nodeid20 -->
<g id="edge35" class="edge">
<title>anond3e61&#45;&gt;nodeid20</title>
<path fill="none" stroke="black" d="M405.62,-914.54C409.27,-903.53 416.14,-882.83 422.32,-864.2"/>
<polygon fill="black" stroke="black" points="425.64,-865.31 425.47,-854.71 419,-863.1 425.64,-865.31"/>
</g>
<!-- anond3e61&#45;&gt;nodeid44 -->
<g id="edge36" class="edge">
<title>anond3e61&#45;&gt;nodeid44</title>
<path fill="none" stroke="black" d="M400.11,-914.73C396.29,-904.21 389.61,-884.7 386,-867.5 378.98,-834.09 374.86,-795.51 372.57,-767.32"/>
<polygon fill="black" stroke="black" points="376.06,-767.13 371.8,-757.43 369.08,-767.67 376.06,-767.13"/>
</g>
<!-- anond3e65 -->
<g id="node34" class="node">
<title>anond3e65</title>
<ellipse fill="none" stroke="black" cx="320" cy="-1212.2" rx="9" ry="9"/>
</g>
<!-- nodeid46&#45;&gt;anond3e65 -->
<g id="edge37" class="edge">
<title>nodeid46&#45;&gt;anond3e65</title>
<path fill="none" stroke="black" d="M320,-1276.1C320,-1262.29 320,-1245.76 320,-1233.12"/>
<polygon fill="black" stroke="black" points="323.5,-1233.14 320,-1223.14 316.5,-1233.14 323.5,-1233.14"/>
</g>
<!-- anond3e65&#45;&gt;nodeid12 -->
<g id="edge39" class="edge">
<title>anond3e65&#45;&gt;nodeid12</title>
<path fill="none" stroke="black" d="M319.91,-1202.91C319.8,-1193.05 319.61,-1175.91 319.43,-1159.88"/>
<polygon fill="black" stroke="black" points="322.93,-1159.99 319.32,-1150.03 315.93,-1160.07 322.93,-1159.99"/>
</g>
<!-- anond3e65&#45;&gt;nodeid45 -->
<g id="edge40" class="edge">
<title>anond3e65&#45;&gt;nodeid45</title>
<path fill="none" stroke="black" d="M326.67,-1205.5C337.06,-1196.23 357.09,-1176.86 368,-1156.27 383.65,-1126.75 392.64,-1089.77 397.58,-1062.25"/>
<polygon fill="black" stroke="black" points="401,-1063.01 399.2,-1052.57 394.09,-1061.85 401,-1063.01"/>
</g>
<!-- nodeid47 -->
<g id="node35" class="node">
<title>nodeid47</title>
<ellipse fill="white" stroke="#d55e00" stroke-width="3" cx="334" cy="-1541.79" rx="73.89" ry="27.93"/>
<text text-anchor="start" x="289.75" y="-1544.24" font-family="Arial" font-size="14.00" fill="#0072b2">$2_$1_alt&#45;plus</text>
<text text-anchor="start" x="300.62" y="-1528.49" font-family="Arial" font-size="14.00" fill="#0072b2">« 1 – 6 » / 2</text>
</g>
<!-- anond3e69 -->
<g id="node36" class="node">
<title>anond3e69</title>
<ellipse fill="none" stroke="black" cx="352" cy="-1468.86" rx="9" ry="9"/>
</g>
<!-- nodeid47&#45;&gt;anond3e69 -->
<g id="edge41" class="edge">
<title>nodeid47&#45;&gt;anond3e69</title>
<path fill="none" stroke="black" d="M341.11,-1512.75C343.15,-1504.72 345.33,-1496.15 347.19,-1488.8"/>
<polygon fill="black" stroke="black" points="350.52,-1489.91 349.59,-1479.35 343.74,-1488.18 350.52,-1489.91"/>
</g>
<!-- anond3e72 -->
<g id="node37" class="node">
<title>anond3e72</title>
<ellipse fill="none" stroke="black" cx="316" cy="-1468.86" rx="9" ry="9"/>
</g>
<!-- nodeid47&#45;&gt;anond3e72 -->
<g id="edge45" class="edge">
<title>nodeid47&#45;&gt;anond3e72</title>
<path fill="none" stroke="black" d="M326.89,-1512.75C324.85,-1504.72 322.67,-1496.15 320.81,-1488.8"/>
<polygon fill="black" stroke="black" points="324.26,-1488.18 318.41,-1479.35 317.48,-1489.91 324.26,-1488.18"/>
</g>
<!-- anond3e69&#45;&gt;nodeid13 -->
<g id="edge43" class="edge">
<title>anond3e69&#45;&gt;nodeid13</title>
<path fill="none" stroke="black" d="M346.73,-1461.06C341.34,-1454.11 332.55,-1442.77 323.85,-1431.55"/>
<polygon fill="black" stroke="black" points="326.77,-1429.61 317.88,-1423.85 321.24,-1433.9 326.77,-1429.61"/>
</g>
<!-- anond3e69&#45;&gt;nodeid45 -->
<g id="edge44" class="edge">
<title>anond3e69&#45;&gt;nodeid45</title>
<path fill="none" stroke="black" d="M359.09,-1462.54C383.11,-1443.85 460,-1378.32 460,-1305.06 460,-1305.06 460,-1305.06 460,-1211.2 460,-1154.29 461.68,-1137.82 442,-1084.41 438.9,-1075.98 434.51,-1067.5 429.8,-1059.63"/>
<polygon fill="black" stroke="black" points="432.85,-1057.9 424.53,-1051.33 426.93,-1061.65 432.85,-1057.9"/>
</g>
<!-- anond3e72&#45;&gt;nodeid3 -->
<g id="edge47" class="edge">
<title>anond3e72&#45;&gt;nodeid3</title>
<path fill="none" stroke="black" d="M307.66,-1464.55C293.26,-1458.7 262.96,-1445.84 239,-1431.86 234.34,-1429.14 229.56,-1426.09 224.91,-1422.96"/>
<polygon fill="black" stroke="black" points="227.06,-1420.2 216.85,-1417.37 223.07,-1425.95 227.06,-1420.2"/>
</g>
<!-- anond3e72&#45;&gt;nodeid46 -->
<g id="edge48" class="edge">
<title>anond3e72&#45;&gt;nodeid46</title>
<path fill="none" stroke="black" d="M322.27,-1462.31C333.06,-1452.72 354.12,-1433.86 355,-1431.86 367.81,-1402.6 363.94,-1390.66 355,-1360 353.11,-1353.53 350.21,-1347.1 346.87,-1341.03"/>
<polygon fill="black" stroke="black" points="349.89,-1339.26 341.7,-1332.53 343.9,-1342.89 349.89,-1339.26"/>
</g>
<!-- nodeid48 -->
<g id="node38" class="node">
<title>nodeid48</title>
<ellipse fill="white" stroke="#d55e00" stroke-width="3" cx="334" cy="-1633.65" rx="46.32" ry="27.93"/>
<text text-anchor="start" x="323.5" y="-1636.1" font-family="Arial" font-size="14.00">line</text>
<text text-anchor="start" x="309.25" y="-1620.35" font-family="Arial" font-size="14.00">« 1 – 6 »</text>
</g>
<!-- nodeid48&#45;&gt;nodeid47 -->
<g id="edge49" class="edge">
<title>nodeid48&#45;&gt;nodeid47</title>
<path fill="none" stroke="black" d="M334,-1604.71C334,-1597.68 334,-1589.99 334,-1582.5"/>
<polygon fill="black" stroke="black" points="337.5,-1582.53 334,-1572.53 330.5,-1582.53 337.5,-1582.53"/>
</g>
<!-- nodeid49 -->
<g id="node39" class="node">
<title>nodeid49</title>
<ellipse fill="white" stroke="#d55e00" stroke-width="3" cx="334" cy="-1725.51" rx="46.32" ry="27.93"/>
<text text-anchor="start" x="326.5" y="-1727.96" font-family="Arial" font-size="14.00">$$</text>
<text text-anchor="start" x="309.25" y="-1712.21" font-family="Arial" font-size="14.00">« 1 – 6 »</text>
</g>
<!-- nodeid49&#45;&gt;nodeid48 -->
<g id="edge50" class="edge">
<title>nodeid49&#45;&gt;nodeid48</title>
<path fill="none" stroke="black" d="M334,-1696.57C334,-1689.54 334,-1681.85 334,-1674.37"/>
<polygon fill="black" stroke="black" points="337.5,-1674.4 334,-1664.4 330.5,-1674.4 337.5,-1674.4"/>
</g>
</g>
</svg>
