<?xml version="1.0" encoding="UTF-8" standalone="no"?>
<!DOCTYPE svg PUBLIC "-//W3C//DTD SVG 1.1//EN"
 "http://www.w3.org/Graphics/SVG/1.1/DTD/svg11.dtd">
<!-- Generated by graphviz version 12.2.1 (20241206.2353)
 -->
<!-- Title: SPPF Pages: 1 -->
<svg width="477pt" height="1431pt"
 viewBox="0.00 0.00 477.00 1430.95" xmlns="http://www.w3.org/2000/svg" xmlns:xlink="http://www.w3.org/1999/xlink">
<g id="graph0" class="graph" transform="scale(1 1) rotate(0) translate(4 1426.95)">
<title>SPPF</title>
<polygon fill="none" stroke="none" points="-4,4 -4,-1426.95 473,-1426.95 473,4 -4,4"/>
<g id="clust1" class="cluster">
<title>cluster_id0</title>
<polygon fill="none" stroke="none" points="122,-652.73 122,-737.78 216,-737.78 216,-652.73 122,-652.73"/>
</g>
<g id="clust2" class="cluster">
<title>cluster_id9</title>
<polygon fill="none" stroke="none" points="139,-455.82 139,-540.87 233,-540.87 233,-455.82 139,-455.82"/>
</g>
<g id="clust3" class="cluster">
<title>cluster_id10</title>
<polygon fill="none" stroke="none" points="133,-560.87 133,-632.73 239,-632.73 239,-560.87 133,-560.87"/>
</g>
<g id="clust4" class="cluster">
<title>cluster_id11</title>
<polygon fill="none" stroke="none" points="159,-776.71 159,-921.5 267,-921.5 267,-776.71 159,-776.71"/>
</g>
<g id="clust6" class="cluster">
<title>cluster_id12</title>
<polygon fill="none" stroke="none" points="230,-941.5 230,-1013.36 338,-1013.36 338,-941.5 230,-941.5"/>
</g>
<g id="clust7" class="cluster">
<title>cluster_id19</title>
<polygon fill="none" stroke="none" points="251,-455.82 251,-540.87 345,-540.87 345,-455.82 251,-455.82"/>
</g>
<g id="clust8" class="cluster">
<title>cluster_id20</title>
<polygon fill="none" stroke="none" points="297,-560.87 297,-632.73 387,-632.73 387,-560.87 297,-560.87"/>
</g>
<g id="clust9" class="cluster">
<title>cluster_id21</title>
<polygon fill="none" stroke="none" points="327,-204.91 327,-289.96 421,-289.96 421,-204.91 327,-204.91"/>
</g>
<g id="clust10" class="cluster">
<title>cluster_id32</title>
<polygon fill="none" stroke="none" points="327,-8 327,-93.05 421,-93.05 421,-8 327,-8"/>
</g>
<g id="clust11" class="cluster">
<title>cluster_id33</title>
<polygon fill="none" stroke="none" points="321,-113.05 321,-184.91 427,-184.91 427,-113.05 321,-113.05"/>
</g>
<g id="clust12" class="cluster">
<title>cluster_id34</title>
<polygon fill="none" stroke="none" points="353,-309.96 353,-435.82 461,-435.82 461,-309.96 353,-309.96"/>
</g>
<g id="clust14" class="cluster">
<title>cluster_id35</title>
<polygon fill="none" stroke="none" points="353,-462.41 353,-534.27 461,-534.27 461,-462.41 353,-462.41"/>
</g>
<g id="clust15" class="cluster">
<title>cluster_id36</title>
<polygon fill="none" stroke="none" points="277,-678.25 277,-829.64 439,-829.64 439,-678.25 277,-678.25"/>
</g>
<g id="clust17" class="cluster">
<title>cluster_id38</title>
<polygon fill="none" stroke="none" points="275,-849.64 275,-921.5 441,-921.5 441,-849.64 275,-849.64"/>
</g>
<g id="clust18" class="cluster">
<title>cluster_id39</title>
<polygon fill="none" stroke="none" points="206,-1042.36 206,-1177.22 410,-1177.22 410,-1042.36 206,-1042.36"/>
</g>
<g id="clust20" class="cluster">
<title>cluster_id40</title>
<polygon fill="none" stroke="none" points="8,-951.43 8,-1085.36 198,-1085.36 198,-951.43 8,-951.43"/>
</g>
<g id="clust21" class="cluster">
<title>cluster_id41</title>
<polygon fill="none" stroke="none" points="172,-1197.22 172,-1323.09 280,-1323.09 280,-1197.22 172,-1197.22"/>
</g>
<g id="clust23" class="cluster">
<title>cluster_id42</title>
<polygon fill="none" stroke="none" points="172,-1343.09 172,-1414.95 280,-1414.95 280,-1343.09 172,-1343.09"/>
</g>
<!-- nodeid0 -->
<g id="node1" class="node">
<title>nodeid0</title>
<polygon fill="white" stroke="#d55e00" stroke-width="3" points="207.89,-705.92 169,-729.78 130.11,-705.92 130.14,-667.32 207.86,-667.32 207.89,-705.92"/>
<text text-anchor="start" x="161.5" y="-697.7" font-family="Arial" font-size="14.00">&#39;X&#39;</text>
<text text-anchor="start" x="154.75" y="-681.95" font-family="Arial" font-size="14.00">« 1 »</text>
</g>
<!-- nodeid10 -->
<g id="node3" class="node">
<title>nodeid10</title>
<ellipse fill="white" stroke="#d55e00" stroke-width="3" cx="186" cy="-596.8" rx="44.72" ry="27.93"/>
<text text-anchor="start" x="162.38" y="-599.25" font-family="Arial" font-size="14.00">$3_plus</text>
<text text-anchor="start" x="171.75" y="-583.5" font-family="Arial" font-size="14.00">« 2 »</text>
</g>
<!-- nodeid0&#45;&gt;nodeid10 -->
<!-- nodeid9 -->
<g id="node2" class="node">
<title>nodeid9</title>
<polygon fill="white" stroke="#d55e00" stroke-width="3" points="224.89,-509.01 186,-532.87 147.11,-509.01 147.14,-470.41 224.86,-470.41 224.89,-509.01"/>
<text text-anchor="start" x="178.5" y="-500.79" font-family="Arial" font-size="14.00">&#39;V&#39;</text>
<text text-anchor="start" x="171.75" y="-485.04" font-family="Arial" font-size="14.00">« 2 »</text>
</g>
<!-- nodeid10&#45;&gt;nodeid9 -->
<g id="edge1" class="edge">
<title>nodeid10&#45;&gt;nodeid9</title>
<path fill="none" stroke="black" d="M186,-567.38C186,-560.6 186,-553.18 186,-545.82"/>
<polygon fill="black" stroke="black" points="189.5,-545.91 186,-535.91 182.5,-545.91 189.5,-545.91"/>
</g>
<!-- nodeid11 -->
<g id="node4" class="node">
<title>nodeid11</title>
<ellipse fill="white" stroke="#d55e00" stroke-width="3" cx="213" cy="-885.57" rx="46.32" ry="27.93"/>
<text text-anchor="start" x="189.38" y="-888.02" font-family="Arial" font-size="14.00">$3_plus</text>
<text text-anchor="start" x="188.25" y="-872.27" font-family="Arial" font-size="14.00">« 1 – 3 »</text>
</g>
<!-- anond3e7 -->
<g id="node5" class="node">
<title>anond3e7</title>
<ellipse fill="none" stroke="black" cx="213" cy="-793.71" rx="9" ry="9"/>
</g>
<!-- nodeid11&#45;&gt;anond3e7 -->
<g id="edge2" class="edge">
<title>nodeid11&#45;&gt;anond3e7</title>
<path fill="none" stroke="black" d="M213,-856.63C213,-842.86 213,-826.6 213,-814.2"/>
<polygon fill="black" stroke="black" points="216.5,-814.45 213,-804.45 209.5,-814.45 216.5,-814.45"/>
</g>
<!-- anond3e7&#45;&gt;nodeid0 -->
<g id="edge4" class="edge">
<title>anond3e7&#45;&gt;nodeid0</title>
<path fill="none" stroke="black" d="M209.55,-785.14C204.55,-774.17 194.94,-753.11 186.33,-734.24"/>
<polygon fill="black" stroke="black" points="189.52,-732.8 182.18,-725.15 183.15,-735.7 189.52,-732.8"/>
</g>
<!-- anond3e7&#45;&gt;nodeid10 -->
<g id="edge5" class="edge">
<title>anond3e7&#45;&gt;nodeid10</title>
<path fill="none" stroke="black" d="M215.19,-784.61C220.7,-762.8 233.78,-701.18 220,-652.73 218.07,-645.93 215.03,-639.16 211.54,-632.8"/>
<polygon fill="black" stroke="black" points="214.71,-631.29 206.57,-624.51 208.71,-634.89 214.71,-631.29"/>
</g>
<!-- nodeid12 -->
<g id="node6" class="node">
<title>nodeid12</title>
<ellipse fill="white" stroke="#d55e00" stroke-width="3" cx="284" cy="-977.43" rx="46.32" ry="27.93"/>
<text text-anchor="start" x="264.5" y="-979.88" font-family="Arial" font-size="14.00">roman</text>
<text text-anchor="start" x="259.25" y="-964.13" font-family="Arial" font-size="14.00">« 1 – 3 »</text>
</g>
<!-- nodeid12&#45;&gt;nodeid11 -->
<g id="edge6" class="edge">
<title>nodeid12&#45;&gt;nodeid11</title>
<path fill="none" stroke="black" d="M263.84,-950.92C256.5,-941.63 248.07,-930.96 240.21,-921.01"/>
<polygon fill="black" stroke="black" points="243.09,-919.01 234.14,-913.33 237.6,-923.35 243.09,-919.01"/>
</g>
<!-- nodeid38 -->
<g id="node17" class="node">
<title>nodeid38</title>
<ellipse fill="white" stroke="#d55e00" stroke-width="3" cx="358" cy="-885.57" rx="75.48" ry="27.93"/>
<text text-anchor="start" x="312.62" y="-888.02" font-family="Arial" font-size="14.00">$2_space&#45;starⁿ</text>
<text text-anchor="start" x="333.25" y="-872.27" font-family="Arial" font-size="14.00">« 3 – 6 »</text>
</g>
<!-- nodeid12&#45;&gt;nodeid38 -->
<!-- nodeid19 -->
<g id="node7" class="node">
<title>nodeid19</title>
<polygon fill="white" stroke="#d55e00" stroke-width="3" points="336.89,-509.01 298,-532.87 259.11,-509.01 259.14,-470.41 336.86,-470.41 336.89,-509.01"/>
<text text-anchor="start" x="293.12" y="-500.79" font-family="Arial" font-size="14.00">&#39; &#39;</text>
<text text-anchor="start" x="283.75" y="-485.04" font-family="Arial" font-size="14.00">« 3 »</text>
</g>
<!-- nodeid20 -->
<g id="node8" class="node">
<title>nodeid20</title>
<ellipse fill="white" stroke="#d55e00" stroke-width="3" cx="342" cy="-596.8" rx="36.77" ry="27.93"/>
<text text-anchor="start" x="324" y="-599.25" font-family="Arial" font-size="14.00">space</text>
<text text-anchor="start" x="327.75" y="-583.5" font-family="Arial" font-size="14.00">« 3 »</text>
</g>
<!-- nodeid20&#45;&gt;nodeid19 -->
<g id="edge7" class="edge">
<title>nodeid20&#45;&gt;nodeid19</title>
<path fill="none" stroke="black" d="M329.74,-568.93C325.24,-559.06 320.06,-547.7 315.21,-537.06"/>
<polygon fill="black" stroke="black" points="318.46,-535.76 311.12,-528.12 312.09,-538.67 318.46,-535.76"/>
</g>
<!-- nodeid35 -->
<g id="node14" class="node">
<title>nodeid35</title>
<ellipse fill="white" stroke="#d55e00" stroke-width="3" cx="407" cy="-498.34" rx="46.32" ry="27.93"/>
<text text-anchor="start" x="387.5" y="-500.79" font-family="Arial" font-size="14.00">roman</text>
<text text-anchor="start" x="382.25" y="-485.04" font-family="Arial" font-size="14.00">« 4 – 6 »</text>
</g>
<!-- nodeid20&#45;&gt;nodeid35 -->
<!-- nodeid21 -->
<g id="node9" class="node">
<title>nodeid21</title>
<polygon fill="white" stroke="#d55e00" stroke-width="3" points="412.89,-258.1 374,-281.96 335.11,-258.1 335.14,-219.5 412.86,-219.5 412.89,-258.1"/>
<text text-anchor="start" x="366.12" y="-249.88" font-family="Arial" font-size="14.00">&#39;C&#39;</text>
<text text-anchor="start" x="359.75" y="-234.13" font-family="Arial" font-size="14.00">« 4 »</text>
</g>
<!-- nodeid33 -->
<g id="node11" class="node">
<title>nodeid33</title>
<ellipse fill="white" stroke="#d55e00" stroke-width="3" cx="374" cy="-148.98" rx="44.72" ry="27.93"/>
<text text-anchor="start" x="350.38" y="-151.43" font-family="Arial" font-size="14.00">$3_plus</text>
<text text-anchor="start" x="359.75" y="-135.68" font-family="Arial" font-size="14.00">« 5 »</text>
</g>
<!-- nodeid21&#45;&gt;nodeid33 -->
<!-- nodeid32 -->
<g id="node10" class="node">
<title>nodeid32</title>
<polygon fill="white" stroke="#d55e00" stroke-width="3" points="412.89,-61.19 374,-85.05 335.11,-61.19 335.14,-22.59 412.86,-22.59 412.89,-61.19"/>
<text text-anchor="start" x="367.25" y="-52.97" font-family="Arial" font-size="14.00">&#39;L&#39;</text>
<text text-anchor="start" x="359.75" y="-37.22" font-family="Arial" font-size="14.00">« 5 »</text>
</g>
<!-- nodeid33&#45;&gt;nodeid32 -->
<g id="edge8" class="edge">
<title>nodeid33&#45;&gt;nodeid32</title>
<path fill="none" stroke="black" d="M374,-119.56C374,-112.78 374,-105.36 374,-98"/>
<polygon fill="black" stroke="black" points="377.5,-98.09 374,-88.09 370.5,-98.09 377.5,-98.09"/>
</g>
<!-- nodeid34 -->
<g id="node12" class="node">
<title>nodeid34</title>
<ellipse fill="white" stroke="#d55e00" stroke-width="3" cx="407" cy="-399.89" rx="46.32" ry="27.93"/>
<text text-anchor="start" x="383.38" y="-402.34" font-family="Arial" font-size="14.00">$3_plus</text>
<text text-anchor="start" x="382.25" y="-386.59" font-family="Arial" font-size="14.00">« 4 – 6 »</text>
</g>
<!-- anond3e20 -->
<g id="node13" class="node">
<title>anond3e20</title>
<ellipse fill="none" stroke="black" cx="407" cy="-326.96" rx="9" ry="9"/>
</g>
<!-- nodeid34&#45;&gt;anond3e20 -->
<g id="edge9" class="edge">
<title>nodeid34&#45;&gt;anond3e20</title>
<path fill="none" stroke="black" d="M407,-370.86C407,-363.11 407,-354.87 407,-347.7"/>
<polygon fill="black" stroke="black" points="410.5,-347.82 407,-337.82 403.5,-347.82 410.5,-347.82"/>
</g>
<!-- anond3e20&#45;&gt;nodeid21 -->
<g id="edge11" class="edge">
<title>anond3e20&#45;&gt;nodeid21</title>
<path fill="none" stroke="black" d="M403.72,-318.24C400.51,-310.72 395.39,-298.69 390.3,-286.72"/>
<polygon fill="black" stroke="black" points="393.61,-285.56 386.47,-277.73 387.17,-288.3 393.61,-285.56"/>
</g>
<!-- anond3e20&#45;&gt;nodeid33 -->
<g id="edge12" class="edge">
<title>anond3e20&#45;&gt;nodeid33</title>
<path fill="none" stroke="black" d="M411.78,-318.89C416.2,-311.9 422.46,-300.7 425,-289.96 433.68,-253.17 438.82,-240.09 425,-204.91 421.51,-196.03 415.84,-187.73 409.52,-180.41"/>
<polygon fill="black" stroke="black" points="412.33,-178.28 402.93,-173.39 407.22,-183.08 412.33,-178.28"/>
</g>
<!-- nodeid35&#45;&gt;nodeid34 -->
<g id="edge13" class="edge">
<title>nodeid35&#45;&gt;nodeid34</title>
<path fill="none" stroke="black" d="M407,-468.93C407,-460 407,-449.97 407,-440.42"/>
<polygon fill="black" stroke="black" points="410.5,-440.62 407,-430.62 403.5,-440.62 410.5,-440.62"/>
</g>
<!-- nodeid36 -->
<g id="node15" class="node">
<title>nodeid36</title>
<ellipse fill="white" stroke="#d55e00" stroke-width="3" cx="358" cy="-793.71" rx="73.36" ry="27.93"/>
<text text-anchor="start" x="314.12" y="-796.16" font-family="Arial" font-size="14.00">$4_space&#45;plus</text>
<text text-anchor="start" x="333.25" y="-780.41" font-family="Arial" font-size="14.00">« 3 – 6 »</text>
</g>
<!-- anond3e27 -->
<g id="node16" class="node">
<title>anond3e27</title>
<ellipse fill="none" stroke="black" cx="358" cy="-695.25" rx="9" ry="9"/>
</g>
<!-- nodeid36&#45;&gt;anond3e27 -->
<g id="edge14" class="edge">
<title>nodeid36&#45;&gt;anond3e27</title>
<path fill="none" stroke="black" d="M358,-764.29C358,-748.63 358,-729.61 358,-715.66"/>
<polygon fill="black" stroke="black" points="361.5,-716.03 358,-706.03 354.5,-716.03 361.5,-716.03"/>
</g>
<!-- anond3e27&#45;&gt;nodeid20 -->
<g id="edge16" class="edge">
<title>anond3e27&#45;&gt;nodeid20</title>
<path fill="none" stroke="black" d="M356.64,-686.03C354.83,-675.14 351.52,-655.19 348.5,-637.01"/>
<polygon fill="black" stroke="black" points="351.97,-636.51 346.88,-627.22 345.06,-637.66 351.97,-636.51"/>
</g>
<!-- anond3e27&#45;&gt;nodeid35 -->
<g id="edge17" class="edge">
<title>anond3e27&#45;&gt;nodeid35</title>
<path fill="none" stroke="black" d="M362.77,-687.44C370.17,-676.48 384.28,-654 391,-632.73 400.67,-602.12 404.56,-565.87 406.1,-538.89"/>
<polygon fill="black" stroke="black" points="409.59,-539.24 406.57,-529.08 402.6,-538.9 409.59,-539.24"/>
</g>
<!-- nodeid38&#45;&gt;nodeid36 -->
<g id="edge18" class="edge">
<title>nodeid38&#45;&gt;nodeid36</title>
<path fill="none" stroke="black" d="M358,-856.63C358,-849.6 358,-841.91 358,-834.43"/>
<polygon fill="black" stroke="black" points="361.5,-834.46 358,-824.46 354.5,-834.46 361.5,-834.46"/>
</g>
<!-- nodeid39 -->
<g id="node18" class="node">
<title>nodeid39</title>
<ellipse fill="white" stroke="#d55e00" stroke-width="3" cx="308" cy="-1141.29" rx="94.05" ry="27.93"/>
<text text-anchor="start" x="249.5" y="-1143.74" font-family="Arial" font-size="14.00">$1_roman&#45;plus&#45;sep</text>
<text text-anchor="start" x="283.25" y="-1127.99" font-family="Arial" font-size="14.00">« 1 – 6 »</text>
</g>
<!-- anond3e33 -->
<g id="node19" class="node">
<title>anond3e33</title>
<ellipse fill="none" stroke="black" cx="308" cy="-1059.36" rx="9" ry="9"/>
</g>
<!-- nodeid39&#45;&gt;anond3e33 -->
<g id="edge19" class="edge">
<title>nodeid39&#45;&gt;anond3e33</title>
<path fill="none" stroke="black" d="M308,-1111.89C308,-1101.4 308,-1089.75 308,-1080.18"/>
<polygon fill="black" stroke="black" points="311.5,-1080.25 308,-1070.25 304.5,-1080.25 311.5,-1080.25"/>
</g>
<!-- nodeid40 -->
<g id="node20" class="node">
<title>nodeid40</title>
<ellipse fill="white" stroke="#d55e00" stroke-width="3" cx="103" cy="-1059.36" rx="86.99" ry="18"/>
<text text-anchor="start" x="45.62" y="-1053.94" font-family="Arial" font-size="14.00">$5_newline&#45;optionⁿ</text>
</g>
<!-- nodeid39&#45;&gt;nodeid40 -->
<!-- anond3e33&#45;&gt;nodeid12 -->
<g id="edge21" class="edge">
<title>anond3e33&#45;&gt;nodeid12</title>
<path fill="none" stroke="black" d="M305.61,-1050.41C303.23,-1042.47 299.38,-1029.66 295.59,-1017.04"/>
<polygon fill="black" stroke="black" points="298.98,-1016.14 292.75,-1007.56 292.27,-1018.15 298.98,-1016.14"/>
</g>
<!-- anond3e33&#45;&gt;nodeid38 -->
<g id="edge22" class="edge">
<title>anond3e33&#45;&gt;nodeid38</title>
<path fill="none" stroke="black" d="M314.25,-1052.33C322.18,-1044.26 335.58,-1029.14 342,-1013.36 353.31,-985.56 357.13,-951.73 358.23,-926.02"/>
<polygon fill="black" stroke="black" points="361.71,-926.43 358.51,-916.33 354.72,-926.23 361.71,-926.43"/>
</g>
<!-- epsilond3e37 -->
<g id="node21" class="node">
<title>epsilond3e37</title>
<text text-anchor="middle" x="103" y="-972.38" font-family="Times,serif" font-size="14.00">ε</text>
</g>
<!-- nodeid40&#45;&gt;epsilond3e37 -->
<g id="edge23" class="edge">
<title>nodeid40&#45;&gt;epsilond3e37</title>
<path fill="none" stroke="black" d="M103,-1040.23C103,-1030.35 103,-1017.91 103,-1006.78"/>
<polygon fill="black" stroke="black" points="106.5,-1006.92 103,-996.92 99.5,-1006.92 106.5,-1006.92"/>
</g>
<!-- nodeid41 -->
<g id="node22" class="node">
<title>nodeid41</title>
<ellipse fill="white" stroke="#d55e00" stroke-width="3" cx="226" cy="-1287.15" rx="46.32" ry="27.93"/>
<text text-anchor="start" x="215.5" y="-1289.6" font-family="Arial" font-size="14.00">line</text>
<text text-anchor="start" x="201.25" y="-1273.85" font-family="Arial" font-size="14.00">« 1 – 6 »</text>
</g>
<!-- anond3e39 -->
<g id="node23" class="node">
<title>anond3e39</title>
<ellipse fill="none" stroke="black" cx="226" cy="-1214.22" rx="9" ry="9"/>
</g>
<!-- nodeid41&#45;&gt;anond3e39 -->
<g id="edge24" class="edge">
<title>nodeid41&#45;&gt;anond3e39</title>
<path fill="none" stroke="black" d="M226,-1258.12C226,-1250.38 226,-1242.14 226,-1234.97"/>
<polygon fill="black" stroke="black" points="229.5,-1235.08 226,-1225.08 222.5,-1235.08 229.5,-1235.08"/>
</g>
<!-- anond3e39&#45;&gt;nodeid39 -->
<g id="edge26" class="edge">
<title>anond3e39&#45;&gt;nodeid39</title>
<path fill="none" stroke="black" d="M232.43,-1207.66C240.38,-1200.79 254.55,-1188.53 268.49,-1176.47"/>
<polygon fill="black" stroke="black" points="270.66,-1179.22 275.93,-1170.03 266.08,-1173.93 270.66,-1179.22"/>
</g>
<!-- anond3e39&#45;&gt;nodeid40 -->
<g id="edge27" class="edge">
<title>anond3e39&#45;&gt;nodeid40</title>
<path fill="none" stroke="black" d="M220.71,-1206.66C204.35,-1186.32 153.87,-1123.59 124.6,-1087.21"/>
<polygon fill="black" stroke="black" points="127.6,-1085.35 118.6,-1079.75 122.14,-1089.74 127.6,-1085.35"/>
</g>
<!-- nodeid42 -->
<g id="node24" class="node">
<title>nodeid42</title>
<ellipse fill="white" stroke="#d55e00" stroke-width="3" cx="226" cy="-1379.02" rx="46.32" ry="27.93"/>
<text text-anchor="start" x="218.5" y="-1381.47" font-family="Arial" font-size="14.00">$$</text>
<text text-anchor="start" x="201.25" y="-1365.72" font-family="Arial" font-size="14.00">« 1 – 6 »</text>
</g>
<!-- nodeid42&#45;&gt;nodeid41 -->
<g id="edge28" class="edge">
<title>nodeid42&#45;&gt;nodeid41</title>
<path fill="none" stroke="black" d="M226,-1350.08C226,-1343.04 226,-1335.36 226,-1327.87"/>
<polygon fill="black" stroke="black" points="229.5,-1327.9 226,-1317.9 222.5,-1327.9 229.5,-1327.9"/>
</g>
</g>
</svg>
