<?xml version="1.0" encoding="UTF-8" standalone="no"?>
<!DOCTYPE svg PUBLIC "-//W3C//DTD SVG 1.1//EN"
 "http://www.w3.org/Graphics/SVG/1.1/DTD/svg11.dtd">
<!-- Generated by graphviz version 12.2.1 (20241206.2353)
 -->
<!-- Title: SPPF Pages: 1 -->
<svg width="369pt" height="1359pt"
 viewBox="0.00 0.00 369.00 1358.95" xmlns="http://www.w3.org/2000/svg" xmlns:xlink="http://www.w3.org/1999/xlink">
<g id="graph0" class="graph" transform="scale(1 1) rotate(0) translate(4 1354.95)">
<title>SPPF</title>
<polygon fill="none" stroke="none" points="-4,4 -4,-1354.95 365,-1354.95 365,4 -4,4"/>
<g id="clust1" class="cluster">
<title>cluster_id0</title>
<polygon fill="none" stroke="none" points="8,-652.73 8,-737.78 102,-737.78 102,-652.73 8,-652.73"/>
</g>
<g id="clust2" class="cluster">
<title>cluster_id7</title>
<polygon fill="none" stroke="none" points="31,-455.82 31,-540.87 125,-540.87 125,-455.82 31,-455.82"/>
</g>
<g id="clust3" class="cluster">
<title>cluster_id8</title>
<polygon fill="none" stroke="none" points="25,-560.87 25,-632.73 131,-632.73 131,-560.87 25,-560.87"/>
</g>
<g id="clust4" class="cluster">
<title>cluster_id9</title>
<polygon fill="none" stroke="none" points="45,-776.71 45,-921.5 153,-921.5 153,-776.71 45,-776.71"/>
</g>
<g id="clust6" class="cluster">
<title>cluster_id10</title>
<polygon fill="none" stroke="none" points="116,-941.5 116,-1013.36 224,-1013.36 224,-941.5 116,-941.5"/>
</g>
<g id="clust7" class="cluster">
<title>cluster_id15</title>
<polygon fill="none" stroke="none" points="143,-455.82 143,-540.87 237,-540.87 237,-455.82 143,-455.82"/>
</g>
<g id="clust8" class="cluster">
<title>cluster_id16</title>
<polygon fill="none" stroke="none" points="189,-560.87 189,-632.73 279,-632.73 279,-560.87 189,-560.87"/>
</g>
<g id="clust9" class="cluster">
<title>cluster_id17</title>
<polygon fill="none" stroke="none" points="219,-204.91 219,-289.96 313,-289.96 313,-204.91 219,-204.91"/>
</g>
<g id="clust10" class="cluster">
<title>cluster_id26</title>
<polygon fill="none" stroke="none" points="219,-8 219,-93.05 313,-93.05 313,-8 219,-8"/>
</g>
<g id="clust11" class="cluster">
<title>cluster_id27</title>
<polygon fill="none" stroke="none" points="213,-113.05 213,-184.91 319,-184.91 319,-113.05 213,-113.05"/>
</g>
<g id="clust12" class="cluster">
<title>cluster_id28</title>
<polygon fill="none" stroke="none" points="245,-309.96 245,-435.82 353,-435.82 353,-309.96 245,-309.96"/>
</g>
<g id="clust14" class="cluster">
<title>cluster_id29</title>
<polygon fill="none" stroke="none" points="245,-462.41 245,-534.27 353,-534.27 353,-462.41 245,-462.41"/>
</g>
<g id="clust15" class="cluster">
<title>cluster_id30</title>
<polygon fill="none" stroke="none" points="163,-678.25 163,-829.64 325,-829.64 325,-678.25 163,-678.25"/>
</g>
<g id="clust17" class="cluster">
<title>cluster_id32</title>
<polygon fill="none" stroke="none" points="161,-849.64 161,-921.5 327,-921.5 327,-849.64 161,-849.64"/>
</g>
<g id="clust18" class="cluster">
<title>cluster_id33</title>
<polygon fill="none" stroke="none" points="105,-1033.36 105,-1159.22 309,-1159.22 309,-1033.36 105,-1033.36"/>
</g>
<g id="clust20" class="cluster">
<title>cluster_id34</title>
<polygon fill="none" stroke="none" points="153,-1179.22 153,-1251.09 261,-1251.09 261,-1179.22 153,-1179.22"/>
</g>
<g id="clust21" class="cluster">
<title>cluster_id35</title>
<polygon fill="none" stroke="none" points="153,-1271.09 153,-1342.95 261,-1342.95 261,-1271.09 153,-1271.09"/>
</g>
<!-- nodeid0 -->
<g id="node1" class="node">
<title>nodeid0</title>
<polygon fill="white" stroke="#d55e00" stroke-width="3" points="93.89,-705.92 55,-729.78 16.11,-705.92 16.14,-667.32 93.86,-667.32 93.89,-705.92"/>
<text text-anchor="start" x="47.5" y="-697.7" font-family="Arial" font-size="14.00">&#39;X&#39;</text>
<text text-anchor="start" x="40.75" y="-681.95" font-family="Arial" font-size="14.00">« 1 »</text>
</g>
<!-- nodeid8 -->
<g id="node3" class="node">
<title>nodeid8</title>
<ellipse fill="white" stroke="#d55e00" stroke-width="3" cx="78" cy="-596.8" rx="44.72" ry="27.93"/>
<text text-anchor="start" x="54.38" y="-599.25" font-family="Arial" font-size="14.00">$3_plus</text>
<text text-anchor="start" x="63.75" y="-583.5" font-family="Arial" font-size="14.00">« 2 »</text>
</g>
<!-- nodeid0&#45;&gt;nodeid8 -->
<!-- nodeid7 -->
<g id="node2" class="node">
<title>nodeid7</title>
<polygon fill="white" stroke="#d55e00" stroke-width="3" points="116.89,-509.01 78,-532.87 39.11,-509.01 39.14,-470.41 116.86,-470.41 116.89,-509.01"/>
<text text-anchor="start" x="70.5" y="-500.79" font-family="Arial" font-size="14.00">&#39;V&#39;</text>
<text text-anchor="start" x="63.75" y="-485.04" font-family="Arial" font-size="14.00">« 2 »</text>
</g>
<!-- nodeid8&#45;&gt;nodeid7 -->
<g id="edge1" class="edge">
<title>nodeid8&#45;&gt;nodeid7</title>
<path fill="none" stroke="black" d="M78,-567.38C78,-560.6 78,-553.18 78,-545.82"/>
<polygon fill="black" stroke="black" points="81.5,-545.91 78,-535.91 74.5,-545.91 81.5,-545.91"/>
</g>
<!-- nodeid9 -->
<g id="node4" class="node">
<title>nodeid9</title>
<ellipse fill="white" stroke="#d55e00" stroke-width="3" cx="99" cy="-885.57" rx="46.32" ry="27.93"/>
<text text-anchor="start" x="75.38" y="-888.02" font-family="Arial" font-size="14.00">$3_plus</text>
<text text-anchor="start" x="74.25" y="-872.27" font-family="Arial" font-size="14.00">« 1 – 3 »</text>
</g>
<!-- anond3e7 -->
<g id="node5" class="node">
<title>anond3e7</title>
<ellipse fill="none" stroke="black" cx="99" cy="-793.71" rx="9" ry="9"/>
</g>
<!-- nodeid9&#45;&gt;anond3e7 -->
<g id="edge2" class="edge">
<title>nodeid9&#45;&gt;anond3e7</title>
<path fill="none" stroke="black" d="M99,-856.63C99,-842.86 99,-826.6 99,-814.2"/>
<polygon fill="black" stroke="black" points="102.5,-814.45 99,-804.45 95.5,-814.45 102.5,-814.45"/>
</g>
<!-- anond3e7&#45;&gt;nodeid0 -->
<g id="edge4" class="edge">
<title>anond3e7&#45;&gt;nodeid0</title>
<path fill="none" stroke="black" d="M95.55,-785.14C90.55,-774.17 80.94,-753.11 72.33,-734.24"/>
<polygon fill="black" stroke="black" points="75.52,-732.8 68.18,-725.15 69.15,-735.7 75.52,-732.8"/>
</g>
<!-- anond3e7&#45;&gt;nodeid8 -->
<g id="edge5" class="edge">
<title>anond3e7&#45;&gt;nodeid8</title>
<path fill="none" stroke="black" d="M100.96,-784.67C105.93,-763 117.76,-701.71 106,-652.73 104.53,-646.62 102.26,-640.41 99.64,-634.49"/>
<polygon fill="black" stroke="black" points="102.81,-633.01 95.29,-625.56 96.52,-636.08 102.81,-633.01"/>
</g>
<!-- nodeid10 -->
<g id="node6" class="node">
<title>nodeid10</title>
<ellipse fill="white" stroke="#d55e00" stroke-width="3" cx="170" cy="-977.43" rx="46.32" ry="27.93"/>
<text text-anchor="start" x="150.5" y="-979.88" font-family="Arial" font-size="14.00">roman</text>
<text text-anchor="start" x="145.25" y="-964.13" font-family="Arial" font-size="14.00">« 1 – 3 »</text>
</g>
<!-- nodeid10&#45;&gt;nodeid9 -->
<g id="edge6" class="edge">
<title>nodeid10&#45;&gt;nodeid9</title>
<path fill="none" stroke="black" d="M149.84,-950.92C142.5,-941.63 134.07,-930.96 126.21,-921.01"/>
<polygon fill="black" stroke="black" points="129.09,-919.01 120.14,-913.33 123.6,-923.35 129.09,-919.01"/>
</g>
<!-- nodeid32 -->
<g id="node17" class="node">
<title>nodeid32</title>
<ellipse fill="white" stroke="#d55e00" stroke-width="3" cx="244" cy="-885.57" rx="75.48" ry="27.93"/>
<text text-anchor="start" x="198.62" y="-888.02" font-family="Arial" font-size="14.00">$2_space&#45;starⁿ</text>
<text text-anchor="start" x="219.25" y="-872.27" font-family="Arial" font-size="14.00">« 3 – 6 »</text>
</g>
<!-- nodeid10&#45;&gt;nodeid32 -->
<!-- nodeid15 -->
<g id="node7" class="node">
<title>nodeid15</title>
<polygon fill="white" stroke="#d55e00" stroke-width="3" points="228.89,-509.01 190,-532.87 151.11,-509.01 151.14,-470.41 228.86,-470.41 228.89,-509.01"/>
<text text-anchor="start" x="185.12" y="-500.79" font-family="Arial" font-size="14.00">&#39; &#39;</text>
<text text-anchor="start" x="175.75" y="-485.04" font-family="Arial" font-size="14.00">« 3 »</text>
</g>
<!-- nodeid16 -->
<g id="node8" class="node">
<title>nodeid16</title>
<ellipse fill="white" stroke="#d55e00" stroke-width="3" cx="234" cy="-596.8" rx="36.77" ry="27.93"/>
<text text-anchor="start" x="216" y="-599.25" font-family="Arial" font-size="14.00">space</text>
<text text-anchor="start" x="219.75" y="-583.5" font-family="Arial" font-size="14.00">« 3 »</text>
</g>
<!-- nodeid16&#45;&gt;nodeid15 -->
<g id="edge7" class="edge">
<title>nodeid16&#45;&gt;nodeid15</title>
<path fill="none" stroke="black" d="M221.74,-568.93C217.24,-559.06 212.06,-547.7 207.21,-537.06"/>
<polygon fill="black" stroke="black" points="210.46,-535.76 203.12,-528.12 204.09,-538.67 210.46,-535.76"/>
</g>
<!-- nodeid29 -->
<g id="node14" class="node">
<title>nodeid29</title>
<ellipse fill="white" stroke="#d55e00" stroke-width="3" cx="299" cy="-498.34" rx="46.32" ry="27.93"/>
<text text-anchor="start" x="279.5" y="-500.79" font-family="Arial" font-size="14.00">roman</text>
<text text-anchor="start" x="274.25" y="-485.04" font-family="Arial" font-size="14.00">« 4 – 6 »</text>
</g>
<!-- nodeid16&#45;&gt;nodeid29 -->
<!-- nodeid17 -->
<g id="node9" class="node">
<title>nodeid17</title>
<polygon fill="white" stroke="#d55e00" stroke-width="3" points="304.89,-258.1 266,-281.96 227.11,-258.1 227.14,-219.5 304.86,-219.5 304.89,-258.1"/>
<text text-anchor="start" x="258.12" y="-249.88" font-family="Arial" font-size="14.00">&#39;C&#39;</text>
<text text-anchor="start" x="251.75" y="-234.13" font-family="Arial" font-size="14.00">« 4 »</text>
</g>
<!-- nodeid27 -->
<g id="node11" class="node">
<title>nodeid27</title>
<ellipse fill="white" stroke="#d55e00" stroke-width="3" cx="266" cy="-148.98" rx="44.72" ry="27.93"/>
<text text-anchor="start" x="242.38" y="-151.43" font-family="Arial" font-size="14.00">$3_plus</text>
<text text-anchor="start" x="251.75" y="-135.68" font-family="Arial" font-size="14.00">« 5 »</text>
</g>
<!-- nodeid17&#45;&gt;nodeid27 -->
<!-- nodeid26 -->
<g id="node10" class="node">
<title>nodeid26</title>
<polygon fill="white" stroke="#d55e00" stroke-width="3" points="304.89,-61.19 266,-85.05 227.11,-61.19 227.14,-22.59 304.86,-22.59 304.89,-61.19"/>
<text text-anchor="start" x="259.25" y="-52.97" font-family="Arial" font-size="14.00">&#39;L&#39;</text>
<text text-anchor="start" x="251.75" y="-37.22" font-family="Arial" font-size="14.00">« 5 »</text>
</g>
<!-- nodeid27&#45;&gt;nodeid26 -->
<g id="edge8" class="edge">
<title>nodeid27&#45;&gt;nodeid26</title>
<path fill="none" stroke="black" d="M266,-119.56C266,-112.78 266,-105.36 266,-98"/>
<polygon fill="black" stroke="black" points="269.5,-98.09 266,-88.09 262.5,-98.09 269.5,-98.09"/>
</g>
<!-- nodeid28 -->
<g id="node12" class="node">
<title>nodeid28</title>
<ellipse fill="white" stroke="#d55e00" stroke-width="3" cx="299" cy="-399.89" rx="46.32" ry="27.93"/>
<text text-anchor="start" x="275.38" y="-402.34" font-family="Arial" font-size="14.00">$3_plus</text>
<text text-anchor="start" x="274.25" y="-386.59" font-family="Arial" font-size="14.00">« 4 – 6 »</text>
</g>
<!-- anond3e20 -->
<g id="node13" class="node">
<title>anond3e20</title>
<ellipse fill="none" stroke="black" cx="299" cy="-326.96" rx="9" ry="9"/>
</g>
<!-- nodeid28&#45;&gt;anond3e20 -->
<g id="edge9" class="edge">
<title>nodeid28&#45;&gt;anond3e20</title>
<path fill="none" stroke="black" d="M299,-370.86C299,-363.11 299,-354.87 299,-347.7"/>
<polygon fill="black" stroke="black" points="302.5,-347.82 299,-337.82 295.5,-347.82 302.5,-347.82"/>
</g>
<!-- anond3e20&#45;&gt;nodeid17 -->
<g id="edge11" class="edge">
<title>anond3e20&#45;&gt;nodeid17</title>
<path fill="none" stroke="black" d="M295.72,-318.24C292.51,-310.72 287.39,-298.69 282.3,-286.72"/>
<polygon fill="black" stroke="black" points="285.61,-285.56 278.47,-277.73 279.17,-288.3 285.61,-285.56"/>
</g>
<!-- anond3e20&#45;&gt;nodeid27 -->
<g id="edge12" class="edge">
<title>anond3e20&#45;&gt;nodeid27</title>
<path fill="none" stroke="black" d="M303.78,-318.89C308.2,-311.9 314.46,-300.7 317,-289.96 325.68,-253.17 330.82,-240.09 317,-204.91 313.51,-196.03 307.84,-187.73 301.52,-180.41"/>
<polygon fill="black" stroke="black" points="304.33,-178.28 294.93,-173.39 299.22,-183.08 304.33,-178.28"/>
</g>
<!-- nodeid29&#45;&gt;nodeid28 -->
<g id="edge13" class="edge">
<title>nodeid29&#45;&gt;nodeid28</title>
<path fill="none" stroke="black" d="M299,-468.93C299,-460 299,-449.97 299,-440.42"/>
<polygon fill="black" stroke="black" points="302.5,-440.62 299,-430.62 295.5,-440.62 302.5,-440.62"/>
</g>
<!-- nodeid30 -->
<g id="node15" class="node">
<title>nodeid30</title>
<ellipse fill="white" stroke="#d55e00" stroke-width="3" cx="244" cy="-793.71" rx="73.36" ry="27.93"/>
<text text-anchor="start" x="200.12" y="-796.16" font-family="Arial" font-size="14.00">$4_space&#45;plus</text>
<text text-anchor="start" x="219.25" y="-780.41" font-family="Arial" font-size="14.00">« 3 – 6 »</text>
</g>
<!-- anond3e27 -->
<g id="node16" class="node">
<title>anond3e27</title>
<ellipse fill="none" stroke="black" cx="244" cy="-695.25" rx="9" ry="9"/>
</g>
<!-- nodeid30&#45;&gt;anond3e27 -->
<g id="edge14" class="edge">
<title>nodeid30&#45;&gt;anond3e27</title>
<path fill="none" stroke="black" d="M244,-764.29C244,-748.63 244,-729.61 244,-715.66"/>
<polygon fill="black" stroke="black" points="247.5,-716.03 244,-706.03 240.5,-716.03 247.5,-716.03"/>
</g>
<!-- anond3e27&#45;&gt;nodeid16 -->
<g id="edge16" class="edge">
<title>anond3e27&#45;&gt;nodeid16</title>
<path fill="none" stroke="black" d="M243.15,-686.03C242.02,-675.14 239.95,-655.19 238.07,-637.01"/>
<polygon fill="black" stroke="black" points="241.56,-636.82 237.05,-627.23 234.6,-637.54 241.56,-636.82"/>
</g>
<!-- anond3e27&#45;&gt;nodeid29 -->
<g id="edge17" class="edge">
<title>anond3e27&#45;&gt;nodeid29</title>
<path fill="none" stroke="black" d="M249.38,-687.94C258.1,-677.33 275.11,-654.89 283,-632.73 293.77,-602.49 297.59,-566.21 298.81,-539.13"/>
<polygon fill="black" stroke="black" points="302.3,-539.38 299.15,-529.27 295.31,-539.15 302.3,-539.38"/>
</g>
<!-- nodeid32&#45;&gt;nodeid30 -->
<g id="edge18" class="edge">
<title>nodeid32&#45;&gt;nodeid30</title>
<path fill="none" stroke="black" d="M244,-856.63C244,-849.6 244,-841.91 244,-834.43"/>
<polygon fill="black" stroke="black" points="247.5,-834.46 244,-824.46 240.5,-834.46 247.5,-834.46"/>
</g>
<!-- nodeid33 -->
<g id="node18" class="node">
<title>nodeid33</title>
<ellipse fill="white" stroke="#d55e00" stroke-width="3" cx="207" cy="-1123.29" rx="94.05" ry="27.93"/>
<text text-anchor="start" x="148.5" y="-1125.74" font-family="Arial" font-size="14.00">$1_roman&#45;plus&#45;sep</text>
<text text-anchor="start" x="182.25" y="-1109.99" font-family="Arial" font-size="14.00">« 1 – 6 »</text>
</g>
<!-- anond3e33 -->
<g id="node19" class="node">
<title>anond3e33</title>
<ellipse fill="none" stroke="black" cx="207" cy="-1050.36" rx="9" ry="9"/>
</g>
<!-- nodeid33&#45;&gt;anond3e33 -->
<g id="edge19" class="edge">
<title>nodeid33&#45;&gt;anond3e33</title>
<path fill="none" stroke="black" d="M207,-1094.26C207,-1086.52 207,-1078.28 207,-1071.11"/>
<polygon fill="black" stroke="black" points="210.5,-1071.22 207,-1061.22 203.5,-1071.22 210.5,-1071.22"/>
</g>
<!-- anond3e33&#45;&gt;nodeid10 -->
<g id="edge21" class="edge">
<title>anond3e33&#45;&gt;nodeid10</title>
<path fill="none" stroke="black" d="M203.04,-1041.77C199.66,-1035.29 194.52,-1025.44 189.3,-1015.43"/>
<polygon fill="black" stroke="black" points="192.54,-1014.07 184.81,-1006.82 186.33,-1017.31 192.54,-1014.07"/>
</g>
<!-- anond3e33&#45;&gt;nodeid32 -->
<g id="edge22" class="edge">
<title>anond3e33&#45;&gt;nodeid32</title>
<path fill="none" stroke="black" d="M212.08,-1042.6C217.01,-1035.65 224.28,-1024.33 228,-1013.36 237.53,-985.25 241.47,-951.88 243.06,-926.44"/>
<polygon fill="black" stroke="black" points="246.55,-926.68 243.57,-916.51 239.56,-926.31 246.55,-926.68"/>
</g>
<!-- nodeid34 -->
<g id="node20" class="node">
<title>nodeid34</title>
<ellipse fill="white" stroke="#d55e00" stroke-width="3" cx="207" cy="-1215.15" rx="46.32" ry="27.93"/>
<text text-anchor="start" x="196.5" y="-1217.6" font-family="Arial" font-size="14.00">line</text>
<text text-anchor="start" x="182.25" y="-1201.85" font-family="Arial" font-size="14.00">« 1 – 6 »</text>
</g>
<!-- nodeid34&#45;&gt;nodeid33 -->
<g id="edge23" class="edge">
<title>nodeid34&#45;&gt;nodeid33</title>
<path fill="none" stroke="black" d="M207,-1186.21C207,-1179.18 207,-1171.5 207,-1164.01"/>
<polygon fill="black" stroke="black" points="210.5,-1164.04 207,-1154.04 203.5,-1164.04 210.5,-1164.04"/>
</g>
<!-- nodeid35 -->
<g id="node21" class="node">
<title>nodeid35</title>
<ellipse fill="white" stroke="#d55e00" stroke-width="3" cx="207" cy="-1307.02" rx="46.32" ry="27.93"/>
<text text-anchor="start" x="199.5" y="-1309.47" font-family="Arial" font-size="14.00">$$</text>
<text text-anchor="start" x="182.25" y="-1293.72" font-family="Arial" font-size="14.00">« 1 – 6 »</text>
</g>
<!-- nodeid35&#45;&gt;nodeid34 -->
<g id="edge24" class="edge">
<title>nodeid35&#45;&gt;nodeid34</title>
<path fill="none" stroke="black" d="M207,-1278.08C207,-1271.04 207,-1263.36 207,-1255.87"/>
<polygon fill="black" stroke="black" points="210.5,-1255.9 207,-1245.9 203.5,-1255.9 210.5,-1255.9"/>
</g>
</g>
</svg>
