<?xml version="1.0" encoding="UTF-8" standalone="no"?>
<!DOCTYPE svg PUBLIC "-//W3C//DTD SVG 1.1//EN"
 "http://www.w3.org/Graphics/SVG/1.1/DTD/svg11.dtd">
<!-- Generated by graphviz version 12.2.1 (20241206.2353)
 -->
<!-- Title: pipeline Pages: 1 -->
<svg width="160pt" height="505pt"
 viewBox="0.00 0.00 160.00 504.50" xmlns="http://www.w3.org/2000/svg" xmlns:xlink="http://www.w3.org/1999/xlink">
<g id="graph0" class="graph" transform="scale(1 1) rotate(0) translate(4 500.5)">
<title>pipeline</title>
<polygon fill="white" stroke="none" points="-4,4 -4,-500.5 156,-500.5 156,4 -4,4"/>
<g id="declare&#45;step" class="cluster">
<title>cluster_d149e12</title>
<polygon fill="none" stroke="black" points="8,-64 8,-452.5 144,-452.5 144,-64 8,-64"/>
<text text-anchor="middle" x="76" y="-435.2" font-family="Times,serif" font-size="14.00">!declare&#45;step</text>
</g>
<!-- d149e15 -->
<g id="node1" class="node">
<title>d149e15</title>
<polygon fill="none" stroke="black" points="24.25,-393.5 24.25,-416 127.75,-416 127.75,-393.5 24.25,-393.5"/>
<text text-anchor="start" x="58.38" y="-399.7" font-family="Times,serif" font-size="14.00">source</text>
<polygon fill="none" stroke="black" points="24.25,-354.5 24.25,-393.5 127.75,-393.5 127.75,-354.5 24.25,-354.5"/>
<text text-anchor="start" x="55" y="-377.2" font-family="Times,serif" font-size="14.00">cx:head</text>
<text text-anchor="start" x="27.25" y="-360.7" font-family="Times,serif" font-size="14.00">declare&#45;step_head</text>
<polygon fill="none" stroke="black" points="24.25,-332 24.25,-354.5 127.75,-354.5 127.75,-332 24.25,-332"/>
<text text-anchor="start" x="58.38" y="-338.2" font-family="Times,serif" font-size="14.00">source</text>
</g>
<!-- d149e17 -->
<g id="node2" class="node">
<title>d149e17</title>
<polygon fill="#aaffaa" stroke="none" points="47.12,-265.5 47.12,-288 104.88,-288 104.88,-265.5 47.12,-265.5"/>
<polygon fill="none" stroke="black" points="47.12,-265.5 47.12,-288 104.88,-288 104.88,-265.5 47.12,-265.5"/>
<text text-anchor="start" x="58.38" y="-271.7" font-family="Times,serif" font-size="14.00">source</text>
<polygon fill="none" stroke="black" points="47.12,-226.5 47.12,-265.5 104.88,-265.5 104.88,-226.5 47.12,-226.5"/>
<text text-anchor="start" x="50.12" y="-249.2" font-family="Times,serif" font-size="14.00">p:identity</text>
<text text-anchor="start" x="55.38" y="-232.7" font-family="Times,serif" font-size="14.00">identity</text>
<polygon fill="none" stroke="black" points="47.12,-204 47.12,-226.5 104.88,-226.5 104.88,-204 47.12,-204"/>
<text text-anchor="start" x="61" y="-210.2" font-family="Times,serif" font-size="14.00">result</text>
</g>
<!-- d149e15&#45;&gt;d149e17 -->
<g id="edge4" class="edge">
<title>d149e15:d149e16&#45;&gt;d149e17:d149e18</title>
<path fill="none" stroke="#ff0000" stroke-width="2" d="M76,-331C76,-317.44 76,-311.27 76,-301.74"/>
<polygon fill="#ff0000" stroke="#ff0000" stroke-width="2" points="79.5,-302.03 76,-292.03 72.5,-302.03 79.5,-302.03"/>
</g>
<!-- d149e20 -->
<g id="node3" class="node">
<title>d149e20</title>
<polygon fill="#aaffaa" stroke="none" points="26.12,-137.5 26.12,-160 125.88,-160 125.88,-137.5 26.12,-137.5"/>
<polygon fill="none" stroke="black" points="26.12,-137.5 26.12,-160 125.88,-160 125.88,-137.5 26.12,-137.5"/>
<text text-anchor="start" x="61" y="-143.7" font-family="Times,serif" font-size="14.00">result</text>
<polygon fill="none" stroke="black" points="26.12,-98.5 26.12,-137.5 125.88,-137.5 125.88,-98.5 26.12,-98.5"/>
<text text-anchor="start" x="56.88" y="-121.2" font-family="Times,serif" font-size="14.00">cx:foot</text>
<text text-anchor="start" x="29.12" y="-104.7" font-family="Times,serif" font-size="14.00">declare&#45;step_foot</text>
<polygon fill="none" stroke="black" points="26.12,-76 26.12,-98.5 125.88,-98.5 125.88,-76 26.12,-76"/>
<text text-anchor="start" x="61" y="-82.2" font-family="Times,serif" font-size="14.00">result</text>
</g>
<!-- d149e17&#45;&gt;d149e20 -->
<g id="edge3" class="edge">
<title>d149e17:d149e19&#45;&gt;d149e20:d149e21</title>
<path fill="none" stroke="#ff0000" stroke-width="2" d="M76,-203C76,-189.44 76,-183.27 76,-173.74"/>
<polygon fill="#ff0000" stroke="#ff0000" stroke-width="2" points="79.5,-174.03 76,-164.03 72.5,-174.03 79.5,-174.03"/>
</g>
<!-- d149e22 -->
<g id="node5" class="node">
<title>d149e22</title>
<polygon fill="none" stroke="black" points="114.8,-23.56 76,-36 37.2,-23.56 37.23,-3.44 114.77,-3.44 114.8,-23.56"/>
<text text-anchor="middle" x="76" y="-12.95" font-family="Times,serif" font-size="14.00">result</text>
</g>
<!-- d149e20&#45;&gt;d149e22 -->
<g id="edge2" class="edge">
<title>d149e20:O_d149e21&#45;&gt;d149e22</title>
<path fill="none" stroke="black" d="M76,-75C76,-66.04 76,-56.28 76,-47.45"/>
<polygon fill="black" stroke="black" points="79.5,-47.67 76,-37.67 72.5,-47.67 79.5,-47.67"/>
</g>
<!-- d149e11 -->
<g id="node4" class="node">
<title>d149e11</title>
<polygon fill="none" stroke="black" points="32.77,-472.94 76,-460.5 119.23,-472.94 119.19,-493.06 32.81,-493.06 32.77,-472.94"/>
<text text-anchor="middle" x="76" y="-473.45" font-family="Times,serif" font-size="14.00">source</text>
</g>
<!-- d149e11&#45;&gt;d149e15 -->
<g id="edge1" class="edge">
<title>d149e11&#45;&gt;d149e15:I_d149e16</title>
<path fill="none" stroke="black" d="M76,-460.03C76,-451.06 76,-439.69 76,-428.49"/>
<polygon fill="black" stroke="black" points="79.5,-428.51 76,-418.51 72.5,-428.51 79.5,-428.51"/>
</g>
</g>
</svg>
