<?xml version="1.0" encoding="UTF-8" standalone="no"?>
<!DOCTYPE svg PUBLIC "-//W3C//DTD SVG 1.1//EN"
 "http://www.w3.org/Graphics/SVG/1.1/DTD/svg11.dtd">
<!-- Generated by graphviz version 12.2.1 (20241206.2353)
 -->
<!-- Title: SPPF Pages: 1 -->
<svg width="420pt" height="857pt"
 viewBox="0.00 0.00 420.00 857.13" xmlns="http://www.w3.org/2000/svg" xmlns:xlink="http://www.w3.org/1999/xlink">
<g id="graph0" class="graph" transform="scale(1 1) rotate(0) translate(4 853.13)">
<title>SPPF</title>
<polygon fill="none" stroke="none" points="-4,4 -4,-853.13 416,-853.13 416,4 -4,4"/>
<g id="clust1" class="cluster">
<title>cluster_id0</title>
<polygon fill="none" stroke="none" points="191,-204.91 191,-289.96 285,-289.96 285,-204.91 191,-204.91"/>
</g>
<g id="clust2" class="cluster">
<title>cluster_id1</title>
<polygon fill="none" stroke="none" points="182,-309.96 182,-381.82 288,-381.82 288,-309.96 182,-309.96"/>
</g>
<g id="clust3" class="cluster">
<title>cluster_id2</title>
<polygon fill="none" stroke="none" points="120,-401.82 120,-473.68 214,-473.68 214,-401.82 120,-401.82"/>
</g>
<g id="clust4" class="cluster">
<title>cluster_id6</title>
<polygon fill="none" stroke="none" points="191,-8 191,-93.05 285,-93.05 285,-8 191,-8"/>
</g>
<g id="clust5" class="cluster">
<title>cluster_id7</title>
<polygon fill="none" stroke="none" points="185,-113.05 185,-184.91 291,-184.91 291,-113.05 185,-113.05"/>
</g>
<g id="clust6" class="cluster">
<title>cluster_id8</title>
<polygon fill="none" stroke="none" points="296,-328.89 296,-473.68 404,-473.68 404,-328.89 296,-328.89"/>
</g>
<g id="clust8" class="cluster">
<title>cluster_id9</title>
<polygon fill="none" stroke="none" points="68,-211.5 68,-283.36 162,-283.36 162,-211.5 68,-211.5"/>
</g>
<g id="clust9" class="cluster">
<title>cluster_id10</title>
<polygon fill="none" stroke="none" points="293,-493.68 293,-565.54 401,-565.54 401,-493.68 293,-493.68"/>
</g>
<g id="clust10" class="cluster">
<title>cluster_id11</title>
<polygon fill="none" stroke="none" points="8,-309.96 8,-381.82 174,-381.82 174,-309.96 8,-309.96"/>
</g>
<g id="clust11" class="cluster">
<title>cluster_id12</title>
<polygon fill="none" stroke="none" points="96,-512.61 96,-657.4 262,-657.4 262,-512.61 96,-512.61"/>
</g>
<g id="clust13" class="cluster">
<title>cluster_id13</title>
<polygon fill="none" stroke="none" points="125,-677.4 125,-749.27 233,-749.27 233,-677.4 125,-677.4"/>
</g>
<g id="clust14" class="cluster">
<title>cluster_id14</title>
<polygon fill="none" stroke="none" points="125,-769.27 125,-841.13 233,-841.13 233,-769.27 125,-769.27"/>
</g>
<!-- nodeid0 -->
<g id="node1" class="node">
<title>nodeid0</title>
<polygon fill="white" stroke="#d55e00" stroke-width="3" points="276.89,-258.1 238,-281.96 199.11,-258.1 199.14,-219.5 276.86,-219.5 276.89,-258.1"/>
<text text-anchor="start" x="230.5" y="-249.88" font-family="Arial" font-size="14.00">&#39;X&#39;</text>
<text text-anchor="start" x="223.75" y="-234.13" font-family="Arial" font-size="14.00">« 1 »</text>
</g>
<!-- nodeid7 -->
<g id="node5" class="node">
<title>nodeid7</title>
<ellipse fill="white" stroke="#d55e00" stroke-width="3" cx="238" cy="-148.98" rx="44.72" ry="27.93"/>
<text text-anchor="start" x="214.38" y="-151.43" font-family="Arial" font-size="14.00">$2_plus</text>
<text text-anchor="start" x="223.75" y="-135.68" font-family="Arial" font-size="14.00">« 2 »</text>
</g>
<!-- nodeid0&#45;&gt;nodeid7 -->
<!-- nodeid1 -->
<g id="node2" class="node">
<title>nodeid1</title>
<ellipse fill="white" stroke="black" cx="235" cy="-345.89" rx="44.72" ry="27.93"/>
<text text-anchor="start" x="211.38" y="-348.34" font-family="Arial" font-size="14.00">$2_plus</text>
<text text-anchor="start" x="220.75" y="-332.59" font-family="Arial" font-size="14.00">« 1 »</text>
</g>
<!-- nodeid1&#45;&gt;nodeid0 -->
<g id="edge1" class="edge">
<title>nodeid1&#45;&gt;nodeid0</title>
<path fill="none" stroke="black" d="M235.85,-317.51C236.08,-310.25 236.33,-302.21 236.57,-294.26"/>
<polygon fill="black" stroke="black" points="240.07,-294.38 236.89,-284.28 233.08,-294.17 240.07,-294.38"/>
</g>
<!-- nodeid2 -->
<g id="node3" class="node">
<title>nodeid2</title>
<ellipse fill="white" stroke="black" cx="167" cy="-437.75" rx="38.89" ry="27.93"/>
<text text-anchor="start" x="147.5" y="-440.2" font-family="Arial" font-size="14.00">roman</text>
<text text-anchor="start" x="152.75" y="-424.45" font-family="Arial" font-size="14.00">« 1 »</text>
</g>
<!-- nodeid2&#45;&gt;nodeid1 -->
<g id="edge2" class="edge">
<title>nodeid2&#45;&gt;nodeid1</title>
<path fill="none" stroke="black" d="M185.22,-412.67C192.65,-402.86 201.36,-391.34 209.41,-380.71"/>
<polygon fill="black" stroke="black" points="212.1,-382.96 215.34,-372.87 206.51,-378.73 212.1,-382.96"/>
</g>
<!-- nodeid11 -->
<g id="node10" class="node">
<title>nodeid11</title>
<ellipse fill="white" stroke="black" cx="91" cy="-345.89" rx="75.48" ry="27.93"/>
<text text-anchor="start" x="45.62" y="-348.34" font-family="Arial" font-size="14.00">$1_roman&#45;plus</text>
<text text-anchor="start" x="76.75" y="-332.59" font-family="Arial" font-size="14.00">« 2 »</text>
</g>
<!-- nodeid2&#45;&gt;nodeid11 -->
<!-- nodeid6 -->
<g id="node4" class="node">
<title>nodeid6</title>
<polygon fill="white" stroke="#d55e00" stroke-width="3" points="276.89,-61.19 238,-85.05 199.11,-61.19 199.14,-22.59 276.86,-22.59 276.89,-61.19"/>
<text text-anchor="start" x="230.5" y="-52.97" font-family="Arial" font-size="14.00">&#39;V&#39;</text>
<text text-anchor="start" x="223.75" y="-37.22" font-family="Arial" font-size="14.00">« 2 »</text>
</g>
<!-- nodeid7&#45;&gt;nodeid6 -->
<g id="edge3" class="edge">
<title>nodeid7&#45;&gt;nodeid6</title>
<path fill="none" stroke="black" d="M238,-119.56C238,-112.78 238,-105.36 238,-98"/>
<polygon fill="black" stroke="black" points="241.5,-98.09 238,-88.09 234.5,-98.09 241.5,-98.09"/>
</g>
<!-- nodeid8 -->
<g id="node6" class="node">
<title>nodeid8</title>
<ellipse fill="white" stroke="#d55e00" stroke-width="3" cx="350" cy="-437.75" rx="46.32" ry="27.93"/>
<text text-anchor="start" x="326.38" y="-440.2" font-family="Arial" font-size="14.00">$2_plus</text>
<text text-anchor="start" x="325.25" y="-424.45" font-family="Arial" font-size="14.00">« 1 – 3 »</text>
</g>
<!-- anond3e11 -->
<g id="node7" class="node">
<title>anond3e11</title>
<ellipse fill="none" stroke="black" cx="313" cy="-345.89" rx="9" ry="9"/>
</g>
<!-- nodeid8&#45;&gt;anond3e11 -->
<g id="edge4" class="edge">
<title>nodeid8&#45;&gt;anond3e11</title>
<path fill="none" stroke="black" d="M338.7,-409.3C332.84,-395.06 325.83,-378.05 320.62,-365.39"/>
<polygon fill="black" stroke="black" points="323.88,-364.12 316.84,-356.21 317.41,-366.79 323.88,-364.12"/>
</g>
<!-- anond3e11&#45;&gt;nodeid0 -->
<g id="edge6" class="edge">
<title>anond3e11&#45;&gt;nodeid0</title>
<path fill="none" stroke="black" d="M309.02,-337.42C305.05,-330.18 298.59,-318.99 292,-309.96 284.3,-299.41 275.17,-288.51 266.63,-278.87"/>
<polygon fill="black" stroke="black" points="269.32,-276.63 260.02,-271.54 264.12,-281.31 269.32,-276.63"/>
</g>
<!-- anond3e11&#45;&gt;nodeid7 -->
<g id="edge7" class="edge">
<title>anond3e11&#45;&gt;nodeid7</title>
<path fill="none" stroke="black" d="M313.18,-336.5C313.35,-313.95 311.62,-250.67 289,-204.91 284.77,-196.36 278.78,-188.2 272.39,-180.91"/>
<polygon fill="black" stroke="black" points="275.2,-178.79 265.81,-173.88 270.09,-183.58 275.2,-178.79"/>
</g>
<!-- nodeid9 -->
<g id="node8" class="node">
<title>nodeid9</title>
<ellipse fill="white" stroke="black" cx="115" cy="-247.43" rx="38.89" ry="27.93"/>
<text text-anchor="start" x="95.5" y="-249.88" font-family="Arial" font-size="14.00">roman</text>
<text text-anchor="start" x="100.75" y="-234.13" font-family="Arial" font-size="14.00">« 2 »</text>
</g>
<!-- nodeid9&#45;&gt;nodeid7 -->
<g id="edge8" class="edge">
<title>nodeid9&#45;&gt;nodeid7</title>
<path fill="none" stroke="black" d="M140.78,-226.21C158.18,-212.58 181.4,-194.36 200.79,-179.16"/>
<polygon fill="black" stroke="black" points="202.77,-182.05 208.48,-173.13 198.45,-176.54 202.77,-182.05"/>
</g>
<!-- nodeid10 -->
<g id="node9" class="node">
<title>nodeid10</title>
<ellipse fill="white" stroke="#d55e00" stroke-width="3" cx="347" cy="-529.61" rx="46.32" ry="27.93"/>
<text text-anchor="start" x="327.5" y="-532.06" font-family="Arial" font-size="14.00">roman</text>
<text text-anchor="start" x="322.25" y="-516.31" font-family="Arial" font-size="14.00">« 1 – 3 »</text>
</g>
<!-- nodeid10&#45;&gt;nodeid8 -->
<g id="edge9" class="edge">
<title>nodeid10&#45;&gt;nodeid8</title>
<path fill="none" stroke="black" d="M347.93,-500.67C348.17,-493.64 348.42,-485.96 348.67,-478.47"/>
<polygon fill="black" stroke="black" points="352.17,-478.61 349.01,-468.5 345.18,-478.37 352.17,-478.61"/>
</g>
<!-- nodeid11&#45;&gt;nodeid9 -->
<g id="edge10" class="edge">
<title>nodeid11&#45;&gt;nodeid9</title>
<path fill="none" stroke="black" d="M97.75,-317.76C100.17,-308.03 102.95,-296.86 105.56,-286.37"/>
<polygon fill="black" stroke="black" points="108.92,-287.37 107.94,-276.82 102.12,-285.68 108.92,-287.37"/>
</g>
<!-- nodeid12 -->
<g id="node11" class="node">
<title>nodeid12</title>
<ellipse fill="white" stroke="#d55e00" stroke-width="3" cx="179" cy="-621.47" rx="75.48" ry="27.93"/>
<text text-anchor="start" x="133.62" y="-623.92" font-family="Arial" font-size="14.00" fill="#0072b2">$1_roman&#45;plus</text>
<text text-anchor="start" x="145.62" y="-608.17" font-family="Arial" font-size="14.00" fill="#0072b2">« 1 – 3 » / 2</text>
</g>
<!-- nodeid12&#45;&gt;nodeid10 -->
<g id="edge11" class="edge">
<title>nodeid12&#45;&gt;nodeid10</title>
<path fill="none" stroke="black" d="M222.26,-597.33C246.7,-584.26 277.21,-567.94 301.94,-554.72"/>
<polygon fill="black" stroke="black" points="303.3,-557.96 310.46,-550.16 299.99,-551.79 303.3,-557.96"/>
</g>
<!-- anond3e22 -->
<g id="node12" class="node">
<title>anond3e22</title>
<ellipse fill="none" stroke="black" cx="167" cy="-529.61" rx="9" ry="9"/>
</g>
<!-- nodeid12&#45;&gt;anond3e22 -->
<g id="edge12" class="edge">
<title>nodeid12&#45;&gt;anond3e22</title>
<path fill="none" stroke="black" d="M175.27,-592.53C173.43,-578.77 171.26,-562.51 169.6,-550.1"/>
<polygon fill="black" stroke="black" points="173.09,-549.79 168.3,-540.34 166.15,-550.72 173.09,-549.79"/>
</g>
<!-- anond3e22&#45;&gt;nodeid2 -->
<g id="edge14" class="edge">
<title>anond3e22&#45;&gt;nodeid2</title>
<path fill="none" stroke="black" d="M167,-520.32C167,-510.46 167,-493.32 167,-477.28"/>
<polygon fill="black" stroke="black" points="170.5,-477.44 167,-467.44 163.5,-477.44 170.5,-477.44"/>
</g>
<!-- anond3e22&#45;&gt;nodeid11 -->
<g id="edge15" class="edge">
<title>anond3e22&#45;&gt;nodeid11</title>
<path fill="none" stroke="black" d="M160.11,-523.37C148.93,-514.47 126.99,-495.24 116,-473.68 101.99,-446.21 95.82,-411.68 93.11,-385.6"/>
<polygon fill="black" stroke="black" points="96.6,-385.42 92.22,-375.78 89.63,-386.05 96.6,-385.42"/>
</g>
<!-- nodeid13 -->
<g id="node13" class="node">
<title>nodeid13</title>
<ellipse fill="white" stroke="#d55e00" stroke-width="3" cx="179" cy="-713.33" rx="46.32" ry="27.93"/>
<text text-anchor="start" x="168.5" y="-715.78" font-family="Arial" font-size="14.00">line</text>
<text text-anchor="start" x="154.25" y="-700.03" font-family="Arial" font-size="14.00">« 1 – 3 »</text>
</g>
<!-- nodeid13&#45;&gt;nodeid12 -->
<g id="edge16" class="edge">
<title>nodeid13&#45;&gt;nodeid12</title>
<path fill="none" stroke="black" d="M179,-684.39C179,-677.36 179,-669.68 179,-662.19"/>
<polygon fill="black" stroke="black" points="182.5,-662.22 179,-652.22 175.5,-662.22 182.5,-662.22"/>
</g>
<!-- nodeid14 -->
<g id="node14" class="node">
<title>nodeid14</title>
<ellipse fill="white" stroke="#d55e00" stroke-width="3" cx="179" cy="-805.2" rx="46.32" ry="27.93"/>
<text text-anchor="start" x="171.5" y="-807.65" font-family="Arial" font-size="14.00">$$</text>
<text text-anchor="start" x="154.25" y="-791.9" font-family="Arial" font-size="14.00">« 1 – 3 »</text>
</g>
<!-- nodeid14&#45;&gt;nodeid13 -->
<g id="edge17" class="edge">
<title>nodeid14&#45;&gt;nodeid13</title>
<path fill="none" stroke="black" d="M179,-776.26C179,-769.22 179,-761.54 179,-754.05"/>
<polygon fill="black" stroke="black" points="182.5,-754.08 179,-744.08 175.5,-754.08 182.5,-754.08"/>
</g>
</g>
</svg>
