<?xml version="1.0" encoding="UTF-8" standalone="no"?>
<!DOCTYPE svg PUBLIC "-//W3C//DTD SVG 1.1//EN"
 "http://www.w3.org/Graphics/SVG/1.1/DTD/svg11.dtd">
<!-- Generated by graphviz version 12.2.1 (20241206.2353)
 -->
<!-- Title: pipeline Pages: 1 -->
<svg width="792pt" height="1022pt"
 viewBox="0.00 0.00 791.80 1022.10" xmlns="http://www.w3.org/2000/svg" xmlns:xlink="http://www.w3.org/1999/xlink">
<g id="graph0" class="graph" transform="scale(1 1) rotate(0) translate(4 1018.1)">
<title>pipeline</title>
<polygon fill="white" stroke="none" points="-4,4 -4,-1018.1 787.8,-1018.1 787.8,4 -4,4"/>
<g id="cluster_d280e1" class="cluster">
<title>cluster_d280e1</title>
<polygon fill="none" stroke="black" points="8,-8 8,-958.1 698,-958.1 698,-8 8,-8"/>
</g>
<g id="cluster_d280e1" class="cluster">
<title>cluster_d280e1_head</title>
</g>
<g id="cluster_d280e1" class="cluster">
<title>cluster_d280e5</title>
</g>
<g id="cluster_d280e1" class="cluster">
<title>cluster_d280e7</title>
</g>
<g id="cluster_d280e1" class="cluster">
<title>cluster_d280e9</title>
</g>
<g id="cluster_d280e1" class="cluster">
<title>cluster_d280e17</title>
</g>
<g id="cluster_d280e1" class="cluster">
<title>cluster_d280e22</title>
</g>
<g id="cluster_d280e1" class="cluster">
<title>cluster_d280e24</title>
</g>
<g id="cluster_d280e1" class="cluster">
<title>cluster_d280e40</title>
</g>
<g id="cluster_d280e1" class="cluster">
<title>cluster_d280e42</title>
</g>
<g id="cluster_d280e1" class="cluster">
<title>cluster_d280e54</title>
</g>
<g id="cluster_d280e1" class="cluster">
<title>cluster_d280e57</title>
</g>
<g id="cluster_d280e1" class="cluster">
<title>cluster_d280e68</title>
</g>
<g id="cluster_d280e1" class="cluster">
<title>cluster_d280e70</title>
</g>
<g id="cluster_d280e1" class="cluster">
<title>cluster_d280e86</title>
</g>
<g id="cluster_d280e1" class="cluster">
<title>cluster_d280e93</title>
</g>
<g id="cluster_d280e1" class="cluster">
<title>cluster_d280e95</title>
</g>
<g id="cluster_d280e1" class="cluster">
<title>cluster_d280e111</title>
</g>
<g id="cluster_d280e1" class="cluster">
<title>cluster_d280e1_foot</title>
</g>
<!-- d280e2 -->
<g id="node1" class="node">
<title>d280e2</title>
<polygon fill="none" stroke="black" points="204.77,-990.54 248,-978.1 291.23,-990.54 291.19,-1010.66 204.81,-1010.66 204.77,-990.54"/>
<text text-anchor="middle" x="248" y="-991.05" font-family="Times,serif" font-size="14.00">source</text>
</g>
<!-- cluster_d280e1_head -->
<g id="node2" class="node">
<title>cluster_d280e1_head</title>
<polygon fill="none" stroke="black" points="248,-942.1 190.75,-889.1 248,-836.1 305.25,-889.1 248,-942.1"/>
<polygon fill="none" stroke="black" points="227.38,-889.1 227.38,-911.6 268.62,-911.6 268.62,-889.1 227.38,-889.1"/>
<text text-anchor="start" x="230.38" y="-895.3" font-family="Times,serif" font-size="14.00">source</text>
<polygon fill="none" stroke="black" points="227.38,-866.6 227.38,-889.1 268.62,-889.1 268.62,-866.6 227.38,-866.6"/>
<text text-anchor="start" x="230.38" y="-872.8" font-family="Times,serif" font-size="14.00">source</text>
</g>
<!-- d280e2&#45;&gt;cluster_d280e1_head -->
<g id="edge26" class="edge">
<title>d280e2&#45;&gt;cluster_d280e1_head:d280e2_head_input</title>
<path fill="none" stroke="black" d="M248,-977.72C248,-963.76 248,-943.35 248,-923.89"/>
<polygon fill="black" stroke="black" points="251.5,-924.11 248,-914.11 244.5,-924.11 251.5,-924.11"/>
</g>
<!-- cluster_d280e9 -->
<g id="node5" class="node">
<title>cluster_d280e9</title>
<polygon fill="none" stroke="black" points="70.25,-773.6 70.25,-796.1 126.5,-796.1 126.5,-773.6 70.25,-773.6"/>
<text text-anchor="start" x="73.25" y="-779.8" font-family="Times,serif" font-size="14.00">grammar</text>
<polygon fill="none" stroke="black" points="126.5,-773.6 126.5,-796.1 167.75,-796.1 167.75,-773.6 126.5,-773.6"/>
<text text-anchor="start" x="129.5" y="-779.8" font-family="Times,serif" font-size="14.00">source</text>
<polygon fill="none" stroke="black" points="70.25,-751.1 70.25,-773.6 167.75,-773.6 167.75,-751.1 70.25,-751.1"/>
<text text-anchor="start" x="77.38" y="-757.3" font-family="Times,serif" font-size="14.00">p:invisible&#45;xml</text>
<polygon fill="none" stroke="black" points="70.25,-728.6 70.25,-751.1 167.75,-751.1 167.75,-728.6 70.25,-728.6"/>
<text text-anchor="start" x="104" y="-734.8" font-family="Times,serif" font-size="14.00">result</text>
</g>
<!-- cluster_d280e1_head&#45;&gt;cluster_d280e9 -->
<g id="edge3" class="edge">
<title>cluster_d280e1_head:d280e2_head_output&#45;&gt;cluster_d280e9:d280e12</title>
<path fill="none" stroke="black" d="M226.38,-877.85C182.12,-877.85 210.97,-800.81 179.85,-786.97"/>
<polygon fill="black" stroke="black" points="180.72,-783.57 170.24,-785.13 179.4,-790.45 180.72,-783.57"/>
</g>
<!-- cluster_d280e5 -->
<g id="node3" class="node">
<title>cluster_d280e5</title>
<polygon fill="none" stroke="black" points="601.5,-889.1 601.5,-911.6 658.5,-911.6 658.5,-889.1 601.5,-889.1"/>
<text text-anchor="start" x="604.5" y="-895.3" font-family="Times,serif" font-size="14.00">cx:empty</text>
<polygon fill="none" stroke="black" points="601.5,-866.6 601.5,-889.1 658.5,-889.1 658.5,-866.6 601.5,-866.6"/>
<text text-anchor="start" x="615" y="-872.8" font-family="Times,serif" font-size="14.00">result</text>
</g>
<!-- cluster_d280e1_foot -->
<g id="node28" class="node">
<title>cluster_d280e1_foot</title>
<polygon fill="none" stroke="black" points="630,-792.85 578,-762.35 630,-731.85 682,-762.35 630,-792.85"/>
<polygon fill="none" stroke="black" points="612,-751.1 612,-773.6 648,-773.6 648,-751.1 612,-751.1"/>
<text text-anchor="start" x="615" y="-757.3" font-family="Times,serif" font-size="14.00">result</text>
</g>
<!-- cluster_d280e5&#45;&gt;cluster_d280e1_foot -->
<g id="edge1" class="edge">
<title>cluster_d280e5:d280e6&#45;&gt;cluster_d280e1_foot:d280e3_foot</title>
<path fill="none" stroke="black" d="M630,-865.6C630,-837.67 630,-805.45 630,-784.76"/>
<polygon fill="black" stroke="black" points="633.5,-785.02 630,-775.02 626.5,-785.02 633.5,-785.02"/>
</g>
<!-- cluster_d280e7 -->
<g id="node4" class="node">
<title>cluster_d280e7</title>
<polygon fill="none" stroke="black" points="34.75,-900.35 34.75,-922.85 159.25,-922.85 159.25,-900.35 34.75,-900.35"/>
<text text-anchor="start" x="61.75" y="-906.55" font-family="Times,serif" font-size="14.00">cx:document</text>
<polygon fill="none" stroke="black" points="34.75,-877.85 34.75,-900.35 159.25,-900.35 159.25,-877.85 34.75,-877.85"/>
<text text-anchor="start" x="37.75" y="-884.05" font-family="Times,serif" font-size="14.00">href = &quot;movies.ixml&quot;</text>
<polygon fill="none" stroke="black" points="34.75,-855.35 34.75,-877.85 159.25,-877.85 159.25,-855.35 34.75,-855.35"/>
<text text-anchor="start" x="82" y="-861.55" font-family="Times,serif" font-size="14.00">result</text>
</g>
<!-- cluster_d280e7&#45;&gt;cluster_d280e9 -->
<g id="edge2" class="edge">
<title>cluster_d280e7:d280e8&#45;&gt;cluster_d280e9:d280e10</title>
<path fill="none" stroke="black" d="M97,-854.35C97,-833.07 97.96,-825.15 98.28,-808.25"/>
<polygon fill="black" stroke="black" points="101.77,-808.64 98.36,-798.61 94.77,-808.58 101.77,-808.64"/>
</g>
<!-- cluster_d280e17 -->
<g id="node6" class="node">
<title>cluster_d280e17</title>
<polygon fill="none" stroke="black" points="94.62,-662.1 94.62,-684.6 143.38,-684.6 143.38,-662.1 94.62,-662.1"/>
<text text-anchor="start" x="101.38" y="-668.3" font-family="Times,serif" font-size="14.00">source</text>
<polygon fill="none" stroke="black" points="94.62,-639.6 94.62,-662.1 143.38,-662.1 143.38,-639.6 94.62,-639.6"/>
<text text-anchor="start" x="97.62" y="-645.8" font-family="Times,serif" font-size="14.00">p:delete</text>
<polygon fill="none" stroke="black" points="94.62,-617.1 94.62,-639.6 143.38,-639.6 143.38,-617.1 94.62,-617.1"/>
<text text-anchor="start" x="104" y="-623.3" font-family="Times,serif" font-size="14.00">result</text>
</g>
<!-- cluster_d280e9&#45;&gt;cluster_d280e17 -->
<g id="edge4" class="edge">
<title>cluster_d280e9:d280e14&#45;&gt;cluster_d280e17:d280e19</title>
<path fill="none" stroke="black" d="M119,-727.6C119,-713.45 119,-707.35 119,-697.1"/>
<polygon fill="black" stroke="black" points="122.5,-697.11 119,-687.11 115.5,-697.11 122.5,-697.11"/>
</g>
<!-- cluster_d280e24 -->
<g id="node8" class="node">
<title>cluster_d280e24</title>
<polygon fill="none" stroke="black" points="32,-550.6 32,-573.1 91.25,-573.1 91.25,-550.6 32,-550.6"/>
<text text-anchor="start" x="35" y="-556.8" font-family="Times,serif" font-size="14.00">stylesheet</text>
<polygon fill="none" stroke="black" points="91.25,-550.6 91.25,-573.1 152,-573.1 152,-550.6 91.25,-550.6"/>
<text text-anchor="start" x="104" y="-556.8" font-family="Times,serif" font-size="14.00">source</text>
<polygon fill="none" stroke="black" points="32,-528.1 32,-550.6 152,-550.6 152,-528.1 32,-528.1"/>
<text text-anchor="start" x="77" y="-534.3" font-family="Times,serif" font-size="14.00">p:xslt</text>
<polygon fill="none" stroke="black" points="32,-505.6 32,-528.1 91.25,-528.1 91.25,-505.6 32,-505.6"/>
<text text-anchor="start" x="46.62" y="-511.8" font-family="Times,serif" font-size="14.00">result</text>
<polygon fill="none" stroke="black" points="91.25,-505.6 91.25,-528.1 152,-528.1 152,-505.6 91.25,-505.6"/>
<text text-anchor="start" x="94.25" y="-511.8" font-family="Times,serif" font-size="14.00">secondary</text>
</g>
<!-- cluster_d280e17&#45;&gt;cluster_d280e24 -->
<g id="edge6" class="edge">
<title>cluster_d280e17:d280e21&#45;&gt;cluster_d280e24:d280e27</title>
<path fill="none" stroke="black" d="M119,-616.1C119,-601.78 120.54,-595.73 121.26,-585.29"/>
<polygon fill="black" stroke="black" points="124.75,-585.72 121.58,-575.61 117.75,-585.49 124.75,-585.72"/>
</g>
<!-- cluster_d280e22 -->
<g id="node7" class="node">
<title>cluster_d280e22</title>
<polygon fill="none" stroke="black" points="182.62,-662.1 182.62,-684.6 351.38,-684.6 351.38,-662.1 182.62,-662.1"/>
<text text-anchor="start" x="231.75" y="-668.3" font-family="Times,serif" font-size="14.00">cx:document</text>
<polygon fill="none" stroke="black" points="182.62,-639.6 182.62,-662.1 351.38,-662.1 351.38,-639.6 182.62,-639.6"/>
<text text-anchor="start" x="185.62" y="-645.8" font-family="Times,serif" font-size="14.00">href = &quot;movies&#45;countries.xsl&quot;</text>
<polygon fill="none" stroke="black" points="182.62,-617.1 182.62,-639.6 351.38,-639.6 351.38,-617.1 182.62,-617.1"/>
<text text-anchor="start" x="252" y="-623.3" font-family="Times,serif" font-size="14.00">result</text>
</g>
<!-- cluster_d280e22&#45;&gt;cluster_d280e24 -->
<g id="edge5" class="edge">
<title>cluster_d280e22:d280e23&#45;&gt;cluster_d280e24:d280e25</title>
<path fill="none" stroke="black" d="M181.62,-628.35C168.38,-628.35 173.96,-612.53 163,-605.1 127.82,-581.23 73.59,-613.56 63.33,-585.49"/>
<polygon fill="black" stroke="black" points="66.79,-584.97 61.85,-575.6 59.87,-586 66.79,-584.97"/>
</g>
<!-- cluster_d280e42 -->
<g id="node10" class="node">
<title>cluster_d280e42</title>
<polygon fill="none" stroke="black" points="109.38,-439.1 109.38,-461.6 181,-461.6 181,-439.1 109.38,-439.1"/>
<text text-anchor="start" x="124.56" y="-445.3" font-family="Times,serif" font-size="14.00">schema</text>
<polygon fill="none" stroke="black" points="181,-439.1 181,-461.6 246.62,-461.6 246.62,-439.1 181,-439.1"/>
<text text-anchor="start" x="196.19" y="-445.3" font-family="Times,serif" font-size="14.00">source</text>
<polygon fill="none" stroke="black" points="109.38,-416.6 109.38,-439.1 246.62,-439.1 246.62,-416.6 109.38,-416.6"/>
<text text-anchor="start" x="112.38" y="-422.8" font-family="Times,serif" font-size="14.00">p:validate&#45;with&#45;relax&#45;ng</text>
<polygon fill="none" stroke="black" points="109.38,-394.1 109.38,-416.6 181,-416.6 181,-394.1 109.38,-394.1"/>
<text text-anchor="start" x="130.19" y="-400.3" font-family="Times,serif" font-size="14.00">result</text>
<polygon fill="none" stroke="black" points="181,-394.1 181,-416.6 246.62,-416.6 246.62,-394.1 181,-394.1"/>
<text text-anchor="start" x="197.69" y="-400.3" font-family="Times,serif" font-size="14.00">report</text>
</g>
<!-- cluster_d280e24&#45;&gt;cluster_d280e42 -->
<g id="edge8" class="edge">
<title>cluster_d280e24:d280e29&#45;&gt;cluster_d280e42:d280e45</title>
<path fill="none" stroke="black" d="M61.62,-504.6C61.63,-438.82 195.38,-521.13 212.1,-473.86"/>
<polygon fill="black" stroke="black" points="215.55,-474.51 213.59,-464.1 208.62,-473.46 215.55,-474.51"/>
</g>
<!-- d280e118 -->
<g id="node19" class="node">
<title>d280e118</title>
<ellipse fill="black" stroke="black" cx="82" cy="-427.85" rx="1.8" ry="1.8"/>
</g>
<!-- cluster_d280e24&#45;&gt;d280e118 -->
<g id="edge17" class="edge">
<title>cluster_d280e24:d280e30&#45;&gt;d280e118</title>
<path fill="none" stroke="black" d="M121.62,-504.6C121.62,-484.6 98.29,-491.31 89,-473.6 83.76,-463.61 82.19,-450.76 81.83,-441.39"/>
<polygon fill="black" stroke="black" points="85.33,-441.58 81.91,-431.56 78.33,-441.53 85.33,-441.58"/>
</g>
<!-- cluster_d280e40 -->
<g id="node9" class="node">
<title>cluster_d280e40</title>
<polygon fill="none" stroke="black" points="191.88,-550.6 191.88,-573.1 308.12,-573.1 308.12,-550.6 191.88,-550.6"/>
<text text-anchor="start" x="214.75" y="-556.8" font-family="Times,serif" font-size="14.00">cx:document</text>
<polygon fill="none" stroke="black" points="191.88,-528.1 191.88,-550.6 308.12,-550.6 308.12,-528.1 191.88,-528.1"/>
<text text-anchor="start" x="194.88" y="-534.3" font-family="Times,serif" font-size="14.00">href = &quot;movies.rnc&quot;</text>
<polygon fill="none" stroke="black" points="191.88,-505.6 191.88,-528.1 308.12,-528.1 308.12,-505.6 191.88,-505.6"/>
<text text-anchor="start" x="235" y="-511.8" font-family="Times,serif" font-size="14.00">result</text>
</g>
<!-- cluster_d280e40&#45;&gt;cluster_d280e42 -->
<g id="edge7" class="edge">
<title>cluster_d280e40:d280e41&#45;&gt;cluster_d280e42:d280e43</title>
<path fill="none" stroke="black" d="M190.88,-516.85C177.57,-516.85 180.55,-503.8 172,-493.6 163.41,-483.35 152.98,-481.26 148.04,-473.66"/>
<polygon fill="black" stroke="black" points="151.45,-472.87 145.57,-464.07 144.67,-474.62 151.45,-472.87"/>
</g>
<!-- cluster_d280e57 -->
<g id="node12" class="node">
<title>cluster_d280e57</title>
<polygon fill="none" stroke="black" points="246.38,-327.6 246.38,-350.1 366,-350.1 366,-327.6 246.38,-327.6"/>
<text text-anchor="start" x="285.56" y="-333.8" font-family="Times,serif" font-size="14.00">schema</text>
<polygon fill="none" stroke="black" points="366,-327.6 366,-350.1 479.62,-350.1 479.62,-327.6 366,-327.6"/>
<text text-anchor="start" x="405.19" y="-333.8" font-family="Times,serif" font-size="14.00">source</text>
<polygon fill="none" stroke="black" points="246.38,-305.1 246.38,-327.6 479.62,-327.6 479.62,-305.1 246.38,-305.1"/>
<text text-anchor="start" x="249.38" y="-311.3" font-family="Times,serif" font-size="14.00">p:validate&#45;with&#45;schematron / finalize&#45;xml</text>
<polygon fill="none" stroke="black" points="246.38,-282.6 246.38,-305.1 366,-305.1 366,-282.6 246.38,-282.6"/>
<text text-anchor="start" x="291.19" y="-288.8" font-family="Times,serif" font-size="14.00">result</text>
<polygon fill="none" stroke="black" points="366,-282.6 366,-305.1 479.62,-305.1 479.62,-282.6 366,-282.6"/>
<text text-anchor="start" x="406.69" y="-288.8" font-family="Times,serif" font-size="14.00">report</text>
</g>
<!-- cluster_d280e42&#45;&gt;cluster_d280e57 -->
<g id="edge10" class="edge">
<title>cluster_d280e42:d280e47&#45;&gt;cluster_d280e57:d280e60</title>
<path fill="none" stroke="black" d="M145.19,-393.1C145.19,-334.97 386.15,-402.86 419.1,-361.95"/>
<polygon fill="black" stroke="black" points="422.4,-363.13 422.32,-352.53 415.77,-360.86 422.4,-363.13"/>
</g>
<!-- d280e121 -->
<g id="node20" class="node">
<title>d280e121</title>
<ellipse fill="black" stroke="black" cx="18" cy="-316.35" rx="1.8" ry="1.8"/>
</g>
<!-- cluster_d280e42&#45;&gt;d280e121 -->
<g id="edge18" class="edge">
<title>cluster_d280e42:d280e48&#45;&gt;d280e121</title>
<path fill="none" stroke="black" d="M213.81,-393.1C213.81,-350.8 56.11,-391.81 26,-362.1 17.45,-353.66 16.24,-339.43 16.66,-329.28"/>
<polygon fill="black" stroke="black" points="20.11,-329.94 17.69,-319.62 13.15,-329.19 20.11,-329.94"/>
</g>
<!-- cluster_d280e54 -->
<g id="node11" class="node">
<title>cluster_d280e54</title>
<polygon fill="none" stroke="black" points="287.5,-439.1 287.5,-461.6 404.5,-461.6 404.5,-439.1 287.5,-439.1"/>
<text text-anchor="start" x="310.75" y="-445.3" font-family="Times,serif" font-size="14.00">cx:document</text>
<polygon fill="none" stroke="black" points="287.5,-416.6 287.5,-439.1 404.5,-439.1 404.5,-416.6 287.5,-416.6"/>
<text text-anchor="start" x="290.5" y="-422.8" font-family="Times,serif" font-size="14.00">href = &quot;movies.sch&quot;</text>
<polygon fill="none" stroke="black" points="287.5,-394.1 287.5,-416.6 404.5,-416.6 404.5,-394.1 287.5,-394.1"/>
<text text-anchor="start" x="331" y="-400.3" font-family="Times,serif" font-size="14.00">result</text>
</g>
<!-- cluster_d280e54&#45;&gt;cluster_d280e57 -->
<g id="edge9" class="edge">
<title>cluster_d280e54:d280e55&#45;&gt;cluster_d280e57:d280e58</title>
<path fill="none" stroke="black" d="M346,-393.1C346,-372 319.21,-374.56 309.58,-361.97"/>
<polygon fill="black" stroke="black" points="312.96,-361.05 306.64,-352.54 306.28,-363.13 312.96,-361.05"/>
</g>
<!-- cluster_d280e70 -->
<g id="node14" class="node">
<title>cluster_d280e70</title>
<polygon fill="none" stroke="black" points="157,-216.1 157,-238.6 216.25,-238.6 216.25,-216.1 157,-216.1"/>
<text text-anchor="start" x="160" y="-222.3" font-family="Times,serif" font-size="14.00">stylesheet</text>
<polygon fill="none" stroke="black" points="216.25,-216.1 216.25,-238.6 277,-238.6 277,-216.1 216.25,-216.1"/>
<text text-anchor="start" x="229" y="-222.3" font-family="Times,serif" font-size="14.00">source</text>
<polygon fill="none" stroke="black" points="157,-193.6 157,-216.1 277,-216.1 277,-193.6 157,-193.6"/>
<text text-anchor="start" x="202" y="-199.8" font-family="Times,serif" font-size="14.00">p:xslt</text>
<polygon fill="none" stroke="black" points="157,-171.1 157,-193.6 216.25,-193.6 216.25,-171.1 157,-171.1"/>
<text text-anchor="start" x="171.62" y="-177.3" font-family="Times,serif" font-size="14.00">result</text>
<polygon fill="none" stroke="black" points="216.25,-171.1 216.25,-193.6 277,-193.6 277,-171.1 216.25,-171.1"/>
<text text-anchor="start" x="219.25" y="-177.3" font-family="Times,serif" font-size="14.00">secondary</text>
</g>
<!-- cluster_d280e57&#45;&gt;cluster_d280e70 -->
<g id="edge12" class="edge">
<title>cluster_d280e57:d280e62&#45;&gt;cluster_d280e70:d280e73</title>
<path fill="none" stroke="black" d="M245.38,-293.85C220.81,-293.85 269.39,-256.83 281.97,-238.03"/>
<polygon fill="black" stroke="black" points="285.29,-236.93 278.53,-228.77 278.73,-239.36 285.29,-236.93"/>
</g>
<!-- cluster_d280e95 -->
<g id="node17" class="node">
<title>cluster_d280e95</title>
<polygon fill="none" stroke="black" points="488,-216.1 488,-238.6 529.25,-238.6 529.25,-216.1 488,-216.1"/>
<text text-anchor="start" x="491" y="-222.3" font-family="Times,serif" font-size="14.00">source</text>
<polygon fill="none" stroke="black" points="529.25,-216.1 529.25,-238.6 590,-238.6 590,-216.1 529.25,-216.1"/>
<text text-anchor="start" x="533" y="-222.3" font-family="Times,serif" font-size="14.00">stylesheet</text>
<polygon fill="none" stroke="black" points="488,-193.6 488,-216.1 590,-216.1 590,-193.6 488,-193.6"/>
<text text-anchor="start" x="524" y="-199.8" font-family="Times,serif" font-size="14.00">p:xslt</text>
<polygon fill="none" stroke="black" points="488,-171.1 488,-193.6 529.25,-193.6 529.25,-171.1 488,-171.1"/>
<text text-anchor="start" x="493.62" y="-177.3" font-family="Times,serif" font-size="14.00">result</text>
<polygon fill="none" stroke="black" points="529.25,-171.1 529.25,-193.6 590,-193.6 590,-171.1 529.25,-171.1"/>
<text text-anchor="start" x="532.25" y="-177.3" font-family="Times,serif" font-size="14.00">secondary</text>
</g>
<!-- cluster_d280e57&#45;&gt;cluster_d280e95 -->
<g id="edge14" class="edge">
<title>cluster_d280e57:d280e62&#45;&gt;cluster_d280e95:d280e96</title>
<path fill="none" stroke="black" d="M306.19,-281.6C306.19,-243.24 445.57,-273.96 476,-250.6 480.39,-247.23 480.43,-241.67 480.6,-236.83"/>
<polygon fill="black" stroke="black" points="483.46,-238.85 486.15,-228.6 477.66,-234.93 483.46,-238.85"/>
</g>
<!-- d280e124 -->
<g id="node21" class="node">
<title>d280e124</title>
<ellipse fill="black" stroke="black" cx="422" cy="-204.85" rx="1.8" ry="1.8"/>
</g>
<!-- cluster_d280e57&#45;&gt;d280e124 -->
<g id="edge19" class="edge">
<title>cluster_d280e57:d280e63&#45;&gt;d280e124</title>
<path fill="none" stroke="black" d="M422.81,-281.6C422.81,-259.19 422.45,-233.06 422.21,-218.08"/>
<polygon fill="black" stroke="black" points="425.72,-218.37 422.05,-208.43 418.72,-218.49 425.72,-218.37"/>
</g>
<!-- cluster_d280e68 -->
<g id="node13" class="node">
<title>cluster_d280e68</title>
<polygon fill="none" stroke="black" points="46.12,-327.6 46.12,-350.1 205.88,-350.1 205.88,-327.6 46.12,-327.6"/>
<text text-anchor="start" x="90.75" y="-333.8" font-family="Times,serif" font-size="14.00">cx:document</text>
<polygon fill="none" stroke="black" points="46.12,-305.1 46.12,-327.6 205.88,-327.6 205.88,-305.1 46.12,-305.1"/>
<text text-anchor="start" x="49.12" y="-311.3" font-family="Times,serif" font-size="14.00">href = &quot;movies&#45;to&#45;html.xsl&quot;</text>
<polygon fill="none" stroke="black" points="46.12,-282.6 46.12,-305.1 205.88,-305.1 205.88,-282.6 46.12,-282.6"/>
<text text-anchor="start" x="111" y="-288.8" font-family="Times,serif" font-size="14.00">result</text>
</g>
<!-- cluster_d280e68&#45;&gt;cluster_d280e70 -->
<g id="edge11" class="edge">
<title>cluster_d280e68:d280e69&#45;&gt;cluster_d280e70:d280e71</title>
<path fill="none" stroke="black" d="M206.88,-293.85C213.67,-293.85 209.14,-284.56 205.88,-278.6 192.92,-254.93 169.95,-266.27 157,-242.6 156.34,-241.39 155.62,-240.04 154.96,-238.66"/>
<polygon fill="black" stroke="black" points="158.43,-239.14 155.86,-228.86 151.46,-238.5 158.43,-239.14"/>
</g>
<!-- cluster_d280e86 -->
<g id="node15" class="node">
<title>cluster_d280e86</title>
<polygon fill="none" stroke="black" points="134.25,-104.6 134.25,-127.1 225.75,-127.1 225.75,-104.6 134.25,-104.6"/>
<text text-anchor="start" x="162.38" y="-110.8" font-family="Times,serif" font-size="14.00">source</text>
<polygon fill="none" stroke="black" points="134.25,-82.1 134.25,-104.6 225.75,-104.6 225.75,-82.1 134.25,-82.1"/>
<text text-anchor="start" x="161.62" y="-88.3" font-family="Times,serif" font-size="14.00">p:store</text>
<polygon fill="none" stroke="black" points="134.25,-59.6 134.25,-82.1 170.25,-82.1 170.25,-59.6 134.25,-59.6"/>
<text text-anchor="start" x="137.25" y="-65.8" font-family="Times,serif" font-size="14.00">result</text>
<polygon fill="none" stroke="black" points="170.25,-59.6 170.25,-82.1 225.75,-82.1 225.75,-59.6 170.25,-59.6"/>
<text text-anchor="start" x="173.25" y="-65.8" font-family="Times,serif" font-size="14.00">result&#45;uri</text>
</g>
<!-- cluster_d280e70&#45;&gt;cluster_d280e86 -->
<g id="edge13" class="edge">
<title>cluster_d280e70:d280e75&#45;&gt;cluster_d280e86:d280e89</title>
<path fill="none" stroke="black" d="M186.62,-170.1C186.62,-155.63 182.74,-149.78 180.92,-139.34"/>
<polygon fill="black" stroke="black" points="184.43,-139.29 180.12,-129.61 177.45,-139.86 184.43,-139.29"/>
</g>
<!-- d280e127 -->
<g id="node22" class="node">
<title>d280e127</title>
<ellipse fill="black" stroke="black" cx="254" cy="-93.35" rx="1.8" ry="1.8"/>
</g>
<!-- cluster_d280e70&#45;&gt;d280e127 -->
<g id="edge20" class="edge">
<title>cluster_d280e70:d280e76&#45;&gt;d280e127</title>
<path fill="none" stroke="black" d="M246.62,-170.1C246.62,-147.59 249.89,-121.49 252.08,-106.55"/>
<polygon fill="black" stroke="black" points="255.5,-107.33 253.58,-96.91 248.58,-106.25 255.5,-107.33"/>
</g>
<!-- d280e131 -->
<g id="node23" class="node">
<title>d280e131</title>
<ellipse fill="black" stroke="black" cx="153" cy="-17.8" rx="1.8" ry="1.8"/>
</g>
<!-- cluster_d280e86&#45;&gt;d280e131 -->
<g id="edge21" class="edge">
<title>cluster_d280e86:d280e91&#45;&gt;d280e131</title>
<path fill="none" stroke="black" d="M152.25,-58.6C152.25,-49.45 152.45,-39.13 152.64,-31.29"/>
<polygon fill="black" stroke="black" points="156.14,-31.65 152.92,-21.55 149.14,-31.45 156.14,-31.65"/>
</g>
<!-- d280e134 -->
<g id="node24" class="node">
<title>d280e134</title>
<ellipse fill="black" stroke="black" cx="198" cy="-17.8" rx="1.8" ry="1.8"/>
</g>
<!-- cluster_d280e86&#45;&gt;d280e134 -->
<g id="edge22" class="edge">
<title>cluster_d280e86:d280e92&#45;&gt;d280e134</title>
<path fill="none" stroke="black" d="M198,-58.6C198,-49.46 198,-39.13 198,-31.29"/>
<polygon fill="black" stroke="black" points="201.5,-31.55 198,-21.55 194.5,-31.55 201.5,-31.55"/>
</g>
<!-- cluster_d280e93 -->
<g id="node16" class="node">
<title>cluster_d280e93</title>
<polygon fill="none" stroke="black" points="520.5,-327.6 520.5,-350.1 673.5,-350.1 673.5,-327.6 520.5,-327.6"/>
<text text-anchor="start" x="561.75" y="-333.8" font-family="Times,serif" font-size="14.00">cx:document</text>
<polygon fill="none" stroke="black" points="520.5,-305.1 520.5,-327.6 673.5,-327.6 673.5,-305.1 520.5,-305.1"/>
<text text-anchor="start" x="523.5" y="-311.3" font-family="Times,serif" font-size="14.00">href = &quot;movies&#45;to&#45;svg.xsl&quot;</text>
<polygon fill="none" stroke="black" points="520.5,-282.6 520.5,-305.1 673.5,-305.1 673.5,-282.6 520.5,-282.6"/>
<text text-anchor="start" x="582" y="-288.8" font-family="Times,serif" font-size="14.00">result</text>
</g>
<!-- cluster_d280e93&#45;&gt;cluster_d280e95 -->
<g id="edge15" class="edge">
<title>cluster_d280e93:d280e94&#45;&gt;cluster_d280e95:d280e98</title>
<path fill="none" stroke="black" d="M519.5,-293.85C512.71,-293.85 517.69,-284.78 520.5,-278.6 528.75,-260.44 549.42,-262.25 556.88,-250.4"/>
<polygon fill="black" stroke="black" points="560.19,-251.62 559.25,-241.07 553.4,-249.9 560.19,-251.62"/>
</g>
<!-- cluster_d280e111 -->
<g id="node18" class="node">
<title>cluster_d280e111</title>
<polygon fill="none" stroke="black" points="451.25,-104.6 451.25,-127.1 542.75,-127.1 542.75,-104.6 451.25,-104.6"/>
<text text-anchor="start" x="479.38" y="-110.8" font-family="Times,serif" font-size="14.00">source</text>
<polygon fill="none" stroke="black" points="451.25,-82.1 451.25,-104.6 542.75,-104.6 542.75,-82.1 451.25,-82.1"/>
<text text-anchor="start" x="478.62" y="-88.3" font-family="Times,serif" font-size="14.00">p:store</text>
<polygon fill="none" stroke="black" points="451.25,-59.6 451.25,-82.1 487.25,-82.1 487.25,-59.6 451.25,-59.6"/>
<text text-anchor="start" x="454.25" y="-65.8" font-family="Times,serif" font-size="14.00">result</text>
<polygon fill="none" stroke="black" points="487.25,-59.6 487.25,-82.1 542.75,-82.1 542.75,-59.6 487.25,-59.6"/>
<text text-anchor="start" x="490.25" y="-65.8" font-family="Times,serif" font-size="14.00">result&#45;uri</text>
</g>
<!-- cluster_d280e95&#45;&gt;cluster_d280e111 -->
<g id="edge16" class="edge">
<title>cluster_d280e95:d280e100&#45;&gt;cluster_d280e111:d280e114</title>
<path fill="none" stroke="black" d="M508.62,-170.1C508.62,-155.27 501.81,-149.88 498.62,-139.48"/>
<polygon fill="black" stroke="black" points="502.08,-139.01 497.21,-129.6 495.15,-139.99 502.08,-139.01"/>
</g>
<!-- d280e137 -->
<g id="node25" class="node">
<title>d280e137</title>
<ellipse fill="black" stroke="black" cx="571" cy="-93.35" rx="1.8" ry="1.8"/>
</g>
<!-- cluster_d280e95&#45;&gt;d280e137 -->
<g id="edge23" class="edge">
<title>cluster_d280e95:d280e101&#45;&gt;d280e137</title>
<path fill="none" stroke="black" d="M559.62,-170.1C559.62,-157.96 565.41,-124.62 568.73,-106.49"/>
<polygon fill="black" stroke="black" points="572.13,-107.34 570.52,-96.87 565.25,-106.05 572.13,-107.34"/>
</g>
<!-- d280e140 -->
<g id="node26" class="node">
<title>d280e140</title>
<ellipse fill="black" stroke="black" cx="470" cy="-17.8" rx="1.8" ry="1.8"/>
</g>
<!-- cluster_d280e111&#45;&gt;d280e140 -->
<g id="edge24" class="edge">
<title>cluster_d280e111:d280e116&#45;&gt;d280e140</title>
<path fill="none" stroke="black" d="M469.25,-58.6C469.25,-49.45 469.45,-39.13 469.64,-31.29"/>
<polygon fill="black" stroke="black" points="473.14,-31.65 469.92,-21.55 466.14,-31.45 473.14,-31.65"/>
</g>
<!-- d280e143 -->
<g id="node27" class="node">
<title>d280e143</title>
<ellipse fill="black" stroke="black" cx="515" cy="-17.8" rx="1.8" ry="1.8"/>
</g>
<!-- cluster_d280e111&#45;&gt;d280e143 -->
<g id="edge25" class="edge">
<title>cluster_d280e111:d280e117&#45;&gt;d280e143</title>
<path fill="none" stroke="black" d="M515,-58.6C515,-49.46 515,-39.13 515,-31.29"/>
<polygon fill="black" stroke="black" points="518.5,-31.55 515,-21.55 511.5,-31.55 518.5,-31.55"/>
</g>
<!-- d280e3 -->
<g id="node29" class="node">
<title>d280e3</title>
<polygon fill="none" stroke="black" points="783.8,-656.41 745,-668.85 706.2,-656.41 706.23,-636.29 783.77,-636.29 783.8,-656.41"/>
<text text-anchor="middle" x="745" y="-645.8" font-family="Times,serif" font-size="14.00">result</text>
</g>
<!-- cluster_d280e1_foot&#45;&gt;d280e3 -->
<g id="edge27" class="edge">
<title>cluster_d280e1_foot:d280e3_foot&#45;&gt;d280e3</title>
<path fill="none" stroke="black" d="M640.61,-751.24C659.31,-733.44 698.49,-696.13 723.17,-672.63"/>
<polygon fill="black" stroke="black" points="725.32,-675.42 730.15,-665.99 720.49,-670.35 725.32,-675.42"/>
</g>
</g>
</svg>
