<?xml version="1.0" encoding="UTF-8" standalone="no"?>
<!DOCTYPE svg PUBLIC "-//W3C//DTD SVG 1.1//EN"
 "http://www.w3.org/Graphics/SVG/1.1/DTD/svg11.dtd">
<!-- Generated by graphviz version 12.2.1 (20241206.2353)
 -->
<!-- Title: pipeline Pages: 1 -->
<svg width="578pt" height="2026pt"
 viewBox="0.00 0.00 577.80 2025.60" xmlns="http://www.w3.org/2000/svg" xmlns:xlink="http://www.w3.org/1999/xlink">
<g id="graph0" class="graph" transform="scale(1 1) rotate(0) translate(4 2021.6)">
<title>pipeline</title>
<polygon fill="white" stroke="none" points="-4,4 -4,-2021.6 573.8,-2021.6 573.8,4 -4,4"/>
<g id="cluster_d284e1" class="cluster">
<title>cluster_d284e1</title>
<polygon fill="none" stroke="black" points="8,-8 8,-1961.6 484,-1961.6 484,-8 8,-8"/>
</g>
<g id="cluster_d284e1" class="cluster">
<title>cluster_d284e1_head</title>
</g>
<g id="cluster_d284e1" class="cluster">
<title>cluster_d284e5</title>
</g>
<g id="cluster_d284e1" class="cluster">
<title>cluster_d284e7</title>
</g>
<g id="cluster_d284e1" class="cluster">
<title>cluster_d284e12</title>
</g>
<g id="cluster_d284e1" class="cluster">
<title>cluster_d284e14</title>
</g>
<g id="cluster_d284e1" class="cluster">
<title>cluster_d284e22</title>
</g>
<g id="cluster_d284e1" class="cluster">
<title>cluster_d284e27</title>
</g>
<g id="cluster_d284e1" class="cluster">
<title>cluster_d284e32</title>
</g>
<g id="cluster_d284e1" class="cluster">
<title>cluster_d284e37</title>
</g>
<g id="cluster_d284e1" class="cluster">
<title>cluster_d284e39</title>
</g>
<g id="cluster_d284e1" class="cluster">
<title>cluster_d284e56</title>
</g>
<g id="cluster_d284e1" class="cluster">
<title>cluster_d284e61</title>
</g>
<g id="cluster_d284e1" class="cluster">
<title>cluster_d284e63</title>
</g>
<g id="cluster_d284e1" class="cluster">
<title>cluster_d284e75</title>
</g>
<g id="cluster_d284e1" class="cluster">
<title>cluster_d284e80</title>
</g>
<g id="cluster_d284e1" class="cluster">
<title>cluster_d284e82</title>
</g>
<g id="cluster_d284e1" class="cluster">
<title>cluster_d284e93</title>
</g>
<g id="cluster_d284e1" class="cluster">
<title>cluster_d284e98</title>
</g>
<g id="cluster_d284e1" class="cluster">
<title>cluster_d284e106</title>
</g>
<g id="cluster_d284e1" class="cluster">
<title>cluster_d284e108</title>
</g>
<g id="cluster_d284e1" class="cluster">
<title>cluster_d284e124</title>
</g>
<g id="cluster_d284e1" class="cluster">
<title>cluster_d284e130</title>
</g>
<g id="cluster_d284e1" class="cluster">
<title>cluster_d284e137</title>
</g>
<g id="cluster_d284e1" class="cluster">
<title>cluster_d284e142</title>
</g>
<g id="cluster_d284e1" class="cluster">
<title>cluster_d284e144</title>
</g>
<g id="cluster_d284e1" class="cluster">
<title>cluster_d284e160</title>
</g>
<g id="cluster_d284e1" class="cluster">
<title>cluster_d284e165</title>
</g>
<g id="cluster_d284e1" class="cluster">
<title>cluster_d284e172</title>
</g>
<g id="cluster_d284e1" class="cluster">
<title>cluster_d284e1_foot</title>
</g>
<!-- d284e2 -->
<g id="node1" class="node">
<title>d284e2</title>
<polygon fill="none" stroke="black" points="71.77,-1994.04 115,-1981.6 158.23,-1994.04 158.19,-2014.16 71.81,-2014.16 71.77,-1994.04"/>
<text text-anchor="middle" x="115" y="-1994.55" font-family="Times,serif" font-size="14.00">source</text>
</g>
<!-- cluster_d284e1_head -->
<g id="node2" class="node">
<title>cluster_d284e1_head</title>
<polygon fill="none" stroke="black" points="115,-1945.6 57.75,-1892.6 115,-1839.6 172.25,-1892.6 115,-1945.6"/>
<polygon fill="none" stroke="black" points="94.38,-1892.6 94.38,-1915.1 135.62,-1915.1 135.62,-1892.6 94.38,-1892.6"/>
<text text-anchor="start" x="97.38" y="-1898.8" font-family="Times,serif" font-size="14.00">source</text>
<polygon fill="none" stroke="black" points="94.38,-1870.1 94.38,-1892.6 135.62,-1892.6 135.62,-1870.1 94.38,-1870.1"/>
<text text-anchor="start" x="97.38" y="-1876.3" font-family="Times,serif" font-size="14.00">source</text>
</g>
<!-- d284e2&#45;&gt;cluster_d284e1_head -->
<g id="edge38" class="edge">
<title>d284e2&#45;&gt;cluster_d284e1_head:d284e2_head_input</title>
<path fill="none" stroke="black" d="M115,-1981.22C115,-1967.26 115,-1946.85 115,-1927.39"/>
<polygon fill="black" stroke="black" points="118.5,-1927.61 115,-1917.61 111.5,-1927.61 118.5,-1927.61"/>
</g>
<!-- cluster_d284e7 -->
<g id="node4" class="node">
<title>cluster_d284e7</title>
<polygon fill="none" stroke="black" points="86.12,-1777.1 86.12,-1799.6 143.88,-1799.6 143.88,-1777.1 86.12,-1777.1"/>
<text text-anchor="start" x="97.38" y="-1783.3" font-family="Times,serif" font-size="14.00">source</text>
<polygon fill="none" stroke="black" points="86.12,-1754.6 86.12,-1777.1 143.88,-1777.1 143.88,-1754.6 86.12,-1754.6"/>
<text text-anchor="start" x="89.12" y="-1760.8" font-family="Times,serif" font-size="14.00">p:identity</text>
<polygon fill="none" stroke="black" points="86.12,-1732.1 86.12,-1754.6 143.88,-1754.6 143.88,-1732.1 86.12,-1732.1"/>
<text text-anchor="start" x="100" y="-1738.3" font-family="Times,serif" font-size="14.00">result</text>
</g>
<!-- cluster_d284e1_head&#45;&gt;cluster_d284e7 -->
<g id="edge2" class="edge">
<title>cluster_d284e1_head:d284e2_head_output&#45;&gt;cluster_d284e7:d284e9</title>
<path fill="none" stroke="black" d="M115,-1869.1C115,-1842.82 115,-1833.55 115,-1811.92"/>
<polygon fill="black" stroke="black" points="118.5,-1812.11 115,-1802.11 111.5,-1812.11 118.5,-1812.11"/>
</g>
<!-- cluster_d284e5 -->
<g id="node3" class="node">
<title>cluster_d284e5</title>
<polygon fill="none" stroke="black" points="387.5,-1892.6 387.5,-1915.1 444.5,-1915.1 444.5,-1892.6 387.5,-1892.6"/>
<text text-anchor="start" x="390.5" y="-1898.8" font-family="Times,serif" font-size="14.00">cx:empty</text>
<polygon fill="none" stroke="black" points="387.5,-1870.1 387.5,-1892.6 444.5,-1892.6 444.5,-1870.1 387.5,-1870.1"/>
<text text-anchor="start" x="401" y="-1876.3" font-family="Times,serif" font-size="14.00">result</text>
</g>
<!-- cluster_d284e1_foot -->
<g id="node40" class="node">
<title>cluster_d284e1_foot</title>
<polygon fill="none" stroke="black" points="416,-1796.35 364,-1765.85 416,-1735.35 468,-1765.85 416,-1796.35"/>
<polygon fill="none" stroke="black" points="398,-1754.6 398,-1777.1 434,-1777.1 434,-1754.6 398,-1754.6"/>
<text text-anchor="start" x="401" y="-1760.8" font-family="Times,serif" font-size="14.00">result</text>
</g>
<!-- cluster_d284e5&#45;&gt;cluster_d284e1_foot -->
<g id="edge1" class="edge">
<title>cluster_d284e5:d284e6&#45;&gt;cluster_d284e1_foot:d284e3_foot</title>
<path fill="none" stroke="black" d="M416,-1869.1C416,-1841.17 416,-1808.95 416,-1788.26"/>
<polygon fill="black" stroke="black" points="419.5,-1788.52 416,-1778.52 412.5,-1788.52 419.5,-1788.52"/>
</g>
<!-- cluster_d284e14 -->
<g id="node6" class="node">
<title>cluster_d284e14</title>
<polygon fill="none" stroke="black" points="52.25,-1665.6 52.25,-1688.1 108.5,-1688.1 108.5,-1665.6 52.25,-1665.6"/>
<text text-anchor="start" x="55.25" y="-1671.8" font-family="Times,serif" font-size="14.00">grammar</text>
<polygon fill="none" stroke="black" points="108.5,-1665.6 108.5,-1688.1 149.75,-1688.1 149.75,-1665.6 108.5,-1665.6"/>
<text text-anchor="start" x="111.5" y="-1671.8" font-family="Times,serif" font-size="14.00">source</text>
<polygon fill="none" stroke="black" points="52.25,-1643.1 52.25,-1665.6 149.75,-1665.6 149.75,-1643.1 52.25,-1643.1"/>
<text text-anchor="start" x="59.38" y="-1649.3" font-family="Times,serif" font-size="14.00">p:invisible&#45;xml</text>
<polygon fill="none" stroke="black" points="52.25,-1620.6 52.25,-1643.1 149.75,-1643.1 149.75,-1620.6 52.25,-1620.6"/>
<text text-anchor="start" x="86" y="-1626.8" font-family="Times,serif" font-size="14.00">result</text>
</g>
<!-- cluster_d284e7&#45;&gt;cluster_d284e14 -->
<g id="edge4" class="edge">
<title>cluster_d284e7:d284e11&#45;&gt;cluster_d284e14:d284e17</title>
<path fill="none" stroke="black" d="M115,-1731.1C115,-1715.87 123.45,-1710.85 127.28,-1700.25"/>
<polygon fill="black" stroke="black" points="130.7,-1701.03 128.88,-1690.59 123.79,-1699.89 130.7,-1701.03"/>
</g>
<!-- cluster_d284e12 -->
<g id="node5" class="node">
<title>cluster_d284e12</title>
<polygon fill="none" stroke="black" points="183.75,-1777.1 183.75,-1799.6 308.25,-1799.6 308.25,-1777.1 183.75,-1777.1"/>
<text text-anchor="start" x="210.75" y="-1783.3" font-family="Times,serif" font-size="14.00">cx:document</text>
<polygon fill="none" stroke="black" points="183.75,-1754.6 183.75,-1777.1 308.25,-1777.1 308.25,-1754.6 183.75,-1754.6"/>
<text text-anchor="start" x="186.75" y="-1760.8" font-family="Times,serif" font-size="14.00">href = &quot;movies.ixml&quot;</text>
<polygon fill="none" stroke="black" points="183.75,-1732.1 183.75,-1754.6 308.25,-1754.6 308.25,-1732.1 183.75,-1732.1"/>
<text text-anchor="start" x="231" y="-1738.3" font-family="Times,serif" font-size="14.00">result</text>
</g>
<!-- cluster_d284e12&#45;&gt;cluster_d284e14 -->
<g id="edge3" class="edge">
<title>cluster_d284e12:d284e13&#45;&gt;cluster_d284e14:d284e15</title>
<path fill="none" stroke="black" d="M182.75,-1743.35C169.48,-1743.35 174.78,-1727.85 164,-1720.1 135.59,-1699.67 92.17,-1722.04 82.38,-1700.3"/>
<polygon fill="black" stroke="black" points="85.85,-1699.82 80.64,-1690.59 78.96,-1701.05 85.85,-1699.82"/>
</g>
<!-- cluster_d284e22 -->
<g id="node7" class="node">
<title>cluster_d284e22</title>
<polygon fill="none" stroke="black" points="72.12,-1554.1 72.12,-1576.6 129.88,-1576.6 129.88,-1554.1 72.12,-1554.1"/>
<text text-anchor="start" x="83.38" y="-1560.3" font-family="Times,serif" font-size="14.00">source</text>
<polygon fill="none" stroke="black" points="72.12,-1531.6 72.12,-1554.1 129.88,-1554.1 129.88,-1531.6 72.12,-1531.6"/>
<text text-anchor="start" x="75.12" y="-1537.8" font-family="Times,serif" font-size="14.00">p:identity</text>
<polygon fill="none" stroke="black" points="72.12,-1509.1 72.12,-1531.6 129.88,-1531.6 129.88,-1509.1 72.12,-1509.1"/>
<text text-anchor="start" x="86" y="-1515.3" font-family="Times,serif" font-size="14.00">result</text>
</g>
<!-- cluster_d284e14&#45;&gt;cluster_d284e22 -->
<g id="edge5" class="edge">
<title>cluster_d284e14:d284e19&#45;&gt;cluster_d284e22:d284e24</title>
<path fill="none" stroke="black" d="M101,-1619.6C101,-1605.45 101,-1599.35 101,-1589.1"/>
<polygon fill="black" stroke="black" points="104.5,-1589.11 101,-1579.11 97.5,-1589.11 104.5,-1589.11"/>
</g>
<!-- cluster_d284e27 -->
<g id="node8" class="node">
<title>cluster_d284e27</title>
<polygon fill="none" stroke="black" points="76.62,-1442.6 76.62,-1465.1 125.38,-1465.1 125.38,-1442.6 76.62,-1442.6"/>
<text text-anchor="start" x="83.38" y="-1448.8" font-family="Times,serif" font-size="14.00">source</text>
<polygon fill="none" stroke="black" points="76.62,-1420.1 76.62,-1442.6 125.38,-1442.6 125.38,-1420.1 76.62,-1420.1"/>
<text text-anchor="start" x="79.62" y="-1426.3" font-family="Times,serif" font-size="14.00">p:delete</text>
<polygon fill="none" stroke="black" points="76.62,-1397.6 76.62,-1420.1 125.38,-1420.1 125.38,-1397.6 76.62,-1397.6"/>
<text text-anchor="start" x="86" y="-1403.8" font-family="Times,serif" font-size="14.00">result</text>
</g>
<!-- cluster_d284e22&#45;&gt;cluster_d284e27 -->
<g id="edge6" class="edge">
<title>cluster_d284e22:d284e26&#45;&gt;cluster_d284e27:d284e29</title>
<path fill="none" stroke="black" d="M101,-1508.1C101,-1493.95 101,-1487.85 101,-1477.6"/>
<polygon fill="black" stroke="black" points="104.5,-1477.61 101,-1467.61 97.5,-1477.61 104.5,-1477.61"/>
</g>
<!-- cluster_d284e32 -->
<g id="node9" class="node">
<title>cluster_d284e32</title>
<polygon fill="none" stroke="black" points="72.12,-1331.1 72.12,-1353.6 129.88,-1353.6 129.88,-1331.1 72.12,-1331.1"/>
<text text-anchor="start" x="83.38" y="-1337.3" font-family="Times,serif" font-size="14.00">source</text>
<polygon fill="none" stroke="black" points="72.12,-1308.6 72.12,-1331.1 129.88,-1331.1 129.88,-1308.6 72.12,-1308.6"/>
<text text-anchor="start" x="75.12" y="-1314.8" font-family="Times,serif" font-size="14.00">p:identity</text>
<polygon fill="none" stroke="black" points="72.12,-1286.1 72.12,-1308.6 129.88,-1308.6 129.88,-1286.1 72.12,-1286.1"/>
<text text-anchor="start" x="86" y="-1292.3" font-family="Times,serif" font-size="14.00">result</text>
</g>
<!-- cluster_d284e27&#45;&gt;cluster_d284e32 -->
<g id="edge7" class="edge">
<title>cluster_d284e27:d284e31&#45;&gt;cluster_d284e32:d284e34</title>
<path fill="none" stroke="black" d="M101,-1396.6C101,-1382.45 101,-1376.35 101,-1366.1"/>
<polygon fill="black" stroke="black" points="104.5,-1366.11 101,-1356.11 97.5,-1366.11 104.5,-1366.11"/>
</g>
<!-- cluster_d284e39 -->
<g id="node11" class="node">
<title>cluster_d284e39</title>
<polygon fill="none" stroke="black" points="69,-1219.6 69,-1242.1 128.25,-1242.1 128.25,-1219.6 69,-1219.6"/>
<text text-anchor="start" x="72" y="-1225.8" font-family="Times,serif" font-size="14.00">stylesheet</text>
<polygon fill="none" stroke="black" points="128.25,-1219.6 128.25,-1242.1 189,-1242.1 189,-1219.6 128.25,-1219.6"/>
<text text-anchor="start" x="141" y="-1225.8" font-family="Times,serif" font-size="14.00">source</text>
<polygon fill="none" stroke="black" points="69,-1197.1 69,-1219.6 189,-1219.6 189,-1197.1 69,-1197.1"/>
<text text-anchor="start" x="114" y="-1203.3" font-family="Times,serif" font-size="14.00">p:xslt</text>
<polygon fill="none" stroke="black" points="69,-1174.6 69,-1197.1 128.25,-1197.1 128.25,-1174.6 69,-1174.6"/>
<text text-anchor="start" x="83.62" y="-1180.8" font-family="Times,serif" font-size="14.00">result</text>
<polygon fill="none" stroke="black" points="128.25,-1174.6 128.25,-1197.1 189,-1197.1 189,-1174.6 128.25,-1174.6"/>
<text text-anchor="start" x="131.25" y="-1180.8" font-family="Times,serif" font-size="14.00">secondary</text>
</g>
<!-- cluster_d284e32&#45;&gt;cluster_d284e39 -->
<g id="edge9" class="edge">
<title>cluster_d284e32:d284e36&#45;&gt;cluster_d284e39:d284e42</title>
<path fill="none" stroke="black" d="M101,-1285.1C101,-1258.11 142.79,-1269.61 155.19,-1254.05"/>
<polygon fill="black" stroke="black" points="158.52,-1255.13 158.17,-1244.54 151.84,-1253.04 158.52,-1255.13"/>
</g>
<!-- cluster_d284e37 -->
<g id="node10" class="node">
<title>cluster_d284e37</title>
<polygon fill="none" stroke="black" points="169.62,-1331.1 169.62,-1353.6 338.38,-1353.6 338.38,-1331.1 169.62,-1331.1"/>
<text text-anchor="start" x="218.75" y="-1337.3" font-family="Times,serif" font-size="14.00">cx:document</text>
<polygon fill="none" stroke="black" points="169.62,-1308.6 169.62,-1331.1 338.38,-1331.1 338.38,-1308.6 169.62,-1308.6"/>
<text text-anchor="start" x="172.62" y="-1314.8" font-family="Times,serif" font-size="14.00">href = &quot;movies&#45;countries.xsl&quot;</text>
<polygon fill="none" stroke="black" points="169.62,-1286.1 169.62,-1308.6 338.38,-1308.6 338.38,-1286.1 169.62,-1286.1"/>
<text text-anchor="start" x="239" y="-1292.3" font-family="Times,serif" font-size="14.00">result</text>
</g>
<!-- cluster_d284e37&#45;&gt;cluster_d284e39 -->
<g id="edge8" class="edge">
<title>cluster_d284e37:d284e38&#45;&gt;cluster_d284e39:d284e40</title>
<path fill="none" stroke="black" d="M168.62,-1297.35C155.38,-1297.35 159.96,-1282.82 150,-1274.1 133.54,-1259.69 109.51,-1266.01 101.41,-1254.02"/>
<polygon fill="black" stroke="black" points="104.86,-1253.39 99,-1244.57 98.08,-1255.12 104.86,-1253.39"/>
</g>
<!-- cluster_d284e56 -->
<g id="node12" class="node">
<title>cluster_d284e56</title>
<polygon fill="none" stroke="black" points="70.12,-1108.1 70.12,-1130.6 127.88,-1130.6 127.88,-1108.1 70.12,-1108.1"/>
<text text-anchor="start" x="81.38" y="-1114.3" font-family="Times,serif" font-size="14.00">source</text>
<polygon fill="none" stroke="black" points="70.12,-1085.6 70.12,-1108.1 127.88,-1108.1 127.88,-1085.6 70.12,-1085.6"/>
<text text-anchor="start" x="73.12" y="-1091.8" font-family="Times,serif" font-size="14.00">p:identity</text>
<polygon fill="none" stroke="black" points="70.12,-1063.1 70.12,-1085.6 127.88,-1085.6 127.88,-1063.1 70.12,-1063.1"/>
<text text-anchor="start" x="84" y="-1069.3" font-family="Times,serif" font-size="14.00">result</text>
</g>
<!-- cluster_d284e39&#45;&gt;cluster_d284e56 -->
<g id="edge10" class="edge">
<title>cluster_d284e39:d284e44&#45;&gt;cluster_d284e56:d284e58</title>
<path fill="none" stroke="black" d="M98.62,-1173.6C98.62,-1159.45 98.84,-1153.35 98.94,-1143.1"/>
<polygon fill="black" stroke="black" points="102.44,-1143.13 98.99,-1133.11 95.44,-1143.1 102.44,-1143.13"/>
</g>
<!-- d284e177 -->
<g id="node30" class="node">
<title>d284e177</title>
<ellipse fill="black" stroke="black" cx="157" cy="-1096.85" rx="1.8" ry="1.8"/>
</g>
<!-- cluster_d284e39&#45;&gt;d284e177 -->
<g id="edge28" class="edge">
<title>cluster_d284e39:d284e45&#45;&gt;d284e177</title>
<path fill="none" stroke="black" d="M158.62,-1173.6C158.62,-1151.19 157.91,-1125.06 157.42,-1110.08"/>
<polygon fill="black" stroke="black" points="160.93,-1110.3 157.09,-1100.43 153.94,-1110.54 160.93,-1110.3"/>
</g>
<!-- cluster_d284e63 -->
<g id="node14" class="node">
<title>cluster_d284e63</title>
<polygon fill="none" stroke="black" points="101.38,-996.6 101.38,-1019.1 173,-1019.1 173,-996.6 101.38,-996.6"/>
<text text-anchor="start" x="116.56" y="-1002.8" font-family="Times,serif" font-size="14.00">schema</text>
<polygon fill="none" stroke="black" points="173,-996.6 173,-1019.1 238.62,-1019.1 238.62,-996.6 173,-996.6"/>
<text text-anchor="start" x="188.19" y="-1002.8" font-family="Times,serif" font-size="14.00">source</text>
<polygon fill="none" stroke="black" points="101.38,-974.1 101.38,-996.6 238.62,-996.6 238.62,-974.1 101.38,-974.1"/>
<text text-anchor="start" x="104.38" y="-980.3" font-family="Times,serif" font-size="14.00">p:validate&#45;with&#45;relax&#45;ng</text>
<polygon fill="none" stroke="black" points="101.38,-951.6 101.38,-974.1 173,-974.1 173,-951.6 101.38,-951.6"/>
<text text-anchor="start" x="122.19" y="-957.8" font-family="Times,serif" font-size="14.00">result</text>
<polygon fill="none" stroke="black" points="173,-951.6 173,-974.1 238.62,-974.1 238.62,-951.6 173,-951.6"/>
<text text-anchor="start" x="189.69" y="-957.8" font-family="Times,serif" font-size="14.00">report</text>
</g>
<!-- cluster_d284e56&#45;&gt;cluster_d284e63 -->
<g id="edge12" class="edge">
<title>cluster_d284e56:d284e60&#45;&gt;cluster_d284e63:d284e66</title>
<path fill="none" stroke="black" d="M128.88,-1074.35C140.33,-1074.35 131.88,-1059.18 140,-1051.1 159.53,-1031.69 193.52,-1046.3 203.18,-1031.1"/>
<polygon fill="black" stroke="black" points="206.54,-1032.11 205.46,-1021.57 199.73,-1030.49 206.54,-1032.11"/>
</g>
<!-- cluster_d284e61 -->
<g id="node13" class="node">
<title>cluster_d284e61</title>
<polygon fill="none" stroke="black" points="184.88,-1108.1 184.88,-1130.6 301.12,-1130.6 301.12,-1108.1 184.88,-1108.1"/>
<text text-anchor="start" x="207.75" y="-1114.3" font-family="Times,serif" font-size="14.00">cx:document</text>
<polygon fill="none" stroke="black" points="184.88,-1085.6 184.88,-1108.1 301.12,-1108.1 301.12,-1085.6 184.88,-1085.6"/>
<text text-anchor="start" x="187.88" y="-1091.8" font-family="Times,serif" font-size="14.00">href = &quot;movies.rnc&quot;</text>
<polygon fill="none" stroke="black" points="184.88,-1063.1 184.88,-1085.6 301.12,-1085.6 301.12,-1063.1 184.88,-1063.1"/>
<text text-anchor="start" x="228" y="-1069.3" font-family="Times,serif" font-size="14.00">result</text>
</g>
<!-- cluster_d284e61&#45;&gt;cluster_d284e63 -->
<g id="edge11" class="edge">
<title>cluster_d284e61:d284e62&#45;&gt;cluster_d284e63:d284e64</title>
<path fill="none" stroke="black" d="M183.88,-1074.35C172.47,-1074.35 179.88,-1060.2 173,-1051.1 163.28,-1038.24 147.45,-1039.24 140.57,-1030.97"/>
<polygon fill="black" stroke="black" points="143.95,-1030.06 137.64,-1021.55 137.26,-1032.13 143.95,-1030.06"/>
</g>
<!-- cluster_d284e75 -->
<g id="node15" class="node">
<title>cluster_d284e75</title>
<polygon fill="none" stroke="black" points="111.12,-885.1 111.12,-907.6 168.88,-907.6 168.88,-885.1 111.12,-885.1"/>
<text text-anchor="start" x="122.38" y="-891.3" font-family="Times,serif" font-size="14.00">source</text>
<polygon fill="none" stroke="black" points="111.12,-862.6 111.12,-885.1 168.88,-885.1 168.88,-862.6 111.12,-862.6"/>
<text text-anchor="start" x="114.12" y="-868.8" font-family="Times,serif" font-size="14.00">p:identity</text>
<polygon fill="none" stroke="black" points="111.12,-840.1 111.12,-862.6 168.88,-862.6 168.88,-840.1 111.12,-840.1"/>
<text text-anchor="start" x="125" y="-846.3" font-family="Times,serif" font-size="14.00">result</text>
</g>
<!-- cluster_d284e63&#45;&gt;cluster_d284e75 -->
<g id="edge13" class="edge">
<title>cluster_d284e63:d284e68&#45;&gt;cluster_d284e75:d284e77</title>
<path fill="none" stroke="black" d="M137.19,-950.6C137.19,-936.28 138.84,-930.23 139.61,-919.79"/>
<polygon fill="black" stroke="black" points="143.1,-920.23 139.95,-910.11 136.1,-919.98 143.1,-920.23"/>
</g>
<!-- d284e180 -->
<g id="node31" class="node">
<title>d284e180</title>
<ellipse fill="black" stroke="black" cx="202" cy="-873.85" rx="1.8" ry="1.8"/>
</g>
<!-- cluster_d284e63&#45;&gt;d284e180 -->
<g id="edge29" class="edge">
<title>cluster_d284e63:d284e69&#45;&gt;d284e180</title>
<path fill="none" stroke="black" d="M205.81,-950.6C205.81,-928.17 204.12,-902.04 202.99,-887.07"/>
<polygon fill="black" stroke="black" points="206.51,-887.11 202.22,-877.43 199.53,-887.67 206.51,-887.11"/>
</g>
<!-- cluster_d284e82 -->
<g id="node17" class="node">
<title>cluster_d284e82</title>
<polygon fill="none" stroke="black" points="32.38,-773.6 32.38,-796.1 152,-796.1 152,-773.6 32.38,-773.6"/>
<text text-anchor="start" x="71.56" y="-779.8" font-family="Times,serif" font-size="14.00">schema</text>
<polygon fill="none" stroke="black" points="152,-773.6 152,-796.1 265.62,-796.1 265.62,-773.6 152,-773.6"/>
<text text-anchor="start" x="191.19" y="-779.8" font-family="Times,serif" font-size="14.00">source</text>
<polygon fill="none" stroke="black" points="32.38,-751.1 32.38,-773.6 265.62,-773.6 265.62,-751.1 32.38,-751.1"/>
<text text-anchor="start" x="35.38" y="-757.3" font-family="Times,serif" font-size="14.00">p:validate&#45;with&#45;schematron / finalize&#45;xml</text>
<polygon fill="none" stroke="black" points="32.38,-728.6 32.38,-751.1 152,-751.1 152,-728.6 32.38,-728.6"/>
<text text-anchor="start" x="77.19" y="-734.8" font-family="Times,serif" font-size="14.00">result</text>
<polygon fill="none" stroke="black" points="152,-728.6 152,-751.1 265.62,-751.1 265.62,-728.6 152,-728.6"/>
<text text-anchor="start" x="192.69" y="-734.8" font-family="Times,serif" font-size="14.00">report</text>
</g>
<!-- cluster_d284e75&#45;&gt;cluster_d284e82 -->
<g id="edge15" class="edge">
<title>cluster_d284e75:d284e79&#45;&gt;cluster_d284e82:d284e85</title>
<path fill="none" stroke="black" d="M140,-839.1C140,-807.75 192.68,-826.54 205.86,-807.72"/>
<polygon fill="black" stroke="black" points="209.1,-809.13 208.41,-798.56 202.35,-807.25 209.1,-809.13"/>
</g>
<!-- cluster_d284e80 -->
<g id="node16" class="node">
<title>cluster_d284e80</title>
<polygon fill="none" stroke="black" points="229.5,-885.1 229.5,-907.6 346.5,-907.6 346.5,-885.1 229.5,-885.1"/>
<text text-anchor="start" x="252.75" y="-891.3" font-family="Times,serif" font-size="14.00">cx:document</text>
<polygon fill="none" stroke="black" points="229.5,-862.6 229.5,-885.1 346.5,-885.1 346.5,-862.6 229.5,-862.6"/>
<text text-anchor="start" x="232.5" y="-868.8" font-family="Times,serif" font-size="14.00">href = &quot;movies.sch&quot;</text>
<polygon fill="none" stroke="black" points="229.5,-840.1 229.5,-862.6 346.5,-862.6 346.5,-840.1 229.5,-840.1"/>
<text text-anchor="start" x="273" y="-846.3" font-family="Times,serif" font-size="14.00">result</text>
</g>
<!-- cluster_d284e80&#45;&gt;cluster_d284e82 -->
<g id="edge14" class="edge">
<title>cluster_d284e80:d284e81&#45;&gt;cluster_d284e82:d284e83</title>
<path fill="none" stroke="black" d="M228.5,-851.35C217.16,-851.35 226.71,-835.35 218,-828.1 177.19,-794.14 104.7,-845.39 93.62,-808.49"/>
<polygon fill="black" stroke="black" points="97.1,-808.08 92.38,-798.6 90.16,-808.96 97.1,-808.08"/>
</g>
<!-- cluster_d284e93 -->
<g id="node18" class="node">
<title>cluster_d284e93</title>
<polygon fill="none" stroke="black" points="65.12,-662.1 65.12,-684.6 122.88,-684.6 122.88,-662.1 65.12,-662.1"/>
<text text-anchor="start" x="76.38" y="-668.3" font-family="Times,serif" font-size="14.00">source</text>
<polygon fill="none" stroke="black" points="65.12,-639.6 65.12,-662.1 122.88,-662.1 122.88,-639.6 65.12,-639.6"/>
<text text-anchor="start" x="68.12" y="-645.8" font-family="Times,serif" font-size="14.00">p:identity</text>
<polygon fill="none" stroke="black" points="65.12,-617.1 65.12,-639.6 122.88,-639.6 122.88,-617.1 65.12,-617.1"/>
<text text-anchor="start" x="79" y="-623.3" font-family="Times,serif" font-size="14.00">result</text>
</g>
<!-- cluster_d284e82&#45;&gt;cluster_d284e93 -->
<g id="edge16" class="edge">
<title>cluster_d284e82:d284e87&#45;&gt;cluster_d284e93:d284e95</title>
<path fill="none" stroke="black" d="M92.19,-727.6C92.19,-705.54 114.98,-709.19 122.88,-688.6 123.33,-687.41 123.89,-686.13 124.45,-684.84"/>
<polygon fill="black" stroke="black" points="127.95,-684.67 123.95,-674.86 120.96,-685.02 127.95,-684.67"/>
</g>
<!-- cluster_d284e144 -->
<g id="node26" class="node">
<title>cluster_d284e144</title>
<polygon fill="none" stroke="black" points="200,-662.1 200,-684.6 241.25,-684.6 241.25,-662.1 200,-662.1"/>
<text text-anchor="start" x="203" y="-668.3" font-family="Times,serif" font-size="14.00">source</text>
<polygon fill="none" stroke="black" points="241.25,-662.1 241.25,-684.6 302,-684.6 302,-662.1 241.25,-662.1"/>
<text text-anchor="start" x="245" y="-668.3" font-family="Times,serif" font-size="14.00">stylesheet</text>
<polygon fill="none" stroke="black" points="200,-639.6 200,-662.1 302,-662.1 302,-639.6 200,-639.6"/>
<text text-anchor="start" x="236" y="-645.8" font-family="Times,serif" font-size="14.00">p:xslt</text>
<polygon fill="none" stroke="black" points="200,-617.1 200,-639.6 241.25,-639.6 241.25,-617.1 200,-617.1"/>
<text text-anchor="start" x="205.62" y="-623.3" font-family="Times,serif" font-size="14.00">result</text>
<polygon fill="none" stroke="black" points="241.25,-617.1 241.25,-639.6 302,-639.6 302,-617.1 241.25,-617.1"/>
<text text-anchor="start" x="244.25" y="-623.3" font-family="Times,serif" font-size="14.00">secondary</text>
</g>
<!-- cluster_d284e82&#45;&gt;cluster_d284e144 -->
<g id="edge23" class="edge">
<title>cluster_d284e82:d284e87&#45;&gt;cluster_d284e144:d284e145</title>
<path fill="none" stroke="black" d="M92.19,-727.6C92.19,-682.84 154.38,-726.14 188,-696.6 192.16,-692.95 192.19,-687.38 192.41,-682.6"/>
<polygon fill="black" stroke="black" points="195.17,-684.76 198.12,-674.58 189.47,-680.7 195.17,-684.76"/>
</g>
<!-- d284e183 -->
<g id="node32" class="node">
<title>d284e183</title>
<ellipse fill="black" stroke="black" cx="172" cy="-650.85" rx="1.8" ry="1.8"/>
</g>
<!-- cluster_d284e82&#45;&gt;d284e183 -->
<g id="edge30" class="edge">
<title>cluster_d284e82:d284e88&#45;&gt;d284e183</title>
<path fill="none" stroke="black" d="M208.81,-727.6C208.81,-708.79 188.4,-713.43 180,-696.6 174.94,-686.47 173.04,-673.63 172.35,-664.31"/>
<polygon fill="black" stroke="black" points="175.85,-664.42 172.02,-654.54 168.86,-664.65 175.85,-664.42"/>
</g>
<!-- cluster_d284e98 -->
<g id="node19" class="node">
<title>cluster_d284e98</title>
<polygon fill="none" stroke="black" points="51.25,-550.6 51.25,-573.1 142.75,-573.1 142.75,-550.6 51.25,-550.6"/>
<text text-anchor="start" x="79.38" y="-556.8" font-family="Times,serif" font-size="14.00">source</text>
<polygon fill="none" stroke="black" points="51.25,-528.1 51.25,-550.6 142.75,-550.6 142.75,-528.1 51.25,-528.1"/>
<text text-anchor="start" x="78.62" y="-534.3" font-family="Times,serif" font-size="14.00">p:store</text>
<polygon fill="none" stroke="black" points="51.25,-505.6 51.25,-528.1 87.25,-528.1 87.25,-505.6 51.25,-505.6"/>
<text text-anchor="start" x="54.25" y="-511.8" font-family="Times,serif" font-size="14.00">result</text>
<polygon fill="none" stroke="black" points="87.25,-505.6 87.25,-528.1 142.75,-528.1 142.75,-505.6 87.25,-505.6"/>
<text text-anchor="start" x="90.25" y="-511.8" font-family="Times,serif" font-size="14.00">result&#45;uri</text>
</g>
<!-- cluster_d284e93&#45;&gt;cluster_d284e98 -->
<g id="edge17" class="edge">
<title>cluster_d284e93:d284e97&#45;&gt;cluster_d284e98:d284e101</title>
<path fill="none" stroke="black" d="M94,-616.1C94,-601.77 95.76,-595.73 96.58,-585.29"/>
<polygon fill="black" stroke="black" points="100.07,-585.74 96.94,-575.61 93.07,-585.48 100.07,-585.74"/>
</g>
<!-- cluster_d284e108 -->
<g id="node21" class="node">
<title>cluster_d284e108</title>
<polygon fill="none" stroke="black" points="320,-439.1 320,-461.6 379.25,-461.6 379.25,-439.1 320,-439.1"/>
<text text-anchor="start" x="323" y="-445.3" font-family="Times,serif" font-size="14.00">stylesheet</text>
<polygon fill="none" stroke="black" points="379.25,-439.1 379.25,-461.6 440,-461.6 440,-439.1 379.25,-439.1"/>
<text text-anchor="start" x="392" y="-445.3" font-family="Times,serif" font-size="14.00">source</text>
<polygon fill="none" stroke="black" points="320,-416.6 320,-439.1 440,-439.1 440,-416.6 320,-416.6"/>
<text text-anchor="start" x="365" y="-422.8" font-family="Times,serif" font-size="14.00">p:xslt</text>
<polygon fill="none" stroke="black" points="320,-394.1 320,-416.6 379.25,-416.6 379.25,-394.1 320,-394.1"/>
<text text-anchor="start" x="334.62" y="-400.3" font-family="Times,serif" font-size="14.00">result</text>
<polygon fill="none" stroke="black" points="379.25,-394.1 379.25,-416.6 440,-416.6 440,-394.1 379.25,-394.1"/>
<text text-anchor="start" x="382.25" y="-400.3" font-family="Times,serif" font-size="14.00">secondary</text>
</g>
<!-- cluster_d284e98&#45;&gt;cluster_d284e108 -->
<g id="edge19" class="edge">
<title>cluster_d284e98:d284e103&#45;&gt;cluster_d284e108:d284e111</title>
<path fill="none" stroke="black" d="M69.25,-504.6C69.25,-432.56 373.41,-527.29 406.68,-473.49"/>
<polygon fill="black" stroke="black" points="410,-474.63 409.23,-464.06 403.24,-472.8 410,-474.63"/>
</g>
<!-- d284e186 -->
<g id="node33" class="node">
<title>d284e186</title>
<ellipse fill="black" stroke="black" cx="115" cy="-427.85" rx="1.8" ry="1.8"/>
</g>
<!-- cluster_d284e98&#45;&gt;d284e186 -->
<g id="edge31" class="edge">
<title>cluster_d284e98:d284e104&#45;&gt;d284e186</title>
<path fill="none" stroke="black" d="M115,-504.6C115,-482.19 115,-456.06 115,-441.08"/>
<polygon fill="black" stroke="black" points="118.5,-441.43 115,-431.43 111.5,-441.43 118.5,-441.43"/>
</g>
<!-- cluster_d284e106 -->
<g id="node20" class="node">
<title>cluster_d284e106</title>
<polygon fill="none" stroke="black" points="299.12,-550.6 299.12,-573.1 458.88,-573.1 458.88,-550.6 299.12,-550.6"/>
<text text-anchor="start" x="343.75" y="-556.8" font-family="Times,serif" font-size="14.00">cx:document</text>
<polygon fill="none" stroke="black" points="299.12,-528.1 299.12,-550.6 458.88,-550.6 458.88,-528.1 299.12,-528.1"/>
<text text-anchor="start" x="302.12" y="-534.3" font-family="Times,serif" font-size="14.00">href = &quot;movies&#45;to&#45;html.xsl&quot;</text>
<polygon fill="none" stroke="black" points="299.12,-505.6 299.12,-528.1 458.88,-528.1 458.88,-505.6 299.12,-505.6"/>
<text text-anchor="start" x="364" y="-511.8" font-family="Times,serif" font-size="14.00">result</text>
</g>
<!-- cluster_d284e106&#45;&gt;cluster_d284e108 -->
<g id="edge18" class="edge">
<title>cluster_d284e106:d284e107&#45;&gt;cluster_d284e108:d284e109</title>
<path fill="none" stroke="black" d="M379,-504.6C379,-486.45 360.35,-485.02 352.77,-473.66"/>
<polygon fill="black" stroke="black" points="356.14,-472.72 350.04,-464.06 349.41,-474.63 356.14,-472.72"/>
</g>
<!-- cluster_d284e124 -->
<g id="node22" class="node">
<title>cluster_d284e124</title>
<polygon fill="none" stroke="black" points="321.12,-327.6 321.12,-350.1 378.88,-350.1 378.88,-327.6 321.12,-327.6"/>
<text text-anchor="start" x="332.38" y="-333.8" font-family="Times,serif" font-size="14.00">source</text>
<polygon fill="none" stroke="black" points="321.12,-305.1 321.12,-327.6 378.88,-327.6 378.88,-305.1 321.12,-305.1"/>
<text text-anchor="start" x="324.12" y="-311.3" font-family="Times,serif" font-size="14.00">p:identity</text>
<polygon fill="none" stroke="black" points="321.12,-282.6 321.12,-305.1 378.88,-305.1 378.88,-282.6 321.12,-282.6"/>
<text text-anchor="start" x="335" y="-288.8" font-family="Times,serif" font-size="14.00">result</text>
</g>
<!-- cluster_d284e108&#45;&gt;cluster_d284e124 -->
<g id="edge20" class="edge">
<title>cluster_d284e108:d284e113&#45;&gt;cluster_d284e124:d284e126</title>
<path fill="none" stroke="black" d="M349.62,-393.1C349.62,-378.95 349.84,-372.85 349.94,-362.6"/>
<polygon fill="black" stroke="black" points="353.44,-362.63 349.99,-352.61 346.44,-362.6 353.44,-362.63"/>
</g>
<!-- d284e190 -->
<g id="node34" class="node">
<title>d284e190</title>
<ellipse fill="black" stroke="black" cx="409" cy="-316.35" rx="1.8" ry="1.8"/>
</g>
<!-- cluster_d284e108&#45;&gt;d284e190 -->
<g id="edge32" class="edge">
<title>cluster_d284e108:d284e114&#45;&gt;d284e190</title>
<path fill="none" stroke="black" d="M409.62,-393.1C409.62,-370.69 409.35,-344.56 409.16,-329.58"/>
<polygon fill="black" stroke="black" points="412.67,-329.88 409.04,-319.93 405.67,-329.98 412.67,-329.88"/>
</g>
<!-- cluster_d284e130 -->
<g id="node23" class="node">
<title>cluster_d284e130</title>
<polygon fill="none" stroke="black" points="304.25,-216.1 304.25,-238.6 395.75,-238.6 395.75,-216.1 304.25,-216.1"/>
<text text-anchor="start" x="332.38" y="-222.3" font-family="Times,serif" font-size="14.00">source</text>
<polygon fill="none" stroke="black" points="304.25,-193.6 304.25,-216.1 395.75,-216.1 395.75,-193.6 304.25,-193.6"/>
<text text-anchor="start" x="331.62" y="-199.8" font-family="Times,serif" font-size="14.00">p:store</text>
<polygon fill="none" stroke="black" points="304.25,-171.1 304.25,-193.6 340.25,-193.6 340.25,-171.1 304.25,-171.1"/>
<text text-anchor="start" x="307.25" y="-177.3" font-family="Times,serif" font-size="14.00">result</text>
<polygon fill="none" stroke="black" points="340.25,-171.1 340.25,-193.6 395.75,-193.6 395.75,-171.1 340.25,-171.1"/>
<text text-anchor="start" x="343.25" y="-177.3" font-family="Times,serif" font-size="14.00">result&#45;uri</text>
</g>
<!-- cluster_d284e124&#45;&gt;cluster_d284e130 -->
<g id="edge21" class="edge">
<title>cluster_d284e124:d284e128&#45;&gt;cluster_d284e130:d284e133</title>
<path fill="none" stroke="black" d="M350,-281.6C350,-267.45 350,-261.35 350,-251.1"/>
<polygon fill="black" stroke="black" points="353.5,-251.11 350,-241.11 346.5,-251.11 353.5,-251.11"/>
</g>
<!-- cluster_d284e137 -->
<g id="node24" class="node">
<title>cluster_d284e137</title>
<polygon fill="none" stroke="black" points="288.12,-104.6 288.12,-127.1 345.88,-127.1 345.88,-104.6 288.12,-104.6"/>
<text text-anchor="start" x="299.38" y="-110.8" font-family="Times,serif" font-size="14.00">source</text>
<polygon fill="none" stroke="black" points="288.12,-82.1 288.12,-104.6 345.88,-104.6 345.88,-82.1 288.12,-82.1"/>
<text text-anchor="start" x="291.12" y="-88.3" font-family="Times,serif" font-size="14.00">p:identity</text>
<polygon fill="none" stroke="black" points="288.12,-59.6 288.12,-82.1 345.88,-82.1 345.88,-59.6 288.12,-59.6"/>
<text text-anchor="start" x="302" y="-65.8" font-family="Times,serif" font-size="14.00">result</text>
</g>
<!-- cluster_d284e130&#45;&gt;cluster_d284e137 -->
<g id="edge22" class="edge">
<title>cluster_d284e130:d284e135&#45;&gt;cluster_d284e137:d284e139</title>
<path fill="none" stroke="black" d="M322.25,-170.1C322.25,-155.7 319.17,-149.76 317.73,-139.32"/>
<polygon fill="black" stroke="black" points="321.24,-139.36 317.1,-129.61 314.25,-139.82 321.24,-139.36"/>
</g>
<!-- d284e193 -->
<g id="node35" class="node">
<title>d284e193</title>
<ellipse fill="black" stroke="black" cx="374" cy="-93.35" rx="1.8" ry="1.8"/>
</g>
<!-- cluster_d284e130&#45;&gt;d284e193 -->
<g id="edge33" class="edge">
<title>cluster_d284e130:d284e136&#45;&gt;d284e193</title>
<path fill="none" stroke="black" d="M368,-170.1C368,-147.62 370.66,-121.51 372.44,-106.56"/>
<polygon fill="black" stroke="black" points="375.87,-107.28 373.66,-96.92 368.93,-106.4 375.87,-107.28"/>
</g>
<!-- d284e196 -->
<g id="node36" class="node">
<title>d284e196</title>
<ellipse fill="black" stroke="black" cx="317" cy="-17.8" rx="1.8" ry="1.8"/>
</g>
<!-- cluster_d284e137&#45;&gt;d284e196 -->
<g id="edge34" class="edge">
<title>cluster_d284e137:d284e141&#45;&gt;d284e196</title>
<path fill="none" stroke="black" d="M317,-58.6C317,-49.46 317,-39.13 317,-31.29"/>
<polygon fill="black" stroke="black" points="320.5,-31.55 317,-21.55 313.5,-31.55 320.5,-31.55"/>
</g>
<!-- cluster_d284e142 -->
<g id="node25" class="node">
<title>cluster_d284e142</title>
<polygon fill="none" stroke="black" points="306.5,-773.6 306.5,-796.1 459.5,-796.1 459.5,-773.6 306.5,-773.6"/>
<text text-anchor="start" x="347.75" y="-779.8" font-family="Times,serif" font-size="14.00">cx:document</text>
<polygon fill="none" stroke="black" points="306.5,-751.1 306.5,-773.6 459.5,-773.6 459.5,-751.1 306.5,-751.1"/>
<text text-anchor="start" x="309.5" y="-757.3" font-family="Times,serif" font-size="14.00">href = &quot;movies&#45;to&#45;svg.xsl&quot;</text>
<polygon fill="none" stroke="black" points="306.5,-728.6 306.5,-751.1 459.5,-751.1 459.5,-728.6 306.5,-728.6"/>
<text text-anchor="start" x="368" y="-734.8" font-family="Times,serif" font-size="14.00">result</text>
</g>
<!-- cluster_d284e142&#45;&gt;cluster_d284e144 -->
<g id="edge24" class="edge">
<title>cluster_d284e142:d284e143&#45;&gt;cluster_d284e144:d284e147</title>
<path fill="none" stroke="black" d="M305.5,-739.85C282.05,-739.85 312.81,-698.03 311.81,-680.72"/>
<polygon fill="black" stroke="black" points="314.08,-678.05 304.16,-674.32 309.59,-683.42 314.08,-678.05"/>
</g>
<!-- cluster_d284e160 -->
<g id="node27" class="node">
<title>cluster_d284e160</title>
<polygon fill="none" stroke="black" points="185.12,-550.6 185.12,-573.1 242.88,-573.1 242.88,-550.6 185.12,-550.6"/>
<text text-anchor="start" x="196.38" y="-556.8" font-family="Times,serif" font-size="14.00">source</text>
<polygon fill="none" stroke="black" points="185.12,-528.1 185.12,-550.6 242.88,-550.6 242.88,-528.1 185.12,-528.1"/>
<text text-anchor="start" x="188.12" y="-534.3" font-family="Times,serif" font-size="14.00">p:identity</text>
<polygon fill="none" stroke="black" points="185.12,-505.6 185.12,-528.1 242.88,-528.1 242.88,-505.6 185.12,-505.6"/>
<text text-anchor="start" x="199" y="-511.8" font-family="Times,serif" font-size="14.00">result</text>
</g>
<!-- cluster_d284e144&#45;&gt;cluster_d284e160 -->
<g id="edge25" class="edge">
<title>cluster_d284e144:d284e149&#45;&gt;cluster_d284e160:d284e162</title>
<path fill="none" stroke="black" d="M220.62,-616.1C220.62,-601.63 216.74,-595.78 214.92,-585.34"/>
<polygon fill="black" stroke="black" points="218.43,-585.29 214.12,-575.61 211.45,-585.86 218.43,-585.29"/>
</g>
<!-- d284e199 -->
<g id="node37" class="node">
<title>d284e199</title>
<ellipse fill="black" stroke="black" cx="271" cy="-539.35" rx="1.8" ry="1.8"/>
</g>
<!-- cluster_d284e144&#45;&gt;d284e199 -->
<g id="edge35" class="edge">
<title>cluster_d284e144:d284e150&#45;&gt;d284e199</title>
<path fill="none" stroke="black" d="M271.62,-616.1C271.62,-593.69 271.35,-567.56 271.16,-552.58"/>
<polygon fill="black" stroke="black" points="274.67,-552.88 271.04,-542.93 267.67,-552.98 274.67,-552.88"/>
</g>
<!-- cluster_d284e165 -->
<g id="node28" class="node">
<title>cluster_d284e165</title>
<polygon fill="none" stroke="black" points="168.25,-439.1 168.25,-461.6 259.75,-461.6 259.75,-439.1 168.25,-439.1"/>
<text text-anchor="start" x="196.38" y="-445.3" font-family="Times,serif" font-size="14.00">source</text>
<polygon fill="none" stroke="black" points="168.25,-416.6 168.25,-439.1 259.75,-439.1 259.75,-416.6 168.25,-416.6"/>
<text text-anchor="start" x="195.62" y="-422.8" font-family="Times,serif" font-size="14.00">p:store</text>
<polygon fill="none" stroke="black" points="168.25,-394.1 168.25,-416.6 204.25,-416.6 204.25,-394.1 168.25,-394.1"/>
<text text-anchor="start" x="171.25" y="-400.3" font-family="Times,serif" font-size="14.00">result</text>
<polygon fill="none" stroke="black" points="204.25,-394.1 204.25,-416.6 259.75,-416.6 259.75,-394.1 204.25,-394.1"/>
<text text-anchor="start" x="207.25" y="-400.3" font-family="Times,serif" font-size="14.00">result&#45;uri</text>
</g>
<!-- cluster_d284e160&#45;&gt;cluster_d284e165 -->
<g id="edge26" class="edge">
<title>cluster_d284e160:d284e164&#45;&gt;cluster_d284e165:d284e168</title>
<path fill="none" stroke="black" d="M214,-504.6C214,-490.45 214,-484.35 214,-474.1"/>
<polygon fill="black" stroke="black" points="217.5,-474.11 214,-464.11 210.5,-474.11 217.5,-474.11"/>
</g>
<!-- cluster_d284e172 -->
<g id="node29" class="node">
<title>cluster_d284e172</title>
<polygon fill="none" stroke="black" points="152.12,-327.6 152.12,-350.1 209.88,-350.1 209.88,-327.6 152.12,-327.6"/>
<text text-anchor="start" x="163.38" y="-333.8" font-family="Times,serif" font-size="14.00">source</text>
<polygon fill="none" stroke="black" points="152.12,-305.1 152.12,-327.6 209.88,-327.6 209.88,-305.1 152.12,-305.1"/>
<text text-anchor="start" x="155.12" y="-311.3" font-family="Times,serif" font-size="14.00">p:identity</text>
<polygon fill="none" stroke="black" points="152.12,-282.6 152.12,-305.1 209.88,-305.1 209.88,-282.6 152.12,-282.6"/>
<text text-anchor="start" x="166" y="-288.8" font-family="Times,serif" font-size="14.00">result</text>
</g>
<!-- cluster_d284e165&#45;&gt;cluster_d284e172 -->
<g id="edge27" class="edge">
<title>cluster_d284e165:d284e170&#45;&gt;cluster_d284e172:d284e174</title>
<path fill="none" stroke="black" d="M186.25,-393.1C186.25,-378.7 183.17,-372.76 181.73,-362.32"/>
<polygon fill="black" stroke="black" points="185.24,-362.36 181.1,-352.61 178.25,-362.82 185.24,-362.36"/>
</g>
<!-- d284e202 -->
<g id="node38" class="node">
<title>d284e202</title>
<ellipse fill="black" stroke="black" cx="238" cy="-316.35" rx="1.8" ry="1.8"/>
</g>
<!-- cluster_d284e165&#45;&gt;d284e202 -->
<g id="edge36" class="edge">
<title>cluster_d284e165:d284e171&#45;&gt;d284e202</title>
<path fill="none" stroke="black" d="M232,-393.1C232,-370.62 234.66,-344.51 236.44,-329.56"/>
<polygon fill="black" stroke="black" points="239.87,-330.28 237.66,-319.92 232.93,-329.4 239.87,-330.28"/>
</g>
<!-- d284e205 -->
<g id="node39" class="node">
<title>d284e205</title>
<ellipse fill="black" stroke="black" cx="181" cy="-204.85" rx="1.8" ry="1.8"/>
</g>
<!-- cluster_d284e172&#45;&gt;d284e205 -->
<g id="edge37" class="edge">
<title>cluster_d284e172:d284e176&#45;&gt;d284e205</title>
<path fill="none" stroke="black" d="M181,-281.6C181,-259.19 181,-233.06 181,-218.08"/>
<polygon fill="black" stroke="black" points="184.5,-218.43 181,-208.43 177.5,-218.43 184.5,-218.43"/>
</g>
<!-- d284e3 -->
<g id="node41" class="node">
<title>d284e3</title>
<polygon fill="none" stroke="black" points="569.8,-1659.91 531,-1672.35 492.2,-1659.91 492.23,-1639.79 569.77,-1639.79 569.8,-1659.91"/>
<text text-anchor="middle" x="531" y="-1649.3" font-family="Times,serif" font-size="14.00">result</text>
</g>
<!-- cluster_d284e1_foot&#45;&gt;d284e3 -->
<g id="edge39" class="edge">
<title>cluster_d284e1_foot:d284e3_foot&#45;&gt;d284e3</title>
<path fill="none" stroke="black" d="M426.61,-1754.74C445.31,-1736.94 484.49,-1699.63 509.17,-1676.13"/>
<polygon fill="black" stroke="black" points="511.32,-1678.92 516.15,-1669.49 506.49,-1673.85 511.32,-1678.92"/>
</g>
</g>
</svg>
