<?xml version="1.0" encoding="UTF-8"?><svg xmlns="http://www.w3.org/2000/svg" viewBox="-10 -310 1020 320"><line x1="0" y1="0" x2="1000" y2="0" stroke="black" stroke-width="1" stroke-linecap="square"/><line x1="0" y1="0" x2="0" y2="-300" stroke="black" stroke-width="1" stroke-linecap="square"/><rect x="0" y="-300" width="16.40807539838807" height="300" fill="#dbeded"><title>Chapter 1:  1250 words (1.64%)</title></rect><line x1="16.40807539838807" y1="0" x2="16.40807539838807" y2="-300" stroke="black" stroke-width="1" stroke-linecap="square"/><rect x="16.40807539838807" y="-300" width="20.792313144837365" height="300" fill="#fffff3"><title>Chapter 2:  1584 words (2.08%)</title></rect><line x1="37.200388543225436" y1="0" x2="37.200388543225436" y2="-300" stroke="black" stroke-width="1" stroke-linecap="square"/><rect x="37.200388543225436" y="-300" width="37.699194035336426" height="300" fill="#dbeded"><title>Chapter 3:  2872 words (3.77%)</title></rect><line x1="74.89958257856186" y1="0" x2="74.89958257856186" y2="-300" stroke="black" stroke-width="1" stroke-linecap="square"/><rect x="74.89958257856186" y="-300" width="34.77199338426401" height="300" fill="#fffff3"><title>Chapter 4:  2649 words (3.48%)</title></rect><line x1="109.67157596282587" y1="0" x2="109.67157596282587" y2="-300" stroke="black" stroke-width="1" stroke-linecap="square"/><rect x="109.67157596282587" y="-300" width="28.707568717019768" height="300" fill="#dbeded"><title>Chapter 5:  2187 words (2.87%)</title></rect><line x1="138.37914467984564" y1="0" x2="138.37914467984564" y2="-300" stroke="black" stroke-width="1" stroke-linecap="square"/><rect x="138.37914467984564" y="-300" width="42.936651702501905" height="300" fill="#fffff3"><title>Chapter 6:  3271 words (4.29%)</title></rect><line x1="181.31579638234754" y1="0" x2="181.31579638234754" y2="-300" stroke="black" stroke-width="1" stroke-linecap="square"/><rect x="181.31579638234754" y="-300" width="35.61208684466146" height="300" fill="#dbeded"><title>Chapter 7:  2713 words (3.56%)</title></rect><line x1="216.927883227009" y1="0" x2="216.927883227009" y2="-300" stroke="black" stroke-width="1" stroke-linecap="square"/><rect x="216.927883227009" y="-300" width="49.42112309994488" height="300" fill="#fffff3"><title>Chapter 8:  3765 words (4.94%)</title></rect><line x1="266.3490063269539" y1="0" x2="266.3490063269539" y2="-300" stroke="black" stroke-width="1" stroke-linecap="square"/><rect x="266.3490063269539" y="-300" width="53.93662544958124" height="300" fill="#dbeded"><title>Chapter 9:  4109 words (5.39%)</title></rect><line x1="320.2856317765351" y1="0" x2="320.2856317765351" y2="-300" stroke="black" stroke-width="1" stroke-linecap="square"/><rect x="320.2856317765351" y="-300" width="32.15982778084066" height="300" fill="#fffff3"><title>Chapter 10:  2450 words (3.22%)</title></rect><line x1="352.4454595573758" y1="0" x2="352.4454595573758" y2="-300" stroke="black" stroke-width="1" stroke-linecap="square"/><rect x="352.4454595573758" y="-300" width="37.8435850988422" height="300" fill="#dbeded"><title>Chapter 11:  2883 words (3.78%)</title></rect><line x1="390.289044656218" y1="0" x2="390.289044656218" y2="-300" stroke="black" stroke-width="1" stroke-linecap="square"/><rect x="390.289044656218" y="-300" width="31.00469927279414" height="300" fill="#fffff3"><title>Chapter 12:  2362 words (3.10%)</title></rect><line x1="421.2937439290121" y1="0" x2="421.2937439290121" y2="-300" stroke="black" stroke-width="1" stroke-linecap="square"/><rect x="421.2937439290121" y="-300" width="47.29463652831373" height="300" fill="#dbeded"><title>Chapter 13:  3603 words (4.73%)</title></rect><line x1="468.58838045732585" y1="0" x2="468.58838045732585" y2="-300" stroke="black" stroke-width="1" stroke-linecap="square"/><rect x="468.58838045732585" y="-300" width="46.78270457588411" height="300" fill="#fffff3"><title>Chapter 14:  3564 words (4.68%)</title></rect><line x1="515.37108503321" y1="0" x2="515.37108503321" y2="-300" stroke="black" stroke-width="1" stroke-linecap="square"/><rect x="515.37108503321" y="-300" width="35.91399543199179" height="300" fill="#dbeded"><title>Chapter 15:  2736 words (3.59%)</title></rect><line x1="551.2850804652018" y1="0" x2="551.2850804652018" y2="-300" stroke="black" stroke-width="1" stroke-linecap="square"/><rect x="551.2850804652018" y="-300" width="32.96054186028198" height="300" fill="#fffff3"><title>Chapter 16:  2511 words (3.30%)</title></rect><line x1="584.2456223254837" y1="0" x2="584.2456223254837" y2="-300" stroke="black" stroke-width="1" stroke-linecap="square"/><rect x="584.2456223254837" y="-300" width="32.48798928880831" height="300" fill="#dbeded"><title>Chapter 17:  2475 words (3.25%)</title></rect><line x1="616.733611614292" y1="0" x2="616.733611614292" y2="-300" stroke="black" stroke-width="1" stroke-linecap="square"/><rect x="616.733611614292" y="-300" width="27.447428526423664" height="300" fill="#fffff3"><title>Chapter 18:  2091 words (2.74%)</title></rect><line x1="644.1810401407157" y1="0" x2="644.1810401407157" y2="-300" stroke="black" stroke-width="1" stroke-linecap="square"/><rect x="644.1810401407157" y="-300" width="34.07629098737232" height="300" fill="#dbeded"><title>Chapter 19:  2596 words (3.41%)</title></rect><line x1="678.257331128088" y1="0" x2="678.257331128088" y2="-300" stroke="black" stroke-width="1" stroke-linecap="square"/><rect x="678.257331128088" y="-300" width="21.4092567798167" height="300" fill="#fffff3"><title>Chapter 20:  1631 words (2.14%)</title></rect><line x1="699.6665879079047" y1="0" x2="699.6665879079047" y2="-300" stroke="black" stroke-width="1" stroke-linecap="square"/><rect x="699.6665879079047" y="-300" width="31.503504764905074" height="300" fill="#dbeded"><title>Chapter 21:  2400 words (3.15%)</title></rect><line x1="731.1700926728098" y1="0" x2="731.1700926728098" y2="-300" stroke="black" stroke-width="1" stroke-linecap="square"/><rect x="731.1700926728098" y="-300" width="48.79105300464687" height="300" fill="#fffff3"><title>Chapter 22:  3717 words (4.88%)</title></rect><line x1="779.9611456774567" y1="0" x2="779.9611456774567" y2="-300" stroke="black" stroke-width="1" stroke-linecap="square"/><rect x="779.9611456774567" y="-300" width="41.17770601979464" height="300" fill="#dbeded"><title>Chapter 23:  3137 words (4.12%)</title></rect><line x1="821.1388516972513" y1="0" x2="821.1388516972513" y2="-300" stroke="black" stroke-width="1" stroke-linecap="square"/><rect x="821.1388516972513" y="-300" width="37.59418235278679" height="300" fill="#fffff3"><title>Chapter 24:  2864 words (3.76%)</title></rect><line x1="858.7330340500381" y1="0" x2="858.7330340500381" y2="-300" stroke="black" stroke-width="1" stroke-linecap="square"/><rect x="858.7330340500381" y="-300" width="35.848363130398184" height="300" fill="#dbeded"><title>Chapter 25:  2731 words (3.58%)</title></rect><line x1="894.5813971804363" y1="0" x2="894.5813971804363" y2="-300" stroke="black" stroke-width="1" stroke-linecap="square"/><rect x="894.5813971804363" y="-300" width="29.547662177417237" height="300" fill="#fffff3"><title>Chapter 26:  2251 words (2.95%)</title></rect><line x1="924.1290593578535" y1="0" x2="924.1290593578535" y2="-300" stroke="black" stroke-width="1" stroke-linecap="square"/><rect x="924.1290593578535" y="-300" width="36.320915701871854" height="300" fill="#dbeded"><title>Chapter 27:  2767 words (3.63%)</title></rect><line x1="960.4499750597254" y1="0" x2="960.4499750597254" y2="-300" stroke="black" stroke-width="1" stroke-linecap="square"/><rect x="960.4499750597254" y="-300" width="27.355543304192565" height="300" fill="#fffff3"><title>Chapter 28:  2084 words (2.74%)</title></rect><line x1="987.8055183639179" y1="0" x2="987.8055183639179" y2="-300" stroke="black" stroke-width="1" stroke-linecap="square"/><rect x="987.8055183639179" y="-300" width="12.19448163608206" height="300" fill="#dbeded"><title>Chapter 29:  929 words (1.22%)</title></rect><line x1="1000" y1="0" x2="1000" y2="-300" stroke="black" stroke-width="1" stroke-linecap="square"/></svg>