<?xml version="1.0" encoding="UTF-8" standalone="no"?>
<!DOCTYPE svg PUBLIC "-//W3C//DTD SVG 1.1//EN"
 "http://www.w3.org/Graphics/SVG/1.1/DTD/svg11.dtd">
<!-- Generated by graphviz version 12.2.1 (20241206.2353)
 -->
<!-- Title: pipeline Pages: 1 -->
<svg width="1082pt" height="1819pt"
 viewBox="0.00 0.00 1081.80 1818.50" xmlns="http://www.w3.org/2000/svg" xmlns:xlink="http://www.w3.org/1999/xlink">
<g id="graph0" class="graph" transform="scale(1 1) rotate(0) translate(4 1814.5)">
<title>pipeline</title>
<polygon fill="white" stroke="none" points="-4,4 -4,-1814.5 1077.8,-1814.5 1077.8,4 -4,4"/>
<g id="cluster_d335e1" class="cluster">
<title>cluster_d335e1</title>
<polygon fill="none" stroke="black" points="8,-8 8,-1766.5 988,-1766.5 988,-8 8,-8"/>
</g>
<g id="cluster_d335e1" class="cluster">
<title>cluster_d335e1_head</title>
</g>
<g id="cluster_d335e5" class="cluster">
<title>cluster_d335e5</title>
<polygon fill="none" stroke="black" points="16,-1063.25 16,-1596 426,-1596 426,-1063.25 16,-1063.25"/>
<text text-anchor="middle" x="221" y="-1578.7" font-family="Times,serif" font-size="14.00">p:if / bom&#45;removal</text>
</g>
<g id="cluster_d335e5" class="cluster">
<title>cluster_d335e5_head</title>
</g>
<g id="cluster_d335e12" class="cluster">
<title>cluster_d335e12</title>
<polygon fill="none" stroke="black" points="24,-1174.75 24,-1433.5 264,-1433.5 264,-1174.75 24,-1174.75"/>
<text text-anchor="middle" x="144" y="-1416.2" font-family="Times,serif" font-size="14.00">p:when</text>
</g>
<g id="cluster_d335e12" class="cluster">
<title>cluster_d335e15</title>
</g>
<g id="cluster_d335e12" class="cluster">
<title>cluster_d335e19</title>
</g>
<g id="cluster_d335e12" class="cluster">
<title>cluster_d335e22</title>
</g>
<g id="cluster_d335e12" class="cluster">
<title>cluster_d335e12_foot</title>
</g>
<g id="cluster_d335e27" class="cluster">
<title>cluster_d335e27</title>
<polygon fill="none" stroke="black" points="272,-1174.75 272,-1422.25 418,-1422.25 418,-1174.75 272,-1174.75"/>
<text text-anchor="middle" x="345" y="-1404.95" font-family="Times,serif" font-size="14.00">p:otherwise</text>
</g>
<g id="cluster_d335e27" class="cluster">
<title>cluster_d335e30</title>
</g>
<g id="cluster_d335e27" class="cluster">
<title>cluster_d335e27_foot</title>
</g>
<g id="cluster_d335e5" class="cluster">
<title>cluster_d335e5_foot</title>
</g>
<g id="cluster_d335e1" class="cluster">
<title>cluster_d335e34</title>
</g>
<g id="cluster_d335e1" class="cluster">
<title>cluster_d335e36</title>
</g>
<g id="cluster_d335e1" class="cluster">
<title>cluster_d335e44</title>
</g>
<g id="cluster_d335e1" class="cluster">
<title>cluster_d335e49</title>
</g>
<g id="cluster_d335e1" class="cluster">
<title>cluster_d335e51</title>
</g>
<g id="cluster_d335e1" class="cluster">
<title>cluster_d335e67</title>
</g>
<g id="cluster_d335e1" class="cluster">
<title>cluster_d335e69</title>
</g>
<g id="cluster_d335e1" class="cluster">
<title>cluster_d335e85</title>
</g>
<g id="cluster_d335e1" class="cluster">
<title>cluster_d335e88</title>
</g>
<g id="cluster_d335e1" class="cluster">
<title>cluster_d335e99</title>
</g>
<g id="cluster_d335e1" class="cluster">
<title>cluster_d335e101</title>
</g>
<g id="cluster_d335e117" class="cluster">
<title>cluster_d335e117</title>
<polygon fill="none" stroke="black" points="575,-16 575,-387 877,-387 877,-16 575,-16"/>
<text text-anchor="middle" x="726" y="-369.7" font-family="Times,serif" font-size="14.00">p:viewport</text>
</g>
<g id="cluster_d335e117" class="cluster">
<title>cluster_d335e117_head</title>
</g>
<g id="cluster_d335e117" class="cluster">
<title>cluster_d335e123</title>
</g>
<g id="cluster_d335e117" class="cluster">
<title>cluster_d335e125</title>
</g>
<g id="cluster_d335e117" class="cluster">
<title>cluster_d335e117_foot</title>
</g>
<g id="cluster_d335e134" class="cluster">
<title>cluster_d335e134</title>
<polygon fill="none" stroke="black" points="434,-1297.5 434,-1758.5 738,-1758.5 738,-1297.5 434,-1297.5"/>
<text text-anchor="middle" x="586" y="-1741.2" font-family="Times,serif" font-size="14.00">p:viewport</text>
</g>
<g id="cluster_d335e134" class="cluster">
<title>cluster_d335e134_head</title>
</g>
<g id="cluster_d335e134" class="cluster">
<title>cluster_d335e140</title>
</g>
<g id="cluster_d335e134" class="cluster">
<title>cluster_d335e142</title>
</g>
<g id="cluster_d335e134" class="cluster">
<title>cluster_d335e134_foot</title>
</g>
<g id="cluster_d335e1" class="cluster">
<title>cluster_d335e151</title>
</g>
<g id="cluster_d335e1" class="cluster">
<title>cluster_d335e153</title>
</g>
<g id="cluster_d335e1" class="cluster">
<title>cluster_d335e169</title>
</g>
<g id="cluster_d335e1" class="cluster">
<title>cluster_d335e171</title>
</g>
<g id="cluster_d335e1" class="cluster">
<title>cluster_d335e1_foot</title>
</g>
<!-- d335e2 -->
<g id="node1" class="node">
<title>d335e2</title>
<polygon fill="none" stroke="black" points="63.77,-1786.94 107,-1774.5 150.23,-1786.94 150.19,-1807.06 63.81,-1807.06 63.77,-1786.94"/>
<text text-anchor="middle" x="107" y="-1787.45" font-family="Times,serif" font-size="14.00">source</text>
</g>
<!-- cluster_d335e1_head -->
<g id="node2" class="node">
<title>cluster_d335e1_head</title>
<polygon fill="none" stroke="black" points="107,-1718 49.75,-1665 107,-1612 164.25,-1665 107,-1718"/>
<polygon fill="none" stroke="black" points="86.38,-1665 86.38,-1687.5 127.62,-1687.5 127.62,-1665 86.38,-1665"/>
<text text-anchor="start" x="89.38" y="-1671.2" font-family="Times,serif" font-size="14.00">source</text>
<polygon fill="none" stroke="black" points="86.38,-1642.5 86.38,-1665 127.62,-1665 127.62,-1642.5 86.38,-1642.5"/>
<text text-anchor="start" x="89.38" y="-1648.7" font-family="Times,serif" font-size="14.00">source</text>
</g>
<!-- d335e2&#45;&gt;cluster_d335e1_head -->
<g id="edge40" class="edge">
<title>d335e2&#45;&gt;cluster_d335e1_head:d335e2_head_input</title>
<path fill="none" stroke="black" d="M107,-1774C107,-1756.07 107,-1727.06 107,-1699.96"/>
<polygon fill="black" stroke="black" points="110.5,-1700.01 107,-1690.01 103.5,-1700.01 110.5,-1700.01"/>
</g>
<!-- cluster_d335e5_head -->
<g id="node3" class="node">
<title>cluster_d335e5_head</title>
<polygon fill="none" stroke="black" points="192,-1555.5 125.75,-1502.5 192,-1449.5 258.25,-1502.5 192,-1555.5"/>
<polygon fill="none" stroke="black" points="166.88,-1502.5 166.88,-1525 217.12,-1525 217.12,-1502.5 166.88,-1502.5"/>
<text text-anchor="start" x="172.12" y="-1508.7" font-family="Times,serif" font-size="14.00">!source</text>
<polygon fill="none" stroke="black" points="166.88,-1480 166.88,-1502.5 217.12,-1502.5 217.12,-1480 166.88,-1480"/>
<text text-anchor="start" x="169.88" y="-1486.2" font-family="Times,serif" font-size="14.00">!context</text>
</g>
<!-- cluster_d335e1_head&#45;&gt;cluster_d335e5_head -->
<g id="edge2" class="edge">
<title>cluster_d335e1_head:d335e2_head_output&#45;&gt;cluster_d335e5_head:d335e6_head_input</title>
<path fill="none" stroke="black" d="M107,-1641.5C107,-1613.9 128.52,-1535.47 155.07,-1517.47"/>
<polygon fill="black" stroke="black" points="156.13,-1520.8 164.44,-1514.24 153.85,-1514.19 156.13,-1520.8"/>
</g>
<!-- cluster_d335e22 -->
<g id="node6" class="node">
<title>cluster_d335e22</title>
<polygon fill="none" stroke="black" points="51.75,-1355.25 51.75,-1377.75 104.25,-1377.75 104.25,-1355.25 51.75,-1355.25"/>
<text text-anchor="start" x="60.38" y="-1361.45" font-family="Times,serif" font-size="14.00">source</text>
<g id="a_node6_0"><a xlink:href="IC466.svg" xlink:title="&lt;TABLE&gt;">
<polygon fill="none" stroke="black" points="51.75,-1332.75 51.75,-1355.25 104.25,-1355.25 104.25,-1332.75 51.75,-1332.75"/>
<text text-anchor="start" x="54.75" y="-1338.95" font-family="Times,serif" font-size="14.00" fill="#0000ff">ex:xpath</text>
</a>
</g>
<polygon fill="none" stroke="black" points="51.75,-1310.25 51.75,-1332.75 104.25,-1332.75 104.25,-1310.25 51.75,-1310.25"/>
<text text-anchor="start" x="63" y="-1316.45" font-family="Times,serif" font-size="14.00">result</text>
</g>
<!-- cluster_d335e1_head&#45;&gt;cluster_d335e22 -->
<g id="edge8" class="edge">
<title>cluster_d335e1_head:d335e2_head_output&#45;&gt;cluster_d335e22:d335e24</title>
<path fill="none" stroke="black" d="M107,-1641.5C107,-1641.1 84.8,-1440.58 79.25,-1390.15"/>
<polygon fill="black" stroke="black" points="82.73,-1389.82 78.16,-1380.25 75.77,-1390.58 82.73,-1389.82"/>
</g>
<!-- cluster_d335e30 -->
<g id="node8" class="node">
<title>cluster_d335e30</title>
<polygon fill="none" stroke="black" points="306.12,-1355.25 306.12,-1377.75 363.88,-1377.75 363.88,-1355.25 306.12,-1355.25"/>
<text text-anchor="start" x="317.38" y="-1361.45" font-family="Times,serif" font-size="14.00">source</text>
<polygon fill="none" stroke="black" points="306.12,-1332.75 306.12,-1355.25 363.88,-1355.25 363.88,-1332.75 306.12,-1332.75"/>
<text text-anchor="start" x="309.12" y="-1338.95" font-family="Times,serif" font-size="14.00">p:identity</text>
<polygon fill="none" stroke="black" points="306.12,-1310.25 306.12,-1332.75 363.88,-1332.75 363.88,-1310.25 306.12,-1310.25"/>
<text text-anchor="start" x="320" y="-1316.45" font-family="Times,serif" font-size="14.00">result</text>
</g>
<!-- cluster_d335e1_head&#45;&gt;cluster_d335e30 -->
<g id="edge10" class="edge">
<title>cluster_d335e1_head:d335e2_head_output&#45;&gt;cluster_d335e30:d335e31</title>
<path fill="none" stroke="black" d="M107,-1641.5C107,-1597.03 82.87,-1473.26 114,-1441.5 125.37,-1429.9 245.87,-1441.52 260,-1433.5 287.2,-1418.06 274.01,-1378.68 293.89,-1368.78"/>
<polygon fill="black" stroke="black" points="294.54,-1372.22 303.64,-1366.8 293.15,-1365.36 294.54,-1372.22"/>
</g>
<!-- cluster_d335e15 -->
<g id="node4" class="node">
<title>cluster_d335e15</title>
<polygon fill="none" stroke="black" points="144.38,-1366.5 144.38,-1389 239.62,-1389 239.62,-1366.5 144.38,-1366.5"/>
<text text-anchor="start" x="174.38" y="-1372.7" font-family="Times,serif" font-size="14.00">source</text>
<polygon fill="none" stroke="black" points="144.38,-1344 144.38,-1366.5 239.62,-1366.5 239.62,-1344 144.38,-1344"/>
<text text-anchor="start" x="154.88" y="-1350.2" font-family="Times,serif" font-size="14.00">cx:expression</text>
<polygon fill="none" stroke="black" points="144.38,-1321.5 144.38,-1344 239.62,-1344 239.62,-1321.5 144.38,-1321.5"/>
<text text-anchor="start" x="147.38" y="-1328.7" font-family="Times,serif" font-style="italic" font-size="14.00">starts&#45;with(., &#39;﻿…</text>
<polygon fill="none" stroke="black" points="144.38,-1299 144.38,-1321.5 239.62,-1321.5 239.62,-1299 144.38,-1299"/>
<text text-anchor="start" x="177" y="-1305.2" font-family="Times,serif" font-size="14.00">result</text>
</g>
<!-- cluster_d335e5_head&#45;&gt;cluster_d335e15 -->
<g id="edge6" class="edge">
<title>cluster_d335e5_head:d335e8_head_output&#45;&gt;cluster_d335e15:d335e16</title>
<path fill="none" stroke="black" d="M192,-1479C192,-1443.46 192,-1431.87 192,-1401.2"/>
<polygon fill="black" stroke="black" points="195.5,-1401.51 192,-1391.51 188.5,-1401.51 195.5,-1401.51"/>
</g>
<!-- cluster_d335e19 -->
<g id="node5" class="node">
<title>cluster_d335e19</title>
<polygon fill="none" stroke="black" points="186.38,-1221.25 186.38,-1243.75 239.62,-1243.75 239.62,-1221.25 186.38,-1221.25"/>
<text text-anchor="start" x="195.38" y="-1227.45" font-family="Times,serif" font-size="14.00">source</text>
<polygon fill="none" stroke="black" points="186.38,-1198.75 186.38,-1221.25 239.62,-1221.25 239.62,-1198.75 186.38,-1198.75"/>
<text text-anchor="start" x="189.38" y="-1204.95" font-family="Times,serif" font-size="14.00">cx:guard</text>
</g>
<!-- cluster_d335e15&#45;&gt;cluster_d335e19 -->
<g id="edge7" class="edge">
<title>cluster_d335e15:d335e18&#45;&gt;cluster_d335e19:d335e20</title>
<path fill="none" stroke="black" d="M192,-1298C192,-1276.93 206.4,-1271.69 211.35,-1256.06"/>
<polygon fill="black" stroke="black" points="214.8,-1256.65 212.78,-1246.25 207.88,-1255.64 214.8,-1256.65"/>
</g>
<!-- cluster_d335e12_foot -->
<g id="node7" class="node">
<title>cluster_d335e12_foot</title>
<polygon fill="none" stroke="black" points="97,-1251.75 40.5,-1221.25 97,-1190.75 153.5,-1221.25 97,-1251.75"/>
<polygon fill="none" stroke="black" points="76.75,-1210 76.75,-1232.5 117.25,-1232.5 117.25,-1210 76.75,-1210"/>
<text text-anchor="start" x="79.75" y="-1216.2" font-family="Times,serif" font-size="14.00">!result</text>
</g>
<!-- cluster_d335e22&#45;&gt;cluster_d335e12_foot -->
<g id="edge5" class="edge">
<title>cluster_d335e22:d335e26&#45;&gt;cluster_d335e12_foot:d335e13_foot</title>
<path fill="none" stroke="black" d="M78,-1309.25C78,-1286.25 84.42,-1260.6 89.79,-1243.15"/>
<polygon fill="black" stroke="black" points="93.1,-1244.31 92.87,-1233.71 86.44,-1242.14 93.1,-1244.31"/>
</g>
<!-- cluster_d335e5_foot -->
<g id="node10" class="node">
<title>cluster_d335e5_foot</title>
<polygon fill="none" stroke="black" points="345,-1140.25 288.5,-1109.75 345,-1079.25 401.5,-1109.75 345,-1140.25"/>
<polygon fill="none" stroke="black" points="324.75,-1098.5 324.75,-1121 365.25,-1121 365.25,-1098.5 324.75,-1098.5"/>
<text text-anchor="start" x="327.75" y="-1104.7" font-family="Times,serif" font-size="14.00">!result</text>
</g>
<!-- cluster_d335e12_foot&#45;&gt;cluster_d335e5_foot -->
<g id="edge3" class="edge">
<title>cluster_d335e12_foot:d335e13_foot&#45;&gt;cluster_d335e5_foot:d335e9_foot</title>
<path fill="none" stroke="black" d="M110.17,-1210.18C123.64,-1200.22 145.46,-1185.01 166,-1174.75 215.69,-1149.94 277.4,-1130.09 313.86,-1119.4"/>
<polygon fill="black" stroke="black" points="314.67,-1122.81 323.31,-1116.68 312.73,-1116.09 314.67,-1122.81"/>
</g>
<!-- cluster_d335e27_foot -->
<g id="node9" class="node">
<title>cluster_d335e27_foot</title>
<polygon fill="none" stroke="black" points="345,-1251.75 288.5,-1221.25 345,-1190.75 401.5,-1221.25 345,-1251.75"/>
<polygon fill="none" stroke="black" points="324.75,-1210 324.75,-1232.5 365.25,-1232.5 365.25,-1210 324.75,-1210"/>
<text text-anchor="start" x="327.75" y="-1216.2" font-family="Times,serif" font-size="14.00">!result</text>
</g>
<!-- cluster_d335e30&#45;&gt;cluster_d335e27_foot -->
<g id="edge9" class="edge">
<title>cluster_d335e30:d335e33&#45;&gt;cluster_d335e27_foot:d335e28_foot</title>
<path fill="none" stroke="black" d="M335,-1309.25C335,-1286.74 338.35,-1261.17 341.17,-1243.6"/>
<polygon fill="black" stroke="black" points="344.59,-1244.32 342.82,-1233.88 337.69,-1243.15 344.59,-1244.32"/>
</g>
<!-- cluster_d335e27_foot&#45;&gt;cluster_d335e5_foot -->
<g id="edge4" class="edge">
<title>cluster_d335e27_foot:d335e28_foot&#45;&gt;cluster_d335e5_foot:d335e9_foot</title>
<path fill="none" stroke="black" d="M345,-1210.14C345,-1192.46 345,-1155.56 345,-1132.03"/>
<polygon fill="black" stroke="black" points="348.5,-1132.34 345,-1122.34 341.5,-1132.34 348.5,-1132.34"/>
</g>
<!-- cluster_d335e36 -->
<g id="node12" class="node">
<title>cluster_d335e36</title>
<polygon fill="none" stroke="black" points="271.25,-1009.5 271.25,-1032 327.5,-1032 327.5,-1009.5 271.25,-1009.5"/>
<text text-anchor="start" x="274.25" y="-1015.7" font-family="Times,serif" font-size="14.00">grammar</text>
<polygon fill="none" stroke="black" points="327.5,-1009.5 327.5,-1032 368.75,-1032 368.75,-1009.5 327.5,-1009.5"/>
<text text-anchor="start" x="330.5" y="-1015.7" font-family="Times,serif" font-size="14.00">source</text>
<polygon fill="none" stroke="black" points="271.25,-987 271.25,-1009.5 368.75,-1009.5 368.75,-987 271.25,-987"/>
<text text-anchor="start" x="278.38" y="-993.2" font-family="Times,serif" font-size="14.00">p:invisible&#45;xml</text>
<polygon fill="none" stroke="black" points="271.25,-964.5 271.25,-987 368.75,-987 368.75,-964.5 271.25,-964.5"/>
<text text-anchor="start" x="305" y="-970.7" font-family="Times,serif" font-size="14.00">result</text>
</g>
<!-- cluster_d335e5_foot&#45;&gt;cluster_d335e36 -->
<g id="edge12" class="edge">
<title>cluster_d335e5_foot:d335e9_foot&#45;&gt;cluster_d335e36:d335e39</title>
<path fill="none" stroke="black" d="M345.66,-1098.95C346.44,-1086.77 347.66,-1065.06 348.02,-1044.34"/>
<polygon fill="black" stroke="black" points="351.52,-1044.55 348.11,-1034.51 344.52,-1044.48 351.52,-1044.55"/>
</g>
<!-- cluster_d335e34 -->
<g id="node11" class="node">
<title>cluster_d335e34</title>
<polygon fill="none" stroke="black" points="450,-1121 450,-1143.5 588,-1143.5 588,-1121 450,-1121"/>
<text text-anchor="start" x="483.75" y="-1127.2" font-family="Times,serif" font-size="14.00">cx:document</text>
<polygon fill="none" stroke="black" points="450,-1098.5 450,-1121 588,-1121 588,-1098.5 450,-1098.5"/>
<text text-anchor="start" x="453" y="-1104.7" font-family="Times,serif" font-size="14.00">href = &quot;blithedale.ixml&quot;</text>
<polygon fill="none" stroke="black" points="450,-1076 450,-1098.5 588,-1098.5 588,-1076 450,-1076"/>
<text text-anchor="start" x="504" y="-1082.2" font-family="Times,serif" font-size="14.00">result</text>
</g>
<!-- cluster_d335e34&#45;&gt;cluster_d335e36 -->
<g id="edge11" class="edge">
<title>cluster_d335e34:d335e35&#45;&gt;cluster_d335e36:d335e37</title>
<path fill="none" stroke="black" d="M449,-1087.25C430.14,-1087.25 431.15,-1071.11 414,-1063.25 370.03,-1043.11 310.2,-1078.85 300.67,-1044.1"/>
<polygon fill="black" stroke="black" points="304.19,-1044.03 299.55,-1034.5 297.24,-1044.84 304.19,-1044.03"/>
</g>
<!-- cluster_d335e44 -->
<g id="node13" class="node">
<title>cluster_d335e44</title>
<polygon fill="none" stroke="black" points="295.62,-898 295.62,-920.5 344.38,-920.5 344.38,-898 295.62,-898"/>
<text text-anchor="start" x="302.38" y="-904.2" font-family="Times,serif" font-size="14.00">source</text>
<polygon fill="none" stroke="black" points="295.62,-875.5 295.62,-898 344.38,-898 344.38,-875.5 295.62,-875.5"/>
<text text-anchor="start" x="298.62" y="-881.7" font-family="Times,serif" font-size="14.00">p:delete</text>
<polygon fill="none" stroke="black" points="295.62,-853 295.62,-875.5 344.38,-875.5 344.38,-853 295.62,-853"/>
<text text-anchor="start" x="305" y="-859.2" font-family="Times,serif" font-size="14.00">result</text>
</g>
<!-- cluster_d335e36&#45;&gt;cluster_d335e44 -->
<g id="edge13" class="edge">
<title>cluster_d335e36:d335e41&#45;&gt;cluster_d335e44:d335e46</title>
<path fill="none" stroke="black" d="M320,-963.5C320,-949.35 320,-943.25 320,-933"/>
<polygon fill="black" stroke="black" points="323.5,-933.01 320,-923.01 316.5,-933.01 323.5,-933.01"/>
</g>
<!-- cluster_d335e51 -->
<g id="node15" class="node">
<title>cluster_d335e51</title>
<polygon fill="none" stroke="black" points="284,-786.5 284,-809 343.25,-809 343.25,-786.5 284,-786.5"/>
<text text-anchor="start" x="287" y="-792.7" font-family="Times,serif" font-size="14.00">stylesheet</text>
<polygon fill="none" stroke="black" points="343.25,-786.5 343.25,-809 404,-809 404,-786.5 343.25,-786.5"/>
<text text-anchor="start" x="356" y="-792.7" font-family="Times,serif" font-size="14.00">source</text>
<polygon fill="none" stroke="black" points="284,-764 284,-786.5 404,-786.5 404,-764 284,-764"/>
<text text-anchor="start" x="329" y="-770.2" font-family="Times,serif" font-size="14.00">p:xslt</text>
<polygon fill="none" stroke="black" points="284,-741.5 284,-764 343.25,-764 343.25,-741.5 284,-741.5"/>
<text text-anchor="start" x="298.62" y="-747.7" font-family="Times,serif" font-size="14.00">result</text>
<polygon fill="none" stroke="black" points="343.25,-741.5 343.25,-764 404,-764 404,-741.5 343.25,-741.5"/>
<text text-anchor="start" x="346.25" y="-747.7" font-family="Times,serif" font-size="14.00">secondary</text>
</g>
<!-- cluster_d335e44&#45;&gt;cluster_d335e51 -->
<g id="edge15" class="edge">
<title>cluster_d335e44:d335e48&#45;&gt;cluster_d335e51:d335e54</title>
<path fill="none" stroke="black" d="M320,-852C320,-826.22 358.89,-835.84 370.43,-820.57"/>
<polygon fill="black" stroke="black" points="373.65,-822.03 373.19,-811.45 366.95,-820.01 373.65,-822.03"/>
</g>
<!-- cluster_d335e49 -->
<g id="node14" class="node">
<title>cluster_d335e49</title>
<polygon fill="none" stroke="black" points="384.5,-898 384.5,-920.5 597.5,-920.5 597.5,-898 384.5,-898"/>
<text text-anchor="start" x="455.75" y="-904.2" font-family="Times,serif" font-size="14.00">cx:document</text>
<polygon fill="none" stroke="black" points="384.5,-875.5 384.5,-898 597.5,-898 597.5,-875.5 384.5,-875.5"/>
<text text-anchor="start" x="387.5" y="-881.7" font-family="Times,serif" font-size="14.00">href = &quot;blithedale&#45;tag&#45;paragraphs.xsl&quot;</text>
<polygon fill="none" stroke="black" points="384.5,-853 384.5,-875.5 597.5,-875.5 597.5,-853 384.5,-853"/>
<text text-anchor="start" x="476" y="-859.2" font-family="Times,serif" font-size="14.00">result</text>
</g>
<!-- cluster_d335e49&#45;&gt;cluster_d335e51 -->
<g id="edge14" class="edge">
<title>cluster_d335e49:d335e50&#45;&gt;cluster_d335e51:d335e52</title>
<path fill="none" stroke="black" d="M383.5,-864.25C370.01,-864.25 374.21,-849.81 364,-841 347.68,-826.91 324.24,-832.76 316.34,-820.81"/>
<polygon fill="black" stroke="black" points="319.82,-820.32 313.99,-811.47 313.03,-822.02 319.82,-820.32"/>
</g>
<!-- cluster_d335e69 -->
<g id="node17" class="node">
<title>cluster_d335e69</title>
<polygon fill="none" stroke="black" points="408,-675 408,-697.5 467.25,-697.5 467.25,-675 408,-675"/>
<text text-anchor="start" x="411" y="-681.2" font-family="Times,serif" font-size="14.00">stylesheet</text>
<polygon fill="none" stroke="black" points="467.25,-675 467.25,-697.5 528,-697.5 528,-675 467.25,-675"/>
<text text-anchor="start" x="480" y="-681.2" font-family="Times,serif" font-size="14.00">source</text>
<polygon fill="none" stroke="black" points="408,-652.5 408,-675 528,-675 528,-652.5 408,-652.5"/>
<text text-anchor="start" x="453" y="-658.7" font-family="Times,serif" font-size="14.00">p:xslt</text>
<polygon fill="none" stroke="black" points="408,-630 408,-652.5 467.25,-652.5 467.25,-630 408,-630"/>
<text text-anchor="start" x="422.62" y="-636.2" font-family="Times,serif" font-size="14.00">result</text>
<polygon fill="none" stroke="black" points="467.25,-630 467.25,-652.5 528,-652.5 528,-630 467.25,-630"/>
<text text-anchor="start" x="470.25" y="-636.2" font-family="Times,serif" font-size="14.00">secondary</text>
</g>
<!-- cluster_d335e51&#45;&gt;cluster_d335e69 -->
<g id="edge17" class="edge">
<title>cluster_d335e51:d335e56&#45;&gt;cluster_d335e69:d335e72</title>
<path fill="none" stroke="black" d="M313.62,-740.5C313.62,-660.88 479.41,-770.15 496.25,-709.71"/>
<polygon fill="black" stroke="black" points="499.7,-710.35 497.44,-700 492.75,-709.5 499.7,-710.35"/>
</g>
<!-- d335e183 -->
<g id="node34" class="node">
<title>d335e183</title>
<ellipse fill="black" stroke="black" cx="373" cy="-663.75" rx="1.8" ry="1.8"/>
</g>
<!-- cluster_d335e51&#45;&gt;d335e183 -->
<g id="edge34" class="edge">
<title>cluster_d335e51:d335e57&#45;&gt;d335e183</title>
<path fill="none" stroke="black" d="M373.62,-740.5C373.62,-718.09 373.35,-691.96 373.16,-676.98"/>
<polygon fill="black" stroke="black" points="376.67,-677.28 373.04,-667.33 369.67,-677.38 376.67,-677.28"/>
</g>
<!-- cluster_d335e67 -->
<g id="node16" class="node">
<title>cluster_d335e67</title>
<polygon fill="none" stroke="black" points="444.5,-786.5 444.5,-809 633.5,-809 633.5,-786.5 444.5,-786.5"/>
<text text-anchor="start" x="503.75" y="-792.7" font-family="Times,serif" font-size="14.00">cx:document</text>
<polygon fill="none" stroke="black" points="444.5,-764 444.5,-786.5 633.5,-786.5 633.5,-764 444.5,-764"/>
<text text-anchor="start" x="447.5" y="-770.2" font-family="Times,serif" font-size="14.00">href = &quot;blithedale&#45;tag&#45;quotes.xsl&quot;</text>
<polygon fill="none" stroke="black" points="444.5,-741.5 444.5,-764 633.5,-764 633.5,-741.5 444.5,-741.5"/>
<text text-anchor="start" x="524" y="-747.7" font-family="Times,serif" font-size="14.00">result</text>
</g>
<!-- cluster_d335e67&#45;&gt;cluster_d335e69 -->
<g id="edge16" class="edge">
<title>cluster_d335e67:d335e68&#45;&gt;cluster_d335e69:d335e70</title>
<path fill="none" stroke="black" d="M443.5,-752.75C422.94,-752.75 433.02,-731.2 436.56,-709.86"/>
<polygon fill="black" stroke="black" points="440.04,-710.29 437.48,-700.01 433.07,-709.64 440.04,-710.29"/>
</g>
<!-- cluster_d335e88 -->
<g id="node19" class="node">
<title>cluster_d335e88</title>
<polygon fill="none" stroke="black" points="537.38,-563.5 537.38,-586 618,-586 618,-563.5 537.38,-563.5"/>
<text text-anchor="start" x="557.06" y="-569.7" font-family="Times,serif" font-size="14.00">schema</text>
<polygon fill="none" stroke="black" points="618,-563.5 618,-586 692.62,-586 692.62,-563.5 618,-563.5"/>
<text text-anchor="start" x="637.69" y="-569.7" font-family="Times,serif" font-size="14.00">source</text>
<polygon fill="none" stroke="black" points="537.38,-541 537.38,-563.5 692.62,-563.5 692.62,-541 537.38,-541"/>
<text text-anchor="start" x="540.38" y="-547.2" font-family="Times,serif" font-size="14.00">p:validate&#45;with&#45;schematron</text>
<polygon fill="none" stroke="black" points="537.38,-518.5 537.38,-541 618,-541 618,-518.5 537.38,-518.5"/>
<text text-anchor="start" x="562.69" y="-524.7" font-family="Times,serif" font-size="14.00">result</text>
<polygon fill="none" stroke="black" points="618,-518.5 618,-541 692.62,-541 692.62,-518.5 618,-518.5"/>
<text text-anchor="start" x="639.19" y="-524.7" font-family="Times,serif" font-size="14.00">report</text>
</g>
<!-- cluster_d335e69&#45;&gt;cluster_d335e88 -->
<g id="edge19" class="edge">
<title>cluster_d335e69:d335e74&#45;&gt;cluster_d335e88:d335e91</title>
<path fill="none" stroke="black" d="M437.62,-629C437.62,-583.97 619.51,-627.33 650.77,-597.49"/>
<polygon fill="black" stroke="black" points="653.95,-598.96 654.71,-588.39 647.52,-596.17 653.95,-598.96"/>
</g>
<!-- d335e186 -->
<g id="node35" class="node">
<title>d335e186</title>
<ellipse fill="black" stroke="black" cx="497" cy="-552.25" rx="1.8" ry="1.8"/>
</g>
<!-- cluster_d335e69&#45;&gt;d335e186 -->
<g id="edge35" class="edge">
<title>cluster_d335e69:d335e75&#45;&gt;d335e186</title>
<path fill="none" stroke="black" d="M497.62,-629C497.62,-606.59 497.35,-580.46 497.16,-565.48"/>
<polygon fill="black" stroke="black" points="500.67,-565.78 497.04,-555.83 493.67,-565.88 500.67,-565.78"/>
</g>
<!-- cluster_d335e85 -->
<g id="node18" class="node">
<title>cluster_d335e85</title>
<polygon fill="none" stroke="black" points="567.88,-675 567.88,-697.5 774.12,-697.5 774.12,-675 567.88,-675"/>
<text text-anchor="start" x="635.75" y="-681.2" font-family="Times,serif" font-size="14.00">cx:document</text>
<polygon fill="none" stroke="black" points="567.88,-652.5 567.88,-675 774.12,-675 774.12,-652.5 567.88,-652.5"/>
<text text-anchor="start" x="570.88" y="-658.7" font-family="Times,serif" font-size="14.00">href = &quot;blithedale&#45;check&#45;quotes.sch&quot;</text>
<polygon fill="none" stroke="black" points="567.88,-630 567.88,-652.5 774.12,-652.5 774.12,-630 567.88,-630"/>
<text text-anchor="start" x="656" y="-636.2" font-family="Times,serif" font-size="14.00">result</text>
</g>
<!-- cluster_d335e85&#45;&gt;cluster_d335e88 -->
<g id="edge18" class="edge">
<title>cluster_d335e85:d335e86&#45;&gt;cluster_d335e88:d335e89</title>
<path fill="none" stroke="black" d="M671,-629C671,-588.14 595.68,-623.51 580.38,-598.13"/>
<polygon fill="black" stroke="black" points="583.8,-597.37 578.04,-588.47 576.99,-599.01 583.8,-597.37"/>
</g>
<!-- cluster_d335e101 -->
<g id="node21" class="node">
<title>cluster_d335e101</title>
<polygon fill="none" stroke="black" points="710,-452 710,-474.5 769.25,-474.5 769.25,-452 710,-452"/>
<text text-anchor="start" x="713" y="-458.2" font-family="Times,serif" font-size="14.00">stylesheet</text>
<polygon fill="none" stroke="black" points="769.25,-452 769.25,-474.5 830,-474.5 830,-452 769.25,-452"/>
<text text-anchor="start" x="782" y="-458.2" font-family="Times,serif" font-size="14.00">source</text>
<polygon fill="none" stroke="black" points="710,-429.5 710,-452 830,-452 830,-429.5 710,-429.5"/>
<text text-anchor="start" x="755" y="-435.7" font-family="Times,serif" font-size="14.00">p:xslt</text>
<polygon fill="none" stroke="black" points="710,-407 710,-429.5 769.25,-429.5 769.25,-407 710,-407"/>
<text text-anchor="start" x="724.62" y="-413.2" font-family="Times,serif" font-size="14.00">result</text>
<polygon fill="none" stroke="black" points="769.25,-407 769.25,-429.5 830,-429.5 830,-407 769.25,-407"/>
<text text-anchor="start" x="772.25" y="-413.2" font-family="Times,serif" font-size="14.00">secondary</text>
</g>
<!-- cluster_d335e88&#45;&gt;cluster_d335e101 -->
<g id="edge21" class="edge">
<title>cluster_d335e88:d335e93&#45;&gt;cluster_d335e101:d335e104</title>
<path fill="none" stroke="black" d="M577.69,-517.5C577.69,-471.42 764.71,-516.85 795.39,-485.78"/>
<polygon fill="black" stroke="black" points="798.48,-487.48 799.05,-476.9 792,-484.81 798.48,-487.48"/>
</g>
<!-- d335e190 -->
<g id="node36" class="node">
<title>d335e190</title>
<ellipse fill="black" stroke="black" cx="655" cy="-440.75" rx="1.8" ry="1.8"/>
</g>
<!-- cluster_d335e88&#45;&gt;d335e190 -->
<g id="edge36" class="edge">
<title>cluster_d335e88:d335e94&#45;&gt;d335e190</title>
<path fill="none" stroke="black" d="M655.31,-517.5C655.31,-495.09 655.17,-468.96 655.08,-453.98"/>
<polygon fill="black" stroke="black" points="658.58,-454.31 655.02,-444.33 651.58,-454.35 658.58,-454.31"/>
</g>
<!-- cluster_d335e99 -->
<g id="node20" class="node">
<title>cluster_d335e99</title>
<polygon fill="none" stroke="black" points="733,-563.5 733,-586 913,-586 913,-563.5 733,-563.5"/>
<text text-anchor="start" x="787.75" y="-569.7" font-family="Times,serif" font-size="14.00">cx:document</text>
<polygon fill="none" stroke="black" points="733,-541 733,-563.5 913,-563.5 913,-541 733,-541"/>
<text text-anchor="start" x="736" y="-547.2" font-family="Times,serif" font-size="14.00">href = &quot;blithedale&#45;tag&#45;front.xsl&quot;</text>
<polygon fill="none" stroke="black" points="733,-518.5 733,-541 913,-541 913,-518.5 733,-518.5"/>
<text text-anchor="start" x="808" y="-524.7" font-family="Times,serif" font-size="14.00">result</text>
</g>
<!-- cluster_d335e99&#45;&gt;cluster_d335e101 -->
<g id="edge20" class="edge">
<title>cluster_d335e99:d335e100&#45;&gt;cluster_d335e101:d335e102</title>
<path fill="none" stroke="black" d="M823,-517.5C823,-480.55 756.87,-509.01 742.4,-486.37"/>
<polygon fill="black" stroke="black" points="745.86,-485.79 740,-476.97 739.08,-487.52 745.86,-485.79"/>
</g>
<!-- cluster_d335e117_head -->
<g id="node22" class="node">
<title>cluster_d335e117_head</title>
<polygon fill="none" stroke="black" points="653,-346.5 591.25,-293.5 653,-240.5 714.75,-293.5 653,-346.5"/>
<polygon fill="none" stroke="black" points="630.12,-293.5 630.12,-316 675.88,-316 675.88,-293.5 630.12,-293.5"/>
<text text-anchor="start" x="633.12" y="-299.7" font-family="Times,serif" font-size="14.00">!source</text>
<polygon fill="none" stroke="black" points="630.12,-271 630.12,-293.5 675.88,-293.5 675.88,-271 630.12,-271"/>
<text text-anchor="start" x="633.88" y="-277.2" font-family="Times,serif" font-size="14.00">current</text>
</g>
<!-- cluster_d335e101&#45;&gt;cluster_d335e117_head -->
<g id="edge22" class="edge">
<title>cluster_d335e101:d335e106&#45;&gt;cluster_d335e117_head:d335e118_head_input</title>
<path fill="none" stroke="black" d="M709,-418.25C698.2,-418.25 692.28,-341.15 683.2,-314.04"/>
<polygon fill="black" stroke="black" points="686.25,-312.3 677.73,-306 680.46,-316.24 686.25,-312.3"/>
</g>
<!-- d335e193 -->
<g id="node37" class="node">
<title>d335e193</title>
<ellipse fill="black" stroke="black" cx="887" cy="-293.5" rx="1.8" ry="1.8"/>
</g>
<!-- cluster_d335e101&#45;&gt;d335e193 -->
<g id="edge37" class="edge">
<title>cluster_d335e101:d335e107&#45;&gt;d335e193</title>
<path fill="none" stroke="black" d="M831,-418.25C854.27,-418.25 861.02,-406.95 873,-387 888.26,-361.58 888.88,-325.38 887.97,-306.7"/>
<polygon fill="black" stroke="black" points="891.48,-306.72 887.23,-297.01 884.5,-307.25 891.48,-306.72"/>
</g>
<!-- cluster_d335e125 -->
<g id="node24" class="node">
<title>cluster_d335e125</title>
<polygon fill="none" stroke="black" points="667.38,-178 667.38,-200.5 708.62,-200.5 708.62,-178 667.38,-178"/>
<text text-anchor="start" x="670.38" y="-184.2" font-family="Times,serif" font-size="14.00">source</text>
<polygon fill="none" stroke="black" points="708.62,-178 708.62,-200.5 816.62,-200.5 816.62,-178 708.62,-178"/>
<text text-anchor="start" x="711.62" y="-184.2" font-family="Times,serif" font-size="14.00">Q{}attribute&#45;value</text>
<polygon fill="none" stroke="black" points="667.38,-155.5 667.38,-178 816.62,-178 816.62,-155.5 667.38,-155.5"/>
<text text-anchor="start" x="702.25" y="-161.7" font-family="Times,serif" font-size="14.00">p:add&#45;attribute</text>
<polygon fill="none" stroke="black" points="667.38,-133 667.38,-155.5 816.62,-155.5 816.62,-133 667.38,-133"/>
<text text-anchor="start" x="727" y="-139.2" font-family="Times,serif" font-size="14.00">result</text>
</g>
<!-- cluster_d335e117_head&#45;&gt;cluster_d335e125 -->
<g id="edge24" class="edge">
<title>cluster_d335e117_head:d335e122_head_output&#45;&gt;cluster_d335e125:d335e127</title>
<path fill="none" stroke="black" d="M676.88,-282.25C709.42,-282.25 692.47,-246.31 688.69,-212.74"/>
<polygon fill="black" stroke="black" points="692.2,-212.78 688.09,-203.01 685.21,-213.21 692.2,-212.78"/>
</g>
<!-- cluster_d335e123 -->
<g id="node23" class="node">
<title>cluster_d335e123</title>
<polygon fill="none" stroke="black" points="747.12,-304.75 747.12,-327.25 852.88,-327.25 852.88,-304.75 747.12,-304.75"/>
<text text-anchor="start" x="762.88" y="-310.95" font-family="Times,serif" font-size="14.00">cx:expression</text>
<polygon fill="none" stroke="black" points="747.12,-282.25 747.12,-304.75 852.88,-304.75 852.88,-282.25 747.12,-282.25"/>
<text text-anchor="start" x="750.12" y="-289.45" font-family="Times,serif" font-style="italic" font-size="14.00">{concat(&#39;toc&#45;&#39;, p…</text>
<polygon fill="none" stroke="black" points="747.12,-259.75 747.12,-282.25 852.88,-282.25 852.88,-259.75 747.12,-259.75"/>
<text text-anchor="start" x="785" y="-265.95" font-family="Times,serif" font-size="14.00">result</text>
</g>
<!-- cluster_d335e123&#45;&gt;cluster_d335e125 -->
<g id="edge25" class="edge">
<title>cluster_d335e123:d335e124&#45;&gt;cluster_d335e125:d335e131</title>
<path fill="none" stroke="black" d="M746.12,-271C739.33,-271 745.96,-262.44 747.12,-255.75 750.68,-235.29 758.98,-228.71 761.72,-212.81"/>
<polygon fill="black" stroke="black" points="765.2,-213.26 762.5,-203.01 758.22,-212.7 765.2,-213.26"/>
</g>
<!-- cluster_d335e117_foot -->
<g id="node25" class="node">
<title>cluster_d335e117_foot</title>
<polygon fill="none" stroke="black" points="742,-93 690,-62.5 742,-32 794,-62.5 742,-93"/>
<polygon fill="none" stroke="black" points="724,-51.25 724,-73.75 760,-73.75 760,-51.25 724,-51.25"/>
<text text-anchor="start" x="727" y="-57.45" font-family="Times,serif" font-size="14.00">result</text>
</g>
<!-- cluster_d335e125&#45;&gt;cluster_d335e117_foot -->
<g id="edge23" class="edge">
<title>cluster_d335e125:d335e129&#45;&gt;cluster_d335e117_foot:d335e120_foot</title>
<path fill="none" stroke="black" d="M742,-132C742,-116.32 742,-98.62 742,-85.14"/>
<polygon fill="black" stroke="black" points="745.5,-85.23 742,-75.23 738.5,-85.23 745.5,-85.23"/>
</g>
<!-- cluster_d335e134_head -->
<g id="node26" class="node">
<title>cluster_d335e134_head</title>
<polygon fill="none" stroke="black" points="512,-1718 450.25,-1665 512,-1612 573.75,-1665 512,-1718"/>
<polygon fill="none" stroke="black" points="489.12,-1665 489.12,-1687.5 534.88,-1687.5 534.88,-1665 489.12,-1665"/>
<text text-anchor="start" x="492.12" y="-1671.2" font-family="Times,serif" font-size="14.00">!source</text>
<polygon fill="none" stroke="black" points="489.12,-1642.5 489.12,-1665 534.88,-1665 534.88,-1642.5 489.12,-1642.5"/>
<text text-anchor="start" x="492.88" y="-1648.7" font-family="Times,serif" font-size="14.00">current</text>
</g>
<!-- cluster_d335e142 -->
<g id="node28" class="node">
<title>cluster_d335e142</title>
<polygon fill="none" stroke="black" points="564.38,-1513.75 564.38,-1536.25 605.62,-1536.25 605.62,-1513.75 564.38,-1513.75"/>
<text text-anchor="start" x="567.38" y="-1519.95" font-family="Times,serif" font-size="14.00">source</text>
<polygon fill="none" stroke="black" points="605.62,-1513.75 605.62,-1536.25 713.62,-1536.25 713.62,-1513.75 605.62,-1513.75"/>
<text text-anchor="start" x="608.62" y="-1519.95" font-family="Times,serif" font-size="14.00">Q{}attribute&#45;value</text>
<polygon fill="none" stroke="black" points="564.38,-1491.25 564.38,-1513.75 713.62,-1513.75 713.62,-1491.25 564.38,-1491.25"/>
<text text-anchor="start" x="599.25" y="-1497.45" font-family="Times,serif" font-size="14.00">p:add&#45;attribute</text>
<polygon fill="none" stroke="black" points="564.38,-1468.75 564.38,-1491.25 713.62,-1491.25 713.62,-1468.75 564.38,-1468.75"/>
<text text-anchor="start" x="624" y="-1474.95" font-family="Times,serif" font-size="14.00">result</text>
</g>
<!-- cluster_d335e134_head&#45;&gt;cluster_d335e142 -->
<g id="edge28" class="edge">
<title>cluster_d335e134_head:d335e139_head_output&#45;&gt;cluster_d335e142:d335e144</title>
<path fill="none" stroke="black" d="M535.88,-1653.75C588.34,-1653.75 585.66,-1601.19 585.07,-1548.48"/>
<polygon fill="black" stroke="black" points="588.57,-1548.74 585.01,-1538.76 581.57,-1548.79 588.57,-1548.74"/>
</g>
<!-- cluster_d335e140 -->
<g id="node27" class="node">
<title>cluster_d335e140</title>
<polygon fill="none" stroke="black" points="605.62,-1676.25 605.62,-1698.75 714.38,-1698.75 714.38,-1676.25 605.62,-1676.25"/>
<text text-anchor="start" x="622.88" y="-1682.45" font-family="Times,serif" font-size="14.00">cx:expression</text>
<polygon fill="none" stroke="black" points="605.62,-1653.75 605.62,-1676.25 714.38,-1676.25 714.38,-1653.75 605.62,-1653.75"/>
<text text-anchor="start" x="608.62" y="-1660.95" font-family="Times,serif" font-style="italic" font-size="14.00">{concat(&#39;body&#45;&#39;, …</text>
<polygon fill="none" stroke="black" points="605.62,-1631.25 605.62,-1653.75 714.38,-1653.75 714.38,-1631.25 605.62,-1631.25"/>
<text text-anchor="start" x="645" y="-1637.45" font-family="Times,serif" font-size="14.00">result</text>
</g>
<!-- cluster_d335e140&#45;&gt;cluster_d335e142 -->
<g id="edge29" class="edge">
<title>cluster_d335e140:d335e141&#45;&gt;cluster_d335e142:d335e148</title>
<path fill="none" stroke="black" d="M660,-1630.25C660,-1592.95 659.69,-1580.9 659.64,-1548.53"/>
<polygon fill="black" stroke="black" points="663.14,-1548.76 659.63,-1538.76 656.14,-1548.77 663.14,-1548.76"/>
</g>
<!-- cluster_d335e134_foot -->
<g id="node29" class="node">
<title>cluster_d335e134_foot</title>
<polygon fill="none" stroke="black" points="654,-1374.5 602,-1344 654,-1313.5 706,-1344 654,-1374.5"/>
<polygon fill="none" stroke="black" points="636,-1332.75 636,-1355.25 672,-1355.25 672,-1332.75 636,-1332.75"/>
<text text-anchor="start" x="639" y="-1338.95" font-family="Times,serif" font-size="14.00">result</text>
</g>
<!-- cluster_d335e142&#45;&gt;cluster_d335e134_foot -->
<g id="edge27" class="edge">
<title>cluster_d335e142:d335e146&#45;&gt;cluster_d335e134_foot:d335e137_foot</title>
<path fill="none" stroke="black" d="M639,-1467.75C639,-1431.92 645.38,-1390.63 649.81,-1366.23"/>
<polygon fill="black" stroke="black" points="653.21,-1367.1 651.63,-1356.62 646.33,-1365.8 653.21,-1367.1"/>
</g>
<!-- cluster_d335e153 -->
<g id="node31" class="node">
<title>cluster_d335e153</title>
<polygon fill="none" stroke="black" points="833,-1232.5 833,-1255 892.25,-1255 892.25,-1232.5 833,-1232.5"/>
<text text-anchor="start" x="836" y="-1238.7" font-family="Times,serif" font-size="14.00">stylesheet</text>
<polygon fill="none" stroke="black" points="892.25,-1232.5 892.25,-1255 953,-1255 953,-1232.5 892.25,-1232.5"/>
<text text-anchor="start" x="905" y="-1238.7" font-family="Times,serif" font-size="14.00">source</text>
<polygon fill="none" stroke="black" points="833,-1210 833,-1232.5 953,-1232.5 953,-1210 833,-1210"/>
<text text-anchor="start" x="878" y="-1216.2" font-family="Times,serif" font-size="14.00">p:xslt</text>
<polygon fill="none" stroke="black" points="833,-1187.5 833,-1210 892.25,-1210 892.25,-1187.5 833,-1187.5"/>
<text text-anchor="start" x="847.62" y="-1193.7" font-family="Times,serif" font-size="14.00">result</text>
<polygon fill="none" stroke="black" points="892.25,-1187.5 892.25,-1210 953,-1210 953,-1187.5 892.25,-1187.5"/>
<text text-anchor="start" x="895.25" y="-1193.7" font-family="Times,serif" font-size="14.00">secondary</text>
</g>
<!-- cluster_d335e134_foot&#45;&gt;cluster_d335e153 -->
<g id="edge31" class="edge">
<title>cluster_d335e134_foot:d335e137_foot&#45;&gt;cluster_d335e153:d335e156</title>
<path fill="none" stroke="black" d="M666.25,-1332.94C682.51,-1320.14 712.6,-1298.35 742,-1287 776.14,-1273.82 894.73,-1292.17 918.47,-1266.5"/>
<polygon fill="black" stroke="black" points="921.64,-1267.99 922.07,-1257.41 915.14,-1265.42 921.64,-1267.99"/>
</g>
<!-- cluster_d335e151 -->
<g id="node30" class="node">
<title>cluster_d335e151</title>
<polygon fill="none" stroke="black" points="762.5,-1355.25 762.5,-1377.75 963.5,-1377.75 963.5,-1355.25 762.5,-1355.25"/>
<text text-anchor="start" x="827.75" y="-1361.45" font-family="Times,serif" font-size="14.00">cx:document</text>
<polygon fill="none" stroke="black" points="762.5,-1332.75 762.5,-1355.25 963.5,-1355.25 963.5,-1332.75 762.5,-1332.75"/>
<text text-anchor="start" x="765.5" y="-1338.95" font-family="Times,serif" font-size="14.00">href = &quot;blithedale&#45;cleanup&#45;xml.xsl&quot;</text>
<polygon fill="none" stroke="black" points="762.5,-1310.25 762.5,-1332.75 963.5,-1332.75 963.5,-1310.25 762.5,-1310.25"/>
<text text-anchor="start" x="848" y="-1316.45" font-family="Times,serif" font-size="14.00">result</text>
</g>
<!-- cluster_d335e151&#45;&gt;cluster_d335e153 -->
<g id="edge30" class="edge">
<title>cluster_d335e151:d335e152&#45;&gt;cluster_d335e153:d335e154</title>
<path fill="none" stroke="black" d="M863,-1309.25C863,-1289.84 862.75,-1282.37 862.66,-1267.24"/>
<polygon fill="black" stroke="black" points="866.16,-1267.5 862.63,-1257.51 859.16,-1267.52 866.16,-1267.5"/>
</g>
<!-- cluster_d335e171 -->
<g id="node33" class="node">
<title>cluster_d335e171</title>
<polygon fill="none" stroke="black" points="758.38,-1121 758.38,-1143.5 830,-1143.5 830,-1121 758.38,-1121"/>
<text text-anchor="start" x="773.56" y="-1127.2" font-family="Times,serif" font-size="14.00">schema</text>
<polygon fill="none" stroke="black" points="830,-1121 830,-1143.5 895.62,-1143.5 895.62,-1121 830,-1121"/>
<text text-anchor="start" x="845.19" y="-1127.2" font-family="Times,serif" font-size="14.00">source</text>
<polygon fill="none" stroke="black" points="758.38,-1098.5 758.38,-1121 895.62,-1121 895.62,-1098.5 758.38,-1098.5"/>
<text text-anchor="start" x="761.38" y="-1104.7" font-family="Times,serif" font-size="14.00">p:validate&#45;with&#45;relax&#45;ng</text>
<polygon fill="none" stroke="black" points="758.38,-1076 758.38,-1098.5 830,-1098.5 830,-1076 758.38,-1076"/>
<text text-anchor="start" x="779.19" y="-1082.2" font-family="Times,serif" font-size="14.00">result</text>
<polygon fill="none" stroke="black" points="830,-1076 830,-1098.5 895.62,-1098.5 895.62,-1076 830,-1076"/>
<text text-anchor="start" x="846.69" y="-1082.2" font-family="Times,serif" font-size="14.00">report</text>
</g>
<!-- cluster_d335e153&#45;&gt;cluster_d335e171 -->
<g id="edge33" class="edge">
<title>cluster_d335e153:d335e158&#45;&gt;cluster_d335e171:d335e174</title>
<path fill="none" stroke="black" d="M862.62,-1186.5C862.62,-1172.35 862.73,-1166.25 862.78,-1156"/>
<polygon fill="black" stroke="black" points="866.28,-1156.02 862.81,-1146.01 859.28,-1156.01 866.28,-1156.02"/>
</g>
<!-- d335e196 -->
<g id="node38" class="node">
<title>d335e196</title>
<ellipse fill="black" stroke="black" cx="923" cy="-1109.75" rx="1.8" ry="1.8"/>
</g>
<!-- cluster_d335e153&#45;&gt;d335e196 -->
<g id="edge38" class="edge">
<title>cluster_d335e153:d335e159&#45;&gt;d335e196</title>
<path fill="none" stroke="black" d="M922.62,-1186.5C922.62,-1164.09 922.79,-1137.96 922.9,-1122.98"/>
<polygon fill="black" stroke="black" points="926.4,-1123.36 922.98,-1113.33 919.4,-1123.3 926.4,-1123.36"/>
</g>
<!-- cluster_d335e169 -->
<g id="node32" class="node">
<title>cluster_d335e169</title>
<polygon fill="none" stroke="black" points="663.12,-1232.5 663.12,-1255 792.88,-1255 792.88,-1232.5 663.12,-1232.5"/>
<text text-anchor="start" x="692.75" y="-1238.7" font-family="Times,serif" font-size="14.00">cx:document</text>
<polygon fill="none" stroke="black" points="663.12,-1210 663.12,-1232.5 792.88,-1232.5 792.88,-1210 663.12,-1210"/>
<text text-anchor="start" x="666.12" y="-1216.2" font-family="Times,serif" font-size="14.00">href = &quot;blithedale.rnc&quot;</text>
<polygon fill="none" stroke="black" points="663.12,-1187.5 663.12,-1210 792.88,-1210 792.88,-1187.5 663.12,-1187.5"/>
<text text-anchor="start" x="713" y="-1193.7" font-family="Times,serif" font-size="14.00">result</text>
</g>
<!-- cluster_d335e169&#45;&gt;cluster_d335e171 -->
<g id="edge32" class="edge">
<title>cluster_d335e169:d335e170&#45;&gt;cluster_d335e171:d335e172</title>
<path fill="none" stroke="black" d="M793.88,-1198.75C818.9,-1198.75 768.1,-1162.12 754.03,-1143.23"/>
<polygon fill="black" stroke="black" points="757.37,-1144.28 756.93,-1133.7 750.67,-1142.24 757.37,-1144.28"/>
</g>
<!-- d335e199 -->
<g id="node39" class="node">
<title>d335e199</title>
<ellipse fill="black" stroke="black" cx="867" cy="-998.25" rx="1.8" ry="1.8"/>
</g>
<!-- cluster_d335e171&#45;&gt;d335e199 -->
<g id="edge39" class="edge">
<title>cluster_d335e171:d335e177&#45;&gt;d335e199</title>
<path fill="none" stroke="black" d="M862.81,-1075C862.81,-1052.56 864.67,-1026.44 865.91,-1011.47"/>
<polygon fill="black" stroke="black" points="869.37,-1012.09 866.76,-1001.82 862.39,-1011.48 869.37,-1012.09"/>
</g>
<!-- cluster_d335e1_foot -->
<g id="node40" class="node">
<title>cluster_d335e1_foot</title>
<polygon fill="none" stroke="black" points="795,-1028.75 743,-998.25 795,-967.75 847,-998.25 795,-1028.75"/>
<polygon fill="none" stroke="black" points="777,-987 777,-1009.5 813,-1009.5 813,-987 777,-987"/>
<text text-anchor="start" x="780" y="-993.2" font-family="Times,serif" font-size="14.00">result</text>
</g>
<!-- cluster_d335e171&#45;&gt;cluster_d335e1_foot -->
<g id="edge1" class="edge">
<title>cluster_d335e171:d335e176&#45;&gt;cluster_d335e1_foot:d335e3_foot</title>
<path fill="none" stroke="black" d="M794.19,-1075C794.19,-1056.51 794.43,-1035.47 794.65,-1020.27"/>
<polygon fill="black" stroke="black" points="798.15,-1020.62 794.8,-1010.57 791.15,-1020.51 798.15,-1020.62"/>
</g>
<!-- d335e3 -->
<g id="node41" class="node">
<title>d335e3</title>
<polygon fill="none" stroke="black" points="1073.8,-892.31 1035,-904.75 996.2,-892.31 996.23,-872.19 1073.77,-872.19 1073.8,-892.31"/>
<text text-anchor="middle" x="1035" y="-881.7" font-family="Times,serif" font-size="14.00">result</text>
</g>
<!-- cluster_d335e1_foot&#45;&gt;d335e3 -->
<g id="edge41" class="edge">
<title>cluster_d335e1_foot:d335e3_foot&#45;&gt;d335e3</title>
<path fill="none" stroke="black" d="M805.37,-987.16C816.06,-977.22 833.59,-962.16 851,-952.5 896.96,-927.02 954.81,-908.64 993.25,-898.11"/>
<polygon fill="black" stroke="black" points="993.82,-901.58 1002.57,-895.61 992.01,-894.82 993.82,-901.58"/>
</g>
<!-- cluster_d335e117 -->
<g id="node42" class="node">
<title>cluster_d335e117</title>
<ellipse fill="none" stroke="black" cx="512" cy="-1792.5" rx="76.43" ry="18"/>
<text text-anchor="middle" x="512" y="-1787.45" font-family="Times,serif" font-size="14.00">cluster_d335e117</text>
</g>
<!-- cluster_d335e117&#45;&gt;cluster_d335e134_head -->
<g id="edge26" class="edge">
<title>cluster_d335e117:d335e120&#45;&gt;cluster_d335e134_head:d335e135_head_input</title>
<path fill="none" stroke="black" d="M512,-1774C512,-1756.07 512,-1727.06 512,-1699.96"/>
<polygon fill="black" stroke="black" points="515.5,-1700.01 512,-1690.01 508.5,-1700.01 515.5,-1700.01"/>
</g>
</g>
</svg>
