<?xml version="1.0" encoding="UTF-8" standalone="no"?>
<!DOCTYPE svg PUBLIC "-//W3C//DTD SVG 1.1//EN"
 "http://www.w3.org/Graphics/SVG/1.1/DTD/svg11.dtd">
<!-- Generated by graphviz version 12.2.1 (20241206.2353)
 -->
<!-- Title: pipeline Pages: 1 -->
<svg width="390pt" height="778pt"
 viewBox="0.00 0.00 390.23 777.50" xmlns="http://www.w3.org/2000/svg" xmlns:xlink="http://www.w3.org/1999/xlink">
<g id="graph0" class="graph" transform="scale(1 1) rotate(0) translate(4 773.5)">
<title>pipeline</title>
<polygon fill="white" stroke="none" points="-4,4 -4,-773.5 386.23,-773.5 386.23,4 -4,4"/>
<g id="cluster_d337e1" class="cluster">
<title>cluster_d337e1</title>
<polygon fill="none" stroke="black" points="94.23,-56 94.23,-761.5 374.23,-761.5 374.23,-56 94.23,-56"/>
<text text-anchor="middle" x="234.23" y="-744.2" font-family="Times,serif" font-size="14.00">ex:xpath</text>
</g>
<g id="cluster_d337e1" class="cluster">
<title>cluster_d337e1_head</title>
</g>
<g id="cluster_d337e1" class="cluster">
<title>cluster_d337e5</title>
</g>
<g id="cluster_d337e1" class="cluster">
<title>cluster_d337e7</title>
</g>
<g id="cluster_d337e1" class="cluster">
<title>cluster_d337e12</title>
</g>
<g id="cluster_d337e1" class="cluster">
<title>cluster_d337e20</title>
</g>
<g id="cluster_d337e1" class="cluster">
<title>cluster_d337e24</title>
</g>
<g id="cluster_d337e1" class="cluster">
<title>cluster_d337e1_foot</title>
</g>
<!-- d337e2 -->
<g id="node1" class="node">
<title>d337e2</title>
<polygon fill="none" stroke="black" points="0,-677.69 43.23,-665.25 86.46,-677.69 86.42,-697.81 0.04,-697.81 0,-677.69"/>
<text text-anchor="middle" x="43.23" y="-678.2" font-family="Times,serif" font-size="14.00">source</text>
</g>
<!-- cluster_d337e1_head -->
<g id="node2" class="node">
<title>cluster_d337e1_head</title>
<polygon fill="none" stroke="black" points="167.23,-609.5 109.98,-556.5 167.23,-503.5 224.48,-556.5 167.23,-609.5"/>
<polygon fill="none" stroke="black" points="146.6,-556.5 146.6,-579 187.85,-579 187.85,-556.5 146.6,-556.5"/>
<text text-anchor="start" x="149.6" y="-562.7" font-family="Times,serif" font-size="14.00">source</text>
<polygon fill="none" stroke="black" points="146.6,-534 146.6,-556.5 187.85,-556.5 187.85,-534 146.6,-534"/>
<text text-anchor="start" x="149.6" y="-540.2" font-family="Times,serif" font-size="14.00">source</text>
</g>
<!-- d337e2&#45;&gt;cluster_d337e1_head -->
<g id="edge7" class="edge">
<title>d337e2&#45;&gt;cluster_d337e1_head:d337e2_head_input</title>
<path fill="none" stroke="black" d="M48.67,-666.81C59.87,-637.87 88.39,-577.61 134.24,-568.83"/>
<polygon fill="black" stroke="black" points="134.47,-572.32 144.1,-567.89 133.81,-565.35 134.47,-572.32"/>
</g>
<!-- cluster_d337e12 -->
<g id="node5" class="node">
<title>cluster_d337e12</title>
<polygon fill="none" stroke="black" points="195.23,-441 195.23,-463.5 231.98,-463.5 231.98,-441 195.23,-441"/>
<text text-anchor="start" x="198.23" y="-447.2" font-family="Times,serif" font-size="14.00">query</text>
<polygon fill="none" stroke="black" points="231.98,-441 231.98,-463.5 273.23,-463.5 273.23,-441 231.98,-441"/>
<text text-anchor="start" x="234.98" y="-447.2" font-family="Times,serif" font-size="14.00">source</text>
<polygon fill="none" stroke="black" points="195.23,-418.5 195.23,-441 273.23,-441 273.23,-418.5 195.23,-418.5"/>
<text text-anchor="start" x="210.23" y="-424.7" font-family="Times,serif" font-size="14.00">p:xquery</text>
<polygon fill="none" stroke="black" points="195.23,-396 195.23,-418.5 273.23,-418.5 273.23,-396 195.23,-396"/>
<text text-anchor="start" x="219.23" y="-402.2" font-family="Times,serif" font-size="14.00">result</text>
</g>
<!-- cluster_d337e1_head&#45;&gt;cluster_d337e12 -->
<g id="edge4" class="edge">
<title>cluster_d337e1_head:d337e2_head_output&#45;&gt;cluster_d337e12:d337e15</title>
<path fill="none" stroke="black" d="M167.23,-533C167.23,-488.53 238.56,-508.77 250.82,-475.42"/>
<polygon fill="black" stroke="black" points="254.2,-476.43 252.36,-465.99 247.3,-475.3 254.2,-476.43"/>
</g>
<!-- cluster_d337e5 -->
<g id="node3" class="node">
<title>cluster_d337e5</title>
<polygon fill="none" stroke="black" points="250.23,-694.5 250.23,-717 316.23,-717 316.23,-694.5 250.23,-694.5"/>
<text text-anchor="start" x="267.85" y="-700.7" font-family="Times,serif" font-size="14.00">$expr</text>
<polygon fill="none" stroke="black" points="250.23,-672 250.23,-694.5 316.23,-694.5 316.23,-672 250.23,-672"/>
<text text-anchor="start" x="253.23" y="-679.2" font-family="Times,serif" font-style="italic" font-size="14.00">«required»</text>
<polygon fill="none" stroke="black" points="250.23,-649.5 250.23,-672 316.23,-672 316.23,-649.5 250.23,-649.5"/>
<text text-anchor="start" x="268.23" y="-655.7" font-family="Times,serif" font-size="14.00">result</text>
</g>
<!-- cluster_d337e7 -->
<g id="node4" class="node">
<title>cluster_d337e7</title>
<polygon fill="none" stroke="black" points="255.98,-567.75 255.98,-590.25 309.23,-590.25 309.23,-567.75 255.98,-567.75"/>
<text text-anchor="start" x="258.98" y="-573.95" font-family="Times,serif" font-size="14.00">Q{}expr</text>
<polygon fill="none" stroke="black" points="309.23,-567.75 309.23,-590.25 350.48,-590.25 350.48,-567.75 309.23,-567.75"/>
<text text-anchor="start" x="312.23" y="-573.95" font-family="Times,serif" font-size="14.00">source</text>
<polygon fill="none" stroke="black" points="255.98,-545.25 255.98,-567.75 350.48,-567.75 350.48,-545.25 255.98,-545.25"/>
<text text-anchor="start" x="279.6" y="-551.45" font-family="Times,serif" font-size="14.00">cx:inline</text>
<polygon fill="none" stroke="black" points="255.98,-522.75 255.98,-545.25 350.48,-545.25 350.48,-522.75 255.98,-522.75"/>
<text text-anchor="start" x="288.23" y="-528.95" font-family="Times,serif" font-size="14.00">result</text>
</g>
<!-- cluster_d337e5&#45;&gt;cluster_d337e7 -->
<g id="edge2" class="edge">
<title>cluster_d337e5:d337e6&#45;&gt;cluster_d337e7:d337e8</title>
<path fill="none" stroke="black" d="M283.23,-648.5C283.23,-627.23 282.79,-619.3 282.65,-602.4"/>
<polygon fill="black" stroke="black" points="286.15,-602.75 282.61,-592.76 279.15,-602.78 286.15,-602.75"/>
</g>
<!-- cluster_d337e7&#45;&gt;cluster_d337e12 -->
<g id="edge3" class="edge">
<title>cluster_d337e7:d337e11&#45;&gt;cluster_d337e12:d337e13</title>
<path fill="none" stroke="black" d="M254.98,-534C235.95,-534 246.04,-511.81 236.23,-495.5 229.91,-485 220.99,-482.39 216.47,-475.42"/>
<polygon fill="black" stroke="black" points="219.91,-474.75 213.99,-465.96 213.14,-476.52 219.91,-474.75"/>
</g>
<!-- cluster_d337e20 -->
<g id="node6" class="node">
<title>cluster_d337e20</title>
<polygon fill="none" stroke="black" points="207.6,-329.5 207.6,-352 260.85,-352 260.85,-329.5 207.6,-329.5"/>
<text text-anchor="start" x="216.6" y="-335.7" font-family="Times,serif" font-size="14.00">source</text>
<polygon fill="none" stroke="black" points="207.6,-307 207.6,-329.5 260.85,-329.5 260.85,-307 207.6,-307"/>
<text text-anchor="start" x="210.6" y="-313.2" font-family="Times,serif" font-size="14.00">cx:inline</text>
<polygon fill="none" stroke="black" points="207.6,-284.5 207.6,-307 260.85,-307 260.85,-284.5 207.6,-284.5"/>
<text text-anchor="start" x="219.23" y="-290.7" font-family="Times,serif" font-size="14.00">result</text>
</g>
<!-- cluster_d337e12&#45;&gt;cluster_d337e20 -->
<g id="edge5" class="edge">
<title>cluster_d337e12:d337e17&#45;&gt;cluster_d337e20:d337e21</title>
<path fill="none" stroke="black" d="M234.23,-395C234.23,-380.85 234.23,-374.75 234.23,-364.5"/>
<polygon fill="black" stroke="black" points="237.73,-364.51 234.23,-354.51 230.73,-364.51 237.73,-364.51"/>
</g>
<!-- cluster_d337e24 -->
<g id="node7" class="node">
<title>cluster_d337e24</title>
<polygon fill="none" stroke="black" points="205.35,-218 205.35,-240.5 263.1,-240.5 263.1,-218 205.35,-218"/>
<text text-anchor="start" x="216.6" y="-224.2" font-family="Times,serif" font-size="14.00">source</text>
<polygon fill="none" stroke="black" points="205.35,-195.5 205.35,-218 263.1,-218 263.1,-195.5 205.35,-195.5"/>
<text text-anchor="start" x="208.35" y="-201.7" font-family="Times,serif" font-size="14.00">p:identity</text>
<polygon fill="none" stroke="black" points="205.35,-173 205.35,-195.5 263.1,-195.5 263.1,-173 205.35,-173"/>
<text text-anchor="start" x="219.23" y="-179.2" font-family="Times,serif" font-size="14.00">result</text>
</g>
<!-- cluster_d337e20&#45;&gt;cluster_d337e24 -->
<g id="edge6" class="edge">
<title>cluster_d337e20:d337e23&#45;&gt;cluster_d337e24:d337e25</title>
<path fill="none" stroke="black" d="M234.23,-283.5C234.23,-269.35 234.23,-263.25 234.23,-253"/>
<polygon fill="black" stroke="black" points="237.73,-253.01 234.23,-243.01 230.73,-253.01 237.73,-253.01"/>
</g>
<!-- cluster_d337e1_foot -->
<g id="node8" class="node">
<title>cluster_d337e1_foot</title>
<polygon fill="none" stroke="black" points="234.23,-133 182.23,-102.5 234.23,-72 286.23,-102.5 234.23,-133"/>
<polygon fill="none" stroke="black" points="216.23,-91.25 216.23,-113.75 252.23,-113.75 252.23,-91.25 216.23,-91.25"/>
<text text-anchor="start" x="219.23" y="-97.45" font-family="Times,serif" font-size="14.00">result</text>
</g>
<!-- cluster_d337e24&#45;&gt;cluster_d337e1_foot -->
<g id="edge1" class="edge">
<title>cluster_d337e24:d337e27&#45;&gt;cluster_d337e1_foot:d337e3_foot</title>
<path fill="none" stroke="black" d="M234.23,-172C234.23,-156.32 234.23,-138.62 234.23,-125.14"/>
<polygon fill="black" stroke="black" points="237.73,-125.23 234.23,-115.23 230.73,-125.23 237.73,-125.23"/>
</g>
<!-- d337e3 -->
<g id="node9" class="node">
<title>d337e3</title>
<polygon fill="none" stroke="black" points="273.03,-23.56 234.23,-36 195.43,-23.56 195.46,-3.44 272.99,-3.44 273.03,-23.56"/>
<text text-anchor="middle" x="234.23" y="-12.95" font-family="Times,serif" font-size="14.00">result</text>
</g>
<!-- cluster_d337e1_foot&#45;&gt;d337e3 -->
<g id="edge8" class="edge">
<title>cluster_d337e1_foot:d337e3_foot&#45;&gt;d337e3</title>
<path fill="none" stroke="black" d="M234.23,-91.38C234.23,-80.59 234.23,-62.99 234.23,-47.85"/>
<polygon fill="black" stroke="black" points="237.73,-47.92 234.23,-37.92 230.73,-47.92 237.73,-47.92"/>
</g>
</g>
</svg>
