<?xml version="1.0" encoding="UTF-8" standalone="no"?>
<!DOCTYPE svg PUBLIC "-//W3C//DTD SVG 1.1//EN"
 "http://www.w3.org/Graphics/SVG/1.1/DTD/svg11.dtd">
<!-- Generated by graphviz version 12.2.1 (20241206.2353)
 -->
<!-- Title: pipeline Pages: 1 -->
<svg width="482pt" height="1256pt"
 viewBox="0.00 0.00 481.80 1256.10" xmlns="http://www.w3.org/2000/svg" xmlns:xlink="http://www.w3.org/1999/xlink">
<g id="graph0" class="graph" transform="scale(1 1) rotate(0) translate(4 1252.1)">
<title>pipeline</title>
<polygon fill="white" stroke="none" points="-4,4 -4,-1252.1 477.8,-1252.1 477.8,4 -4,4"/>
<g id="declare&#45;step" class="cluster">
<title>cluster_d271e149</title>
<polygon fill="none" stroke="black" points="8,-8 8,-1204.1 388,-1204.1 388,-8 8,-8"/>
<text text-anchor="middle" x="198" y="-1186.8" font-family="Times,serif" font-size="14.00">!declare&#45;step</text>
</g>
<!-- d271e152 -->
<g id="node1" class="node">
<title>d271e152</title>
<polygon fill="none" stroke="black" points="134.25,-1145.1 134.25,-1167.6 237.75,-1167.6 237.75,-1145.1 134.25,-1145.1"/>
<text text-anchor="start" x="168.38" y="-1151.3" font-family="Times,serif" font-size="14.00">source</text>
<polygon fill="none" stroke="black" points="134.25,-1106.1 134.25,-1145.1 237.75,-1145.1 237.75,-1106.1 134.25,-1106.1"/>
<text text-anchor="start" x="165" y="-1128.8" font-family="Times,serif" font-size="14.00">cx:head</text>
<text text-anchor="start" x="137.25" y="-1112.3" font-family="Times,serif" font-size="14.00">declare&#45;step_head</text>
<polygon fill="none" stroke="black" points="134.25,-1083.6 134.25,-1106.1 237.75,-1106.1 237.75,-1083.6 134.25,-1083.6"/>
<text text-anchor="start" x="168.38" y="-1089.8" font-family="Times,serif" font-size="14.00">source</text>
</g>
<!-- d271e156 -->
<g id="node3" class="node">
<title>d271e156</title>
<polygon fill="none" stroke="black" points="109.25,-1017.1 109.25,-1039.6 165.5,-1039.6 165.5,-1017.1 109.25,-1017.1"/>
<text text-anchor="start" x="112.25" y="-1023.3" font-family="Times,serif" font-size="14.00">grammar</text>
<polygon fill="none" stroke="black" points="165.5,-1017.1 165.5,-1039.6 206.75,-1039.6 206.75,-1017.1 165.5,-1017.1"/>
<text text-anchor="start" x="168.5" y="-1023.3" font-family="Times,serif" font-size="14.00">source</text>
<polygon fill="none" stroke="black" points="109.25,-978.1 109.25,-1017.1 206.75,-1017.1 206.75,-978.1 109.25,-978.1"/>
<text text-anchor="start" x="116.38" y="-1000.8" font-family="Times,serif" font-size="14.00">p:invisible&#45;xml</text>
<text text-anchor="start" x="121.62" y="-984.3" font-family="Times,serif" font-size="14.00">invisible&#45;xml</text>
<polygon fill="none" stroke="black" points="109.25,-955.6 109.25,-978.1 206.75,-978.1 206.75,-955.6 109.25,-955.6"/>
<text text-anchor="start" x="143" y="-961.8" font-family="Times,serif" font-size="14.00">result</text>
</g>
<!-- d271e152&#45;&gt;d271e156 -->
<g id="edge27" class="edge">
<title>d271e152:d271e153&#45;&gt;d271e156:d271e158</title>
<path fill="none" stroke="black" d="M186,-1082.6C186,-1068.45 186.07,-1062.35 186.11,-1052.1"/>
<polygon fill="black" stroke="black" points="189.61,-1052.12 186.12,-1042.11 182.61,-1052.11 189.61,-1052.12"/>
</g>
<!-- d271e154 -->
<g id="node2" class="node">
<title>d271e154</title>
<polygon fill="none" stroke="black" points="23.75,-1117.35 23.75,-1156.35 100.25,-1156.35 100.25,-1117.35 23.75,-1117.35"/>
<text text-anchor="start" x="26.75" y="-1140.05" font-family="Times,serif" font-size="14.00">cx:document</text>
<text text-anchor="start" x="35" y="-1123.55" font-family="Times,serif" font-size="14.00">document</text>
<polygon fill="none" stroke="black" points="23.75,-1094.85 23.75,-1117.35 100.25,-1117.35 100.25,-1094.85 23.75,-1094.85"/>
<text text-anchor="start" x="47" y="-1101.05" font-family="Times,serif" font-size="14.00">result</text>
</g>
<!-- d271e154&#45;&gt;d271e156 -->
<g id="edge3" class="edge">
<title>d271e154:d271e155&#45;&gt;d271e156:d271e157</title>
<path fill="none" stroke="black" d="M101.25,-1106.1C130.39,-1106.1 91.05,-1051.26 98.25,-1033.69"/>
<polygon fill="black" stroke="black" points="99.75,-1036.86 106.92,-1029.06 96.45,-1030.69 99.75,-1036.86"/>
</g>
<!-- d271e160 -->
<g id="node4" class="node">
<title>d271e160</title>
<polygon fill="none" stroke="black" points="316.62,-889.1 316.62,-911.6 365.38,-911.6 365.38,-889.1 316.62,-889.1"/>
<text text-anchor="start" x="323.38" y="-895.3" font-family="Times,serif" font-size="14.00">source</text>
<polygon fill="none" stroke="black" points="316.62,-850.1 316.62,-889.1 365.38,-889.1 365.38,-850.1 316.62,-850.1"/>
<text text-anchor="start" x="319.62" y="-872.8" font-family="Times,serif" font-size="14.00">p:delete</text>
<text text-anchor="start" x="324.88" y="-856.3" font-family="Times,serif" font-size="14.00">delete</text>
<polygon fill="none" stroke="black" points="316.62,-827.6 316.62,-850.1 365.38,-850.1 365.38,-827.6 316.62,-827.6"/>
<text text-anchor="start" x="326" y="-833.8" font-family="Times,serif" font-size="14.00">result</text>
</g>
<!-- d271e156&#45;&gt;d271e160 -->
<g id="edge4" class="edge">
<title>d271e156:d271e159&#45;&gt;d271e160:d271e161</title>
<path fill="none" stroke="black" d="M207.75,-966.85C254.26,-966.85 261.33,-942.89 299,-915.6 302.68,-912.93 304.38,-909.55 306.07,-906.65"/>
<polygon fill="black" stroke="black" points="307.94,-909.61 314.36,-901.18 304.09,-903.77 307.94,-909.61"/>
</g>
<!-- d271e165 -->
<g id="node6" class="node">
<title>d271e165</title>
<polygon fill="none" stroke="black" points="252,-761.1 252,-783.6 311.25,-783.6 311.25,-761.1 252,-761.1"/>
<text text-anchor="start" x="255" y="-767.3" font-family="Times,serif" font-size="14.00">stylesheet</text>
<polygon fill="none" stroke="black" points="311.25,-761.1 311.25,-783.6 372,-783.6 372,-761.1 311.25,-761.1"/>
<text text-anchor="start" x="324" y="-767.3" font-family="Times,serif" font-size="14.00">source</text>
<polygon fill="none" stroke="black" points="252,-722.1 252,-761.1 372,-761.1 372,-722.1 252,-722.1"/>
<text text-anchor="start" x="297" y="-744.8" font-family="Times,serif" font-size="14.00">p:xslt</text>
<text text-anchor="start" x="302.25" y="-728.3" font-family="Times,serif" font-size="14.00">xslt</text>
<polygon fill="none" stroke="black" points="252,-699.6 252,-722.1 311.25,-722.1 311.25,-699.6 252,-699.6"/>
<text text-anchor="start" x="266.62" y="-705.8" font-family="Times,serif" font-size="14.00">result</text>
<polygon fill="none" stroke="black" points="311.25,-699.6 311.25,-722.1 372,-722.1 372,-699.6 311.25,-699.6"/>
<text text-anchor="start" x="314.25" y="-705.8" font-family="Times,serif" font-size="14.00">secondary</text>
</g>
<!-- d271e160&#45;&gt;d271e165 -->
<g id="edge6" class="edge">
<title>d271e160:d271e162&#45;&gt;d271e165:d271e167</title>
<path fill="none" stroke="black" d="M341,-826.6C341,-812.45 341.36,-806.35 341.53,-796.1"/>
<polygon fill="black" stroke="black" points="345.03,-796.14 341.61,-786.11 338.03,-796.09 345.03,-796.14"/>
</g>
<!-- d271e163 -->
<g id="node5" class="node">
<title>d271e163</title>
<polygon fill="none" stroke="black" points="205.75,-861.35 205.75,-900.35 282.25,-900.35 282.25,-861.35 205.75,-861.35"/>
<text text-anchor="start" x="208.75" y="-884.05" font-family="Times,serif" font-size="14.00">cx:document</text>
<text text-anchor="start" x="210.25" y="-867.55" font-family="Times,serif" font-size="14.00">document_2</text>
<polygon fill="none" stroke="black" points="205.75,-838.85 205.75,-861.35 282.25,-861.35 282.25,-838.85 205.75,-838.85"/>
<text text-anchor="start" x="229" y="-845.05" font-family="Times,serif" font-size="14.00">result</text>
</g>
<!-- d271e163&#45;&gt;d271e165 -->
<g id="edge5" class="edge">
<title>d271e163:d271e164&#45;&gt;d271e165:d271e166</title>
<path fill="none" stroke="black" d="M283.25,-850.1C308.73,-850.1 288.38,-822.25 282.89,-795.78"/>
<polygon fill="black" stroke="black" points="286.4,-795.65 281.8,-786.1 279.44,-796.43 286.4,-795.65"/>
</g>
<!-- d271e172 -->
<g id="node8" class="node">
<title>d271e172</title>
<polygon fill="none" stroke="black" points="177.38,-633.1 177.38,-655.6 249,-655.6 249,-633.1 177.38,-633.1"/>
<text text-anchor="start" x="192.56" y="-639.3" font-family="Times,serif" font-size="14.00">schema</text>
<polygon fill="none" stroke="black" points="249,-633.1 249,-655.6 314.62,-655.6 314.62,-633.1 249,-633.1"/>
<text text-anchor="start" x="264.19" y="-639.3" font-family="Times,serif" font-size="14.00">source</text>
<polygon fill="none" stroke="black" points="177.38,-594.1 177.38,-633.1 314.62,-633.1 314.62,-594.1 177.38,-594.1"/>
<text text-anchor="start" x="180.38" y="-616.8" font-family="Times,serif" font-size="14.00">p:validate&#45;with&#45;relax&#45;ng</text>
<text text-anchor="start" x="185.62" y="-600.3" font-family="Times,serif" font-size="14.00">validate&#45;with&#45;relax&#45;ng</text>
<polygon fill="none" stroke="black" points="177.38,-571.6 177.38,-594.1 249,-594.1 249,-571.6 177.38,-571.6"/>
<text text-anchor="start" x="198.19" y="-577.8" font-family="Times,serif" font-size="14.00">result</text>
<polygon fill="none" stroke="black" points="249,-571.6 249,-594.1 314.62,-594.1 314.62,-571.6 249,-571.6"/>
<text text-anchor="start" x="265.69" y="-577.8" font-family="Times,serif" font-size="14.00">report</text>
</g>
<!-- d271e165&#45;&gt;d271e172 -->
<g id="edge8" class="edge">
<title>d271e165:d271e168&#45;&gt;d271e172:d271e174</title>
<path fill="none" stroke="black" d="M281.62,-698.6C281.62,-684.45 281.73,-678.35 281.78,-668.1"/>
<polygon fill="black" stroke="black" points="285.28,-668.12 281.81,-658.11 278.28,-668.11 285.28,-668.12"/>
</g>
<!-- d271e207 -->
<g id="node17" class="node">
<title>d271e207</title>
<ellipse fill="black" stroke="black" cx="342" cy="-613.6" rx="1.8" ry="1.8"/>
</g>
<!-- d271e165&#45;&gt;d271e207 -->
<g id="edge15" class="edge">
<title>d271e165:d271e169&#45;&gt;d271e207</title>
<path fill="none" stroke="black" d="M341.62,-698.6C341.62,-673.22 341.8,-643.54 341.91,-627.12"/>
<polygon fill="black" stroke="black" points="345.41,-627.32 341.98,-617.3 338.41,-627.27 345.41,-627.32"/>
</g>
<!-- d271e170 -->
<g id="node7" class="node">
<title>d271e170</title>
<polygon fill="none" stroke="black" points="141.75,-733.35 141.75,-772.35 218.25,-772.35 218.25,-733.35 141.75,-733.35"/>
<text text-anchor="start" x="144.75" y="-756.05" font-family="Times,serif" font-size="14.00">cx:document</text>
<text text-anchor="start" x="146.25" y="-739.55" font-family="Times,serif" font-size="14.00">document_3</text>
<polygon fill="none" stroke="black" points="141.75,-710.85 141.75,-733.35 218.25,-733.35 218.25,-710.85 141.75,-710.85"/>
<text text-anchor="start" x="165" y="-717.05" font-family="Times,serif" font-size="14.00">result</text>
</g>
<!-- d271e170&#45;&gt;d271e172 -->
<g id="edge7" class="edge">
<title>d271e170:d271e171&#45;&gt;d271e172:d271e173</title>
<path fill="none" stroke="black" d="M219.25,-722.1C244.83,-722.1 221,-694.34 214.65,-667.81"/>
<polygon fill="black" stroke="black" points="218.15,-667.57 213.38,-658.1 211.2,-668.47 218.15,-667.57"/>
</g>
<!-- d271e180 -->
<g id="node10" class="node">
<title>d271e180</title>
<polygon fill="none" stroke="black" points="96.38,-505.1 96.38,-527.6 177,-527.6 177,-505.1 96.38,-505.1"/>
<text text-anchor="start" x="116.06" y="-511.3" font-family="Times,serif" font-size="14.00">schema</text>
<polygon fill="none" stroke="black" points="177,-505.1 177,-527.6 251.62,-527.6 251.62,-505.1 177,-505.1"/>
<text text-anchor="start" x="196.69" y="-511.3" font-family="Times,serif" font-size="14.00">source</text>
<polygon fill="none" stroke="black" points="96.38,-466.1 96.38,-505.1 251.62,-505.1 251.62,-466.1 96.38,-466.1"/>
<text text-anchor="start" x="99.38" y="-488.8" font-family="Times,serif" font-size="14.00">p:validate&#45;with&#45;schematron</text>
<text text-anchor="start" x="140.62" y="-472.3" font-family="Times,serif" font-size="14.00">finalize&#45;xml</text>
<polygon fill="none" stroke="black" points="96.38,-443.6 96.38,-466.1 177,-466.1 177,-443.6 96.38,-443.6"/>
<text text-anchor="start" x="121.69" y="-449.8" font-family="Times,serif" font-size="14.00">result</text>
<polygon fill="none" stroke="black" points="177,-443.6 177,-466.1 251.62,-466.1 251.62,-443.6 177,-443.6"/>
<text text-anchor="start" x="198.19" y="-449.8" font-family="Times,serif" font-size="14.00">report</text>
</g>
<!-- d271e172&#45;&gt;d271e180 -->
<g id="edge10" class="edge">
<title>d271e172:d271e175&#45;&gt;d271e180:d271e182</title>
<path fill="none" stroke="black" d="M213.19,-570.6C213.19,-556.45 213.83,-550.35 214.15,-540.1"/>
<polygon fill="black" stroke="black" points="217.65,-540.16 214.29,-530.11 210.65,-540.06 217.65,-540.16"/>
</g>
<!-- d271e209 -->
<g id="node18" class="node">
<title>d271e209</title>
<ellipse fill="black" stroke="black" cx="281" cy="-485.6" rx="1.8" ry="1.8"/>
</g>
<!-- d271e172&#45;&gt;d271e209 -->
<g id="edge16" class="edge">
<title>d271e172:d271e176&#45;&gt;d271e209</title>
<path fill="none" stroke="black" d="M281.81,-570.6C281.81,-545.22 281.44,-515.54 281.2,-499.12"/>
<polygon fill="black" stroke="black" points="284.7,-499.24 281.04,-489.3 277.7,-499.35 284.7,-499.24"/>
</g>
<!-- d271e177 -->
<g id="node9" class="node">
<title>d271e177</title>
<polygon fill="none" stroke="black" points="66.75,-605.35 66.75,-644.35 143.25,-644.35 143.25,-605.35 66.75,-605.35"/>
<text text-anchor="start" x="69.75" y="-628.05" font-family="Times,serif" font-size="14.00">cx:document</text>
<text text-anchor="start" x="71.25" y="-611.55" font-family="Times,serif" font-size="14.00">document_4</text>
<polygon fill="none" stroke="black" points="66.75,-582.85 66.75,-605.35 143.25,-605.35 143.25,-582.85 66.75,-582.85"/>
<text text-anchor="start" x="90" y="-589.05" font-family="Times,serif" font-size="14.00">result</text>
</g>
<!-- d271e177&#45;&gt;d271e180 -->
<g id="edge9" class="edge">
<title>d271e177:d271e178&#45;&gt;d271e180:d271e181</title>
<path fill="none" stroke="black" d="M144.25,-594.1C151.04,-594.1 143.91,-585.61 143.25,-578.85 141.48,-560.81 138.31,-553.85 137.14,-540.08"/>
<polygon fill="black" stroke="black" points="140.64,-539.97 136.75,-530.11 133.64,-540.24 140.64,-539.97"/>
</g>
<!-- d271e211 -->
<g id="node19" class="node">
<title>d271e211</title>
<ellipse fill="black" stroke="black" cx="248" cy="-357.6" rx="1.8" ry="1.8"/>
</g>
<!-- d271e180&#45;&gt;d271e211 -->
<g id="edge17" class="edge">
<title>d271e180:d271e184&#45;&gt;d271e211</title>
<path fill="none" stroke="black" d="M214.31,-442.6C214.31,-422.55 229.5,-422.2 237,-403.6 241.32,-392.9 244.25,-380.05 245.99,-370.83"/>
<polygon fill="black" stroke="black" points="249.4,-371.68 247.59,-361.24 242.5,-370.53 249.4,-371.68"/>
</g>
<!-- d271e226 -->
<g id="node26" class="node">
<title>d271e226</title>
<polygon fill="none" stroke="black" points="134.25,-377.1 134.25,-399.6 219.75,-399.6 219.75,-377.1 134.25,-377.1"/>
<text text-anchor="start" x="159.38" y="-383.3" font-family="Times,serif" font-size="14.00">source</text>
<polygon fill="none" stroke="black" points="134.25,-338.1 134.25,-377.1 219.75,-377.1 219.75,-338.1 134.25,-338.1"/>
<text text-anchor="start" x="150" y="-360.8" font-family="Times,serif" font-size="14.00">cx:splitter</text>
<text text-anchor="start" x="158.25" y="-344.3" font-family="Times,serif" font-size="14.00">splitter</text>
<polygon fill="none" stroke="black" points="134.25,-315.6 134.25,-338.1 177,-338.1 177,-315.6 134.25,-315.6"/>
<text text-anchor="start" x="137.25" y="-321.8" font-family="Times,serif" font-size="14.00">result1</text>
<polygon fill="none" stroke="black" points="177,-315.6 177,-338.1 219.75,-338.1 219.75,-315.6 177,-315.6"/>
<text text-anchor="start" x="180" y="-321.8" font-family="Times,serif" font-size="14.00">result2</text>
</g>
<!-- d271e180&#45;&gt;d271e226 -->
<g id="edge26" class="edge">
<title>d271e180:d271e183&#45;&gt;d271e226:d271e227</title>
<path fill="none" stroke="black" d="M136.69,-442.6C136.69,-421.38 163.81,-424.12 173.56,-411.51"/>
<polygon fill="black" stroke="black" points="176.88,-412.63 176.55,-402.04 170.2,-410.53 176.88,-412.63"/>
</g>
<!-- d271e185 -->
<g id="node11" class="node">
<title>d271e185</title>
<polygon fill="none" stroke="black" points="23.75,-349.35 23.75,-388.35 100.25,-388.35 100.25,-349.35 23.75,-349.35"/>
<text text-anchor="start" x="26.75" y="-372.05" font-family="Times,serif" font-size="14.00">cx:document</text>
<text text-anchor="start" x="28.25" y="-355.55" font-family="Times,serif" font-size="14.00">document_5</text>
<polygon fill="none" stroke="black" points="23.75,-326.85 23.75,-349.35 100.25,-349.35 100.25,-326.85 23.75,-326.85"/>
<text text-anchor="start" x="47" y="-333.05" font-family="Times,serif" font-size="14.00">result</text>
</g>
<!-- d271e187 -->
<g id="node12" class="node">
<title>d271e187</title>
<polygon fill="none" stroke="black" points="59,-249.1 59,-271.6 118.25,-271.6 118.25,-249.1 59,-249.1"/>
<text text-anchor="start" x="62" y="-255.3" font-family="Times,serif" font-size="14.00">stylesheet</text>
<polygon fill="none" stroke="black" points="118.25,-249.1 118.25,-271.6 179,-271.6 179,-249.1 118.25,-249.1"/>
<text text-anchor="start" x="131" y="-255.3" font-family="Times,serif" font-size="14.00">source</text>
<polygon fill="none" stroke="black" points="59,-210.1 59,-249.1 179,-249.1 179,-210.1 59,-210.1"/>
<text text-anchor="start" x="104" y="-232.8" font-family="Times,serif" font-size="14.00">p:xslt</text>
<text text-anchor="start" x="102.5" y="-216.3" font-family="Times,serif" font-size="14.00">xslt_2</text>
<polygon fill="none" stroke="black" points="59,-187.6 59,-210.1 118.25,-210.1 118.25,-187.6 59,-187.6"/>
<text text-anchor="start" x="73.62" y="-193.8" font-family="Times,serif" font-size="14.00">result</text>
<polygon fill="none" stroke="black" points="118.25,-187.6 118.25,-210.1 179,-210.1 179,-187.6 118.25,-187.6"/>
<text text-anchor="start" x="121.25" y="-193.8" font-family="Times,serif" font-size="14.00">secondary</text>
</g>
<!-- d271e185&#45;&gt;d271e187 -->
<g id="edge11" class="edge">
<title>d271e185:d271e186&#45;&gt;d271e187:d271e188</title>
<path fill="none" stroke="black" d="M101.25,-338.1C108.04,-338.1 101.24,-329.57 100.25,-322.85 97.53,-304.42 91.56,-297.9 89.41,-283.81"/>
<polygon fill="black" stroke="black" points="92.92,-283.84 88.73,-274.11 85.94,-284.33 92.92,-283.84"/>
</g>
<!-- d271e192 -->
<g id="node13" class="node">
<title>d271e192</title>
<polygon fill="none" stroke="black" points="37.25,-121.1 37.25,-143.6 128.75,-143.6 128.75,-121.1 37.25,-121.1"/>
<text text-anchor="start" x="65.38" y="-127.3" font-family="Times,serif" font-size="14.00">source</text>
<polygon fill="none" stroke="black" points="37.25,-82.1 37.25,-121.1 128.75,-121.1 128.75,-82.1 37.25,-82.1"/>
<text text-anchor="start" x="64.62" y="-104.8" font-family="Times,serif" font-size="14.00">p:store</text>
<text text-anchor="start" x="69.88" y="-88.3" font-family="Times,serif" font-size="14.00">store</text>
<polygon fill="none" stroke="black" points="37.25,-59.6 37.25,-82.1 73.25,-82.1 73.25,-59.6 37.25,-59.6"/>
<text text-anchor="start" x="40.25" y="-65.8" font-family="Times,serif" font-size="14.00">result</text>
<polygon fill="none" stroke="black" points="73.25,-59.6 73.25,-82.1 128.75,-82.1 128.75,-59.6 73.25,-59.6"/>
<text text-anchor="start" x="76.25" y="-65.8" font-family="Times,serif" font-size="14.00">result&#45;uri</text>
</g>
<!-- d271e187&#45;&gt;d271e192 -->
<g id="edge12" class="edge">
<title>d271e187:d271e190&#45;&gt;d271e192:d271e193</title>
<path fill="none" stroke="black" d="M88.62,-186.6C88.62,-172.18 85.33,-166.26 83.78,-155.83"/>
<polygon fill="black" stroke="black" points="87.29,-155.84 83.11,-146.11 80.31,-156.33 87.29,-155.84"/>
</g>
<!-- d271e213 -->
<g id="node20" class="node">
<title>d271e213</title>
<ellipse fill="black" stroke="black" cx="157" cy="-101.6" rx="1.8" ry="1.8"/>
</g>
<!-- d271e187&#45;&gt;d271e213 -->
<g id="edge18" class="edge">
<title>d271e187:d271e191&#45;&gt;d271e213</title>
<path fill="none" stroke="black" d="M148.62,-186.6C148.62,-161.1 152.49,-131.46 154.97,-115.08"/>
<polygon fill="black" stroke="black" points="158.42,-115.7 156.55,-105.27 151.51,-114.59 158.42,-115.7"/>
</g>
<!-- d271e216 -->
<g id="node21" class="node">
<title>d271e216</title>
<ellipse fill="black" stroke="black" cx="56" cy="-17.8" rx="1.8" ry="1.8"/>
</g>
<!-- d271e192&#45;&gt;d271e216 -->
<g id="edge19" class="edge">
<title>d271e192:d271e194&#45;&gt;d271e216</title>
<path fill="none" stroke="black" d="M55.25,-58.6C55.25,-49.45 55.45,-39.13 55.64,-31.29"/>
<polygon fill="black" stroke="black" points="59.14,-31.65 55.92,-21.55 52.14,-31.45 59.14,-31.65"/>
</g>
<!-- d271e218 -->
<g id="node22" class="node">
<title>d271e218</title>
<ellipse fill="black" stroke="black" cx="101" cy="-17.8" rx="1.8" ry="1.8"/>
</g>
<!-- d271e192&#45;&gt;d271e218 -->
<g id="edge20" class="edge">
<title>d271e192:d271e195&#45;&gt;d271e218</title>
<path fill="none" stroke="black" d="M101,-58.6C101,-49.46 101,-39.13 101,-31.29"/>
<polygon fill="black" stroke="black" points="104.5,-31.55 101,-21.55 97.5,-31.55 104.5,-31.55"/>
</g>
<!-- d271e196 -->
<g id="node14" class="node">
<title>d271e196</title>
<polygon fill="none" stroke="black" points="275.75,-349.35 275.75,-388.35 352.25,-388.35 352.25,-349.35 275.75,-349.35"/>
<text text-anchor="start" x="278.75" y="-372.05" font-family="Times,serif" font-size="14.00">cx:document</text>
<text text-anchor="start" x="280.25" y="-355.55" font-family="Times,serif" font-size="14.00">document_6</text>
<polygon fill="none" stroke="black" points="275.75,-326.85 275.75,-349.35 352.25,-349.35 352.25,-326.85 275.75,-326.85"/>
<text text-anchor="start" x="299" y="-333.05" font-family="Times,serif" font-size="14.00">result</text>
</g>
<!-- d271e198 -->
<g id="node15" class="node">
<title>d271e198</title>
<polygon fill="none" stroke="black" points="234,-249.1 234,-271.6 275.25,-271.6 275.25,-249.1 234,-249.1"/>
<text text-anchor="start" x="237" y="-255.3" font-family="Times,serif" font-size="14.00">source</text>
<polygon fill="none" stroke="black" points="275.25,-249.1 275.25,-271.6 336,-271.6 336,-249.1 275.25,-249.1"/>
<text text-anchor="start" x="279" y="-255.3" font-family="Times,serif" font-size="14.00">stylesheet</text>
<polygon fill="none" stroke="black" points="234,-210.1 234,-249.1 336,-249.1 336,-210.1 234,-210.1"/>
<text text-anchor="start" x="270" y="-232.8" font-family="Times,serif" font-size="14.00">p:xslt</text>
<text text-anchor="start" x="268.5" y="-216.3" font-family="Times,serif" font-size="14.00">xslt_3</text>
<polygon fill="none" stroke="black" points="234,-187.6 234,-210.1 275.25,-210.1 275.25,-187.6 234,-187.6"/>
<text text-anchor="start" x="239.62" y="-193.8" font-family="Times,serif" font-size="14.00">result</text>
<polygon fill="none" stroke="black" points="275.25,-187.6 275.25,-210.1 336,-210.1 336,-187.6 275.25,-187.6"/>
<text text-anchor="start" x="278.25" y="-193.8" font-family="Times,serif" font-size="14.00">secondary</text>
</g>
<!-- d271e196&#45;&gt;d271e198 -->
<g id="edge13" class="edge">
<title>d271e196:d271e197&#45;&gt;d271e198:d271e200</title>
<path fill="none" stroke="black" d="M314,-325.85C314,-306.2 308.36,-299.08 306.34,-283.93"/>
<polygon fill="black" stroke="black" points="309.84,-283.87 305.72,-274.11 302.86,-284.31 309.84,-283.87"/>
</g>
<!-- d271e203 -->
<g id="node16" class="node">
<title>d271e203</title>
<polygon fill="none" stroke="black" points="201.25,-121.1 201.25,-143.6 292.75,-143.6 292.75,-121.1 201.25,-121.1"/>
<text text-anchor="start" x="229.38" y="-127.3" font-family="Times,serif" font-size="14.00">source</text>
<polygon fill="none" stroke="black" points="201.25,-82.1 201.25,-121.1 292.75,-121.1 292.75,-82.1 201.25,-82.1"/>
<text text-anchor="start" x="228.62" y="-104.8" font-family="Times,serif" font-size="14.00">p:store</text>
<text text-anchor="start" x="227.12" y="-88.3" font-family="Times,serif" font-size="14.00">store_2</text>
<polygon fill="none" stroke="black" points="201.25,-59.6 201.25,-82.1 237.25,-82.1 237.25,-59.6 201.25,-59.6"/>
<text text-anchor="start" x="204.25" y="-65.8" font-family="Times,serif" font-size="14.00">result</text>
<polygon fill="none" stroke="black" points="237.25,-59.6 237.25,-82.1 292.75,-82.1 292.75,-59.6 237.25,-59.6"/>
<text text-anchor="start" x="240.25" y="-65.8" font-family="Times,serif" font-size="14.00">result&#45;uri</text>
</g>
<!-- d271e198&#45;&gt;d271e203 -->
<g id="edge14" class="edge">
<title>d271e198:d271e201&#45;&gt;d271e203:d271e204</title>
<path fill="none" stroke="black" d="M254.62,-186.6C254.62,-172.07 250.16,-166.29 248.06,-155.87"/>
<polygon fill="black" stroke="black" points="251.56,-155.73 247.14,-146.11 244.59,-156.39 251.56,-155.73"/>
</g>
<!-- d271e220 -->
<g id="node23" class="node">
<title>d271e220</title>
<ellipse fill="black" stroke="black" cx="321" cy="-101.6" rx="1.8" ry="1.8"/>
</g>
<!-- d271e198&#45;&gt;d271e220 -->
<g id="edge21" class="edge">
<title>d271e198:d271e202&#45;&gt;d271e220</title>
<path fill="none" stroke="black" d="M305.62,-186.6C305.62,-172.8 313.76,-134.63 318.2,-114.84"/>
<polygon fill="black" stroke="black" points="321.58,-115.74 320.4,-105.21 314.76,-114.18 321.58,-115.74"/>
</g>
<!-- d271e222 -->
<g id="node24" class="node">
<title>d271e222</title>
<ellipse fill="black" stroke="black" cx="220" cy="-17.8" rx="1.8" ry="1.8"/>
</g>
<!-- d271e203&#45;&gt;d271e222 -->
<g id="edge22" class="edge">
<title>d271e203:d271e205&#45;&gt;d271e222</title>
<path fill="none" stroke="black" d="M219.25,-58.6C219.25,-49.45 219.45,-39.13 219.64,-31.29"/>
<polygon fill="black" stroke="black" points="223.14,-31.65 219.92,-21.55 216.14,-31.45 223.14,-31.65"/>
</g>
<!-- d271e224 -->
<g id="node25" class="node">
<title>d271e224</title>
<ellipse fill="black" stroke="black" cx="265" cy="-17.8" rx="1.8" ry="1.8"/>
</g>
<!-- d271e203&#45;&gt;d271e224 -->
<g id="edge23" class="edge">
<title>d271e203:d271e206&#45;&gt;d271e224</title>
<path fill="none" stroke="black" d="M265,-58.6C265,-49.46 265,-39.13 265,-31.29"/>
<polygon fill="black" stroke="black" points="268.5,-31.55 265,-21.55 261.5,-31.55 268.5,-31.55"/>
</g>
<!-- d271e226&#45;&gt;d271e187 -->
<g id="edge24" class="edge">
<title>d271e226:d271e228&#45;&gt;d271e187:d271e189</title>
<path fill="none" stroke="black" d="M155.62,-314.6C155.62,-300.11 151.52,-294.28 149.6,-283.85"/>
<polygon fill="black" stroke="black" points="153.1,-283.77 148.76,-274.11 146.13,-284.37 153.1,-283.77"/>
</g>
<!-- d271e226&#45;&gt;d271e198 -->
<g id="edge25" class="edge">
<title>d271e226:d271e229&#45;&gt;d271e198:d271e199</title>
<path fill="none" stroke="black" d="M220.75,-326.85C245.17,-326.85 218.15,-282.95 223.29,-266.49"/>
<polygon fill="black" stroke="black" points="225.14,-269.46 231.72,-261.16 221.4,-263.54 225.14,-269.46"/>
</g>
<!-- d271e230 -->
<g id="node27" class="node">
<title>d271e230</title>
<polygon fill="none" stroke="black" points="272.12,-1145.1 272.12,-1167.6 371.88,-1167.6 371.88,-1145.1 272.12,-1145.1"/>
<text text-anchor="start" x="299.12" y="-1151.3" font-family="Times,serif" font-size="14.00">result ⊗</text>
<polygon fill="none" stroke="black" points="272.12,-1106.1 272.12,-1145.1 371.88,-1145.1 371.88,-1106.1 272.12,-1106.1"/>
<text text-anchor="start" x="302.88" y="-1128.8" font-family="Times,serif" font-size="14.00">cx:foot</text>
<text text-anchor="start" x="275.12" y="-1112.3" font-family="Times,serif" font-size="14.00">declare&#45;step_foot</text>
<polygon fill="none" stroke="black" points="272.12,-1083.6 272.12,-1106.1 371.88,-1106.1 371.88,-1083.6 272.12,-1083.6"/>
<text text-anchor="start" x="307" y="-1089.8" font-family="Times,serif" font-size="14.00">result</text>
</g>
<!-- d271e232 -->
<g id="node29" class="node">
<title>d271e232</title>
<polygon fill="none" stroke="black" points="473.8,-1003.16 435,-1015.6 396.2,-1003.16 396.23,-983.04 473.77,-983.04 473.8,-1003.16"/>
<text text-anchor="middle" x="435" y="-992.55" font-family="Times,serif" font-size="14.00">result</text>
</g>
<!-- d271e230&#45;&gt;d271e232 -->
<g id="edge2" class="edge">
<title>d271e230:O_d271e231&#45;&gt;d271e232</title>
<path fill="none" stroke="black" d="M372.88,-1094.85C405.91,-1094.85 422.23,-1054.32 429.62,-1025.87"/>
<polygon fill="black" stroke="black" points="432.96,-1026.94 431.84,-1016.4 426.15,-1025.34 432.96,-1026.94"/>
</g>
<!-- d271e148 -->
<g id="node28" class="node">
<title>d271e148</title>
<polygon fill="none" stroke="black" points="142.77,-1224.54 186,-1212.1 229.23,-1224.54 229.19,-1244.66 142.81,-1244.66 142.77,-1224.54"/>
<text text-anchor="middle" x="186" y="-1225.05" font-family="Times,serif" font-size="14.00">source</text>
</g>
<!-- d271e148&#45;&gt;d271e152 -->
<g id="edge1" class="edge">
<title>d271e148&#45;&gt;d271e152:I_d271e153</title>
<path fill="none" stroke="black" d="M186,-1211.63C186,-1202.66 186,-1191.29 186,-1180.09"/>
<polygon fill="black" stroke="black" points="189.5,-1180.11 186,-1170.11 182.5,-1180.11 189.5,-1180.11"/>
</g>
</g>
</svg>
