<?xml version="1.0" encoding="UTF-8" standalone="no"?>
<!DOCTYPE svg PUBLIC "-//W3C//DTD SVG 1.1//EN"
 "http://www.w3.org/Graphics/SVG/1.1/DTD/svg11.dtd">
<!-- Generated by graphviz version 12.2.1 (20241206.2353)
 -->
<!-- Title: SPPF Pages: 1 -->
<svg width="1063pt" height="2231pt"
 viewBox="0.00 0.00 1063.00 2230.89" xmlns="http://www.w3.org/2000/svg" xmlns:xlink="http://www.w3.org/1999/xlink">
<g id="graph0" class="graph" transform="scale(1 1) rotate(0) translate(4 2226.89)">
<title>SPPF</title>
<polygon fill="none" stroke="none" points="-4,4 -4,-2226.89 1059,-2226.89 1059,4 -4,4"/>
<g id="clust1" class="cluster">
<title>cluster_id0</title>
<polygon fill="none" stroke="none" points="581,-1150.39 581,-1235.44 675,-1235.44 675,-1150.39 581,-1150.39"/>
</g>
<g id="clust2" class="cluster">
<title>cluster_id1</title>
<polygon fill="none" stroke="none" points="589,-1262.03 589,-1333.89 667,-1333.89 667,-1262.03 589,-1262.03"/>
</g>
<g id="clust3" class="cluster">
<title>cluster_id2</title>
<polygon fill="none" stroke="none" points="554,-1360.49 554,-1432.35 632,-1432.35 632,-1360.49 554,-1360.49"/>
</g>
<g id="clust4" class="cluster">
<title>cluster_id3</title>
<polygon fill="none" stroke="none" points="487,-1255.44 487,-1340.49 581,-1340.49 581,-1255.44 487,-1255.44"/>
</g>
<g id="clust5" class="cluster">
<title>cluster_id4</title>
<polygon fill="none" stroke="none" points="486,-1477.87 486,-1621.08 694,-1621.08 694,-1477.87 486,-1477.87"/>
</g>
<g id="clust7" class="cluster">
<title>cluster_id5</title>
<polygon fill="none" stroke="none" points="489,-113.05 489,-198.1 583,-198.1 583,-113.05 489,-113.05"/>
</g>
<g id="clust8" class="cluster">
<title>cluster_id6</title>
<polygon fill="none" stroke="none" points="522,-8 522,-93.05 616,-93.05 616,-8 522,-8"/>
</g>
<g id="clust9" class="cluster">
<title>cluster_id7</title>
<polygon fill="none" stroke="none" points="451,-243.62 451,-378.65 687,-378.65 687,-243.62 451,-243.62"/>
</g>
<g id="clust11" class="cluster">
<title>cluster_id8</title>
<polygon fill="none" stroke="none" points="695,-218.1 695,-303.15 789,-303.15 789,-218.1 695,-218.1"/>
</g>
<g id="clust12" class="cluster">
<title>cluster_id9</title>
<polygon fill="none" stroke="none" points="528,-424.17 528,-559.19 764,-559.19 764,-424.17 528,-424.17"/>
</g>
<g id="clust14" class="cluster">
<title>cluster_id10</title>
<polygon fill="none" stroke="none" points="772,-398.65 772,-483.69 866,-483.69 866,-398.65 772,-398.65"/>
</g>
<g id="clust15" class="cluster">
<title>cluster_id11</title>
<polygon fill="none" stroke="none" points="605,-604.72 605,-739.74 841,-739.74 841,-604.72 605,-604.72"/>
</g>
<g id="clust17" class="cluster">
<title>cluster_id12</title>
<polygon fill="none" stroke="none" points="849,-579.19 849,-664.24 943,-664.24 943,-579.19 849,-579.19"/>
</g>
<g id="clust18" class="cluster">
<title>cluster_id13</title>
<polygon fill="none" stroke="none" points="682,-785.27 682,-920.29 918,-920.29 918,-785.27 682,-785.27"/>
</g>
<g id="clust20" class="cluster">
<title>cluster_id14</title>
<polygon fill="none" stroke="none" points="926,-759.74 926,-844.79 1020,-844.79 1020,-759.74 926,-759.74"/>
</g>
<g id="clust21" class="cluster">
<title>cluster_id15</title>
<polygon fill="none" stroke="none" points="811,-965.82 811,-1115.61 1047,-1115.61 1047,-965.82 811,-965.82"/>
</g>
<g id="clust23" class="cluster">
<title>cluster_id16</title>
<polygon fill="none" stroke="none" points="709,-940.29 709,-1025.34 803,-1025.34 803,-940.29 709,-940.29"/>
</g>
<g id="clust24" class="cluster">
<title>cluster_id17</title>
<polygon fill="none" stroke="none" points="811,-1175.91 811,-1325.71 1047,-1325.71 1047,-1175.91 811,-1175.91"/>
</g>
<g id="clust26" class="cluster">
<title>cluster_id18</title>
<polygon fill="none" stroke="none" points="697,-1150.39 697,-1235.44 803,-1235.44 803,-1150.39 697,-1150.39"/>
</g>
<g id="clust27" class="cluster">
<title>cluster_id19</title>
<polygon fill="none" stroke="none" points="702,-1379.42 702,-1530.8 820,-1530.8 820,-1379.42 702,-1379.42"/>
</g>
<g id="clust29" class="cluster">
<title>cluster_id20</title>
<polygon fill="none" stroke="none" points="538,-1674.78 538,-1809.81 746,-1809.81 746,-1674.78 538,-1674.78"/>
</g>
<g id="clust31" class="cluster">
<title>cluster_id21</title>
<polygon fill="none" stroke="none" points="424,-1649.26 424,-1734.31 530,-1734.31 530,-1649.26 424,-1649.26"/>
</g>
<g id="clust32" class="cluster">
<title>cluster_id22</title>
<polygon fill="none" stroke="none" points="412,-1848.74 412,-1977.17 620,-1977.17 620,-1848.74 412,-1848.74"/>
</g>
<g id="clust34" class="cluster">
<title>cluster_id23</title>
<polygon fill="none" stroke="none" points="96,-1150.39 96,-1235.44 202,-1235.44 202,-1150.39 96,-1150.39"/>
</g>
<g id="clust35" class="cluster">
<title>cluster_id24</title>
<polygon fill="none" stroke="none" points="145,-1262.03 145,-1333.89 235,-1333.89 235,-1262.03 145,-1262.03"/>
</g>
<g id="clust36" class="cluster">
<title>cluster_id25</title>
<polygon fill="none" stroke="none" points="202,-1045.34 202,-1130.39 308,-1130.39 308,-1045.34 202,-1045.34"/>
</g>
<g id="clust37" class="cluster">
<title>cluster_id26</title>
<polygon fill="none" stroke="none" points="210,-1156.98 210,-1228.84 300,-1228.84 300,-1156.98 210,-1156.98"/>
</g>
<g id="clust38" class="cluster">
<title>cluster_id27</title>
<polygon fill="none" stroke="none" points="114,-1379.42 114,-1522.62 312,-1522.62 312,-1379.42 114,-1379.42"/>
</g>
<g id="clust40" class="cluster">
<title>cluster_id28</title>
<polygon fill="none" stroke="none" points="8,-1255.44 8,-1340.49 114,-1340.49 114,-1255.44 8,-1255.44"/>
</g>
<g id="clust41" class="cluster">
<title>cluster_id29</title>
<polygon fill="none" stroke="none" points="16,-1360.49 16,-1432.35 106,-1432.35 106,-1360.49 16,-1360.49"/>
</g>
<g id="clust42" class="cluster">
<title>cluster_id30</title>
<polygon fill="none" stroke="none" points="118,-1576.33 118,-1719.53 316,-1719.53 316,-1576.33 118,-1576.33"/>
</g>
<g id="clust44" class="cluster">
<title>cluster_id31</title>
<polygon fill="none" stroke="none" points="320,-1452.35 320,-1537.4 426,-1537.4 426,-1452.35 320,-1452.35"/>
</g>
<g id="clust45" class="cluster">
<title>cluster_id32</title>
<polygon fill="none" stroke="none" points="324,-1557.4 324,-1629.26 414,-1629.26 414,-1557.4 324,-1557.4"/>
</g>
<g id="clust46" class="cluster">
<title>cluster_id33</title>
<polygon fill="none" stroke="none" points="274,-1765.06 274,-1901.67 404,-1901.67 404,-1765.06 274,-1765.06"/>
</g>
<g id="clust48" class="cluster">
<title>cluster_id34</title>
<polygon fill="none" stroke="none" points="380,-1997.17 380,-2123.03 500,-2123.03 500,-1997.17 380,-1997.17"/>
</g>
<g id="clust50" class="cluster">
<title>cluster_id35</title>
<polygon fill="none" stroke="none" points="380,-2143.03 380,-2214.89 500,-2214.89 500,-2143.03 380,-2143.03"/>
</g>
<!-- nodeid0 -->
<g id="node1" class="node">
<title>nodeid0</title>
<polygon fill="white" stroke="#d55e00" stroke-width="3" points="666.89,-1203.58 628,-1227.44 589.11,-1203.58 589.14,-1164.98 666.86,-1164.98 666.89,-1203.58"/>
<text text-anchor="start" x="621.25" y="-1195.36" font-family="Arial" font-size="14.00">&#39;4&#39;</text>
<text text-anchor="start" x="613.75" y="-1179.61" font-family="Arial" font-size="14.00">« 1 »</text>
</g>
<!-- nodeid1 -->
<g id="node2" class="node">
<title>nodeid1</title>
<ellipse fill="white" stroke="#d55e00" stroke-width="3" cx="628" cy="-1297.96" rx="31.47" ry="27.93"/>
<text text-anchor="start" x="615.62" y="-1300.41" font-family="Arial" font-size="14.00">digit</text>
<text text-anchor="start" x="613.75" y="-1284.66" font-family="Arial" font-size="14.00">« 1 »</text>
</g>
<!-- nodeid1&#45;&gt;nodeid0 -->
<g id="edge1" class="edge">
<title>nodeid1&#45;&gt;nodeid0</title>
<path fill="none" stroke="black" d="M628,-1268.8C628,-1259.98 628,-1250 628,-1240.26"/>
<polygon fill="black" stroke="black" points="631.5,-1240.55 628,-1230.55 624.5,-1240.55 631.5,-1240.55"/>
</g>
<!-- nodeid2 -->
<g id="node3" class="node">
<title>nodeid2</title>
<ellipse fill="white" stroke="#d55e00" stroke-width="3" cx="593" cy="-1396.42" rx="31.47" ry="27.93"/>
<text text-anchor="start" x="582.12" y="-1398.87" font-family="Arial" font-size="14.00">day</text>
<text text-anchor="start" x="578.75" y="-1383.12" font-family="Arial" font-size="14.00">« 1 »</text>
</g>
<!-- nodeid2&#45;&gt;nodeid1 -->
<g id="edge2" class="edge">
<title>nodeid2&#45;&gt;nodeid1</title>
<path fill="none" stroke="black" d="M602.75,-1368.55C606.32,-1358.7 610.44,-1347.37 614.29,-1336.74"/>
<polygon fill="black" stroke="black" points="617.54,-1338.04 617.67,-1327.44 610.96,-1335.65 617.54,-1338.04"/>
</g>
<!-- nodeid3 -->
<g id="node4" class="node">
<title>nodeid3</title>
<polygon fill="white" stroke="#d55e00" stroke-width="3" points="572.89,-1308.63 534,-1332.49 495.11,-1308.63 495.14,-1270.03 572.86,-1270.03 572.89,-1308.63"/>
<text text-anchor="start" x="529.12" y="-1300.41" font-family="Arial" font-size="14.00">&#39; &#39;</text>
<text text-anchor="start" x="519.75" y="-1284.66" font-family="Arial" font-size="14.00">« 2 »</text>
</g>
<!-- nodeid2&#45;&gt;nodeid3 -->
<!-- nodeid4 -->
<g id="node5" class="node">
<title>nodeid4</title>
<polygon fill="white" stroke="#d55e00" stroke-width="3" points="686.12,-1613.08 493.88,-1613.08 493.88,-1573.58 686.12,-1573.58 686.12,-1613.08"/>
<text text-anchor="start" x="501.88" y="-1595.78" font-family="Arial" font-size="14.00">date ⇒ day &#39; &#39; • month &#39; &#39; year</text>
<text text-anchor="start" x="565.25" y="-1580.03" font-family="Arial" font-size="14.00">« 1 – 3 »</text>
</g>
<!-- anond3e9 -->
<g id="node6" class="node">
<title>anond3e9</title>
<ellipse fill="none" stroke="black" cx="590" cy="-1494.87" rx="9" ry="9"/>
</g>
<!-- nodeid4&#45;&gt;anond3e9 -->
<g id="edge3" class="edge">
<title>nodeid4&#45;&gt;anond3e9</title>
<path fill="none" stroke="black" d="M590,-1572.34C590,-1555.63 590,-1531.94 590,-1515.37"/>
<polygon fill="black" stroke="black" points="593.5,-1515.83 590,-1505.83 586.5,-1515.83 593.5,-1515.83"/>
</g>
<!-- nodeid19 -->
<g id="node27" class="node">
<title>nodeid19</title>
<ellipse fill="white" stroke="#d55e00" stroke-width="3" cx="761" cy="-1494.87" rx="51.09" ry="27.93"/>
<text text-anchor="start" x="741.88" y="-1497.32" font-family="Arial" font-size="14.00">month</text>
<text text-anchor="start" x="732.88" y="-1481.57" font-family="Arial" font-size="14.00">« 3 – 11 »</text>
</g>
<!-- nodeid4&#45;&gt;nodeid19 -->
<!-- anond3e9&#45;&gt;nodeid2 -->
<g id="edge5" class="edge">
<title>anond3e9&#45;&gt;nodeid2</title>
<path fill="none" stroke="black" d="M590.26,-1485.65C590.59,-1474.88 591.2,-1455.27 591.76,-1437.26"/>
<polygon fill="black" stroke="black" points="595.26,-1437.39 592.07,-1427.28 588.26,-1437.17 595.26,-1437.39"/>
</g>
<!-- anond3e9&#45;&gt;nodeid3 -->
<g id="edge6" class="edge">
<title>anond3e9&#45;&gt;nodeid3</title>
<path fill="none" stroke="black" d="M584.48,-1487.58C575.53,-1477.01 558.08,-1454.62 550,-1432.35 539.89,-1404.46 535.87,-1371.36 534.39,-1345.11"/>
<polygon fill="black" stroke="black" points="537.91,-1345.29 533.96,-1335.46 530.91,-1345.61 537.91,-1345.29"/>
</g>
<!-- nodeid5 -->
<g id="node7" class="node">
<title>nodeid5</title>
<polygon fill="white" stroke="#d55e00" stroke-width="3" points="574.89,-166.24 536,-190.1 497.11,-166.24 497.14,-127.64 574.86,-127.64 574.89,-166.24"/>
<text text-anchor="start" x="528.12" y="-158.02" font-family="Arial" font-size="14.00">&#39;N&#39;</text>
<text text-anchor="start" x="521.75" y="-142.27" font-family="Arial" font-size="14.00">« 3 »</text>
</g>
<!-- nodeid6 -->
<g id="node8" class="node">
<title>nodeid6</title>
<polygon fill="white" stroke="#d55e00" stroke-width="3" points="607.89,-61.19 569,-85.05 530.11,-61.19 530.14,-22.59 607.86,-22.59 607.89,-61.19"/>
<text text-anchor="start" x="562.25" y="-52.97" font-family="Arial" font-size="14.00">&#39;o&#39;</text>
<text text-anchor="start" x="554.75" y="-37.22" font-family="Arial" font-size="14.00">« 4 »</text>
</g>
<!-- nodeid5&#45;&gt;nodeid6 -->
<!-- nodeid7 -->
<g id="node9" class="node">
<title>nodeid7</title>
<polygon fill="white" stroke="#d55e00" stroke-width="3" points="679.38,-370.65 458.62,-370.65 458.62,-331.15 679.38,-331.15 679.38,-370.65"/>
<text text-anchor="start" x="466.62" y="-353.35" font-family="Arial" font-size="14.00">month ⇒ &#39;N&#39; &#39;o&#39; • &#39;v&#39; &#39;e&#39; &#39;m&#39; &#39;b&#39; &#39;e&#39; &#39;r&#39;</text>
<text text-anchor="start" x="544.25" y="-337.6" font-family="Arial" font-size="14.00">« 3 – 5 »</text>
</g>
<!-- anond3e15 -->
<g id="node10" class="node">
<title>anond3e15</title>
<ellipse fill="none" stroke="black" cx="569" cy="-260.62" rx="9" ry="9"/>
</g>
<!-- nodeid7&#45;&gt;anond3e15 -->
<g id="edge7" class="edge">
<title>nodeid7&#45;&gt;anond3e15</title>
<path fill="none" stroke="black" d="M569,-329.86C569,-315.23 569,-295.49 569,-281.01"/>
<polygon fill="black" stroke="black" points="572.5,-281.41 569,-271.41 565.5,-281.41 572.5,-281.41"/>
</g>
<!-- nodeid8 -->
<g id="node11" class="node">
<title>nodeid8</title>
<polygon fill="white" stroke="#d55e00" stroke-width="3" points="780.89,-271.29 742,-295.15 703.11,-271.29 703.14,-232.69 780.86,-232.69 780.89,-271.29"/>
<text text-anchor="start" x="735.62" y="-263.07" font-family="Arial" font-size="14.00">&#39;v&#39;</text>
<text text-anchor="start" x="727.75" y="-247.32" font-family="Arial" font-size="14.00">« 5 »</text>
</g>
<!-- nodeid7&#45;&gt;nodeid8 -->
<!-- anond3e15&#45;&gt;nodeid5 -->
<g id="edge9" class="edge">
<title>anond3e15&#45;&gt;nodeid5</title>
<path fill="none" stroke="black" d="M566.41,-251.54C562.64,-239.77 555.39,-217.11 548.91,-196.88"/>
<polygon fill="black" stroke="black" points="552.26,-195.87 545.88,-187.41 545.59,-198.01 552.26,-195.87"/>
</g>
<!-- anond3e15&#45;&gt;nodeid6 -->
<g id="edge10" class="edge">
<title>anond3e15&#45;&gt;nodeid6</title>
<path fill="none" stroke="black" d="M572.07,-251.82C576.41,-240.29 584.16,-217.93 587,-198.1 592.36,-160.68 592.36,-150.47 587,-113.05 585.97,-105.89 584.31,-98.4 582.4,-91.22"/>
<polygon fill="black" stroke="black" points="585.79,-90.35 579.66,-81.71 579.06,-92.29 585.79,-90.35"/>
</g>
<!-- nodeid9 -->
<g id="node12" class="node">
<title>nodeid9</title>
<polygon fill="white" stroke="#d55e00" stroke-width="3" points="756.38,-551.19 535.62,-551.19 535.62,-511.69 756.38,-511.69 756.38,-551.19"/>
<text text-anchor="start" x="543.62" y="-533.89" font-family="Arial" font-size="14.00">month ⇒ &#39;N&#39; &#39;o&#39; &#39;v&#39; • &#39;e&#39; &#39;m&#39; &#39;b&#39; &#39;e&#39; &#39;r&#39;</text>
<text text-anchor="start" x="621.25" y="-518.14" font-family="Arial" font-size="14.00">« 3 – 6 »</text>
</g>
<!-- anond3e20 -->
<g id="node13" class="node">
<title>anond3e20</title>
<ellipse fill="none" stroke="black" cx="646" cy="-441.17" rx="9" ry="9"/>
</g>
<!-- nodeid9&#45;&gt;anond3e20 -->
<g id="edge11" class="edge">
<title>nodeid9&#45;&gt;anond3e20</title>
<path fill="none" stroke="black" d="M646,-510.41C646,-495.78 646,-476.04 646,-461.56"/>
<polygon fill="black" stroke="black" points="649.5,-461.96 646,-451.96 642.5,-461.96 649.5,-461.96"/>
</g>
<!-- nodeid10 -->
<g id="node14" class="node">
<title>nodeid10</title>
<polygon fill="white" stroke="#d55e00" stroke-width="3" points="857.89,-451.84 819,-475.69 780.11,-451.84 780.14,-413.24 857.86,-413.24 857.89,-451.84"/>
<text text-anchor="start" x="812.25" y="-443.62" font-family="Arial" font-size="14.00">&#39;e&#39;</text>
<text text-anchor="start" x="804.75" y="-427.87" font-family="Arial" font-size="14.00">« 6 »</text>
</g>
<!-- nodeid9&#45;&gt;nodeid10 -->
<!-- anond3e20&#45;&gt;nodeid7 -->
<g id="edge13" class="edge">
<title>anond3e20&#45;&gt;nodeid7</title>
<path fill="none" stroke="black" d="M640.46,-433.82C630.88,-422.83 610.64,-399.63 594.13,-380.71"/>
<polygon fill="black" stroke="black" points="596.84,-378.49 587.63,-373.25 591.56,-383.09 596.84,-378.49"/>
</g>
<!-- anond3e20&#45;&gt;nodeid8 -->
<g id="edge14" class="edge">
<title>anond3e20&#45;&gt;nodeid8</title>
<path fill="none" stroke="black" d="M651.5,-433.67C660.54,-422.8 678.74,-399.99 691,-378.65 705.29,-353.76 718.17,-324.11 727.42,-300.88"/>
<polygon fill="black" stroke="black" points="730.59,-302.37 730.97,-291.78 724.07,-299.82 730.59,-302.37"/>
</g>
<!-- nodeid11 -->
<g id="node15" class="node">
<title>nodeid11</title>
<polygon fill="white" stroke="#d55e00" stroke-width="3" points="833.38,-731.74 612.62,-731.74 612.62,-692.24 833.38,-692.24 833.38,-731.74"/>
<text text-anchor="start" x="620.62" y="-714.44" font-family="Arial" font-size="14.00">month ⇒ &#39;N&#39; &#39;o&#39; &#39;v&#39; &#39;e&#39; • &#39;m&#39; &#39;b&#39; &#39;e&#39; &#39;r&#39;</text>
<text text-anchor="start" x="698.25" y="-698.69" font-family="Arial" font-size="14.00">« 3 – 7 »</text>
</g>
<!-- anond3e26 -->
<g id="node16" class="node">
<title>anond3e26</title>
<ellipse fill="none" stroke="black" cx="723" cy="-621.72" rx="9" ry="9"/>
</g>
<!-- nodeid11&#45;&gt;anond3e26 -->
<g id="edge15" class="edge">
<title>nodeid11&#45;&gt;anond3e26</title>
<path fill="none" stroke="black" d="M723,-690.96C723,-676.33 723,-656.59 723,-642.11"/>
<polygon fill="black" stroke="black" points="726.5,-642.5 723,-632.5 719.5,-642.5 726.5,-642.5"/>
</g>
<!-- nodeid12 -->
<g id="node17" class="node">
<title>nodeid12</title>
<polygon fill="white" stroke="#d55e00" stroke-width="3" points="934.89,-632.39 896,-656.24 857.11,-632.39 857.14,-593.79 934.86,-593.79 934.89,-632.39"/>
<text text-anchor="start" x="887" y="-624.17" font-family="Arial" font-size="14.00">&#39;m&#39;</text>
<text text-anchor="start" x="881.75" y="-608.42" font-family="Arial" font-size="14.00">« 7 »</text>
</g>
<!-- nodeid11&#45;&gt;nodeid12 -->
<!-- anond3e26&#45;&gt;nodeid9 -->
<g id="edge17" class="edge">
<title>anond3e26&#45;&gt;nodeid9</title>
<path fill="none" stroke="black" d="M717.46,-614.37C707.88,-603.38 687.64,-580.18 671.13,-561.26"/>
<polygon fill="black" stroke="black" points="673.84,-559.03 664.63,-553.8 668.56,-563.64 673.84,-559.03"/>
</g>
<!-- anond3e26&#45;&gt;nodeid10 -->
<g id="edge18" class="edge">
<title>anond3e26&#45;&gt;nodeid10</title>
<path fill="none" stroke="black" d="M728.5,-614.22C737.54,-603.35 755.74,-580.54 768,-559.19 782.29,-534.31 795.17,-504.65 804.42,-481.43"/>
<polygon fill="black" stroke="black" points="807.59,-482.92 807.97,-472.33 801.07,-480.37 807.59,-482.92"/>
</g>
<!-- nodeid13 -->
<g id="node18" class="node">
<title>nodeid13</title>
<polygon fill="white" stroke="#d55e00" stroke-width="3" points="910.38,-912.29 689.62,-912.29 689.62,-872.79 910.38,-872.79 910.38,-912.29"/>
<text text-anchor="start" x="697.62" y="-894.99" font-family="Arial" font-size="14.00">month ⇒ &#39;N&#39; &#39;o&#39; &#39;v&#39; &#39;e&#39; &#39;m&#39; • &#39;b&#39; &#39;e&#39; &#39;r&#39;</text>
<text text-anchor="start" x="775.25" y="-879.24" font-family="Arial" font-size="14.00">« 3 – 8 »</text>
</g>
<!-- anond3e31 -->
<g id="node19" class="node">
<title>anond3e31</title>
<ellipse fill="none" stroke="black" cx="800" cy="-802.27" rx="9" ry="9"/>
</g>
<!-- nodeid13&#45;&gt;anond3e31 -->
<g id="edge19" class="edge">
<title>nodeid13&#45;&gt;anond3e31</title>
<path fill="none" stroke="black" d="M800,-871.51C800,-856.87 800,-837.14 800,-822.65"/>
<polygon fill="black" stroke="black" points="803.5,-823.05 800,-813.05 796.5,-823.05 803.5,-823.05"/>
</g>
<!-- nodeid14 -->
<g id="node20" class="node">
<title>nodeid14</title>
<polygon fill="white" stroke="#d55e00" stroke-width="3" points="1011.89,-812.94 973,-836.79 934.11,-812.94 934.14,-774.34 1011.86,-774.34 1011.89,-812.94"/>
<text text-anchor="start" x="966.25" y="-804.72" font-family="Arial" font-size="14.00">&#39;b&#39;</text>
<text text-anchor="start" x="958.75" y="-788.97" font-family="Arial" font-size="14.00">« 8 »</text>
</g>
<!-- nodeid13&#45;&gt;nodeid14 -->
<!-- anond3e31&#45;&gt;nodeid11 -->
<g id="edge21" class="edge">
<title>anond3e31&#45;&gt;nodeid11</title>
<path fill="none" stroke="black" d="M794.46,-794.92C784.88,-783.93 764.64,-760.72 748.13,-741.81"/>
<polygon fill="black" stroke="black" points="750.84,-739.58 741.63,-734.35 745.56,-744.18 750.84,-739.58"/>
</g>
<!-- anond3e31&#45;&gt;nodeid12 -->
<g id="edge22" class="edge">
<title>anond3e31&#45;&gt;nodeid12</title>
<path fill="none" stroke="black" d="M805.5,-794.77C814.54,-783.89 832.74,-761.09 845,-739.74 859.29,-714.86 872.17,-685.2 881.42,-661.97"/>
<polygon fill="black" stroke="black" points="884.59,-663.46 884.97,-652.88 878.07,-660.91 884.59,-663.46"/>
</g>
<!-- nodeid15 -->
<g id="node21" class="node">
<title>nodeid15</title>
<polygon fill="white" stroke="#d55e00" stroke-width="3" points="1039.38,-1107.61 818.62,-1107.61 818.62,-1068.11 1039.38,-1068.11 1039.38,-1107.61"/>
<text text-anchor="start" x="826.62" y="-1090.31" font-family="Arial" font-size="14.00">month ⇒ &#39;N&#39; &#39;o&#39; &#39;v&#39; &#39;e&#39; &#39;m&#39; &#39;b&#39; • &#39;e&#39; &#39;r&#39;</text>
<text text-anchor="start" x="904.25" y="-1074.56" font-family="Arial" font-size="14.00">« 3 – 9 »</text>
</g>
<!-- anond3e36 -->
<g id="node22" class="node">
<title>anond3e36</title>
<ellipse fill="none" stroke="black" cx="929" cy="-982.82" rx="9" ry="9"/>
</g>
<!-- nodeid15&#45;&gt;anond3e36 -->
<g id="edge23" class="edge">
<title>nodeid15&#45;&gt;anond3e36</title>
<path fill="none" stroke="black" d="M929,-1067C929,-1048.73 929,-1021.81 929,-1003.58"/>
<polygon fill="black" stroke="black" points="932.5,-1003.61 929,-993.61 925.5,-1003.61 932.5,-1003.61"/>
</g>
<!-- nodeid16 -->
<g id="node23" class="node">
<title>nodeid16</title>
<polygon fill="white" stroke="#d55e00" stroke-width="3" points="794.89,-993.48 756,-1017.34 717.11,-993.48 717.14,-954.88 794.86,-954.88 794.89,-993.48"/>
<text text-anchor="start" x="749.25" y="-985.27" font-family="Arial" font-size="14.00">&#39;e&#39;</text>
<text text-anchor="start" x="741.75" y="-969.52" font-family="Arial" font-size="14.00">« 9 »</text>
</g>
<!-- nodeid15&#45;&gt;nodeid16 -->
<!-- anond3e36&#45;&gt;nodeid13 -->
<g id="edge25" class="edge">
<title>anond3e36&#45;&gt;nodeid13</title>
<path fill="none" stroke="black" d="M921.69,-976.82C905.97,-966.05 867.95,-940.04 838.56,-919.93"/>
<polygon fill="black" stroke="black" points="840.83,-917.24 830.61,-914.48 836.88,-923.02 840.83,-917.24"/>
</g>
<!-- anond3e36&#45;&gt;nodeid14 -->
<g id="edge26" class="edge">
<title>anond3e36&#45;&gt;nodeid14</title>
<path fill="none" stroke="black" d="M931,-973.68C936.53,-951.26 952.26,-887.41 962.82,-844.56"/>
<polygon fill="black" stroke="black" points="966.16,-845.63 965.16,-835.08 959.37,-843.96 966.16,-845.63"/>
</g>
<!-- nodeid17 -->
<g id="node24" class="node">
<title>nodeid17</title>
<polygon fill="white" stroke="#d55e00" stroke-width="3" points="1039.38,-1317.71 818.62,-1317.71 818.62,-1278.21 1039.38,-1278.21 1039.38,-1317.71"/>
<text text-anchor="start" x="826.62" y="-1300.41" font-family="Arial" font-size="14.00">month ⇒ &#39;N&#39; &#39;o&#39; &#39;v&#39; &#39;e&#39; &#39;m&#39; &#39;b&#39; &#39;e&#39; • &#39;r&#39;</text>
<text text-anchor="start" x="900.5" y="-1284.66" font-family="Arial" font-size="14.00">« 3 – 10 »</text>
</g>
<!-- anond3e41 -->
<g id="node25" class="node">
<title>anond3e41</title>
<ellipse fill="none" stroke="black" cx="929" cy="-1192.91" rx="9" ry="9"/>
</g>
<!-- nodeid17&#45;&gt;anond3e41 -->
<g id="edge27" class="edge">
<title>nodeid17&#45;&gt;anond3e41</title>
<path fill="none" stroke="black" d="M929,-1277.09C929,-1258.83 929,-1231.91 929,-1213.68"/>
<polygon fill="black" stroke="black" points="932.5,-1213.71 929,-1203.71 925.5,-1213.71 932.5,-1213.71"/>
</g>
<!-- nodeid18 -->
<g id="node26" class="node">
<title>nodeid18</title>
<polygon fill="white" stroke="#d55e00" stroke-width="3" points="795.45,-1203.58 750,-1227.44 704.55,-1203.58 704.59,-1164.98 795.41,-1164.98 795.45,-1203.58"/>
<text text-anchor="start" x="744.75" y="-1195.36" font-family="Arial" font-size="14.00">&#39;r&#39;</text>
<text text-anchor="start" x="732" y="-1179.61" font-family="Arial" font-size="14.00">« 10 »</text>
</g>
<!-- nodeid17&#45;&gt;nodeid18 -->
<!-- anond3e41&#45;&gt;nodeid15 -->
<g id="edge29" class="edge">
<title>anond3e41&#45;&gt;nodeid15</title>
<path fill="none" stroke="black" d="M929,-1183.48C929,-1169.85 929,-1142.31 929,-1120.44"/>
<polygon fill="black" stroke="black" points="932.5,-1120.51 929,-1110.51 925.5,-1120.51 932.5,-1120.51"/>
</g>
<!-- anond3e41&#45;&gt;nodeid16 -->
<g id="edge30" class="edge">
<title>anond3e41&#45;&gt;nodeid16</title>
<path fill="none" stroke="black" d="M920.22,-1189.92C898,-1184.42 839.04,-1166.97 807,-1130.39 781.7,-1101.51 768.77,-1059.36 762.27,-1027.67"/>
<polygon fill="black" stroke="black" points="765.74,-1027.17 760.44,-1018 758.86,-1028.47 765.74,-1027.17"/>
</g>
<!-- anond3e46 -->
<g id="node28" class="node">
<title>anond3e46</title>
<ellipse fill="none" stroke="black" cx="761" cy="-1396.42" rx="9" ry="9"/>
</g>
<!-- nodeid19&#45;&gt;anond3e46 -->
<g id="edge31" class="edge">
<title>nodeid19&#45;&gt;anond3e46</title>
<path fill="none" stroke="black" d="M761,-1465.45C761,-1449.8 761,-1430.77 761,-1416.82"/>
<polygon fill="black" stroke="black" points="764.5,-1417.19 761,-1407.19 757.5,-1417.2 764.5,-1417.19"/>
</g>
<!-- anond3e46&#45;&gt;nodeid17 -->
<g id="edge33" class="edge">
<title>anond3e46&#45;&gt;nodeid17</title>
<path fill="none" stroke="black" d="M768.66,-1391.02C788.72,-1379.5 844.03,-1347.75 884.08,-1324.75"/>
<polygon fill="black" stroke="black" points="885.66,-1327.88 892.59,-1319.86 882.18,-1321.81 885.66,-1327.88"/>
</g>
<!-- anond3e46&#45;&gt;nodeid18 -->
<g id="edge34" class="edge">
<title>anond3e46&#45;&gt;nodeid18</title>
<path fill="none" stroke="black" d="M760.56,-1387.27C759.22,-1362.73 755.15,-1288.21 752.47,-1239.17"/>
<polygon fill="black" stroke="black" points="755.98,-1239.22 751.94,-1229.42 748.99,-1239.6 755.98,-1239.22"/>
</g>
<!-- nodeid20 -->
<g id="node29" class="node">
<title>nodeid20</title>
<polygon fill="white" stroke="#d55e00" stroke-width="3" points="738.12,-1801.81 545.88,-1801.81 545.88,-1762.31 738.12,-1762.31 738.12,-1801.81"/>
<text text-anchor="start" x="553.88" y="-1784.51" font-family="Arial" font-size="14.00">date ⇒ day &#39; &#39; month • &#39; &#39; year</text>
<text text-anchor="start" x="613.88" y="-1768.76" font-family="Arial" font-size="14.00">« 1 – 11 »</text>
</g>
<!-- anond3e50 -->
<g id="node30" class="node">
<title>anond3e50</title>
<ellipse fill="none" stroke="black" cx="642" cy="-1691.78" rx="9" ry="9"/>
</g>
<!-- nodeid20&#45;&gt;anond3e50 -->
<g id="edge35" class="edge">
<title>nodeid20&#45;&gt;anond3e50</title>
<path fill="none" stroke="black" d="M642,-1761.02C642,-1746.39 642,-1726.65 642,-1712.17"/>
<polygon fill="black" stroke="black" points="645.5,-1712.57 642,-1702.57 638.5,-1712.57 645.5,-1712.57"/>
</g>
<!-- nodeid21 -->
<g id="node31" class="node">
<title>nodeid21</title>
<polygon fill="white" stroke="#d55e00" stroke-width="3" points="521.79,-1702.45 477,-1726.31 432.21,-1702.45 432.25,-1663.85 521.75,-1663.85 521.79,-1702.45"/>
<text text-anchor="start" x="472.12" y="-1694.23" font-family="Arial" font-size="14.00">&#39; &#39;</text>
<text text-anchor="start" x="459.38" y="-1678.48" font-family="Arial" font-size="14.00">« 11 »</text>
</g>
<!-- nodeid20&#45;&gt;nodeid21 -->
<!-- anond3e50&#45;&gt;nodeid4 -->
<g id="edge37" class="edge">
<title>anond3e50&#45;&gt;nodeid4</title>
<path fill="none" stroke="black" d="M637.92,-1683.21C631.16,-1670.67 617.29,-1644.94 606.2,-1624.37"/>
<polygon fill="black" stroke="black" points="609.41,-1622.95 601.58,-1615.81 603.25,-1626.28 609.41,-1622.95"/>
</g>
<!-- anond3e50&#45;&gt;nodeid19 -->
<g id="edge38" class="edge">
<title>anond3e50&#45;&gt;nodeid19</title>
<path fill="none" stroke="black" d="M648.2,-1685.17C659.28,-1674.91 682.74,-1652.06 698,-1629.26 718.12,-1599.19 735.22,-1561.7 746.5,-1534.12"/>
<polygon fill="black" stroke="black" points="749.64,-1535.7 750.12,-1525.11 743.15,-1533.09 749.64,-1535.7"/>
</g>
<!-- nodeid22 -->
<g id="node32" class="node">
<title>nodeid22</title>
<polygon fill="white" stroke="#d55e00" stroke-width="3" points="612.12,-1969.17 419.88,-1969.17 419.88,-1929.67 612.12,-1929.67 612.12,-1969.17"/>
<text text-anchor="start" x="427.88" y="-1951.87" font-family="Arial" font-size="14.00">date ⇒ day &#39; &#39; month &#39; &#39; • year</text>
<text text-anchor="start" x="487.5" y="-1936.12" font-family="Arial" font-size="14.00">« 1 – 12 »</text>
</g>
<!-- anond3e56 -->
<g id="node33" class="node">
<title>anond3e56</title>
<ellipse fill="none" stroke="black" cx="516" cy="-1865.74" rx="9" ry="9"/>
</g>
<!-- nodeid22&#45;&gt;anond3e56 -->
<g id="edge39" class="edge">
<title>nodeid22&#45;&gt;anond3e56</title>
<path fill="none" stroke="black" d="M516,-1928.23C516,-1915.33 516,-1898.7 516,-1885.99"/>
<polygon fill="black" stroke="black" points="519.5,-1886.38 516,-1876.38 512.5,-1886.38 519.5,-1886.38"/>
</g>
<!-- nodeid33 -->
<g id="node46" class="node">
<title>nodeid33</title>
<ellipse fill="white" stroke="#d55e00" stroke-width="3" cx="339" cy="-1865.74" rx="56.92" ry="27.93"/>
<text text-anchor="start" x="325.88" y="-1868.19" font-family="Arial" font-size="14.00">year</text>
<text text-anchor="start" x="306.75" y="-1852.44" font-family="Arial" font-size="14.00">« 12 – 16 »</text>
</g>
<!-- nodeid22&#45;&gt;nodeid33 -->
<!-- anond3e56&#45;&gt;nodeid20 -->
<g id="edge41" class="edge">
<title>anond3e56&#45;&gt;nodeid20</title>
<path fill="none" stroke="black" d="M523.14,-1860.11C537.94,-1850.51 572.99,-1827.79 601.21,-1809.5"/>
<polygon fill="black" stroke="black" points="603.11,-1812.44 609.6,-1804.06 599.3,-1806.56 603.11,-1812.44"/>
</g>
<!-- anond3e56&#45;&gt;nodeid21 -->
<g id="edge42" class="edge">
<title>anond3e56&#45;&gt;nodeid21</title>
<path fill="none" stroke="black" d="M514.12,-1856.44C509.24,-1834.92 495.9,-1776.1 486.62,-1735.19"/>
<polygon fill="black" stroke="black" points="490.08,-1734.62 484.45,-1725.64 483.25,-1736.17 490.08,-1734.62"/>
</g>
<!-- nodeid23 -->
<g id="node34" class="node">
<title>nodeid23</title>
<polygon fill="white" stroke="#d55e00" stroke-width="3" points="194.45,-1203.58 149,-1227.44 103.55,-1203.58 103.59,-1164.98 194.41,-1164.98 194.45,-1203.58"/>
<text text-anchor="start" x="142.25" y="-1195.36" font-family="Arial" font-size="14.00">&#39;2&#39;</text>
<text text-anchor="start" x="131" y="-1179.61" font-family="Arial" font-size="14.00">« 12 »</text>
</g>
<!-- nodeid24 -->
<g id="node35" class="node">
<title>nodeid24</title>
<ellipse fill="white" stroke="#d55e00" stroke-width="3" cx="190" cy="-1297.96" rx="36.77" ry="27.93"/>
<text text-anchor="start" x="177.62" y="-1300.41" font-family="Arial" font-size="14.00">digit</text>
<text text-anchor="start" x="172" y="-1284.66" font-family="Arial" font-size="14.00">« 12 »</text>
</g>
<!-- nodeid24&#45;&gt;nodeid23 -->
<g id="edge43" class="edge">
<title>nodeid24&#45;&gt;nodeid23</title>
<path fill="none" stroke="black" d="M179.23,-1269.89C174.79,-1258.72 169.55,-1245.57 164.7,-1233.37"/>
<polygon fill="black" stroke="black" points="168.07,-1232.38 161.12,-1224.38 161.57,-1234.96 168.07,-1232.38"/>
</g>
<!-- nodeid26 -->
<g id="node37" class="node">
<title>nodeid26</title>
<ellipse fill="white" stroke="#d55e00" stroke-width="3" cx="255" cy="-1192.91" rx="36.77" ry="27.93"/>
<text text-anchor="start" x="242.62" y="-1195.36" font-family="Arial" font-size="14.00">digit</text>
<text text-anchor="start" x="237" y="-1179.61" font-family="Arial" font-size="14.00">« 13 »</text>
</g>
<!-- nodeid24&#45;&gt;nodeid26 -->
<!-- nodeid25 -->
<g id="node36" class="node">
<title>nodeid25</title>
<polygon fill="white" stroke="#d55e00" stroke-width="3" points="300.45,-1098.53 255,-1122.39 209.55,-1098.53 209.59,-1059.93 300.41,-1059.93 300.45,-1098.53"/>
<text text-anchor="start" x="248.25" y="-1090.31" font-family="Arial" font-size="14.00">&#39;0&#39;</text>
<text text-anchor="start" x="237" y="-1074.56" font-family="Arial" font-size="14.00">« 13 »</text>
</g>
<!-- nodeid26&#45;&gt;nodeid25 -->
<g id="edge44" class="edge">
<title>nodeid26&#45;&gt;nodeid25</title>
<path fill="none" stroke="black" d="M255,-1163.75C255,-1154.93 255,-1144.95 255,-1135.21"/>
<polygon fill="black" stroke="black" points="258.5,-1135.5 255,-1125.5 251.5,-1135.5 258.5,-1135.5"/>
</g>
<!-- nodeid27 -->
<g id="node38" class="node">
<title>nodeid27</title>
<polygon fill="white" stroke="#d55e00" stroke-width="3" points="303.88,-1514.62 122.12,-1514.62 122.12,-1475.12 303.88,-1475.12 303.88,-1514.62"/>
<text text-anchor="start" x="130.12" y="-1497.32" font-family="Arial" font-size="14.00">year ⇒ digit digit • digit digit</text>
<text text-anchor="start" x="180.75" y="-1481.57" font-family="Arial" font-size="14.00">« 12 – 14 »</text>
</g>
<!-- anond3e66 -->
<g id="node39" class="node">
<title>anond3e66</title>
<ellipse fill="none" stroke="black" cx="213" cy="-1396.42" rx="9" ry="9"/>
</g>
<!-- nodeid27&#45;&gt;anond3e66 -->
<g id="edge45" class="edge">
<title>nodeid27&#45;&gt;anond3e66</title>
<path fill="none" stroke="black" d="M213,-1473.89C213,-1457.18 213,-1433.48 213,-1416.91"/>
<polygon fill="black" stroke="black" points="216.5,-1417.38 213,-1407.38 209.5,-1417.38 216.5,-1417.38"/>
</g>
<!-- nodeid29 -->
<g id="node41" class="node">
<title>nodeid29</title>
<ellipse fill="white" stroke="#d55e00" stroke-width="3" cx="61" cy="-1396.42" rx="36.77" ry="27.93"/>
<text text-anchor="start" x="48.62" y="-1398.87" font-family="Arial" font-size="14.00">digit</text>
<text text-anchor="start" x="43" y="-1383.12" font-family="Arial" font-size="14.00">« 14 »</text>
</g>
<!-- nodeid27&#45;&gt;nodeid29 -->
<!-- anond3e66&#45;&gt;nodeid24 -->
<g id="edge47" class="edge">
<title>anond3e66&#45;&gt;nodeid24</title>
<path fill="none" stroke="black" d="M211.04,-1387.19C208.43,-1376.25 203.64,-1356.16 199.29,-1337.91"/>
<polygon fill="black" stroke="black" points="202.73,-1337.28 197.01,-1328.36 195.93,-1338.9 202.73,-1337.28"/>
</g>
<!-- anond3e66&#45;&gt;nodeid26 -->
<g id="edge48" class="edge">
<title>anond3e66&#45;&gt;nodeid26</title>
<path fill="none" stroke="black" d="M217.35,-1388.26C223.32,-1378.06 233.89,-1358.56 239,-1340.49 248.99,-1305.15 252.8,-1263.39 254.23,-1233.5"/>
<polygon fill="black" stroke="black" points="257.72,-1233.91 254.62,-1223.78 250.72,-1233.63 257.72,-1233.91"/>
</g>
<!-- nodeid28 -->
<g id="node40" class="node">
<title>nodeid28</title>
<polygon fill="white" stroke="#d55e00" stroke-width="3" points="106.45,-1308.63 61,-1332.49 15.55,-1308.63 15.59,-1270.03 106.41,-1270.03 106.45,-1308.63"/>
<text text-anchor="start" x="54.25" y="-1300.41" font-family="Arial" font-size="14.00">&#39;2&#39;</text>
<text text-anchor="start" x="43" y="-1284.66" font-family="Arial" font-size="14.00">« 14 »</text>
</g>
<!-- nodeid29&#45;&gt;nodeid28 -->
<g id="edge49" class="edge">
<title>nodeid29&#45;&gt;nodeid28</title>
<path fill="none" stroke="black" d="M61,-1367C61,-1360.22 61,-1352.8 61,-1345.44"/>
<polygon fill="black" stroke="black" points="64.5,-1345.53 61,-1335.53 57.5,-1345.53 64.5,-1345.53"/>
</g>
<!-- nodeid30 -->
<g id="node42" class="node">
<title>nodeid30</title>
<polygon fill="white" stroke="#d55e00" stroke-width="3" points="307.88,-1711.53 126.12,-1711.53 126.12,-1672.03 307.88,-1672.03 307.88,-1711.53"/>
<text text-anchor="start" x="134.12" y="-1694.23" font-family="Arial" font-size="14.00">year ⇒ digit digit digit • digit</text>
<text text-anchor="start" x="184.75" y="-1678.48" font-family="Arial" font-size="14.00">« 12 – 15 »</text>
</g>
<!-- anond3e73 -->
<g id="node43" class="node">
<title>anond3e73</title>
<ellipse fill="none" stroke="black" cx="213" cy="-1593.33" rx="9" ry="9"/>
</g>
<!-- nodeid30&#45;&gt;anond3e73 -->
<g id="edge50" class="edge">
<title>nodeid30&#45;&gt;anond3e73</title>
<path fill="none" stroke="black" d="M216.17,-1670.8C215.48,-1654.09 214.5,-1630.39 213.81,-1613.82"/>
<polygon fill="black" stroke="black" points="217.32,-1614.13 213.41,-1604.28 210.33,-1614.42 217.32,-1614.13"/>
</g>
<!-- nodeid32 -->
<g id="node45" class="node">
<title>nodeid32</title>
<ellipse fill="white" stroke="#d55e00" stroke-width="3" cx="369" cy="-1593.33" rx="36.77" ry="27.93"/>
<text text-anchor="start" x="356.62" y="-1595.78" font-family="Arial" font-size="14.00">digit</text>
<text text-anchor="start" x="351" y="-1580.03" font-family="Arial" font-size="14.00">« 15 »</text>
</g>
<!-- nodeid30&#45;&gt;nodeid32 -->
<!-- anond3e73&#45;&gt;nodeid27 -->
<g id="edge52" class="edge">
<title>anond3e73&#45;&gt;nodeid27</title>
<path fill="none" stroke="black" d="M213,-1584.1C213,-1571.67 213,-1547.42 213,-1527.49"/>
<polygon fill="black" stroke="black" points="216.5,-1527.59 213,-1517.59 209.5,-1527.59 216.5,-1527.59"/>
</g>
<!-- anond3e73&#45;&gt;nodeid29 -->
<g id="edge53" class="edge">
<title>anond3e73&#45;&gt;nodeid29</title>
<path fill="none" stroke="black" d="M204.16,-1590.01C184.41,-1584.38 136.38,-1568.17 110,-1537.4 85.48,-1508.8 72.98,-1467.17 66.77,-1436.74"/>
<polygon fill="black" stroke="black" points="70.26,-1436.34 64.97,-1427.17 63.38,-1437.64 70.26,-1436.34"/>
</g>
<!-- nodeid31 -->
<g id="node44" class="node">
<title>nodeid31</title>
<polygon fill="white" stroke="#d55e00" stroke-width="3" points="418.45,-1505.54 373,-1529.4 327.55,-1505.54 327.59,-1466.94 418.41,-1466.94 418.45,-1505.54"/>
<text text-anchor="start" x="366.25" y="-1497.32" font-family="Arial" font-size="14.00">&#39;1&#39;</text>
<text text-anchor="start" x="355" y="-1481.57" font-family="Arial" font-size="14.00">« 15 »</text>
</g>
<!-- nodeid32&#45;&gt;nodeid31 -->
<g id="edge54" class="edge">
<title>nodeid32&#45;&gt;nodeid31</title>
<path fill="none" stroke="black" d="M370.17,-1564.17C370.47,-1556.99 370.79,-1549.1 371.12,-1541.3"/>
<polygon fill="black" stroke="black" points="374.6,-1541.7 371.52,-1531.56 367.61,-1541.41 374.6,-1541.7"/>
</g>
<!-- anond3e81 -->
<g id="node47" class="node">
<title>anond3e81</title>
<ellipse fill="none" stroke="black" cx="339" cy="-1782.06" rx="9" ry="9"/>
</g>
<!-- nodeid33&#45;&gt;anond3e81 -->
<g id="edge55" class="edge">
<title>nodeid33&#45;&gt;anond3e81</title>
<path fill="none" stroke="black" d="M339,-1836.63C339,-1825.46 339,-1812.89 339,-1802.73"/>
<polygon fill="black" stroke="black" points="342.5,-1802.96 339,-1792.96 335.5,-1802.96 342.5,-1802.96"/>
</g>
<!-- anond3e81&#45;&gt;nodeid30 -->
<g id="edge57" class="edge">
<title>anond3e81&#45;&gt;nodeid30</title>
<path fill="none" stroke="black" d="M332.09,-1776.06C317.28,-1765.34 281.57,-1739.5 253.83,-1719.43"/>
<polygon fill="black" stroke="black" points="256.14,-1716.78 245.99,-1713.76 252.04,-1722.45 256.14,-1716.78"/>
</g>
<!-- anond3e81&#45;&gt;nodeid32 -->
<g id="edge58" class="edge">
<title>anond3e81&#45;&gt;nodeid32</title>
<path fill="none" stroke="black" d="M340.29,-1773.03C344.1,-1749.34 355.48,-1678.51 362.71,-1633.46"/>
<polygon fill="black" stroke="black" points="366.13,-1634.25 364.26,-1623.83 359.22,-1633.14 366.13,-1634.25"/>
</g>
<!-- nodeid34 -->
<g id="node48" class="node">
<title>nodeid34</title>
<ellipse fill="white" stroke="#d55e00" stroke-width="3" cx="440" cy="-2087.1" rx="51.62" ry="27.93"/>
<text text-anchor="start" x="426.88" y="-2089.55" font-family="Arial" font-size="14.00">date</text>
<text text-anchor="start" x="411.5" y="-2073.8" font-family="Arial" font-size="14.00">« 1 – 16 »</text>
</g>
<!-- anond3e85 -->
<g id="node49" class="node">
<title>anond3e85</title>
<ellipse fill="none" stroke="black" cx="440" cy="-2014.17" rx="9" ry="9"/>
</g>
<!-- nodeid34&#45;&gt;anond3e85 -->
<g id="edge59" class="edge">
<title>nodeid34&#45;&gt;anond3e85</title>
<path fill="none" stroke="black" d="M440,-2058.06C440,-2050.32 440,-2042.08 440,-2034.91"/>
<polygon fill="black" stroke="black" points="443.5,-2035.03 440,-2025.03 436.5,-2035.03 443.5,-2035.03"/>
</g>
<!-- anond3e85&#45;&gt;nodeid22 -->
<g id="edge61" class="edge">
<title>anond3e85&#45;&gt;nodeid22</title>
<path fill="none" stroke="black" d="M446.74,-2007.6C454.97,-2000.81 469.46,-1988.84 483.07,-1977.6"/>
<polygon fill="black" stroke="black" points="485.16,-1980.42 490.65,-1971.35 480.71,-1975.02 485.16,-1980.42"/>
</g>
<!-- anond3e85&#45;&gt;nodeid33 -->
<g id="edge62" class="edge">
<title>anond3e85&#45;&gt;nodeid33</title>
<path fill="none" stroke="black" d="M434,-2007.07C427.3,-2000.12 416.32,-1988.28 408,-1977.17 390.46,-1953.73 373.01,-1925.75 360.04,-1903.82"/>
<polygon fill="black" stroke="black" points="363.08,-1902.06 355.01,-1895.2 357.03,-1905.6 363.08,-1902.06"/>
</g>
<!-- nodeid35 -->
<g id="node50" class="node">
<title>nodeid35</title>
<ellipse fill="white" stroke="#d55e00" stroke-width="3" cx="440" cy="-2178.96" rx="51.62" ry="27.93"/>
<text text-anchor="start" x="432.5" y="-2181.41" font-family="Arial" font-size="14.00">$$</text>
<text text-anchor="start" x="411.5" y="-2165.66" font-family="Arial" font-size="14.00">« 1 – 16 »</text>
</g>
<!-- nodeid35&#45;&gt;nodeid34 -->
<g id="edge63" class="edge">
<title>nodeid35&#45;&gt;nodeid34</title>
<path fill="none" stroke="black" d="M440,-2150.02C440,-2142.99 440,-2135.3 440,-2127.81"/>
<polygon fill="black" stroke="black" points="443.5,-2127.84 440,-2117.84 436.5,-2127.84 443.5,-2127.84"/>
</g>
</g>
</svg>
