<?xml version="1.0" encoding="UTF-8" standalone="no"?>
<!DOCTYPE svg PUBLIC "-//W3C//DTD SVG 1.1//EN"
 "http://www.w3.org/Graphics/SVG/1.1/DTD/svg11.dtd">
<!-- Generated by graphviz version 12.2.1 (20241206.2353)
 -->
<!-- Title: pipeline Pages: 1 -->
<svg width="170pt" height="467pt"
 viewBox="0.00 0.00 170.00 466.50" xmlns="http://www.w3.org/2000/svg" xmlns:xlink="http://www.w3.org/1999/xlink">
<g id="graph0" class="graph" transform="scale(1 1) rotate(0) translate(4 462.5)">
<title>pipeline</title>
<polygon fill="white" stroke="none" points="-4,4 -4,-462.5 166,-462.5 166,4 -4,4"/>
<g id="cluster_d156e1" class="cluster">
<title>cluster_d156e1</title>
<polygon fill="none" stroke="black" points="8,-56 8,-402.5 154,-402.5 154,-56 8,-56"/>
</g>
<g id="cluster_d156e1_head" class="cluster">
<title>cluster_d156e1_head</title>
</g>
<g id="cluster_d156e5" class="cluster">
<title>cluster_d156e5</title>
</g>
<g id="cluster_d156e1_foot" class="cluster">
<title>cluster_d156e1_foot</title>
</g>
<!-- d156e2 -->
<g id="node1" class="node">
<title>d156e2</title>
<polygon fill="none" stroke="black" points="37.77,-434.94 81,-422.5 124.23,-434.94 124.19,-455.06 37.81,-455.06 37.77,-434.94"/>
<text text-anchor="middle" x="81" y="-435.45" font-family="Times,serif" font-size="14.00">source</text>
</g>
<!-- cluster_d156e1_head -->
<g id="node2" class="node">
<title>cluster_d156e1_head</title>
<polygon fill="none" stroke="black" points="81,-386.5 23.75,-333.5 81,-280.5 138.25,-333.5 81,-386.5"/>
<polygon fill="none" stroke="black" points="60.38,-333.5 60.38,-356 101.62,-356 101.62,-333.5 60.38,-333.5"/>
<text text-anchor="start" x="63.38" y="-339.7" font-family="Times,serif" font-size="14.00">source</text>
<polygon fill="none" stroke="black" points="60.38,-311 60.38,-333.5 101.62,-333.5 101.62,-311 60.38,-311"/>
<text text-anchor="start" x="63.38" y="-317.2" font-family="Times,serif" font-size="14.00">source</text>
</g>
<!-- d156e2&#45;&gt;cluster_d156e1_head -->
<g id="edge3" class="edge">
<title>d156e2&#45;&gt;cluster_d156e1_head:d156e2_head_input</title>
<path fill="none" stroke="black" d="M81,-422.12C81,-408.16 81,-387.75 81,-368.29"/>
<polygon fill="black" stroke="black" points="84.5,-368.51 81,-358.51 77.5,-368.51 84.5,-368.51"/>
</g>
<!-- cluster_d156e5 -->
<g id="node3" class="node">
<title>cluster_d156e5</title>
<polygon fill="none" stroke="black" points="52.12,-218 52.12,-240.5 109.88,-240.5 109.88,-218 52.12,-218"/>
<text text-anchor="start" x="63.38" y="-224.2" font-family="Times,serif" font-size="14.00">source</text>
<polygon fill="none" stroke="black" points="52.12,-195.5 52.12,-218 109.88,-218 109.88,-195.5 52.12,-195.5"/>
<text text-anchor="start" x="55.12" y="-201.7" font-family="Times,serif" font-size="14.00">p:identity</text>
<polygon fill="none" stroke="black" points="52.12,-173 52.12,-195.5 109.88,-195.5 109.88,-173 52.12,-173"/>
<text text-anchor="start" x="66" y="-179.2" font-family="Times,serif" font-size="14.00">result</text>
</g>
<!-- cluster_d156e1_head&#45;&gt;cluster_d156e5 -->
<g id="edge2" class="edge">
<title>cluster_d156e1_head:d156e2_head_output&#45;&gt;cluster_d156e5:d156e6</title>
<path fill="none" stroke="black" d="M81,-310C81,-283.72 81,-274.45 81,-252.82"/>
<polygon fill="black" stroke="black" points="84.5,-253.01 81,-243.01 77.5,-253.01 84.5,-253.01"/>
</g>
<!-- cluster_d156e1_foot -->
<g id="node4" class="node">
<title>cluster_d156e1_foot</title>
<polygon fill="none" stroke="black" points="81,-133 29,-102.5 81,-72 133,-102.5 81,-133"/>
<polygon fill="none" stroke="black" points="63,-91.25 63,-113.75 99,-113.75 99,-91.25 63,-91.25"/>
<text text-anchor="start" x="66" y="-97.45" font-family="Times,serif" font-size="14.00">result</text>
</g>
<!-- cluster_d156e5&#45;&gt;cluster_d156e1_foot -->
<g id="edge1" class="edge">
<title>cluster_d156e5:d156e8&#45;&gt;cluster_d156e1_foot:d156e3_foot</title>
<path fill="none" stroke="black" d="M81,-172C81,-156.32 81,-138.62 81,-125.14"/>
<polygon fill="black" stroke="black" points="84.5,-125.23 81,-115.23 77.5,-125.23 84.5,-125.23"/>
</g>
<!-- d156e3 -->
<g id="node5" class="node">
<title>d156e3</title>
<polygon fill="none" stroke="black" points="119.8,-23.56 81,-36 42.2,-23.56 42.23,-3.44 119.77,-3.44 119.8,-23.56"/>
<text text-anchor="middle" x="81" y="-12.95" font-family="Times,serif" font-size="14.00">result</text>
</g>
<!-- cluster_d156e1_foot&#45;&gt;d156e3 -->
<g id="edge4" class="edge">
<title>cluster_d156e1_foot:d156e3_foot&#45;&gt;d156e3</title>
<path fill="none" stroke="black" d="M81,-91.38C81,-80.59 81,-62.99 81,-47.85"/>
<polygon fill="black" stroke="black" points="84.5,-47.92 81,-37.92 77.5,-47.92 84.5,-47.92"/>
</g>
</g>
</svg>
